<?xml version="1.0" encoding="utf-8"?>
<!-- Generator: Adobe Illustrator 16.0.0, SVG Export Plug-In . SVG Version: 6.00 Build 0)  -->
<!DOCTYPE svg PUBLIC "-//W3C//DTD SVG 1.1//EN" "http://www.w3.org/Graphics/SVG/1.1/DTD/svg11.dtd">
<svg version="1.1" id="Layer_1" xmlns="http://www.w3.org/2000/svg" xmlns:xlink="http://www.w3.org/1999/xlink" x="0px" y="0px"
	 width="130px" height="130px" viewBox="0 0 130 130" enable-background="new 0 0 130 130" xml:space="preserve">
<g>
	<g>
		<g>
			<g>
				<path fill="#85B4B5" d="M105.133,10.223l-12.82-7.345c-0.561-0.409-1.162-0.754-1.801-1.032l-0.189-0.107l-0.008,0.016
					c-3.449-1.402-7.904-0.896-12.764,1.909L38.064,26.459c-10.857,6.268-19.74,21.655-19.74,34.193v45.592
					c0,6.113,2.123,10.449,5.547,12.576l-0.033,0.061l14.248,8.072l8.012-13.949l31.453-18.158
					c10.855-6.268,19.74-21.656,19.74-34.193V23.875L105.133,10.223z"/>
				<path fill="#7C9FA5" d="M105.133,10.223L91.41,7.004c-0.561-0.408-3.363-0.398-4.002-0.678L86.391,5.92l-1.832-0.341
					c-3.449-1.402-2.148-4.721-7.008-1.916L38.064,26.459c-10.857,6.268-19.74,21.655-19.74,34.193v45.592
					c0,6.113,2.123,10.449,5.547,12.576l-0.033,0.061l14.248,8.072l8.012-13.949l31.453-18.158
					c10.855-6.268,19.74-21.656,19.74-34.193V23.875L105.133,10.223z"/>
				<path fill="#6E9199" d="M19.076,54.084c-0.479,2.232-0.752,4.442-0.752,6.568v45.592c0,6.113,2.123,10.449,5.547,12.576
					l-0.033,0.061l14.248,8.072l8.012-13.949l31.453-18.158c1.844-1.064,3.627-2.41,5.322-3.945L19.076,54.084z"/>
				<g>
					<path fill="#9FB8C1" d="M51.635,34.328c-10.857,6.268-19.742,21.656-19.742,34.193v45.592c0,12.537,8.885,17.666,19.742,11.396
						l39.484-22.795c10.857-6.268,19.742-21.655,19.742-34.193V22.93c0-12.537-8.885-17.665-19.742-11.396L51.635,34.328z"/>
					<path fill="#8DAAB2" d="M110.861,22.93c0-12.537-8.885-17.665-19.742-11.396L51.635,34.328
						c-10.857,6.268-19.742,21.656-19.742,34.193v45.592c0,12.537,8.885,17.666,19.742,11.396"/>
					<path fill="#B4CCD3" d="M42.865,129h-0.002c-7.158,0-11.783-5.844-11.783-14.887V68.521c0-12.828,9.037-28.484,20.146-34.897
						l39.486-22.796c3.201-1.848,6.289-2.784,9.178-2.784c7.158,0,11.785,5.844,11.785,14.886v45.592
						c0,12.829-9.039,28.484-20.148,34.898l-39.486,22.795C48.84,128.062,45.754,129,42.865,129z M99.891,9.672
						c-2.6,0-5.414,0.863-8.363,2.564L52.041,35.033c-10.66,6.155-19.334,21.178-19.334,33.488v45.592
						c0,8.178,3.891,13.258,10.156,13.258h0.002c2.6,0,5.412-0.863,8.361-2.564l39.486-22.797
						c10.66-6.154,19.334-21.178,19.334-33.488V22.93C110.047,14.752,106.156,9.672,99.891,9.672z"/>
				</g>
			</g>
		</g>
	</g>
	<g>
		<g enable-background="new    ">
			<g>
				<path d="M83.748,29.646c-2.904,1.915-6.293,6.007-8.264,9.932c-1.801,3.572-3.277,8.183-2.686,11.483
					c0.08-0.042,0.16-0.086,0.24-0.133c3.098-1.789,6.256-5.762,8.102-9.588C82.91,37.672,84.25,33.168,83.748,29.646"/>
				<path fill="#1B546B" d="M55.455,99.184c0.076,0.094,0.149,0.189,0.227,0.283C55.605,99.373,55.53,99.279,55.455,99.184
					 M55.189,98.832c0.07,0.096,0.142,0.189,0.214,0.283C55.331,99.021,55.26,98.928,55.189,98.832 M54.922,98.465
					c0.071,0.1,0.144,0.199,0.216,0.299C55.065,98.664,54.993,98.564,54.922,98.465 M54.661,98.088
					c0.075,0.111,0.151,0.219,0.228,0.33C54.812,98.307,54.736,98.199,54.661,98.088 M96.939,68.062
					c-1.262,3.986-1.863,5.787-3.496,9.624C91.17,83.03,87.965,89.9,83.973,92.242c-0.035,0.02-0.068,0.039-0.102,0.059
					c-1.721,0.992-2.822,0.973-4.072,1.037c-1.266,0.064-2.691,0.229-5.062,1.598c-0.016,0.01-0.031,0.018-0.047,0.027
					c-4.773,2.783-5.793,5.992-9.279,8.006c-0.029,0.016-0.059,0.033-0.088,0.049c-3.985,2.266-7.049-0.5-9.352-3.201
					c-0.086-0.1-0.168-0.201-0.251-0.303c0.082,0.102,0.166,0.203,0.251,0.303c2.303,2.701,5.366,5.467,9.352,3.201
					c0.029-0.016,0.059-0.033,0.088-0.049c3.486-2.014,4.506-5.223,9.279-8.006c0.016-0.01,0.031-0.018,0.047-0.027
					c2.371-1.369,3.797-1.533,5.062-1.598c1.25-0.064,2.352-0.045,4.072-1.037c0.033-0.02,0.066-0.039,0.102-0.059
					c3.992-2.342,7.197-9.212,9.471-14.556C95.076,73.85,95.678,72.049,96.939,68.062 M96.6,68.104
					c0.025-0.003,0.053-0.006,0.08-0.008C96.654,68.098,96.625,68.101,96.6,68.104 M96.334,68.127
					c0.027-0.002,0.051-0.006,0.078-0.006C96.387,68.121,96.361,68.124,96.334,68.127 M96.033,68.141c0.018,0,0.037,0,0.057,0
					C96.07,68.141,96.051,68.141,96.033,68.141 M95.752,68.145c0.031,0,0.062,0,0.094,0C95.812,68.145,95.783,68.145,95.752,68.145
					 M95.508,68.139c0.027,0.002,0.057,0.002,0.084,0.004C95.562,68.141,95.535,68.141,95.508,68.139 M95.195,68.119
					c0.031,0.002,0.062,0.006,0.092,0.008C95.256,68.125,95.227,68.121,95.195,68.119 M94.953,68.095
					c0.035,0.005,0.07,0.009,0.105,0.012C95.023,68.104,94.988,68.1,94.953,68.095 M94.725,68.062
					c0.033,0.006,0.068,0.012,0.104,0.016C94.793,68.072,94.758,68.068,94.725,68.062 M94.424,68.01
					c0.035,0.006,0.072,0.014,0.109,0.021C94.496,68.023,94.459,68.016,94.424,68.01 M94.209,67.96
					c0.037,0.009,0.074,0.018,0.111,0.026C94.283,67.978,94.246,67.969,94.209,67.96 M93.922,67.881
					c0.061,0.02,0.123,0.035,0.184,0.053C94.045,67.916,93.982,67.9,93.922,67.881 M93.713,67.814
					c0.037,0.014,0.074,0.025,0.111,0.037C93.787,67.84,93.75,67.828,93.713,67.814 M93.516,67.744
					c0.037,0.014,0.072,0.027,0.109,0.04C93.588,67.771,93.553,67.758,93.516,67.744 M93.246,67.632
					c0.059,0.026,0.119,0.052,0.182,0.077C93.365,67.684,93.305,67.658,93.246,67.632 M93.057,67.544
					c0.035,0.018,0.07,0.034,0.105,0.05C93.127,67.578,93.092,67.562,93.057,67.544 M92.873,67.451
					c0.033,0.018,0.07,0.035,0.105,0.054C92.943,67.486,92.906,67.469,92.873,67.451 M92.623,67.309
					c0.057,0.032,0.115,0.067,0.172,0.098C92.738,67.376,92.68,67.342,92.623,67.309 M92.451,67.199
					c0.031,0.021,0.062,0.041,0.096,0.062C92.514,67.24,92.482,67.221,92.451,67.199 M92.283,67.086
					c0.029,0.02,0.061,0.041,0.09,0.062C92.344,67.127,92.312,67.106,92.283,67.086 M92.057,66.916
					c0.029,0.021,0.055,0.043,0.084,0.064C92.111,66.959,92.086,66.938,92.057,66.916 M91.898,66.787
					c0.025,0.021,0.053,0.043,0.078,0.064C91.951,66.83,91.924,66.809,91.898,66.787 M91.74,66.649
					c0.023,0.02,0.047,0.038,0.068,0.06C91.787,66.688,91.764,66.669,91.74,66.649 M91.543,66.459
					c0.02,0.021,0.043,0.043,0.062,0.063C91.586,66.502,91.562,66.48,91.543,66.459 M91.396,66.309
					c0.02,0.021,0.037,0.041,0.057,0.062C91.434,66.35,91.416,66.329,91.396,66.309 M91.252,66.148
					c0.008,0.01,0.018,0.02,0.025,0.029C91.27,66.168,91.26,66.159,91.252,66.148 M91.08,65.943
					c0.014,0.017,0.025,0.033,0.039,0.049C91.107,65.977,91.094,65.96,91.08,65.943 M90.945,65.772
					c0.01,0.012,0.02,0.023,0.029,0.035C90.965,65.796,90.955,65.784,90.945,65.772 M90.668,65.371
					c0.004,0.008,0.008,0.014,0.012,0.02C90.676,65.385,90.674,65.379,90.668,65.371 M84.863,43.689
					c-4.891,2.824-6.953,6.705-10.348,8.666c-3.504,2.021-6.17,0.881-10.395,3.32c-4.154,2.397-8.568,7.867-11.359,14.471
					c-3.634,8.615-3.287,20.252,1.891,27.928c-2.195-3.258-3.509-7.23-4.032-11.385c3.567-1.098,7.362-2.759,11.287-5.025
					c10.964-6.33,20.821-16.086,27.794-26.617c0.834-3.588,2.668-7.467,5.598-11.021C92.496,41.613,88.566,41.553,84.863,43.689"/>
				<path d="M89.709,55.035c-0.002,0.005-0.006,0.008-0.008,0.012c-6.973,10.531-16.83,20.287-27.794,26.617
					c-3.925,2.267-7.72,3.928-11.287,5.025c0.523,4.154,1.837,8.127,4.032,11.385c0.003,0.006,0.006,0.01,0.009,0.014
					c0.075,0.111,0.151,0.219,0.228,0.33c0.012,0.014,0.021,0.031,0.033,0.047c0.071,0.1,0.144,0.199,0.216,0.299
					c0.018,0.023,0.034,0.045,0.052,0.068c0.07,0.096,0.142,0.189,0.214,0.283c0.018,0.021,0.035,0.045,0.052,0.068
					c0.075,0.096,0.15,0.189,0.227,0.283c0.012,0.016,0.025,0.031,0.038,0.047c0.083,0.102,0.165,0.203,0.251,0.303
					c2.303,2.701,5.366,5.467,9.352,3.201c0.029-0.016,0.059-0.033,0.088-0.049c3.486-2.014,4.506-5.223,9.279-8.006
					c0.016-0.01,0.031-0.018,0.047-0.027c2.371-1.369,3.797-1.533,5.062-1.598c1.25-0.064,2.352-0.045,4.072-1.037
					c0.033-0.02,0.066-0.039,0.102-0.059c3.992-2.342,7.197-9.212,9.471-14.556c1.633-3.837,2.234-5.638,3.496-9.624
					c-0.088,0.012-0.174,0.023-0.26,0.033c-0.027,0.002-0.055,0.005-0.08,0.008c-0.062,0.006-0.125,0.012-0.188,0.018
					c-0.027,0-0.051,0.004-0.078,0.006c-0.082,0.006-0.164,0.009-0.244,0.014c-0.02,0-0.039,0-0.057,0
					c-0.062,0.002-0.125,0.004-0.188,0.004c-0.031,0-0.062,0-0.094,0c-0.053,0-0.107-0.002-0.16-0.002
					c-0.027-0.002-0.057-0.002-0.084-0.004c-0.074-0.003-0.148-0.006-0.221-0.012c-0.029-0.002-0.061-0.006-0.092-0.008
					c-0.045-0.004-0.092-0.008-0.137-0.013c-0.035-0.003-0.07-0.007-0.105-0.012c-0.041-0.005-0.084-0.011-0.125-0.017
					c-0.035-0.004-0.07-0.01-0.104-0.016c-0.064-0.009-0.129-0.02-0.191-0.032c-0.037-0.007-0.074-0.015-0.109-0.021
					c-0.035-0.008-0.07-0.016-0.104-0.023c-0.037-0.009-0.074-0.018-0.111-0.026c-0.035-0.009-0.068-0.018-0.104-0.026
					c-0.061-0.018-0.123-0.033-0.184-0.053c-0.033-0.01-0.064-0.02-0.098-0.029c-0.037-0.012-0.074-0.023-0.111-0.037
					c-0.029-0.01-0.059-0.021-0.088-0.03c-0.037-0.013-0.072-0.026-0.109-0.04c-0.029-0.012-0.059-0.023-0.088-0.035
					c-0.062-0.025-0.123-0.051-0.182-0.077c-0.029-0.012-0.057-0.026-0.084-0.038c-0.035-0.016-0.07-0.032-0.105-0.05
					c-0.027-0.013-0.053-0.026-0.078-0.039c-0.035-0.019-0.072-0.036-0.105-0.054c-0.027-0.016-0.053-0.03-0.078-0.045
					c-0.057-0.03-0.115-0.065-0.172-0.098c-0.025-0.018-0.051-0.032-0.076-0.047c-0.033-0.021-0.064-0.041-0.096-0.062
					c-0.025-0.017-0.053-0.034-0.078-0.052c-0.029-0.021-0.061-0.042-0.09-0.062c-0.049-0.035-0.096-0.07-0.143-0.105
					c-0.029-0.021-0.055-0.043-0.084-0.064c-0.025-0.021-0.053-0.043-0.08-0.064c-0.025-0.021-0.053-0.043-0.078-0.064
					c-0.031-0.025-0.061-0.053-0.09-0.078c-0.021-0.021-0.045-0.04-0.068-0.06c-0.045-0.042-0.09-0.085-0.135-0.127
					c-0.02-0.021-0.043-0.042-0.062-0.063c-0.029-0.03-0.059-0.06-0.09-0.089c-0.02-0.021-0.037-0.041-0.057-0.062
					c-0.041-0.043-0.08-0.086-0.119-0.131c-0.008-0.01-0.018-0.02-0.025-0.029c-0.045-0.051-0.09-0.104-0.133-0.156
					c-0.014-0.016-0.025-0.032-0.039-0.049c-0.035-0.045-0.07-0.09-0.105-0.136c-0.01-0.012-0.02-0.023-0.029-0.035
					c-0.092-0.124-0.18-0.251-0.266-0.382c-0.004-0.006-0.008-0.012-0.012-0.02C89.109,62.953,88.74,59.188,89.709,55.035"/>
			</g>
		</g>
	</g>
</g>
</svg>
