<?xml version="1.0" encoding="utf-8"?>
<!-- Generator: Adobe Illustrator 16.0.0, SVG Export Plug-In . SVG Version: 6.00 Build 0)  -->
<!DOCTYPE svg PUBLIC "-//W3C//DTD SVG 1.1//EN" "http://www.w3.org/Graphics/SVG/1.1/DTD/svg11.dtd">
<svg version="1.1" id="Layer_1" xmlns="http://www.w3.org/2000/svg" xmlns:xlink="http://www.w3.org/1999/xlink" x="0px" y="0px"
	 width="130px" height="130px" viewBox="0 0 130 130" enable-background="new 0 0 130 130" xml:space="preserve">
<g>
	<g>
		<g enable-background="new    ">
			<g>
				<g>
					<path fill="#FCF7C5" d="M17.768,120.627c-0.053-0.031-0.108-0.062-0.162-0.098C17.659,120.564,17.715,120.596,17.768,120.627z"
						/>
					<path fill="#FCF7C5" d="M20.079,121.906c-0.792-0.385-1.562-0.812-2.312-1.279C18.513,121.096,19.284,121.52,20.079,121.906z"
						/>
					<path fill="#FCF7C5" d="M20.126,121.932c0,0,0-0.002,0.002-0.004c-0.017-0.006-0.032-0.014-0.049-0.021
						C20.096,121.914,20.109,121.924,20.126,121.932z"/>
					<path fill="#FCF7C5" d="M17.605,120.529c-0.782-0.494-1.541-1.027-2.268-1.607C16.064,119.506,16.825,120.033,17.605,120.529z"
						/>
					<path fill="#FFF3A9" d="M105.439,11.377l-1.852,1.268l-1.393,0.951l-2.518,1.727l-0.025-0.283
						c-7.955,35.656-39.113,76.938-76.655,99.26c-0.07,0.365-0.15,0.73-0.239,1.096c-0.189,0.777-0.418,1.547-0.688,2.307
						c-0.197,0.564-0.417,1.117-0.654,1.666c-0.002,0.004-0.006,0.014-0.008,0.018c-0.066,0.15-0.132,0.301-0.202,0.449
						c-0.019,0.041-0.036,0.082-0.055,0.123c-0.056,0.119-0.111,0.234-0.167,0.352c-0.029,0.057-0.056,0.113-0.082,0.168
						c-0.052,0.105-0.105,0.209-0.157,0.312c-0.032,0.061-0.063,0.123-0.094,0.184c-0.058,0.107-0.113,0.215-0.171,0.322
						c-0.031,0.055-0.058,0.107-0.089,0.16c-0.086,0.16-0.175,0.318-0.264,0.473c9.345,4.537,21.81,3.438,35.506-4.471
						c28.829-16.645,52.134-56.994,52.042-90.137C107.656,21.336,106.875,16.006,105.439,11.377z"/>
				</g>
				<path fill="#75360B" d="M102.562,1.098c-0.033-0.018-0.061-0.043-0.094-0.055l-0.02-0.012l-0.002,0.008
					c-0.217-0.074-0.484-0.045-0.781,0.125c-0.033,0.018-0.068,0.039-0.102,0.064c-0.674,0.465-1.17,1.447-1.113,2.189l0.336,3.832
					c-0.969,1.209-1.57,2.812-1.457,4.105l0.322,3.684l0.025,0.283l7.285,4.391l2.443-8.16l0.426-6.088L102.562,1.098z"/>
				<path fill="#8C4719" d="M102.469,1.043l-0.02-0.012l-0.002,0.008c-0.217-0.074-0.484-0.045-0.781,0.125
					c-0.033,0.018-0.068,0.039-0.102,0.064c-0.48,0.332-0.859,0.928-1.025,1.512c-0.012,0.195-0.041,0.396-0.023,0.582l0.322,3.684
					l0.025,0.283l7.285,4.391l1.631-5.443l0.053-0.771l-7.27-4.367C102.529,1.08,102.502,1.055,102.469,1.043z"/>
				<path fill="#281000" d="M21.399,115.232c-2.138,1.234-4.251,2.365-6.362,3.443c0.1,0.084,0.2,0.166,0.301,0.246
					c0.49,0.389,1.011,0.73,1.524,1.08c0.239,0.164,0.463,0.348,0.706,0.502c0.827,0.523,1.679,1.004,2.558,1.428
					c0.089-0.156,0.18-0.316,0.266-0.477c0.031-0.053,0.058-0.105,0.089-0.16c0.058-0.107,0.113-0.215,0.171-0.322
					c0.03-0.061,0.062-0.123,0.094-0.184c0.052-0.104,0.105-0.207,0.157-0.312c0.026-0.055,0.053-0.111,0.082-0.168
					c0.056-0.117,0.113-0.232,0.167-0.352c0.019-0.041,0.036-0.082,0.055-0.123c0.07-0.148,0.136-0.299,0.202-0.449
					c0.002-0.004,0.006-0.014,0.008-0.018c0.237-0.549,0.457-1.102,0.654-1.666c0.27-0.76,0.498-1.529,0.688-2.307
					c0.089-0.365,0.169-0.73,0.239-1.096c0.002-0.008,0.004-0.014,0.004-0.021C22.477,114.6,21.939,114.924,21.399,115.232z"/>
				<path fill="#703812" d="M20.645,119.311l-5.607-0.635c0,0,5.02,4.516,12.375,7.646L20.645,119.311z"/>
				<polygon fill="#AA5D29" points="22.997,114.299 15.037,118.676 22.324,123.064 25.484,122.164 30.283,118.688 				"/>
				<path fill="#75360B" d="M109.76,6.301l0.02-0.064l0.053-0.771l-7.27-4.367c-0.033-0.018-0.061-0.043-0.094-0.055l-0.02-0.012
					l-0.002,0.008c-0.217-0.074-0.484-0.045-0.781,0.125c-0.033,0.018-0.068,0.039-0.102,0.064c-0.34,0.234-0.596,0.613-0.795,1.016
					l7.258,4.371L109.76,6.301z"/>
			</g>
		</g>
	</g>
	<g>
		<g enable-background="new    ">
			<g>
				<path fill="#EABC49" d="M112.725,15.766l-1.852,1.268c-1.832,29.754-20.049,74.73-55.949,95.457
					c-7.702,4.447-16.223,7.777-25.566,9.602c-0.198,0.562-0.418,1.117-0.654,1.664c-0.003,0.004-0.007,0.014-0.009,0.018
					c-0.065,0.15-0.132,0.301-0.201,0.449c-0.019,0.041-0.037,0.082-0.056,0.123c-0.056,0.119-0.111,0.234-0.167,0.352
					c-0.028,0.057-0.056,0.113-0.082,0.168c-0.052,0.107-0.105,0.209-0.156,0.312c-0.033,0.061-0.064,0.123-0.095,0.186
					c-0.058,0.105-0.113,0.213-0.171,0.32c-0.031,0.055-0.058,0.107-0.089,0.16c-0.086,0.16-0.177,0.322-0.266,0.479
					c-1.693-0.82-3.302-1.826-4.788-3.012c9.622,7.752,24.108,7.881,40.296-1.465c28.83-16.645,52.135-56.994,52.043-90.137
					C114.943,25.725,114.162,20.395,112.725,15.766"/>
				<path fill="#FFDC6C" d="M110.873,17.033l-1.391,0.953c-6.555,34.045-33.871,75.725-72.975,98.301
					c-2.12,1.223-4.276,2.391-6.464,3.498c-0.188,0.775-0.417,1.545-0.687,2.307c9.344-1.824,17.864-5.154,25.566-9.602
					C90.824,91.764,109.041,46.787,110.873,17.033"/>
				<path fill="#FCE583" d="M106.939,19.428c-7.955,35.656-39.113,76.938-76.656,99.26c-0.07,0.367-0.15,0.73-0.239,1.098
					c2.188-1.107,4.344-2.275,6.464-3.498c39.104-22.576,66.42-64.256,72.975-98.301l-2.52,1.727L106.939,19.428"/>
				<path fill="#562300" d="M107.248,15.164c-0.021,0.014-0.039,0.018-0.057,0.018c-0.16,0-0.066-0.705,0.227-1.557
					c0.27-0.793,0.607-1.443,0.797-1.555c0.016-0.008,0.033-0.016,0.047-0.016c0.176-0.008,0.084,0.695-0.211,1.562
					C107.785,14.389,107.439,15.053,107.248,15.164 M108.85,5.617c-0.672,0.465-1.168,1.449-1.111,2.189l0.334,3.834
					c-0.967,1.207-1.57,2.811-1.457,4.104l0.324,3.684l0.023,0.285l2.52-1.727l1.391-0.953l1.852-1.268l0.143-0.098l-3.416,2.312
					L108.85,5.617"/>
				<path fill="#281000" d="M108.951,5.553c-0.033,0.02-0.068,0.039-0.102,0.064l0.602,12.363l3.416-2.312l-0.348-3.965
					c-0.111-1.297-0.922-1.93-1.986-1.748l-0.332-3.832C110.133,5.424,109.596,5.18,108.951,5.553"/>
				<path fill="#8C4719" d="M108.215,12.07c-0.189,0.111-0.527,0.762-0.797,1.555c-0.293,0.852-0.387,1.557-0.227,1.557
					c0.018,0,0.035-0.004,0.057-0.018c0.191-0.111,0.537-0.775,0.803-1.547c0.295-0.867,0.387-1.57,0.211-1.562
					C108.248,12.055,108.23,12.062,108.215,12.07"/>
				<path fill="#8C4719" d="M27.938,125.363c-0.058,0.105-0.113,0.213-0.171,0.32C27.824,125.576,27.88,125.469,27.938,125.363
					 M28.188,124.865c-0.052,0.107-0.105,0.209-0.156,0.312C28.083,125.074,28.137,124.973,28.188,124.865 M28.438,124.346
					c-0.054,0.119-0.111,0.234-0.167,0.352C28.326,124.58,28.382,124.465,28.438,124.346 M28.694,123.773
					c-0.065,0.15-0.132,0.301-0.201,0.449C28.562,124.074,28.629,123.924,28.694,123.773 M22.324,123.064l7.002-0.9
					c-0.189,0.537-0.397,1.066-0.623,1.592c0.236-0.547,0.456-1.102,0.654-1.664c0.27-0.762,0.498-1.531,0.687-2.307
					c0.089-0.367,0.169-0.73,0.239-1.098c0.002-0.008,0.004-0.012,0.004-0.021c-0.524,0.322-1.062,0.646-1.601,0.955
					C26.548,120.855,24.435,121.986,22.324,123.064 M22.324,123.064c0.099,0.084,0.199,0.166,0.3,0.246
					c1.486,1.186,3.095,2.191,4.788,3.012c0.089-0.156,0.18-0.318,0.266-0.479c-0.086,0.16-0.177,0.316-0.266,0.479
					C25.604,125.445,23.89,124.359,22.324,123.064"/>
				<path fill="#281000" d="M22.324,123.064c1.565,1.295,3.279,2.381,5.088,3.258c0.089-0.162,0.18-0.318,0.266-0.479
					c0.031-0.053,0.058-0.105,0.089-0.16c0.058-0.107,0.113-0.215,0.171-0.32c0.03-0.062,0.062-0.125,0.095-0.186
					c0.051-0.104,0.104-0.205,0.156-0.312c0.026-0.055,0.054-0.111,0.082-0.168c0.056-0.117,0.113-0.232,0.167-0.352
					c0.019-0.041,0.037-0.082,0.056-0.123c0.069-0.148,0.136-0.299,0.201-0.449c0.002-0.004,0.006-0.014,0.009-0.018
					c0.226-0.525,0.434-1.055,0.623-1.592L22.324,123.064z"/>
			</g>
		</g>
	</g>
</g>
</svg>
