<?xml version="1.0" encoding="utf-8"?>
<!-- Generator: Adobe Illustrator 16.0.0, SVG Export Plug-In . SVG Version: 6.00 Build 0)  -->
<!DOCTYPE svg PUBLIC "-//W3C//DTD SVG 1.1//EN" "http://www.w3.org/Graphics/SVG/1.1/DTD/svg11.dtd">
<svg version="1.1" id="Layer_1" xmlns="http://www.w3.org/2000/svg" xmlns:xlink="http://www.w3.org/1999/xlink" x="0px" y="0px"
	 width="130px" height="130px" viewBox="0 0 130 130" enable-background="new 0 0 130 130" xml:space="preserve">
<g>
	<g>
		<path fill="#93B2B2" d="M105.133,10.223l-12.82-7.344c-0.561-0.409-1.162-0.754-1.8-1.033l-0.19-0.107l-0.008,0.016
			c-3.449-1.402-7.904-0.895-12.764,1.91L38.064,26.459c-10.856,6.269-19.74,21.656-19.74,34.193v45.592
			c0,6.113,2.124,10.449,5.547,12.577l-0.033,0.06l14.248,8.072l8.012-13.949l31.453-18.158c10.856-6.268,19.74-21.655,19.74-34.193
			V23.875L105.133,10.223z"/>
		<path fill="#82A2A3" d="M105.133,10.223L91.411,7.004c-0.562-0.408-3.364-0.398-4.003-0.677L86.391,5.92l-1.832-0.34
			c-3.448-1.402-2.148-4.721-7.008-1.916L38.064,26.459c-10.856,6.269-19.74,21.656-19.74,34.193v45.592
			c0,6.113,2.124,10.449,5.547,12.577l-0.033,0.06l14.248,8.072l8.012-13.949l31.453-18.158c10.856-6.268,19.74-21.655,19.74-34.193
			V23.875L105.133,10.223z"/>
		<path fill="#78989B" d="M19.076,54.084c-0.479,2.232-0.752,4.443-0.752,6.568v45.592c0,6.113,2.124,10.449,5.547,12.577
			l-0.033,0.06l14.248,8.072l8.012-13.949l31.453-18.158c1.844-1.064,3.627-2.41,5.322-3.945L19.076,54.084z"/>
		<g>
			<path fill="#FFFFFF" d="M51.635,34.328c-10.857,6.269-19.741,21.656-19.741,34.193v45.592c0,12.537,8.884,17.666,19.741,11.397
				l39.485-22.796c10.856-6.268,19.741-21.654,19.741-34.193V22.931c0-12.538-8.885-17.665-19.741-11.397L51.635,34.328z"/>
			<path opacity="0.2" fill="#9FBEC1" d="M110.861,22.931c0-12.538-8.885-17.665-19.741-11.397L51.635,34.328
				c-10.857,6.269-19.741,21.656-19.741,34.193v45.592c0,12.537,8.884,17.666,19.741,11.397"/>
			<path fill="#9AB3B7" d="M42.865,129h-0.002c-7.158,0-11.783-5.844-11.783-14.887V68.521c0-12.828,9.037-28.484,20.147-34.897
				l39.485-22.796c3.201-1.848,6.289-2.783,9.178-2.783c7.158,0,11.785,5.844,11.785,14.886v45.591
				c0,12.83-9.039,28.485-20.148,34.898l-39.485,22.795C48.841,128.062,45.754,129,42.865,129z M99.891,9.673
				c-2.6,0-5.414,0.863-8.363,2.564L52.042,35.033c-10.66,6.155-19.334,21.178-19.334,33.488v45.592
				c0,8.178,3.891,13.258,10.155,13.258h0.002c2.6,0,5.413-0.863,8.362-2.564l39.485-22.796
				c10.66-6.155,19.334-21.179,19.334-33.489V22.931C110.047,14.753,106.156,9.673,99.891,9.673z"/>
		</g>
	</g>
	<g>
		<g>
			<polygon fill="#262222" points="94.271,29.089 94.271,68.349 89.414,71.152 89.414,31.894 			"/>
			<polygon fill="#262222" points="52.976,52.902 52.976,92.162 50.445,93.586 50.445,54.328 			"/>
			<polygon fill="#262222" points="65.178,45.914 65.178,85.174 60.32,87.978 60.32,48.719 			"/>
			<polygon fill="#262222" points="75.519,39.955 75.519,79.215 74.165,79.966 74.165,40.708 			"/>
			<polygon fill="#262222" points="56.152,51.148 56.152,90.406 54.799,91.158 54.799,51.898 			"/>
			<polygon fill="#262222" points="72.859,41.476 72.859,80.734 71.507,81.485 71.507,42.228 			"/>
			<polygon fill="#262222" points="58.052,49.967 58.052,89.227 57.799,89.363 57.799,50.105 			"/>
			<polygon fill="#262222" points="70.202,42.996 70.202,82.254 67.914,83.559 67.914,44.3 			"/>
			<polygon fill="#262222" points="87.262,33.121 87.262,72.379 78.099,77.675 78.099,38.417 			"/>
		</g>
		<g>
			<polygon fill="#262222" points="94.271,79.564 94.271,85.174 89.414,87.978 89.414,82.369 			"/>
			<polygon fill="#262222" points="52.976,103.379 52.976,108.988 50.445,110.412 50.445,104.805 			"/>
			<polygon fill="#262222" points="65.178,96.39 65.178,101.998 60.32,104.803 60.32,99.194 			"/>
			<polygon fill="#262222" points="75.519,90.431 75.519,96.039 74.165,96.791 74.165,91.184 			"/>
			<polygon fill="#262222" points="56.152,101.623 56.152,107.231 54.799,107.983 54.799,102.375 			"/>
			<polygon fill="#262222" points="72.859,91.951 72.859,97.56 71.507,98.311 71.507,92.703 			"/>
			<polygon fill="#262222" points="58.052,100.443 58.052,106.051 57.799,106.189 57.799,100.581 			"/>
			<polygon fill="#262222" points="70.202,93.472 70.202,99.078 67.914,100.385 67.914,94.775 			"/>
			<polygon fill="#262222" points="87.262,83.596 87.262,89.204 78.099,94.5 78.099,88.893 			"/>
		</g>
		<g>
			<path fill="#AF1E1E" d="M50.972,99.656c0.121,0,0.242-0.029,0.351-0.094l43.3-25c0.336-0.192,0.451-0.622,0.257-0.957
				c-0.194-0.334-0.621-0.451-0.956-0.256l-43.302,25c-0.335,0.193-0.45,0.621-0.257,0.956
				C50.495,99.53,50.729,99.656,50.972,99.656z"/>
		</g>
	</g>
</g>
</svg>
