<?xml version="1.0" encoding="utf-8"?>
<!-- Generator: Adobe Illustrator 16.0.0, SVG Export Plug-In . SVG Version: 6.00 Build 0)  -->
<!DOCTYPE svg PUBLIC "-//W3C//DTD SVG 1.1//EN" "http://www.w3.org/Graphics/SVG/1.1/DTD/svg11.dtd">
<svg version="1.1" id="Layer_1" xmlns="http://www.w3.org/2000/svg" xmlns:xlink="http://www.w3.org/1999/xlink" x="0px" y="0px"
	 width="130px" height="130px" viewBox="0 0 130 130" enable-background="new 0 0 130 130" xml:space="preserve">
<g>
	<path fill="#8C9588" d="M20.253,126.674c-0.503,0.289-0.503,0.764,0,1.055l1.825,1.053c0.503,0.291,1.324,0.291,1.827,0
		l85.842-49.561c0.503-0.289,0.503-0.764,0-1.055l-1.826-1.053c-0.503-0.291-1.324-0.291-1.827,0L20.253,126.674z"/>
	<g>
		<path fill="#E82625" d="M29.384,100.311l-5.479,3.164c-0.503,0.291-0.913,1.002-0.913,1.582v14.762c0,0.58,0.41,0.818,0.913,0.527
			l5.479-3.162c0.503-0.291,0.914-1.002,0.914-1.582v-14.764C30.298,100.258,29.887,100.022,29.384,100.311z"/>
		<path fill="#D62627" d="M30.298,100.838c0-0.58-0.411-0.816-0.914-0.527l-5.479,3.164c-0.503,0.291-0.913,1.002-0.913,1.582
			v14.762c0,0.58,0.41,0.818,0.913,0.527"/>
	</g>
	<g>
		<path fill="#F37524" d="M41.84,72.038l-5.479,3.164c-0.503,0.291-0.913,1.002-0.913,1.582v35.852c0,0.58,0.41,0.818,0.913,0.527
			L41.84,110c0.503-0.291,0.914-1.002,0.914-1.582V72.565C42.754,71.985,42.343,71.749,41.84,72.038z"/>
		<path fill="#EB6B24" d="M42.754,72.565c0-0.58-0.411-0.816-0.914-0.527l-5.479,3.164c-0.503,0.291-0.913,1.002-0.913,1.582v35.852
			c0,0.58,0.41,0.818,0.913,0.527"/>
	</g>
	<g>
		<path fill="#F05E22" d="M54.296,75.399l-5.479,3.164c-0.502,0.291-0.913,1.002-0.913,1.582v25.307c0,0.58,0.411,0.818,0.913,0.527
			l5.479-3.162c0.503-0.291,0.914-1.002,0.914-1.582V75.926C55.21,75.346,54.799,75.11,54.296,75.399z"/>
		<path fill="#ED5723" d="M55.21,75.926c0-0.58-0.411-0.816-0.914-0.527l-5.479,3.164c-0.502,0.291-0.913,1.002-0.913,1.582v25.307
			c0,0.58,0.411,0.818,0.913,0.527"/>
	</g>
	<g>
		<path fill="#FBB21F" d="M66.753,47.125l-5.479,3.164c-0.502,0.291-0.913,1.002-0.913,1.582v46.396c0,0.58,0.411,0.818,0.913,0.527
			l5.479-3.162c0.503-0.291,0.913-1.004,0.913-1.582V47.653C67.666,47.073,67.256,46.836,66.753,47.125z"/>
		<path fill="#F69125" d="M67.666,47.653c0-0.58-0.41-0.816-0.913-0.527l-5.479,3.164c-0.502,0.291-0.913,1.002-0.913,1.582v46.396
			c0,0.58,0.411,0.818,0.913,0.527"/>
	</g>
	<g>
		<path fill="#96C94F" d="M79.209,18.852l-5.479,3.164c-0.503,0.291-0.914,1.002-0.914,1.582v67.486c0,0.58,0.411,0.818,0.914,0.527
			l5.479-3.164c0.502-0.289,0.913-1.002,0.913-1.58V19.379C80.122,18.799,79.711,18.563,79.209,18.852z"/>
		<path fill="#78B743" d="M80.122,19.379c0-0.58-0.411-0.816-0.913-0.527l-5.479,3.164c-0.503,0.291-0.914,1.002-0.914,1.582v67.486
			c0,0.58,0.411,0.818,0.914,0.527"/>
	</g>
	<g>
		<path fill="#4EBD9A" d="M91.665,1.124l-5.479,3.164c-0.502,0.291-0.913,1.002-0.913,1.582v78.031c0,0.58,0.411,0.818,0.913,0.527
			l5.479-3.164c0.503-0.289,0.913-1.002,0.913-1.58V1.651C92.578,1.071,92.168,0.834,91.665,1.124z"/>
		<path fill="#1DB692" d="M92.578,1.651c0-0.58-0.41-0.816-0.913-0.527l-5.479,3.164c-0.502,0.291-0.913,1.002-0.913,1.582v78.031
			c0,0.58,0.411,0.818,0.913,0.527"/>
	</g>
	<g>
		<path fill="#FDD41B" d="M104.121,25.575l-5.479,3.164c-0.503,0.291-0.914,1.002-0.914,1.582v46.396
			c0,0.58,0.411,0.818,0.914,0.527l5.479-3.164c0.502-0.289,0.913-1.002,0.913-1.58V26.102
			C105.034,25.522,104.623,25.286,104.121,25.575z"/>
		<path fill="#F0C318" d="M105.034,26.102c0-0.58-0.411-0.816-0.913-0.527l-5.479,3.164c-0.503,0.291-0.914,1.002-0.914,1.582
			v46.396c0,0.58,0.411,0.818,0.914,0.527"/>
	</g>
</g>
</svg>
