<?xml version="1.0" encoding="utf-8"?>
<!-- Generator: Adobe Illustrator 16.0.0, SVG Export Plug-In . SVG Version: 6.00 Build 0)  -->
<!DOCTYPE svg PUBLIC "-//W3C//DTD SVG 1.1//EN" "http://www.w3.org/Graphics/SVG/1.1/DTD/svg11.dtd">
<svg version="1.1" id="Layer_1" xmlns="http://www.w3.org/2000/svg" xmlns:xlink="http://www.w3.org/1999/xlink" x="0px" y="0px"
	 width="130px" height="130px" viewBox="0 0 130 130" enable-background="new 0 0 130 130" xml:space="preserve">
<g>
	<g>
		<g>
			<g>
				<polygon fill="#BF8621" points="9.507,32.883 65,64.922 65,129 9.507,96.96 				"/>
			</g>
			<g>
				<polyline fill="#B77A18" points="9.507,32.883 65,64.922 65,129 				"/>
			</g>
			<g>
				<polygon fill="#A87118" points="120.493,32.883 65,64.922 65,129 120.493,96.96 				"/>
			</g>
			<g>
				<polyline fill="#966215" points="120.493,32.883 65,64.922 65,129 				"/>
			</g>
		</g>
		<g>
			<polygon fill="#D39E35" points="9.507,33.039 65,65.078 120.493,33.039 65,1 			"/>
		</g>
		<g>
			<polyline fill="#D39337" points="9.507,33.039 65,65.078 120.493,33.039 			"/>
		</g>
	</g>
	<polygon fill="#D39337" points="30.213,44.979 30.214,60.979 40.662,66.979 40.593,50.986 	"/>
	<polyline fill="#E2A047" points="40.593,50.986 30.213,44.979 30.214,60.979 	"/>
	<polygon fill="#EAB659" points="30.213,44.957 44.07,36.958 54.49,43.006 40.605,50.942 	"/>
	<polyline fill="#F7C961" points="44.07,36.958 54.49,43.006 40.605,50.942 	"/>
	<polygon fill="#EAB659" points="72.408,21.484 86.266,13.485 96.686,19.533 82.801,27.47 	"/>
	<polyline fill="#F7C961" points="86.266,13.485 96.686,19.533 82.801,27.47 	"/>
	<polygon fill="#1E1506" points="75.24,102.995 75.287,115.003 85.714,109.022 85.714,97.042 89.142,95.021 80.463,86.813 
		71.783,104.979 	"/>
</g>
</svg>
