<?xml version="1.0" encoding="utf-8"?>
<!-- Generator: Adobe Illustrator 16.0.0, SVG Export Plug-In . SVG Version: 6.00 Build 0)  -->
<!DOCTYPE svg PUBLIC "-//W3C//DTD SVG 1.1//EN" "http://www.w3.org/Graphics/SVG/1.1/DTD/svg11.dtd">
<svg version="1.1" id="Layer_1" xmlns="http://www.w3.org/2000/svg" xmlns:xlink="http://www.w3.org/1999/xlink" x="0px" y="0px"
	 width="130px" height="130px" viewBox="0 0 130 130" enable-background="new 0 0 130 130" xml:space="preserve">
<g>
	<g>
		<g>
			<g>
				<g>
					<g>
						<polygon fill="#231F20" points="76.572,31.26 76.635,51.357 70.739,54.76 70.739,34.627 						"/>
						<polygon fill="#474747" points="64.907,51.393 70.739,54.76 70.739,34.627 64.844,31.224 						"/>
					</g>
					<g>
						<polygon fill="#D89859" points="64.907,51.393 64.907,58.127 88.236,71.633 88.236,64.881 						"/>
						<polygon fill="#D39659" points="94.006,61.494 94.006,68.229 88.236,71.633 88.236,64.881 						"/>
						<polyline fill="#BC7C42" points="88.236,71.633 88.236,64.881 94.006,61.494 						"/>
						<polygon fill="#FFC183" points="76.635,51.357 94.006,61.494 88.236,64.881 70.771,54.76 						"/>
						<polyline fill="#FFD2A9" points="70.771,54.76 76.635,51.357 94.006,61.494 						"/>
					</g>
				</g>
				<polygon fill="#5E5E5E" points="64.844,31.224 70.739,27.855 76.572,31.26 70.739,34.627 				"/>
			</g>
			<g>
				<g>
					<polygon fill="#54310A" points="76.853,91.887 76.915,105.32 71.02,108.724 71.02,95.254 					"/>
					<polygon fill="#874F12" points="65.188,105.356 71.02,108.724 71.02,95.254 65.124,91.85 					"/>
					<polyline fill="#AD6217" points="71.02,95.254 65.124,91.85 65.188,105.356 					"/>
				</g>
				<g>
					<polygon fill="#9FA4A5" points="47.721,122.211 71.052,108.741 82.717,115.477 59.387,128.945 					"/>
					<polygon fill="#AA340B" points="65.188,105.356 65.188,112.091 76.915,118.862 76.915,112.109 					"/>
					<polygon fill="#FF4403" points="82.685,108.724 82.685,115.459 76.915,118.862 76.915,112.109 					"/>
					<polygon fill="#CE4109" points="76.915,105.32 82.685,108.724 76.915,112.109 71.051,108.724 					"/>
				</g>
			</g>
			<g>
				<polygon fill="#724309" points="53.554,91.922 76.885,78.451 76.885,91.922 53.554,105.392 				"/>
				<polyline fill="#54310A" points="53.554,105.392 53.554,91.922 76.885,78.451 				"/>
				<polygon fill="#995B1D" points="41.889,85.187 53.554,91.922 53.554,105.392 41.889,98.656 				"/>
				<polyline fill="#874F12" points="41.889,85.187 53.554,91.922 53.554,105.392 				"/>
				<polygon fill="#9B5D1F" points="41.889,85.187 65.219,71.717 76.885,78.451 53.554,91.922 				"/>
			</g>
			<g>
				<polygon fill="#0BAF88" points="53.554,51.512 76.885,38.042 76.885,78.451 53.554,91.922 				"/>
				<polyline fill="#07A083" points="53.554,91.922 53.554,51.512 76.885,38.042 				"/>
				<polygon fill="#C98549" points="62.271,38.298 71.014,33.25 71.014,48.393 62.271,53.44 				"/>
				<polygon fill="#B26C38" points="62.271,38.298 71.014,33.25 71.014,44.777 62.271,53.44 				"/>
				<polygon fill="#0A678C" points="41.889,44.777 53.554,51.512 53.554,91.922 41.889,85.187 				"/>
				<polygon fill="#097B8E" points="41.889,44.777 65.219,31.307 76.885,38.042 53.554,51.512 				"/>
			</g>
			<g>
				<polygon fill="#242A2B" points="61.249,81.303 61.249,72.365 61.994,71.93 61.994,80.867 				"/>
				<polygon fill="#4B5356" points="61.249,81.303 61.249,72.365 58.628,70.854 58.628,79.791 				"/>
				<polyline fill="#3B4244" points="61.249,81.303 61.249,72.365 58.628,70.854 				"/>
				<g>
					<polygon fill="#4B5356" points="61.994,71.933 61.248,72.369 58.628,70.857 59.403,70.434 					"/>
					<polyline fill="#555D60" points="61.994,71.933 61.248,72.369 58.628,70.857 					"/>
				</g>
			</g>
			<g>
				<g>
					<polygon fill="#54310A" points="59.387,102.006 59.449,115.44 53.554,118.844 53.554,105.373 					"/>
					<polygon fill="#874F12" points="47.722,115.494 53.554,118.861 53.554,105.392 47.658,101.988 					"/>
					<polyline fill="#AD6217" points="53.554,105.392 47.658,101.988 47.722,115.494 					"/>
				</g>
				<g>
					<polygon fill="#AA340B" points="47.722,115.494 47.722,122.229 59.449,129 59.449,122.247 					"/>
					<polygon fill="#FF4403" points="65.219,118.861 65.219,125.596 59.449,129 59.449,122.247 					"/>
					<polygon fill="#A3A17B" points="65.188,112.091 76.915,118.862 76.915,116.55 65.188,109.778 					"/>
					<polygon fill="#D8D8A9" points="76.915,118.862 82.685,115.459 82.685,113.146 76.915,116.55 					"/>
					<polygon fill="#A3A17B" points="47.722,122.229 59.449,129 59.449,126.688 47.722,119.916 					"/>
					<polygon fill="#D8D8A9" points="59.449,129 65.219,125.596 65.219,123.283 59.449,126.688 					"/>
					<polygon fill="#CE4109" points="59.449,115.459 65.219,118.861 59.449,122.247 53.585,118.861 					"/>
				</g>
			</g>
			<g>
				<g>
					<g>
						<polygon fill="#0BAF88" points="47.723,48.181 47.785,68.277 41.89,71.681 41.89,51.549 						"/>
						<polygon fill="#097B8E" points="36.058,68.312 41.89,71.681 41.89,51.549 35.994,48.145 						"/>
					</g>
					<g>
						<polygon fill="#E0A96C" points="36.058,68.312 36.058,75.048 59.386,88.555 59.386,81.801 						"/>
						<polyline fill="#D89859" points="59.386,88.555 59.386,81.801 36.058,68.312 						"/>
						<polygon fill="#D39659" points="65.156,78.416 65.156,85.15 59.386,88.555 59.386,81.801 						"/>
						<polyline fill="#BC7C42" points="59.386,88.555 59.386,81.801 65.156,78.416 						"/>
						<polygon fill="#FFC183" points="47.785,68.277 65.156,78.416 59.386,81.801 41.921,71.681 						"/>
						<polyline fill="#FFD2A9" points="41.921,71.681 47.785,68.277 65.156,78.416 						"/>
					</g>
				</g>
				<polygon fill="#059995" points="35.994,48.145 41.889,44.777 47.723,48.181 41.89,51.549 				"/>
			</g>
			<g>
				<path fill="#C90505" d="M60.853,73.383h-9.258v2.762c0,0.006,0,0.012,0,0.017v0.082h0.007c0.038,0.655,0.483,1.304,1.345,1.802
					c1.803,1.041,4.752,1.041,6.555,0c0.861-0.498,1.306-1.146,1.344-1.802h0.008V73.383z"/>
				<path fill="#991107" d="M52.946,78.045c1.803,1.041,4.752,1.041,6.555,0c0.861-0.498,1.306-1.146,1.344-1.802h0.008v-2.86
					h-7.906V78.045z"/>
				<path fill="#FF4F12" d="M59.501,71.304c-1.803-1.04-4.752-1.04-6.555,0c-1.804,1.042-1.804,2.744,0,3.784
					c1.803,1.041,4.752,1.041,6.555,0C61.304,74.048,61.304,72.346,59.501,71.304z"/>
				<path fill="#FF7915" d="M59.501,71.304c-1.803-1.04-4.752-1.04-6.555,0"/>
				<path fill="#EA3B0C" d="M52.946,75.088c1.803,1.041,4.752,1.041,6.555,0c1.803-1.04,1.803-2.742,0-3.784"/>
				<path fill="#ADBEC4" d="M58.43,71.922c-1.214-0.699-3.198-0.699-4.411,0c-1.214,0.701-1.214,1.848,0,2.548
					c1.213,0.7,3.197,0.7,4.411,0C59.643,73.77,59.643,72.623,58.43,71.922z"/>
				<path fill="#84A4AD" d="M54.019,74.47c1.213,0.7,3.197,0.7,4.411,0c1.213-0.7,1.213-1.847,0-2.548"/>
			</g>
			<g>
				<polygon fill="#242A2B" points="53.405,86.435 53.405,77.496 54.15,77.061 54.15,85.998 				"/>
				<polygon fill="#4B5356" points="53.405,86.435 53.405,77.496 50.784,75.984 50.784,84.922 				"/>
				<polyline fill="#3B4244" points="53.405,86.435 53.405,77.496 50.784,75.984 				"/>
				<g>
					<polygon fill="#4B5356" points="54.15,77.064 53.404,77.5 50.784,75.988 51.56,75.565 					"/>
					<polyline fill="#555D60" points="54.15,77.064 53.404,77.5 50.784,75.988 					"/>
				</g>
			</g>
			<g>
				<polygon fill="#D39659" points="59.449,21.189 76.935,11.095 76.935,41.381 59.449,51.476 				"/>
				<polyline fill="#C98549" points="59.449,51.476 59.449,21.189 76.935,11.095 				"/>
				<polygon fill="#231F20" points="59.449,21.189 59.449,27.946 76.935,17.852 76.935,11.095 				"/>
				<polyline fill="#070606" points="76.935,11.095 59.449,21.189 59.449,27.946 				"/>
				<polygon fill="#FFC183" points="41.964,11.095 59.449,21.189 59.449,51.476 41.964,41.381 				"/>
				<polyline fill="#E0A96C" points="41.964,11.095 59.449,21.189 59.449,51.476 				"/>
				<polygon fill="#474747" points="53.554,24.586 59.449,27.99 59.449,21.189 41.964,11.095 41.964,41.381 53.554,48.072 				"/>
				<polyline fill="#332E2F" points="53.554,48.072 53.554,24.586 59.449,27.99 59.449,21.189 41.964,11.095 				"/>
				<polygon fill="#5E5E5E" points="41.964,11.095 59.449,1 76.935,11.095 59.449,21.189 				"/>
				<polyline fill="#4C4A4B" points="76.935,11.095 59.449,21.189 41.964,11.095 				"/>
			</g>
			<g>
				<polygon fill="#231F20" points="61.819,36.199 61.819,40.528 65.588,38.354 65.562,34.039 				"/>
				<polygon fill="#AD2D00" points="67.247,42.311 67.247,45.25 69.806,43.773 69.788,40.844 				"/>
				<polygon fill="#231F20" points="70.796,30.98 70.796,35.311 74.564,33.135 74.538,28.821 				"/>
			</g>
		</g>
		<g>
			<polygon fill="#EAE9BB" points="61.261,116.516 61.261,117.471 58.384,119.131 58.384,118.176 			"/>
			<polygon fill="#D8D8A9" points="60.423,116.043 61.261,116.527 58.385,118.188 57.548,117.703 			"/>
			<g>
				<polyline fill="#A3A17B" points="57.548,117.703 58.384,118.188 58.384,119.131 57.546,118.647 				"/>
			</g>
		</g>
		<g>
			<polygon fill="#EAE9BB" points="63.535,117.824 63.535,118.778 60.659,120.439 60.659,119.484 			"/>
			<polygon fill="#D8D8A9" points="62.698,117.352 63.535,117.836 60.659,119.495 59.822,119.011 			"/>
			<g>
				<polyline fill="#A3A17B" points="59.822,119.011 60.659,119.495 60.659,120.439 59.821,119.955 				"/>
			</g>
		</g>
		<g>
			<polygon fill="#EAE9BB" points="78.913,106.445 78.913,107.4 76.037,109.062 76.037,108.105 			"/>
			<polygon fill="#D8D8A9" points="78.076,105.974 78.913,106.457 76.037,108.117 75.2,107.633 			"/>
			<g>
				<polyline fill="#A3A17B" points="75.2,107.633 76.037,108.117 76.037,109.062 75.199,108.578 				"/>
			</g>
		</g>
		<g>
			<polygon fill="#EAE9BB" points="81.188,107.754 81.188,108.709 78.312,110.369 78.312,109.414 			"/>
			<polygon fill="#D8D8A9" points="80.351,107.281 81.188,107.766 78.312,109.426 77.476,108.941 			"/>
			<g>
				<polyline fill="#A3A17B" points="77.476,108.941 78.312,109.426 78.312,110.369 77.474,109.886 				"/>
			</g>
		</g>
	</g>
	<g>
		<path fill="#FFEC00" d="M66.624,69.871c3.956-2.309,7.211-7.955,7.231-12.549c0.021-4.593-3.217-6.473-7.193-4.176
			c-3.978,2.297-7.233,7.943-7.233,12.549S62.667,72.18,66.624,69.871z"/>
		<path fill="#0BAF88" d="M59.429,65.695c0,4.605,3.238,6.484,7.195,4.176c3.956-2.309,7.211-7.955,7.231-12.549"/>
		<path fill="#FFCE00" d="M66.662,53.146c-3.978,2.297-7.233,7.943-7.233,12.549s3.238,6.484,7.195,4.176"/>
	</g>
</g>
</svg>
