<?xml version="1.0" encoding="utf-8"?>
<!-- Generator: Adobe Illustrator 16.0.0, SVG Export Plug-In . SVG Version: 6.00 Build 0)  -->
<!DOCTYPE svg PUBLIC "-//W3C//DTD SVG 1.1//EN" "http://www.w3.org/Graphics/SVG/1.1/DTD/svg11.dtd">
<svg version="1.1" id="Layer_1" xmlns="http://www.w3.org/2000/svg" xmlns:xlink="http://www.w3.org/1999/xlink" x="0px" y="0px"
	 width="130px" height="130px" viewBox="0 0 130 130" enable-background="new 0 0 130 130" xml:space="preserve">
<g>
	<g>
		<polygon fill="#FF5B00" points="51.706,121.502 64.999,129 64.999,111.226 56.342,106.227 		"/>
		<g>
			<polygon fill="#CE4906" points="64.999,129 78.294,121.502 73.658,106.227 64.999,111.226 			"/>
		</g>
		<polygon fill="#FF7900" points="56.342,98.494 51.706,120.512 64.999,128.01 64.999,103.493 		"/>
		<polyline opacity="0.2" fill="#F46437" points="64.999,128.01 64.999,103.493 56.342,98.494 		"/>
		<polygon fill="#FF5B00" points="73.658,98.494 78.294,120.512 64.999,128.01 64.999,103.493 		"/>
		<polyline opacity="0.2" fill="#F46437" points="64.999,128.01 64.999,103.493 73.658,98.494 		"/>
		<polygon fill="#FF8B00" points="64.999,93.494 56.342,98.494 64.999,103.493 73.658,98.494 		"/>
		<polyline opacity="0.2" fill="#F46437" points="56.342,98.494 64.999,103.493 73.658,98.494 		"/>
		<polygon opacity="0.6" fill="#F46437" points="57.727,99.294 64.999,103.493 72.189,99.342 72.189,98.602 57.727,98.602 		"/>
		<path opacity="0.4" fill="#9B9B9B" d="M62.684,97.156c1.274-0.735,3.358-0.735,4.633,0c1.272,0.736,1.272,1.939,0,2.675
			c-1.275,0.735-3.359,0.735-4.633,0S61.41,97.893,62.684,97.156z"/>
	</g>
	<g>
		<polygon fill="#FF7900" points="55.853,88.881 57.727,98.602 64.999,102.912 64.999,94.163 		"/>
		<polyline opacity="0.2" fill="#F46437" points="64.999,102.912 64.999,94.163 55.853,88.881 		"/>
		<polygon fill="#FF5B00" points="74.147,88.881 72.273,98.602 64.999,102.912 64.999,94.163 		"/>
		<polyline opacity="0.2" fill="#F46437" points="64.999,102.912 64.999,94.163 74.147,88.881 		"/>
		<polygon fill="#FF8B00" points="64.999,83.6 55.853,88.881 64.999,94.163 74.147,88.881 		"/>
		<polyline opacity="0.2" fill="#F46437" points="55.853,88.881 64.999,94.163 74.147,88.881 		"/>
		<polygon opacity="0.6" fill="#F46437" points="60.003,91.277 64.999,94.163 69.999,91.276 69.999,88.786 60.003,88.786 		"/>
		<path opacity="0.4" fill="#9B9B9B" d="M62.554,87.469c1.345-0.777,3.548-0.777,4.893,0c1.346,0.777,1.346,2.049,0,2.825
			c-1.346,0.777-3.548,0.777-4.894,0C61.207,89.518,61.207,88.246,62.554,87.469z"/>
	</g>
	<g>
		<path fill="#602796" d="M69.996,88.787v-1.186h-9.993v1.185c-0.04,0.771,0.44,1.55,1.455,2.136c1.948,1.125,5.136,1.125,7.084,0
			C69.556,90.336,70.038,89.558,69.996,88.787z"/>
		<path fill="#50187C" d="M69.996,88.787v-1.186h-8.538v3.32c1.948,1.125,5.136,1.125,7.084,0
			C69.556,90.336,70.038,89.558,69.996,88.787z"/>
		<path fill="#1E0C33" d="M68.571,90.902c0.992-0.582,1.466-1.354,1.425-2.115v-1.186h-1.425V90.902z"/>
		<path fill="#6C37AA" d="M68.542,85.707c-1.948-1.125-5.137-1.125-7.084,0c-1.949,1.125-1.949,2.967,0,4.091
			c1.948,1.125,5.136,1.125,7.084,0C70.491,88.674,70.491,86.832,68.542,85.707z"/>
		<path fill="#602796" d="M61.458,89.798c1.948,1.125,5.136,1.125,7.084,0c1.949-1.124,1.949-2.966,0-4.091"/>
		<path opacity="0.2" fill="#C98B41" enable-background="new    " d="M66.686,86.779c-0.927-0.536-2.444-0.536-3.373,0
			c-0.927,0.535-0.927,1.412,0,1.947c0.929,0.535,2.446,0.535,3.374,0S67.614,87.314,66.686,86.779z"/>
	</g>
	<g>
		<g>
			<path fill="#604426" d="M65.249,88.588c-1.233,0-2.481-0.299-2.481-1.531L60.511,3.232C60.511,2,63.768,1,65,1
				s4.489,1,4.489,2.232l-2.257,83.824C67.232,88.289,66.481,88.588,65.249,88.588z"/>
		</g>
		<g>
			<path fill="#422B16" d="M65,88.588c-1.232,0-2.232-0.299-2.232-1.531L65,8.015C65,6.782,63.768,1,65,1s4.489,1,4.489,2.232
				l-2.257,83.824C67.232,88.289,66.232,88.588,65,88.588z"/>
		</g>
	</g>
</g>
</svg>
