<?xml version="1.0" encoding="utf-8"?>
<!-- Generator: Adobe Illustrator 16.0.0, SVG Export Plug-In . SVG Version: 6.00 Build 0)  -->
<!DOCTYPE svg PUBLIC "-//W3C//DTD SVG 1.1//EN" "http://www.w3.org/Graphics/SVG/1.1/DTD/svg11.dtd">
<svg version="1.1" id="Layer_1" xmlns="http://www.w3.org/2000/svg" xmlns:xlink="http://www.w3.org/1999/xlink" x="0px" y="0px"
	 width="130px" height="130px" viewBox="0 0 130 130" enable-background="new 0 0 130 130" xml:space="preserve">
<g>
	<g>
		<path opacity="0.4" fill="#9B9B9B" d="M77.813,72.709c7.828-4.521,20.639-4.521,28.467,0s7.828,11.916,0,16.436
			c-7.83,4.521-20.641,4.521-28.469,0C69.983,84.625,69.983,77.229,77.813,72.709z"/>
		<g>
			<g>
				<path fill="#44403C" enable-background="new    " d="M105.214,78.792V38.169H78.878V78.79c-0.109,2.032,1.16,4.085,3.832,5.628
					c5.135,2.965,13.537,2.965,18.672,0C104.054,82.876,105.323,80.823,105.214,78.792z"/>
				<path fill="#302D29" enable-background="new    " d="M105.214,78.792V38.169H82.71v46.249c5.135,2.965,13.537,2.965,18.672,0
					C104.054,82.876,105.323,80.823,105.214,78.792z"/>
				<path fill="#3C3244" enable-background="new    " d="M101.458,84.369c2.615-1.537,3.863-3.566,3.756-5.577V38.169h-3.756V84.369
					z"/>
				<path fill="#5E5A56" enable-background="new    " d="M101.382,33.176c-5.135-2.965-13.537-2.965-18.672,0s-5.135,7.816,0,10.781
					s13.537,2.965,18.672,0C106.519,40.992,106.519,36.141,101.382,33.176z"/>
				<path fill="#44403C" enable-background="new    " d="M82.71,43.957c5.135,2.965,13.537,2.965,18.672,0
					c5.137-2.965,5.137-7.816,0-10.781"/>
				<path opacity="0.2" fill="#C98B41" enable-background="new    " d="M96.489,36c-2.443-1.412-6.443-1.412-8.889,0
					c-2.443,1.412-2.443,3.721,0,5.133c2.445,1.412,6.445,1.412,8.891,0C98.935,39.721,98.935,37.412,96.489,36z"/>
			</g>
			<path fill="#EF9D18" d="M92.046,1.268c3.77-2.178,6.854,9.501,6.854,13.851c0,4.353-3.084,9.694-6.854,11.872
				c-3.775,2.18-6.855,0.395-6.855-3.957C85.19,18.684,88.271,3.445,92.046,1.268z"/>
			<path fill="#FFA41F" d="M92.046,1.268c3.77-2.178,6.854,9.501,6.854,13.851c0,4.353-3.084,9.694-6.854,11.872"/>
			<path opacity="0.8" fill="#EF9D18" d="M92.046,7.842c2.84-1.64,5.164,7.158,5.164,10.434c0,3.279-2.324,7.305-5.164,8.943
				c-2.844,1.643-5.164,0.298-5.164-2.98C86.882,20.963,89.202,9.482,92.046,7.842z"/>
			<path opacity="0.8" fill="#EF9D18" d="M92.046,7.842c2.84-1.64,5.164,7.158,5.164,10.434c0,3.279-2.324,7.305-5.164,8.943"/>
			<g>
				<path fill="#BFB8B4" d="M92.046,39.307c-0.422,0-0.766-0.344-0.766-0.767V25.268c0-0.422,0.344-0.766,0.766-0.766
					s0.766,0.344,0.766,0.766V38.54C92.812,38.963,92.468,39.307,92.046,39.307z"/>
			</g>
			<path opacity="0.6" fill="#E56813" d="M92.046,13.737c1.859-1.073,3.381,4.685,3.381,6.831c0,2.146-1.521,4.78-3.381,5.854
				c-1.861,1.074-3.381,0.195-3.381-1.951C88.665,22.326,90.185,14.811,92.046,13.737z"/>
		</g>
	</g>
	<g>
		<path opacity="0.4" fill="#9B9B9B" d="M23.722,84.9c7.826-4.52,20.639-4.52,28.467,0c7.828,4.521,7.828,11.916,0,16.438
			c-7.83,4.521-20.641,4.521-28.469,0C15.892,96.816,15.892,89.422,23.722,84.9z"/>
		<g>
			<g>
				<path fill="#602796" d="M51.122,90.984V50.361H24.786v40.621c-0.109,2.033,1.16,4.085,3.832,5.627
					c5.135,2.967,13.537,2.967,18.672,0C49.962,95.068,51.231,93.016,51.122,90.984z"/>
				<path fill="#50187C" d="M51.122,90.984V50.361H28.618v46.248c5.135,2.967,13.537,2.967,18.672,0
					C49.962,95.068,51.231,93.016,51.122,90.984z"/>
				<path fill="#1E0C33" d="M47.366,96.562c2.615-1.536,3.863-3.567,3.756-5.577V50.361h-3.756V96.562z"/>
				<path fill="#6C37AA" d="M47.29,45.367c-5.135-2.964-13.537-2.964-18.672,0c-5.137,2.967-5.137,7.816,0,10.781
					c5.135,2.966,13.537,2.966,18.672,0C52.427,53.184,52.427,48.334,47.29,45.367z"/>
				<path fill="#602796" d="M28.618,56.148c5.135,2.966,13.537,2.966,18.672,0c5.137-2.965,5.137-7.814,0-10.781"/>
				<path opacity="0.2" fill="#C98B41" enable-background="new    " d="M42.397,48.191c-2.443-1.41-6.443-1.41-8.889,0
					c-2.443,1.412-2.443,3.722,0,5.133c2.445,1.412,6.445,1.412,8.891,0C44.843,51.913,44.843,49.604,42.397,48.191z"/>
			</g>
			<path fill="#EF9D18" d="M37.954,13.459c3.77-2.176,6.854,9.502,6.854,13.852c0,4.353-3.084,9.695-6.854,11.871
				c-3.775,2.18-6.855,0.395-6.855-3.955C31.099,30.876,34.179,15.637,37.954,13.459z"/>
			<path fill="#FFA41F" d="M37.954,13.459c3.77-2.176,6.854,9.502,6.854,13.852c0,4.353-3.084,9.695-6.854,11.871"/>
			<path opacity="0.8" fill="#EF9D18" d="M37.954,20.035c2.84-1.641,5.164,7.156,5.164,10.434c0,3.279-2.324,7.303-5.164,8.943
				c-2.844,1.641-5.164,0.297-5.164-2.98S35.11,21.675,37.954,20.035z"/>
			<path opacity="0.8" fill="#EF9D18" d="M37.954,20.035c2.84-1.641,5.164,7.156,5.164,10.434c0,3.279-2.324,7.303-5.164,8.943"/>
			<g>
				<path fill="#6BAFAC" d="M37.954,51.498c-0.422,0-0.766-0.343-0.766-0.766V37.46c0-0.423,0.344-0.767,0.766-0.767
					s0.766,0.344,0.766,0.767v13.272C38.72,51.155,38.376,51.498,37.954,51.498z"/>
			</g>
			<path opacity="0.6" fill="#E56813" d="M37.954,25.93c1.859-1.074,3.381,4.686,3.381,6.83c0,2.146-1.521,4.781-3.381,5.855
				c-1.861,1.074-3.381,0.193-3.381-1.952S36.093,27.003,37.954,25.93z"/>
		</g>
	</g>
	<g>
		<path opacity="0.4" fill="#9B9B9B" d="M55.124,109.173c7.828-4.521,20.641-4.521,28.467,0c7.83,4.521,7.83,11.916,0,16.437
			c-7.83,4.521-20.641,4.521-28.469,0C47.296,121.089,47.296,113.693,55.124,109.173z"/>
		<g>
			<g>
				<path fill="#C68D39" enable-background="new    " d="M82.526,115.256V74.634H56.19v40.62c-0.109,2.033,1.158,4.086,3.832,5.628
					c5.135,2.966,13.535,2.966,18.672,0C81.366,119.34,82.634,117.287,82.526,115.256z"/>
				<path fill="#B57521" enable-background="new    " d="M82.526,115.256V74.634H60.022v46.248c5.135,2.966,13.535,2.966,18.672,0
					C81.366,119.34,82.634,117.287,82.526,115.256z"/>
				<path fill="#A0651F" d="M78.771,120.834c2.615-1.537,3.863-3.567,3.756-5.578V74.634h-3.756V120.834z"/>
				<path fill="#DD9F4E" enable-background="new    " d="M78.694,69.64c-5.137-2.964-13.539-2.964-18.672,0
					c-5.137,2.966-5.137,7.817,0,10.782c5.135,2.965,13.535,2.965,18.672,0S83.831,72.605,78.694,69.64z"/>
				<path fill="#C98B41" enable-background="new    " d="M60.022,80.422c5.135,2.965,13.535,2.965,18.672,0s5.137-7.816,0-10.782"/>
				<path opacity="0.2" fill="#C98B41" enable-background="new    " d="M73.802,72.465c-2.443-1.412-6.443-1.412-8.889,0
					c-2.443,1.412-2.443,3.721,0,5.133c2.445,1.411,6.445,1.411,8.891,0C76.247,76.186,76.247,73.877,73.802,72.465z"/>
			</g>
			<path fill="#EF9D18" d="M69.358,37.731c3.77-2.177,6.854,9.501,6.854,13.851c0,4.354-3.084,9.695-6.854,11.872
				c-3.775,2.179-6.855,0.395-6.855-3.956C62.503,55.148,65.583,39.908,69.358,37.731z"/>
			<path fill="#FFA41F" d="M69.358,37.731c3.77-2.177,6.854,9.501,6.854,13.851c0,4.354-3.084,9.695-6.854,11.872"/>
			<path opacity="0.8" fill="#EF9D18" d="M69.358,44.307c2.84-1.641,5.164,7.156,5.164,10.434c0,3.279-2.324,7.304-5.164,8.943
				c-2.846,1.641-5.164,0.297-5.164-2.98S66.513,45.947,69.358,44.307z"/>
			<path opacity="0.8" fill="#EF9D18" d="M69.358,44.307c2.84-1.641,5.164,7.156,5.164,10.434c0,3.279-2.324,7.304-5.164,8.943"/>
			<g>
				<path fill="#BA6220" d="M69.356,75.771c-0.422,0-0.764-0.343-0.764-0.766V61.732c0-0.424,0.342-0.767,0.764-0.767
					c0.424,0,0.768,0.343,0.768,0.767v13.272C70.124,75.428,69.78,75.771,69.356,75.771z"/>
			</g>
			<path opacity="0.6" fill="#E56813" d="M69.358,50.201c1.857-1.074,3.381,4.686,3.381,6.83c0,2.146-1.523,4.781-3.381,5.855
				c-1.863,1.074-3.381,0.193-3.381-1.951C65.978,58.79,67.495,51.275,69.358,50.201z"/>
		</g>
	</g>
</g>
</svg>
