<?xml version="1.0" encoding="utf-8"?>
<!-- Generator: Adobe Illustrator 16.0.0, SVG Export Plug-In . SVG Version: 6.00 Build 0)  -->
<!DOCTYPE svg PUBLIC "-//W3C//DTD SVG 1.1//EN" "http://www.w3.org/Graphics/SVG/1.1/DTD/svg11.dtd">
<svg version="1.1" id="Layer_1" xmlns="http://www.w3.org/2000/svg" xmlns:xlink="http://www.w3.org/1999/xlink" x="0px" y="0px"
	 width="130px" height="130px" viewBox="0 0 130 130" enable-background="new 0 0 130 130" xml:space="preserve">
<g>
	<g>
		<g>
			<g>
				<path fill="#3D3D3D" d="M86.721,98.059c0-4.817-3.398-10.715-7.555-13.113c-2.211-1.275-4.211-1.316-5.582-0.344l-5.355,3.089
					v11.181l5.674,3.367v-5.455c1.27,2.196,2.977,4.134,4.861,5.365v4.107l5.574-3.215v-0.003
					C85.807,102.292,86.721,100.563,86.721,98.059z"/>
				<path fill="#070606" d="M79.166,84.945C79.08,84.898,79,84.854,78.914,84.81l-9.598,5.542v9.164l4.586,2.723v-5.455
					c1.27,2.196,2.977,4.134,4.861,5.365v4.107l5.574-3.215v-0.003c1.469-0.746,2.383-2.475,2.383-4.979
					C86.721,93.241,83.322,87.344,79.166,84.945z"/>
				<path fill="#070606" d="M84.338,103.038c1.469-0.746,2.383-2.475,2.383-4.979c0-2.617-1.002-5.55-2.58-8.066l-9.35,5.396v2.779
					c1.129,1.617,2.498,3.017,3.973,3.98v4.107l0.615-0.357v-4.077c0.602,1.038,1.307,2.012,2.072,2.885l2.887-1.665V103.038z"/>
				<path fill="#070606" d="M73.588,105.627c-4.129-2.413-7.527-8.312-7.549-13.102c-0.023-4.81,3.359-6.768,7.51-4.372
					c4.16,2.401,7.555,8.304,7.555,13.107C81.104,106.074,77.725,108.041,73.588,105.627z"/>
				<path fill="#3D3D3D" d="M73.549,88.153c4.16,2.401,7.555,8.304,7.555,13.107c0,4.813-3.379,6.78-7.516,4.366"/>
				<path fill="#B8C9C9" d="M73.584,103.023c-2.902-1.693-5.285-5.832-5.301-9.197c-0.014-3.372,2.357-4.748,5.273-3.064
					c2.92,1.682,5.305,5.825,5.305,9.201C78.861,103.34,76.488,104.719,73.584,103.023z"/>
				<path fill="#96AAA9" d="M73.557,90.762c2.92,1.682,5.305,5.825,5.305,9.201c0,3.377-2.373,4.756-5.277,3.061"/>
			</g>
			<g>
				<path fill="#3D3D3D" d="M32.158,67.52c0-4.818-3.398-10.715-7.555-13.113c-2.213-1.275-4.211-1.316-5.584-0.344l-5.355,3.089
					v11.181l5.674,3.367v-5.455c1.271,2.196,2.977,4.133,4.863,5.365v4.107l5.574-3.215v-0.003
					C31.244,71.753,32.158,70.024,32.158,67.52z"/>
				<path fill="#070606" d="M24.604,54.406c-0.086-0.047-0.166-0.092-0.252-0.136l-9.6,5.541v9.165l4.586,2.723v-5.455
					c1.271,2.196,2.977,4.133,4.863,5.365v4.107l5.574-3.215v-0.003c1.469-0.746,2.383-2.475,2.383-4.979
					C32.158,62.701,28.76,56.805,24.604,54.406z"/>
				<path fill="#070606" d="M29.775,72.499c1.469-0.746,2.383-2.475,2.383-4.979c0-2.616-1.002-5.55-2.582-8.066l-9.348,5.396v2.779
					c1.129,1.617,2.498,3.016,3.973,3.98v4.107l0.613-0.357v-4.076c0.604,1.037,1.307,2.011,2.074,2.884l2.887-1.665V72.499z"/>
				<path fill="#070606" d="M19.023,75.088c-4.127-2.413-7.527-8.312-7.549-13.102c-0.021-4.81,3.363-6.768,7.512-4.372
					c4.16,2.401,7.555,8.304,7.555,13.107C26.541,75.534,23.162,77.502,19.023,75.088z"/>
				<path fill="#3D3D3D" d="M18.986,57.614c4.16,2.401,7.555,8.304,7.555,13.107c0,4.812-3.379,6.78-7.518,4.366"/>
				<path fill="#B8C9C9" d="M19.021,72.484c-2.902-1.693-5.285-5.833-5.301-9.197c-0.016-3.372,2.357-4.748,5.273-3.065
					c2.92,1.683,5.305,5.825,5.305,9.202S21.926,74.18,19.021,72.484z"/>
				<path fill="#96AAA9" d="M18.994,60.222c2.92,1.683,5.305,5.825,5.305,9.202s-2.373,4.756-5.277,3.061"/>
			</g>
			<g>
				<polygon fill="#1088FF" points="1,38.628 28.066,22.999 59.727,41.266 32.654,56.891 				"/>
				<polygon fill="#0566DB" points="1,38.628 59.727,41.266 59.727,41.266 32.654,56.891 				"/>
				<polygon fill="#04747C" points="1,38.628 1,54.255 32.654,72.518 32.654,56.891 				"/>
				<polygon fill="#064CB2" points="32.654,72.518 59.727,56.888 59.727,41.266 32.654,56.891 				"/>
				<polyline fill="#05409E" points="59.727,41.266 32.654,56.891 32.654,72.518 				"/>
				<polygon fill="#063982" points="59.727,56.888 59.727,49.668 54.053,49.162 54.053,60.163 				"/>
				<polygon fill="#063982" points="33.801,71.855 39.646,68.48 39.646,61.365 33.801,60.844 				"/>
			</g>
			<g>
				<polygon fill="#12CC73" points="1,34.414 28.066,18.786 59.727,37.053 32.654,52.678 				"/>
				<polygon fill="#09BA88" points="1,34.414 59.727,37.053 59.727,37.053 32.654,52.678 				"/>
				<polygon fill="#03556B" points="1,34.414 1,50.042 32.654,68.305 32.654,52.678 				"/>
				<polygon fill="#064CB2" points="32.654,68.305 59.727,52.674 59.727,37.053 32.654,52.678 				"/>
				<polyline fill="#05409E" points="59.727,37.053 32.654,52.678 32.654,68.305 				"/>
				<polygon fill="#04747C" points="29.988,37.86 50.129,49.457 50.129,82.464 29.988,71.008 				"/>
				<polyline fill="#03556B" points="29.988,37.86 50.129,49.457 50.129,82.464 				"/>
				<polygon fill="#04747C" points="46.066,47.002 66.209,58.598 66.209,91.605 46.066,80.148 				"/>
				<polygon fill="#063982" points="59.727,52.674 59.727,45.455 54.053,44.948 54.053,55.949 				"/>
			</g>
			<polygon fill="#070606" points="29.988,37.86 57.043,22.232 77.186,33.829 50.129,49.457 			"/>
			<g>
				<polyline fill="#03556B" points="46.066,47.002 66.209,58.598 66.209,91.605 				"/>
				<polygon fill="#27A2F4" points="47.758,47.976 47.758,61.784 64.518,71.316 64.518,57.624 				"/>
				<polyline fill="#0B80E0" points="64.518,71.316 64.518,57.624 47.758,47.976 				"/>
				<polygon fill="#3D3D3D" points="46.066,47.002 73.021,31.432 93.264,42.971 66.209,58.598 				"/>
				<polyline fill="#070606" points="66.209,58.598 46.066,47.002 73.021,31.432 				"/>
			</g>
			<g>
				<polygon fill="#28EA89" points="94.525,52.761 98.318,50.571 98.318,57.139 94.525,59.326 				"/>
				<polygon fill="#7C0D0D" points="92.633,51.666 94.525,52.761 94.525,59.326 92.633,58.232 				"/>
				<polygon fill="#12CC73" points="92.633,51.666 96.422,49.478 98.318,50.571 94.525,52.761 				"/>
			</g>
			<g>
				<polygon fill="#1088FF" points="66.209,75.318 93.277,59.69 124.938,77.957 97.863,93.582 				"/>
				<polygon fill="#0566DB" points="66.209,75.318 124.938,77.957 124.938,77.957 97.863,93.582 				"/>
				<polygon fill="#04747C" points="66.209,75.318 66.209,90.946 97.863,109.209 97.863,93.582 				"/>
				<polygon fill="#064CB2" points="97.863,109.209 124.938,93.578 124.938,77.957 97.863,93.582 				"/>
				<polyline fill="#05409E" points="124.938,77.957 97.863,93.582 97.863,109.209 				"/>
				<polygon fill="#063982" points="124.938,93.578 124.938,86.359 119.264,85.854 119.264,96.854 				"/>
				<polygon fill="#063982" points="99.01,108.546 104.855,105.171 104.855,98.057 99.01,97.535 				"/>
			</g>
			<g>
				<polygon fill="#12CC73" points="66.209,71.105 93.277,55.478 124.938,73.743 97.863,89.368 				"/>
				<polygon fill="#09BA88" points="66.209,71.105 124.938,73.743 124.938,73.743 97.863,89.368 				"/>
				<polygon fill="#03556B" points="66.209,71.105 66.209,86.733 97.863,104.996 97.863,89.368 				"/>
				<polygon fill="#1BEA82" points="97.863,104.996 124.938,89.365 124.938,73.743 97.863,89.368 				"/>
				<polyline fill="#12CC73" points="124.938,73.743 97.863,89.368 97.863,104.996 				"/>
				<polygon fill="#09BA88" points="124.938,89.365 124.938,82.146 119.264,81.641 119.264,92.641 				"/>
				<polygon fill="#09BA88" points="99.01,104.333 104.855,100.958 104.855,93.844 99.01,93.321 				"/>
			</g>
			<g>
				<polygon fill="#27A2F4" points="66.209,71.105 66.209,58.59 72.977,75.013 				"/>
				<polygon fill="#9FD8FF" points="93.277,42.963 66.209,58.59 66.279,58.803 72.977,75.013 100.043,59.385 				"/>
				<polyline fill="#6CBDFF" points="93.277,42.963 66.209,58.59 66.279,58.803 72.977,75.013 				"/>
			</g>
			<g>
				<path fill="#9FB4B7" d="M119.227,81.664c0-1.637,1.156-3.64,2.568-4.455c0.752-0.434,1.432-0.447,1.898-0.118l1.82,1.052v3.799
					l-1.928,1.145V81.23c-0.434,0.747-1.016,1.404-1.654,1.823v1.396l-1.893-1.092v-0.002
					C119.543,83.103,119.227,82.515,119.227,81.664z"/>
				<path fill="#728284" d="M121.795,77.209c0.029-0.017,0.061-0.032,0.088-0.047l3.262,1.883v3.115l-1.559,0.926V81.23
					c-0.434,0.747-1.016,1.404-1.654,1.823v1.396l-1.893-1.092v-0.002c-0.496-0.253-0.812-0.841-0.812-1.691
					C119.227,80.027,120.383,78.024,121.795,77.209z"/>
				<path fill="#829093" d="M120.039,83.355c-0.496-0.253-0.812-0.841-0.812-1.691c0-0.889,0.344-1.885,0.881-2.74l3.174,1.832
					v0.945c-0.385,0.55-0.848,1.025-1.35,1.353v1.396l-0.209-0.123v-1.384c-0.203,0.351-0.443,0.683-0.703,0.981l-0.98-0.566V83.355
					z"/>
				<path fill="#728284" d="M123.689,84.233c1.404-0.817,2.559-2.821,2.568-4.45c0.006-1.633-1.143-2.297-2.553-1.483
					c-1.414,0.815-2.568,2.821-2.568,4.454C121.137,84.388,122.285,85.055,123.689,84.233z"/>
				<path fill="#9FB4B7" d="M123.705,78.3c-1.414,0.815-2.568,2.821-2.568,4.454c0,1.634,1.148,2.301,2.553,1.479"/>
				<path fill="#F29706" d="M123.691,83.352c0.984-0.576,1.797-1.983,1.803-3.125c0.006-1.146-0.803-1.613-1.793-1.042
					c-0.99,0.572-1.801,1.981-1.801,3.128C121.9,83.458,122.705,83.927,123.691,83.352z"/>
				<path fill="#F7BC14" d="M123.701,79.185c-0.99,0.572-1.801,1.981-1.801,3.128c0,1.146,0.805,1.614,1.791,1.039"/>
			</g>
			<g>
				<g>
					<polygon fill="#3D3D3D" points="119.568,82.501 119.568,84.278 108.141,90.867 108.141,89.089 					"/>
					<polygon fill="#565656" points="118.01,81.622 119.568,82.523 108.141,89.109 106.582,88.209 					"/>
					<polyline fill="#656666" points="106.582,88.209 118.01,81.622 119.568,82.523 					"/>
					<g>
						<polyline fill="#070606" points="106.582,88.209 108.141,89.109 108.141,90.867 106.58,89.967 						"/>
					</g>
				</g>
				<g>
					<polygon fill="#3D3D3D" points="119.568,87.124 119.568,88.901 108.141,95.49 108.141,93.711 					"/>
					<polygon fill="#565656" points="118.01,86.245 119.568,87.146 108.141,93.732 106.582,92.83 					"/>
					<polyline fill="#656666" points="106.582,92.83 118.01,86.245 119.568,87.146 					"/>
					<g>
						<polyline fill="#070606" points="106.582,92.83 108.141,93.731 108.141,95.49 106.58,94.59 						"/>
					</g>
				</g>
			</g>
			<g>
				<polygon fill="#09BA88" points="62.447,70.265 66.238,68.075 66.238,74.643 62.447,76.831 				"/>
				<polygon fill="#04747C" points="60.553,69.171 62.447,70.265 62.447,76.831 60.553,75.736 				"/>
				<polygon fill="#12CC73" points="60.553,69.171 64.342,66.982 66.238,68.075 62.447,70.265 				"/>
			</g>
			<polygon fill="#27A2F4" points="29.988,51.139 29.988,37.86 21.539,46.266 			"/>
			<g>
				<path fill="#9FB4B7" d="M99.021,93.358c0-1.637,1.154-3.64,2.568-4.454c0.75-0.436,1.43-0.447,1.896-0.118l1.82,1.051v3.798
					l-1.928,1.145v-1.854c-0.434,0.746-1.014,1.403-1.654,1.822v1.396l-1.893-1.093v-0.001
					C99.336,94.797,99.021,94.209,99.021,93.358z"/>
				<path fill="#728284" d="M101.59,88.904c0.027-0.018,0.059-0.033,0.084-0.047l3.264,1.883v3.114l-1.559,0.925v-1.854
					c-0.434,0.746-1.014,1.403-1.654,1.822v1.396l-1.893-1.093v-0.001c-0.496-0.254-0.811-0.842-0.811-1.692
					C99.021,91.722,100.176,89.719,101.59,88.904z"/>
				<path fill="#829093" d="M99.82,95.051c-0.496-0.254-0.811-0.842-0.811-1.692c0-0.888,0.342-1.885,0.879-2.74l3.176,1.832v0.945
					c-0.387,0.55-0.848,1.026-1.35,1.353v1.396l-0.211-0.123v-1.385c-0.203,0.352-0.439,0.684-0.699,0.981L99.82,95.051
					L99.82,95.051z"/>
				<path fill="#728284" d="M103.484,95.928c1.404-0.816,2.559-2.82,2.568-4.45c0.004-1.632-1.145-2.298-2.555-1.484
					c-1.416,0.815-2.566,2.821-2.566,4.456C100.932,96.082,102.08,96.75,103.484,95.928z"/>
				<path fill="#9FB4B7" d="M103.486,89.993c-1.414,0.815-2.566,2.821-2.566,4.456c0,1.633,1.148,2.301,2.553,1.479"/>
				<path fill="#F29706" d="M103.486,95.045c0.984-0.575,1.795-1.982,1.803-3.125c0.004-1.146-0.803-1.613-1.793-1.041
					c-0.992,0.572-1.803,1.98-1.803,3.127C101.693,95.153,102.5,95.621,103.486,95.045z"/>
				<path fill="#F7BC14" d="M103.496,90.879c-0.992,0.572-1.803,1.98-1.803,3.127c0,1.147,0.807,1.615,1.793,1.039"/>
			</g>
		</g>
		<g>
			<polygon fill="#070606" points="46.975,66.305 46.975,67.584 50.824,69.807 50.824,68.527 			"/>
			<polygon fill="#96AAA9" points="48.096,65.674 46.975,66.321 50.824,68.542 51.941,67.895 			"/>
			<g>
				<polyline fill="#3D3D3D" points="51.941,67.895 50.824,68.542 50.824,69.807 51.945,69.158 				"/>
			</g>
		</g>
		<g>
			<polygon fill="#070606" points="30.869,56.886 30.869,58.166 34.717,60.388 34.717,59.108 			"/>
			<polygon fill="#96AAA9" points="31.99,56.255 30.869,56.902 34.717,59.123 35.836,58.477 			"/>
			<g>
				<polyline fill="#3D3D3D" points="35.836,58.477 34.717,59.123 34.717,60.388 35.84,59.738 				"/>
			</g>
		</g>
		<g>
			<polygon fill="#728284" points="129,90.252 129,94.705 100.365,111.214 100.365,106.758 			"/>
			<polyline fill="#728284" points="100.365,111.214 100.365,106.758 129,90.252 			"/>
			<polygon fill="#9FB4B7" points="125.094,88.051 129,90.307 100.367,106.811 96.463,104.552 			"/>
			<polyline fill="#C1D1D3" points="96.463,104.552 125.094,88.051 129,90.307 			"/>
			<g>
				<polyline fill="#728284" points="96.463,104.552 100.365,106.809 100.365,111.214 96.455,108.957 				"/>
			</g>
		</g>
	</g>
	<polygon fill="#27A2F4" points="46.191,47.189 31.68,38.834 31.68,52.643 46.191,60.896 	"/>
	<polyline fill="#0B80E0" points="46.191,60.896 46.191,47.189 31.68,38.834 	"/>
</g>
</svg>
