<?xml version="1.0" encoding="utf-8"?>
<!-- Generator: Adobe Illustrator 16.0.0, SVG Export Plug-In . SVG Version: 6.00 Build 0)  -->
<!DOCTYPE svg PUBLIC "-//W3C//DTD SVG 1.1//EN" "http://www.w3.org/Graphics/SVG/1.1/DTD/svg11.dtd">
<svg version="1.1" id="Layer_1" xmlns="http://www.w3.org/2000/svg" xmlns:xlink="http://www.w3.org/1999/xlink" x="0px" y="0px"
	 width="130px" height="130px" viewBox="0 0 130 130" enable-background="new 0 0 130 130" xml:space="preserve">
<g>
	<polygon fill="#DD910A" points="1,71.085 1,119.771 85.325,71.085 85.325,22.401 	"/>
	<polygon fill="#CC8109" points="1,71.085 1,119.771 85.325,22.401 	"/>
	<polygon fill="#F4BB2C" points="22.081,10.229 1,71.085 85.325,22.401 	"/>
	<polygon fill="#E8B118" points="13.381,35.345 1,71.085 85.325,22.401 	"/>
	<polygon fill="#E0A614" points="39.758,42.37 1,71.085 85.325,22.401 	"/>
	<polygon fill="#B2A99D" points="85.325,71.085 2.512,119.152 129,94.809 	"/>
	<g>
		<path fill="#BA7006" d="M42.755,68.677c3.609-2.085,6.563-0.384,6.563,3.786s-2.954,9.282-6.563,11.362
			c-3.613,2.087-6.56,0.379-6.56-3.788C36.195,75.88,39.142,70.762,42.755,68.677z"/>
		<path fill="#E8B118" d="M45.15,67.837c-0.744,0.09-1.55,0.351-2.396,0.84c-3.613,2.085-6.56,7.203-6.56,11.36
			c0,2.819,1.366,4.474,3.357,4.629c0.744-0.09,1.547-0.353,2.395-0.841c3.608-2.08,6.564-7.192,6.564-11.362
			C48.512,69.642,47.144,67.989,45.15,67.837z"/>
		<path fill="#E0A207" d="M36.195,80.037c0,2.819,1.366,4.474,3.357,4.629c0.744-0.09,1.547-0.353,2.395-0.841
			c3.608-2.08,6.564-7.192,6.564-11.362"/>
	</g>
	<g>
		<path fill="#BA7006" d="M61.23,48.919c2.459-1.419,4.474-0.263,4.474,2.582c0,2.841-2.015,6.326-4.474,7.745
			c-2.464,1.421-4.472,0.257-4.472-2.582C56.759,53.828,58.767,50.341,61.23,48.919z"/>
		<path fill="#E8B118" d="M62.862,48.348c-0.507,0.06-1.056,0.237-1.632,0.571c-2.464,1.422-4.472,4.909-4.472,7.745
			c0,1.92,0.93,3.049,2.288,3.153c0.507-0.06,1.055-0.239,1.633-0.571c2.461-1.419,4.474-4.904,4.474-7.745
			C65.153,49.576,64.221,48.449,62.862,48.348z"/>
		<path fill="#E0A207" d="M56.759,56.664c0,1.92,0.93,3.049,2.288,3.153c0.507-0.06,1.055-0.239,1.633-0.571
			c2.461-1.419,4.474-4.904,4.474-7.745"/>
	</g>
	<g>
		<path fill="#BA7006" d="M22.907,70.948c1.935-1.117,3.52-0.206,3.52,2.03c0,2.237-1.585,4.978-3.52,6.093
			c-1.939,1.12-3.519,0.204-3.519-2.029C19.389,74.811,20.968,72.065,22.907,70.948z"/>
		<path fill="#E8B118" d="M24.19,70.497c-0.399,0.049-0.831,0.189-1.283,0.451c-1.939,1.117-3.519,3.862-3.519,6.094
			c0,1.512,0.732,2.398,1.8,2.481c0.399-0.048,0.83-0.189,1.284-0.452c1.938-1.115,3.52-3.855,3.52-6.093
			C25.992,71.466,25.259,70.579,24.19,70.497z"/>
		<path fill="#E0A207" d="M19.389,77.042c0,1.512,0.732,2.398,1.8,2.481c0.399-0.048,0.83-0.189,1.284-0.452
			c1.938-1.115,3.52-3.855,3.52-6.093"/>
	</g>
	<g>
		<path fill="#BA7006" d="M34.562,60.507c1.072-0.621,1.955-0.115,1.955,1.127c0,1.241-0.883,2.765-1.955,3.386
			c-1.079,0.623-1.956,0.113-1.956-1.129C32.606,62.651,33.483,61.126,34.562,60.507z"/>
		<path fill="#E8B118" d="M35.274,60.254c-0.222,0.027-0.462,0.106-0.712,0.253c-1.079,0.619-1.956,2.145-1.956,3.384
			c0,0.839,0.406,1.333,1,1.38c0.221-0.027,0.461-0.104,0.712-0.251c1.078-0.621,1.958-2.145,1.958-3.386
			C36.276,60.795,35.867,60.301,35.274,60.254z"/>
		<path fill="#E0A207" d="M32.606,63.891c0,0.839,0.406,1.333,1,1.38c0.221-0.027,0.461-0.104,0.712-0.251
			c1.078-0.621,1.958-2.145,1.958-3.386"/>
	</g>
	<g>
		<path fill="#BA7006" d="M19.388,94.893c1.524-0.882,2.773-0.162,2.773,1.601c0,1.762-1.249,3.922-2.773,4.802
			c-1.527,0.883-2.773,0.16-2.773-1.601C16.614,97.938,17.86,95.773,19.388,94.893z"/>
		<path fill="#E8B118" d="M20.399,94.538c-0.315,0.036-0.655,0.148-1.012,0.354c-1.527,0.881-2.773,3.045-2.773,4.802
			c0,1.189,0.578,1.89,1.419,1.956c0.314-0.039,0.654-0.149,1.014-0.355c1.523-0.88,2.772-3.04,2.772-4.802
			C21.819,95.301,21.24,94.604,20.399,94.538z"/>
		<path fill="#E0A207" d="M16.614,99.694c0,1.189,0.578,1.89,1.419,1.956c0.314-0.039,0.654-0.149,1.014-0.355
			c1.523-0.88,2.772-3.04,2.772-4.802"/>
	</g>
	<g>
		<path fill="#BA7006" d="M74.53,58.534c2.257-1.305,4.107-0.239,4.107,2.372c0,2.609-1.851,5.81-4.107,7.112
			c-2.265,1.309-4.108,0.237-4.108-2.37C70.422,63.045,72.266,59.841,74.53,58.534z"/>
		<path fill="#E8B118" d="M76.027,58.01c-0.467,0.055-0.972,0.218-1.497,0.524c-2.265,1.307-4.108,4.511-4.108,7.114
			c0,1.765,0.855,2.8,2.099,2.897c0.467-0.057,0.973-0.221,1.502-0.527c2.261-1.303,4.108-4.503,4.108-7.112
			C78.131,59.141,77.274,58.105,76.027,58.01z"/>
		<path fill="#E0A207" d="M70.422,65.648c0,1.765,0.855,2.8,2.099,2.897c0.467-0.057,0.973-0.221,1.502-0.527
			c2.261-1.303,4.108-4.503,4.108-7.112"/>
	</g>
	<g>
		<path fill="#BA7006" d="M58.391,78.177c0.897-0.52,1.633-0.097,1.633,0.941c0,1.037-0.735,2.309-1.633,2.825
			c-0.899,0.52-1.632,0.096-1.632-0.941C56.759,79.968,57.491,78.693,58.391,78.177z"/>
		<path fill="#E8B118" d="M58.985,77.968c-0.186,0.021-0.387,0.088-0.595,0.209c-0.899,0.517-1.632,1.791-1.632,2.825
			c0,0.7,0.34,1.112,0.833,1.152c0.187-0.023,0.387-0.089,0.598-0.211c0.897-0.517,1.633-1.788,1.633-2.825
			C59.822,78.416,59.48,78.007,58.985,77.968z"/>
		<path fill="#E0A207" d="M56.759,81.002c0,0.7,0.34,1.112,0.833,1.152c0.187-0.023,0.387-0.089,0.598-0.211
			c0.897-0.517,1.633-1.788,1.633-2.825"/>
	</g>
	<g>
		<path fill="#BA7006" d="M74.276,43.273c0.897-0.52,1.633-0.097,1.633,0.941c0,1.037-0.735,2.309-1.633,2.826
			c-0.898,0.52-1.632,0.095-1.632-0.942C72.645,45.063,73.378,43.791,74.276,43.273z"/>
		<path fill="#E8B118" d="M74.871,43.064c-0.185,0.021-0.386,0.088-0.595,0.209c-0.898,0.518-1.632,1.79-1.632,2.825
			c0,0.701,0.34,1.111,0.833,1.15c0.186-0.021,0.386-0.086,0.598-0.208c0.897-0.518,1.633-1.789,1.633-2.826
			C75.708,43.513,75.366,43.104,74.871,43.064z"/>
		<path fill="#E0A207" d="M72.645,46.099c0,0.701,0.34,1.111,0.833,1.15c0.186-0.021,0.386-0.086,0.598-0.208
			c0.897-0.518,1.633-1.789,1.633-2.826"/>
	</g>
	<g>
		<path fill="#BA7006" d="M77.058,33.637c0.423-0.245,0.769-0.045,0.769,0.443s-0.346,1.087-0.769,1.332
			c-0.424,0.245-0.769,0.044-0.769-0.446C76.289,34.479,76.634,33.88,77.058,33.637z"/>
		<path fill="#E8B118" d="M77.338,33.538c-0.088,0.01-0.181,0.04-0.28,0.099c-0.424,0.243-0.769,0.843-0.769,1.329
			c0,0.333,0.16,0.525,0.394,0.545c0.086-0.012,0.182-0.041,0.28-0.099c0.423-0.245,0.771-0.844,0.771-1.332
			C77.733,33.748,77.571,33.556,77.338,33.538z"/>
		<path fill="#E0A207" d="M76.289,34.966c0,0.333,0.16,0.525,0.394,0.545c0.086-0.012,0.182-0.041,0.28-0.099
			c0.423-0.245,0.771-0.844,0.771-1.332"/>
	</g>
	<g>
		<path fill="#DD910A" d="M44.979,27.997c-2.402-1.388-6.335-1.388-8.737,0c-2.401,1.388-2.401,3.655,0,5.043
			c2.404,1.388,6.335,1.388,8.737,0C47.381,31.652,47.381,29.385,44.979,27.997z"/>
		<path fill="#CC8109" d="M45.503,28.44c-2.402-1.387-6.336-1.387-8.738,0c-2.001,1.156-2.31,2.918-0.974,4.279
			c0.146,0.107,0.278,0.22,0.451,0.32c2.404,1.388,6.335,1.388,8.737,0c2.001-1.156,2.31-2.92,0.975-4.279
			C45.807,28.653,45.676,28.539,45.503,28.44z"/>
		<path fill="#C47708" d="M35.791,32.72c0.146,0.107,0.278,0.22,0.451,0.32c2.404,1.388,6.335,1.388,8.737,0
			c2.001-1.156,2.31-2.92,0.975-4.279c-0.147-0.107-0.278-0.222-0.451-0.32"/>
	</g>
	<g>
		<path fill="#DD910A" d="M20.171,40.119c-0.995-0.574-2.626-0.574-3.621,0c-0.994,0.575-0.994,1.516,0,2.089
			c0.997,0.575,2.626,0.575,3.621,0C21.165,41.635,21.165,40.694,20.171,40.119z"/>
		<path fill="#CC8109" d="M20.388,40.306c-0.996-0.576-2.626-0.576-3.621,0c-0.829,0.477-0.957,1.207-0.404,1.771
			c0.063,0.045,0.115,0.092,0.188,0.132c0.997,0.575,2.626,0.575,3.621,0c0.828-0.477,0.955-1.208,0.401-1.771
			C20.513,40.392,20.459,40.343,20.388,40.306z"/>
		<path fill="#C47708" d="M16.362,42.076c0.063,0.045,0.115,0.092,0.188,0.132c0.997,0.575,2.626,0.575,3.621,0
			c0.828-0.477,0.955-1.208,0.401-1.771c-0.06-0.045-0.113-0.094-0.185-0.131"/>
	</g>
	<g>
		<path fill="#DD910A" d="M23.328,48.955c-1.588-0.916-4.188-0.916-5.775,0c-1.585,0.919-1.585,2.417,0,3.334
			c1.59,0.918,4.188,0.918,5.775,0C24.915,51.372,24.915,49.874,23.328,48.955z"/>
		<path fill="#CC8109" d="M23.676,49.251c-1.589-0.917-4.188-0.917-5.777,0c-1.323,0.762-1.527,1.931-0.645,2.825
			c0.1,0.071,0.184,0.146,0.299,0.213c1.59,0.918,4.188,0.918,5.775,0c1.323-0.763,1.523-1.929,0.643-2.828
			C23.875,49.39,23.789,49.313,23.676,49.251z"/>
		<path fill="#C47708" d="M17.254,52.076c0.1,0.071,0.184,0.146,0.299,0.213c1.59,0.918,4.188,0.918,5.775,0
			c1.323-0.763,1.523-1.929,0.643-2.828c-0.096-0.071-0.182-0.147-0.295-0.21"/>
	</g>
	<g>
		<path fill="#DD910A" d="M24.593,33.74c-0.502-0.289-1.323-0.289-1.827,0c-0.5,0.292-0.5,0.765,0,1.057
			c0.504,0.289,1.325,0.289,1.827,0C25.096,34.505,25.096,34.032,24.593,33.74z"/>
		<path fill="#CC8109" d="M24.703,33.835c-0.502-0.291-1.325-0.291-1.828,0c-0.419,0.241-0.482,0.609-0.202,0.894
			c0.03,0.023,0.058,0.045,0.093,0.068c0.504,0.289,1.325,0.289,1.827,0c0.419-0.243,0.482-0.61,0.204-0.896
			C24.767,33.878,24.738,33.854,24.703,33.835z"/>
		<path fill="#C47708" d="M22.673,34.729c0.03,0.023,0.058,0.045,0.093,0.068c0.504,0.289,1.325,0.289,1.827,0
			c0.419-0.243,0.482-0.61,0.204-0.896c-0.03-0.023-0.059-0.047-0.094-0.066"/>
	</g>
	<g>
		<path fill="#DD910A" d="M34.122,39.788c-1.51-0.873-3.981-0.873-5.491,0c-1.508,0.872-1.508,2.294,0,3.166
			c1.513,0.873,3.981,0.873,5.491,0C35.629,42.082,35.629,40.66,34.122,39.788z"/>
		<path fill="#CC8109" d="M34.449,40.065c-1.509-0.871-3.979-0.871-5.489,0c-1.259,0.727-1.451,1.834-0.613,2.688
			c0.095,0.067,0.175,0.14,0.284,0.2c1.513,0.873,3.981,0.873,5.491,0c1.256-0.726,1.448-1.833,0.609-2.688
			C34.642,40.2,34.559,40.127,34.449,40.065z"/>
		<path fill="#C47708" d="M28.347,42.754c0.095,0.067,0.175,0.14,0.284,0.2c1.513,0.873,3.981,0.873,5.491,0
			c1.256-0.726,1.448-1.833,0.609-2.688c-0.09-0.066-0.173-0.14-0.282-0.201"/>
	</g>
	<g>
		<path fill="#DD910A" d="M58.338,26.487c-0.868-0.502-2.289-0.502-3.158,0c-0.867,0.502-0.867,1.32,0,1.822
			c0.87,0.502,2.29,0.502,3.158,0S59.206,26.989,58.338,26.487z"/>
		<path fill="#CC8109" d="M58.528,26.647c-0.869-0.501-2.292-0.501-3.158,0c-0.724,0.417-0.836,1.056-0.354,1.546
			c0.055,0.041,0.102,0.082,0.164,0.116c0.87,0.502,2.29,0.502,3.158,0c0.725-0.417,0.835-1.056,0.352-1.546
			C58.638,26.725,58.591,26.683,58.528,26.647z"/>
		<path fill="#C47708" d="M55.016,28.193c0.055,0.041,0.102,0.082,0.164,0.116c0.87,0.502,2.29,0.502,3.158,0
			c0.725-0.417,0.835-1.056,0.352-1.546c-0.052-0.039-0.099-0.081-0.161-0.116"/>
	</g>
</g>
</svg>
