<?xml version="1.0" encoding="utf-8"?>
<!-- Generator: Adobe Illustrator 16.0.0, SVG Export Plug-In . SVG Version: 6.00 Build 0)  -->
<!DOCTYPE svg PUBLIC "-//W3C//DTD SVG 1.1//EN" "http://www.w3.org/Graphics/SVG/1.1/DTD/svg11.dtd">
<svg version="1.1" id="Layer_1" xmlns="http://www.w3.org/2000/svg" xmlns:xlink="http://www.w3.org/1999/xlink" x="0px" y="0px"
	 width="130px" height="130px" viewBox="0 0 130 130" enable-background="new 0 0 130 130" xml:space="preserve">
<g>
	<g>
		<g>
			<polygon fill="#CFE5E5" points="109.195,21.604 109.195,49.096 114.377,52.089 114.377,24.594 			"/>
			<polyline fill="#BDDADB" points="114.377,52.089 114.377,24.594 109.195,21.604 			"/>
			<polygon fill="#8EBFBF" points="119.559,21.604 119.559,49.096 114.377,52.089 114.377,24.594 			"/>
			<polyline fill="#80B7B3" points="114.377,52.089 114.377,24.594 119.559,21.604 			"/>
			<polygon fill="#75346C" points="114.377,12.628 114.377,24.594 119.559,21.604 			"/>
			<polygon fill="#AA53A6" points="114.377,12.628 114.377,24.594 109.195,21.604 			"/>
		</g>
		<g>
			<path fill="#73A8A7" d="M110.187,27.092v-1.81c0-0.923,0.654-1.298,1.452-0.838c0.799,0.462,1.452,1.593,1.452,2.515v1.809
				L110.187,27.092z"/>
			<path fill="#7AD8ED" d="M111.639,24.444c0.799,0.462,1.452,1.593,1.452,2.515v1.464l-2.641-1.526v-1.808
				c0-0.334,0.087-0.594,0.234-0.771C110.94,24.206,111.272,24.232,111.639,24.444z"/>
			<path fill="#5BC1DD" d="M110.45,25.089c0-0.334,0.087-0.594,0.234-0.771c0.256-0.112,0.588-0.086,0.954,0.126
				c0.799,0.462,1.452,1.593,1.452,2.515v1.464"/>
		</g>
	</g>
	<g>
		<g>
			<polygon fill="#CFE5E5" points="76.695,9.975 76.695,37.469 81.877,40.461 81.877,12.967 			"/>
			<polyline fill="#BDDADB" points="81.877,40.461 81.877,12.967 76.695,9.975 			"/>
			<polygon fill="#8EBFBF" points="87.059,9.975 87.059,37.469 81.877,40.461 81.877,12.967 			"/>
			<polyline fill="#80B7B3" points="81.877,40.461 81.877,12.967 87.059,9.975 			"/>
			<polygon fill="#75346C" points="81.877,1 81.877,12.967 87.059,9.975 			"/>
			<polygon fill="#AA53A6" points="81.877,1 81.877,12.967 76.695,9.975 			"/>
		</g>
		<g>
			<path fill="#73A8A7" d="M77.687,15.464v-1.81c0-0.922,0.654-1.298,1.452-0.838c0.799,0.463,1.453,1.593,1.453,2.516v1.808
				L77.687,15.464z"/>
			<path fill="#7AD8ED" d="M79.139,12.816c0.799,0.463,1.453,1.593,1.453,2.516v1.464L77.95,15.27v-1.809
				c0-0.334,0.087-0.594,0.235-0.771C78.44,12.578,78.773,12.605,79.139,12.816z"/>
			<path fill="#5BC1DD" d="M77.95,13.461c0-0.334,0.087-0.594,0.235-0.771c0.255-0.112,0.588-0.085,0.953,0.126
				c0.799,0.463,1.453,1.593,1.453,2.516v1.464"/>
		</g>
	</g>
	<g>
		<g>
			<g>
				<polygon fill="#BDDADB" points="33.721,92.877 76.639,117.655 76.639,77.553 52.037,49.276 33.721,52.77 				"/>
				<polygon fill="#8EBFBF" points="76.639,77.553 119.559,52.77 119.559,92.877 76.639,117.655 				"/>
				<polygon fill="#BDDADB" points="33.721,89.155 76.639,113.937 76.639,73.831 52.037,45.554 33.721,49.048 				"/>
				<polyline fill="#8EBFBF" points="76.639,73.831 52.037,45.554 33.721,49.048 				"/>
				<polygon fill="#8EBFBF" points="76.639,73.831 119.559,49.048 119.559,89.155 76.639,113.937 				"/>
				<polyline fill="#74AAA5" points="76.639,113.937 76.639,73.831 119.559,49.048 				"/>
				<polygon fill="#75346C" points="52.037,45.554 95.034,20.73 119.559,49.048 76.639,73.831 				"/>
				<polyline fill="#602B56" points="76.639,73.831 52.037,45.554 95.034,20.73 				"/>
				<polygon fill="#AA53A6" points="95.034,20.73 76.639,24.271 33.721,49.048 52.037,45.554 				"/>
				<polyline fill="#93448C" points="33.721,49.048 52.037,45.554 95.034,20.73 				"/>
			</g>
		</g>
		<polygon fill="#682962" points="60.26,55.006 103.23,30.195 100.196,26.691 57.217,51.508 		"/>
		<polygon fill="#682962" points="66.783,62.5 109.732,37.703 106.697,34.199 63.738,59.002 		"/>
		<polygon fill="#682962" points="73.304,69.996 116.234,45.209 113.199,41.705 70.26,66.498 		"/>
	</g>
	<g>
		<g>
			<g>
				<polygon fill="#8EBFBF" points="10.441,112.432 39.142,129 39.142,102.183 22.689,83.274 10.441,85.611 				"/>
				<polygon fill="#73A8A7" points="39.142,102.183 67.843,85.611 67.843,112.432 39.142,129 				"/>
				<polygon fill="#BDDADB" points="10.441,109.941 39.142,126.514 39.142,99.695 22.689,80.785 10.441,83.122 				"/>
				<polyline fill="#8EBFBF" points="39.142,99.695 22.689,80.785 10.441,83.122 				"/>
				<polygon fill="#8EBFBF" points="39.142,99.695 67.843,83.122 67.843,109.941 39.142,126.514 				"/>
				<polyline fill="#74AAA5" points="39.142,126.514 39.142,99.695 67.843,83.122 				"/>
				<polygon fill="#75346C" points="22.689,80.785 51.442,64.187 67.843,83.122 39.142,99.695 				"/>
				<polyline fill="#602B56" points="39.142,99.695 22.689,80.785 51.442,64.187 				"/>
				<polygon fill="#AA53A6" points="51.442,64.187 39.142,66.553 10.441,83.122 22.689,80.785 				"/>
				<polyline fill="#93448C" points="10.441,83.122 22.689,80.785 51.442,64.187 				"/>
			</g>
		</g>
		<polygon fill="#4C2246" points="23.443,81.652 31.391,90.786 31.391,75.764 23.443,80.351 		"/>
		<g>
			<polygon fill="#CFE5E5" points="23.443,57.627 23.443,78.708 27.417,81.002 27.417,59.921 			"/>
			<polyline fill="#BDDADB" points="27.417,81.002 27.417,59.921 23.443,57.627 			"/>
			<polygon fill="#8EBFBF" points="31.391,57.627 31.391,78.708 27.417,81.002 27.417,59.921 			"/>
			<polyline fill="#80B7B3" points="27.417,81.002 27.417,59.921 31.391,57.627 			"/>
			<polygon fill="#75346C" points="27.417,50.744 27.417,59.921 31.391,57.627 			"/>
			<polygon fill="#AA53A6" points="27.417,50.744 27.417,59.921 23.443,57.627 			"/>
		</g>
		<g>
			<polygon fill="#518E8B" points="24.517,88.257 24.517,85.776 22.369,84.536 22.369,87.017 20.221,85.776 20.221,88.257 
				22.369,89.496 22.369,94.456 24.517,95.697 24.517,90.736 26.665,91.978 26.665,89.496 			"/>
			<polygon fill="#5BC1DD" points="24.517,88.257 24.517,85.776 22.594,84.666 22.594,86.878 22.369,87.017 20.446,85.905 
				20.446,88.118 22.595,89.357 22.594,94.318 24.517,95.429 24.517,90.736 24.742,90.6 26.665,91.709 26.665,89.496 			"/>
			<polygon fill="#4EABCC" points="26.665,89.496 24.517,88.257 24.517,85.776 22.594,84.666 22.594,86.878 22.369,87.017 
				20.446,85.905 20.446,85.995 22.477,89.291 22.595,89.357 22.595,89.48 24.517,92.6 24.517,90.736 24.742,90.6 26.665,91.709 			
				"/>
		</g>
		<polygon fill="#682962" points="28.188,87.106 56.924,70.515 54.895,68.173 26.153,84.767 		"/>
		<polygon fill="#682962" points="32.551,92.118 61.271,75.535 59.242,73.192 30.515,89.779 		"/>
		<polygon fill="#682962" points="36.911,97.131 65.619,80.555 63.59,78.214 34.875,94.791 		"/>
		<g>
			<g>
				<g>
					<polygon fill="#73A8A7" points="43.779,117.574 43.779,122.766 48.232,120.195 48.232,115.005 					"/>
					<polygon fill="#73A8A7" points="48.232,109.718 43.779,112.289 43.779,116.876 48.232,114.305 					"/>
					<polygon fill="#73A8A7" points="43.779,111.59 48.232,109.019 48.232,104.432 43.779,107.002 					"/>
					<path fill="#73A8A7" d="M48.232,103.732v-2.773c0-1.415-1.003-1.992-2.227-1.286c-1.225,0.708-2.227,2.442-2.227,3.857v2.772
						L48.232,103.732z"/>
				</g>
				<g>
					<polygon fill="#5BC1DD" points="47.828,119.896 47.828,115.236 43.779,117.574 43.779,122.234 					"/>
					<polygon fill="#5BC1DD" points="47.828,119.896 47.828,115.236 43.779,117.574 43.779,122.234 					"/>
					<polygon fill="#7AD8ED" points="47.828,119.896 47.828,115.236 43.779,117.574 43.779,122.234 					"/>
					<polyline fill="#5BC1DD" points="47.828,115.236 43.779,117.574 43.779,122.234 					"/>
					<polygon fill="#7AD8ED" points="47.828,114.006 47.828,109.95 43.779,112.289 43.779,116.345 					"/>
					<polyline fill="#5BC1DD" points="47.828,109.95 43.779,112.289 43.779,116.345 					"/>
					<polygon fill="#7AD8ED" points="47.828,108.72 47.828,104.664 43.779,107.002 43.779,111.061 					"/>
					<polyline fill="#5BC1DD" points="47.828,104.664 43.779,107.002 43.779,111.061 					"/>
					<path fill="#7AD8ED" d="M46.006,99.673c-1.225,0.708-2.227,2.442-2.227,3.857v2.242l4.049-2.339v-2.772
						c0-0.513-0.135-0.91-0.359-1.183C47.076,99.307,46.566,99.348,46.006,99.673z"/>
					<path fill="#5BC1DD" d="M47.828,100.661c0-0.513-0.135-0.91-0.359-1.183c-0.393-0.172-0.902-0.131-1.463,0.194
						c-1.225,0.708-2.227,2.442-2.227,3.857v2.242"/>
				</g>
			</g>
			<g>
				<g>
					<polygon fill="#73A8A7" points="51.266,113.234 51.266,118.426 55.719,115.854 55.719,110.662 					"/>
					<polygon fill="#73A8A7" points="55.719,105.377 51.266,107.947 51.266,112.535 55.719,109.964 					"/>
					<polygon fill="#73A8A7" points="51.266,107.249 55.719,104.676 55.719,100.09 51.266,102.662 					"/>
					<path fill="#73A8A7" d="M55.719,99.391v-2.772c0-1.415-1.003-1.993-2.227-1.286c-1.225,0.709-2.227,2.442-2.227,3.857v2.774
						L55.719,99.391z"/>
				</g>
				<g>
					<polygon fill="#5BC1DD" points="55.314,115.556 55.314,110.896 51.266,113.234 51.266,117.895 					"/>
					<polygon fill="#5BC1DD" points="55.314,115.556 55.314,110.896 51.266,113.234 51.266,117.895 					"/>
					<polygon fill="#7AD8ED" points="55.314,115.556 55.314,110.896 51.266,113.234 51.266,117.895 					"/>
					<polyline fill="#5BC1DD" points="55.314,110.896 51.266,113.234 51.266,117.895 					"/>
					<polygon fill="#7AD8ED" points="55.314,109.664 55.314,105.611 51.266,107.947 51.266,112.005 					"/>
					<polyline fill="#5BC1DD" points="55.314,105.611 51.266,107.947 51.266,112.005 					"/>
					<polygon fill="#7AD8ED" points="55.314,104.38 55.314,100.322 51.266,102.662 51.266,106.718 					"/>
					<polyline fill="#5BC1DD" points="55.314,100.322 51.266,102.662 51.266,106.718 					"/>
					<path fill="#7AD8ED" d="M53.492,95.332c-1.225,0.709-2.227,2.442-2.227,3.857v2.242l4.049-2.339V96.32
						c0-0.514-0.135-0.91-0.359-1.182C54.562,94.966,54.053,95.008,53.492,95.332z"/>
					<path fill="#5BC1DD" d="M55.314,96.32c0-0.514-0.135-0.91-0.359-1.182c-0.393-0.173-0.902-0.131-1.463,0.193
						c-1.225,0.709-2.227,2.442-2.227,3.857v2.242"/>
				</g>
			</g>
			<g>
				<g>
					<polygon fill="#73A8A7" points="58.752,108.892 58.752,114.084 63.205,111.514 63.205,106.322 					"/>
					<polygon fill="#73A8A7" points="63.205,101.035 58.752,103.605 58.752,108.193 63.205,105.623 					"/>
					<polygon fill="#73A8A7" points="58.752,102.908 63.205,100.336 63.205,95.75 58.752,98.32 					"/>
					<path fill="#73A8A7" d="M63.205,95.049v-2.771c0-1.416-1.003-1.992-2.227-1.287c-1.225,0.709-2.227,2.443-2.227,3.857v2.773
						L63.205,95.049z"/>
				</g>
				<g>
					<polygon fill="#5BC1DD" points="62.801,111.215 62.801,106.555 58.752,108.892 58.752,113.553 					"/>
					<polygon fill="#5BC1DD" points="62.801,111.215 62.801,106.555 58.752,108.892 58.752,113.553 					"/>
					<polygon fill="#7AD8ED" points="62.801,111.215 62.801,106.555 58.752,108.892 58.752,113.553 					"/>
					<polyline fill="#5BC1DD" points="62.801,106.555 58.752,108.892 58.752,113.553 					"/>
					<polygon fill="#7AD8ED" points="62.801,105.322 62.801,101.269 58.752,103.605 58.752,107.662 					"/>
					<polyline fill="#5BC1DD" points="62.801,101.269 58.752,103.605 58.752,107.662 					"/>
					<polygon fill="#7AD8ED" points="62.801,100.038 62.801,95.982 58.752,98.32 58.752,102.377 					"/>
					<polyline fill="#5BC1DD" points="62.801,95.982 58.752,98.32 58.752,102.377 					"/>
					<path fill="#7AD8ED" d="M60.979,90.99c-1.225,0.709-2.227,2.443-2.227,3.857v2.242l4.049-2.338v-2.773
						c0-0.512-0.134-0.909-0.359-1.182C62.049,90.623,61.539,90.666,60.979,90.99z"/>
					<path fill="#5BC1DD" d="M62.801,91.979c0-0.512-0.134-0.909-0.359-1.182c-0.393-0.174-0.902-0.131-1.463,0.193
						c-1.225,0.709-2.227,2.443-2.227,3.857v2.242"/>
				</g>
			</g>
		</g>
		<g>
			<path fill="#80B7B3" d="M29.861,98.26c0.841,0.486,1.529,1.677,1.529,2.648v19.709l-3.059-1.765v-19.71
				C28.332,98.171,29.021,97.774,29.861,98.26z"/>
			<path fill="#7AD8ED" d="M29.861,98.26c-0.372-0.214-0.709-0.248-0.975-0.145c-0.15,0.187-0.242,0.457-0.242,0.806v19.709
				l2.746,1.584v-19.306C31.391,99.937,30.702,98.746,29.861,98.26z"/>
			<path fill="#61CCE5" d="M31.391,120.214v-19.306c0-0.972-0.688-2.162-1.529-2.648c-0.372-0.214-0.709-0.248-0.975-0.145
				c-0.15,0.187-0.242,0.457-0.242,0.806"/>
		</g>
		<g>
			<path fill="#80B7B3" d="M34.241,100.807c0.841,0.487,1.528,1.678,1.528,2.649v19.708l-3.057-1.764v-19.709
				C32.713,100.719,33.401,100.322,34.241,100.807z"/>
			<path fill="#7AD8ED" d="M34.241,100.807c-0.371-0.215-0.708-0.248-0.974-0.145c-0.152,0.188-0.243,0.457-0.243,0.805v19.709
				l2.745,1.586v-19.306C35.77,102.484,35.082,101.294,34.241,100.807z"/>
			<path fill="#61CCE5" d="M35.77,122.762v-19.306c0-0.972-0.688-2.162-1.528-2.649c-0.371-0.215-0.708-0.248-0.974-0.145
				c-0.152,0.188-0.243,0.457-0.243,0.805"/>
		</g>
		<g>
			<path fill="#80B7B3" d="M13.721,88.971c0.842,0.486,1.529,1.678,1.529,2.65v19.707l-3.058-1.764v-19.71
				C12.192,88.883,12.881,88.486,13.721,88.971z"/>
			<path fill="#7AD8ED" d="M13.721,88.971c-0.371-0.215-0.707-0.247-0.973-0.145c-0.152,0.188-0.243,0.457-0.243,0.805v19.709
				l2.745,1.586V91.621C15.25,90.648,14.562,89.457,13.721,88.971z"/>
			<path fill="#61CCE5" d="M15.25,110.926V91.621c0-0.973-0.688-2.164-1.529-2.65c-0.371-0.215-0.707-0.247-0.973-0.145
				c-0.152,0.188-0.243,0.457-0.243,0.805"/>
		</g>
		<g>
			<path fill="#80B7B3" d="M18.102,91.519c0.841,0.487,1.529,1.679,1.529,2.649v19.709l-3.059-1.766v-19.71
				C16.572,91.43,17.262,91.033,18.102,91.519z"/>
			<path fill="#7AD8ED" d="M18.102,91.519c-0.371-0.214-0.709-0.247-0.975-0.146c-0.151,0.188-0.242,0.458-0.242,0.805v19.711
				l2.746,1.585V94.168C19.631,93.197,18.942,92.006,18.102,91.519z"/>
			<path fill="#61CCE5" d="M19.631,113.474V94.168c0-0.971-0.688-2.162-1.529-2.649c-0.371-0.214-0.709-0.247-0.975-0.146
				c-0.151,0.188-0.242,0.458-0.242,0.805"/>
		</g>
		<g>
			<path fill="#518E8B" d="M23.799,102.697c1.682,0.974,3.057,3.354,3.057,5.295v12.385l-6.114-3.531v-12.384
				C20.741,102.52,22.119,101.727,23.799,102.697z"/>
			<path fill="#896530" d="M23.799,102.697c-0.756-0.437-1.44-0.5-1.977-0.278c-0.409,0.363-0.665,0.962-0.665,1.783v12.384
				l5.698,3.289v-11.883C26.855,106.051,25.48,103.671,23.799,102.697z"/>
			<path fill="#704F24" d="M26.855,119.875v-11.883c0-1.941-1.375-4.321-3.057-5.295c-0.756-0.437-1.44-0.5-1.977-0.278
				c-0.409,0.363-0.665,0.962-0.665,1.783"/>
			<polygon fill="#518E8B" points="21.157,105.915 26.855,109.205 26.855,108.244 21.157,104.954 			"/>
			<polygon fill="#518E8B" points="23.607,117.999 23.991,118.222 23.991,106.84 23.607,106.84 			"/>
		</g>
		<g>
			<path fill="#73A8A7" d="M24.203,61.835v-1.387c0-0.708,0.502-0.996,1.113-0.644c0.613,0.354,1.114,1.222,1.114,1.93v1.387
				L24.203,61.835z"/>
			<path fill="#7AD8ED" d="M25.316,59.805c0.613,0.354,1.114,1.222,1.114,1.93v1.121l-2.024-1.17v-1.387
				c0-0.256,0.066-0.455,0.18-0.591C24.781,59.623,25.037,59.643,25.316,59.805z"/>
			<path fill="#5BC1DD" d="M24.406,60.299c0-0.256,0.066-0.455,0.18-0.591c0.195-0.085,0.451-0.065,0.73,0.097
				c0.613,0.354,1.114,1.222,1.114,1.93v1.121"/>
		</g>
		<g>
			<path fill="#73A8A7" d="M24.203,67.238v-1.387c0-0.707,0.502-0.996,1.113-0.644c0.613,0.354,1.114,1.222,1.114,1.928v1.388
				L24.203,67.238z"/>
			<path fill="#7AD8ED" d="M25.316,65.208c0.613,0.354,1.114,1.222,1.114,1.928v1.122l-2.024-1.169v-1.387
				c0-0.255,0.066-0.455,0.18-0.589C24.781,65.025,25.037,65.046,25.316,65.208z"/>
			<path fill="#5BC1DD" d="M24.406,65.702c0-0.255,0.066-0.455,0.18-0.589c0.195-0.088,0.451-0.067,0.73,0.095
				c0.613,0.354,1.114,1.222,1.114,1.928v1.122"/>
		</g>
		<g>
			<path fill="#73A8A7" d="M24.203,72.641v-1.386c0-0.708,0.502-0.997,1.113-0.644c0.613,0.354,1.114,1.222,1.114,1.928v1.387
				L24.203,72.641z"/>
			<path fill="#7AD8ED" d="M25.316,70.611c0.613,0.354,1.114,1.222,1.114,1.928v1.121l-2.024-1.168v-1.387
				c0-0.256,0.066-0.455,0.18-0.592C24.781,70.428,25.037,70.449,25.316,70.611z"/>
			<path fill="#5BC1DD" d="M24.406,71.105c0-0.256,0.066-0.455,0.18-0.592c0.195-0.086,0.451-0.064,0.73,0.098
				c0.613,0.354,1.114,1.222,1.114,1.928v1.121"/>
		</g>
		<g>
			<path fill="#73A8A7" d="M24.203,78.043v-1.387c0-0.707,0.502-0.996,1.113-0.643c0.613,0.354,1.114,1.222,1.114,1.929v1.387
				L24.203,78.043z"/>
			<path fill="#7AD8ED" d="M25.316,76.014c0.613,0.354,1.114,1.222,1.114,1.929v1.122l-2.024-1.17v-1.387
				c0-0.256,0.066-0.455,0.18-0.592C24.781,75.83,25.037,75.852,25.316,76.014z"/>
			<path fill="#5BC1DD" d="M24.406,76.508c0-0.256,0.066-0.455,0.18-0.592c0.195-0.086,0.451-0.064,0.73,0.098
				c0.613,0.354,1.114,1.222,1.114,1.929v1.122"/>
		</g>
		<g>
			<g>
				<path fill="#619994" d="M20.545,118.079l-5.24,3.026c-0.961,0.553-0.961,1.462,0,2.018l3.494,2.018
					c0.96,0.553,2.531,0.553,3.492,0h0.001l5.241-3.026L20.545,118.079z"/>
				<rect x="14.584" y="121.668" fill="#619994" width="12.949" height="0.425"/>
				<path fill="#80B7B3" d="M20.545,117.619l-5.24,3.023c-0.961,0.556-0.961,1.464,0,2.017l3.494,2.02
					c0.96,0.554,2.531,0.554,3.492,0h0.001l5.241-3.027L20.545,117.619z"/>
			</g>
			<g>
				<path fill="#619994" d="M20.577,117.655l-4.915,2.839c-0.9,0.52-0.9,1.369,0,1.892l3.277,1.892c0.9,0.52,2.375,0.52,3.275,0l0,0
					l4.915-2.838L20.577,117.655z"/>
				<rect x="14.987" y="121.021" fill="#619994" width="12.143" height="0.399"/>
				<path fill="#8EBFBF" d="M20.577,117.223l-4.915,2.837c-0.9,0.521-0.9,1.372,0,1.893l3.277,1.892c0.9,0.52,2.375,0.52,3.275,0
					l0,0l4.915-2.838L20.577,117.223z"/>
			</g>
			<g>
				<path fill="#619994" d="M20.731,117.297l-4.56,2.635c-0.836,0.48-0.836,1.273,0,1.754l3.039,1.755
					c0.837,0.482,2.204,0.482,3.04,0h0.001l4.559-2.632L20.731,117.297z"/>
				<rect x="15.545" y="120.421" fill="#619994" width="11.266" height="0.37"/>
				<path fill="#9BD3D1" d="M20.731,116.896l-4.56,2.632c-0.836,0.482-0.836,1.272,0,1.755l3.039,1.756
					c0.837,0.482,2.204,0.482,3.04,0h0.001l4.559-2.633L20.731,116.896z"/>
			</g>
		</g>
		<g>
			<path fill="#75346C" d="M27.417,51.445c-0.136,0-0.247-0.111-0.247-0.248v-2.99c0-0.135,0.111-0.246,0.247-0.246
				s0.247,0.111,0.247,0.246v2.99C27.664,51.334,27.553,51.445,27.417,51.445z"/>
		</g>
		<polygon fill="#AA53A6" points="27.975,45.541 27.975,44.255 26.859,43.61 26.859,44.898 25.746,44.255 25.746,45.541 
			26.859,46.184 26.859,48.756 27.975,49.4 27.975,46.826 29.088,47.469 29.088,46.184 		"/>
	</g>
	<g>
		<polygon fill="#518E8B" points="52.339,53.474 52.339,50.992 50.191,49.752 50.191,52.232 48.043,50.992 48.043,53.474 
			50.191,54.714 50.191,59.673 52.339,60.913 52.339,55.953 54.487,57.193 54.487,54.714 		"/>
		<polygon fill="#5BC1DD" points="52.339,53.474 52.339,50.992 50.416,49.883 50.416,52.094 50.191,52.232 48.269,51.121 
			48.269,53.334 50.417,54.574 50.416,59.535 52.339,60.645 52.339,55.953 52.564,55.815 54.487,56.925 54.487,54.714 		"/>
		<polygon fill="#4EABCC" points="54.487,54.714 52.339,53.474 52.339,50.992 50.416,49.883 50.416,52.094 50.191,52.232 
			48.269,51.121 48.269,51.211 50.299,54.507 50.417,54.574 50.417,54.697 52.339,57.816 52.339,55.953 52.564,55.815 
			54.487,56.925 		"/>
	</g>
	<g>
		<path fill="#80B7B3" d="M92.666,70.247c-1.32,0.762-2.399,2.628-2.399,4.153v30.898l4.795-2.766V71.631
			C95.062,70.107,93.982,69.484,92.666,70.247z"/>
		<path fill="#7AD8ED" d="M92.666,70.247c0.582-0.337,1.109-0.39,1.526-0.228c0.237,0.293,0.38,0.716,0.38,1.261v30.902
			l-4.306,2.483V74.4C90.267,72.875,91.346,71.009,92.666,70.247z"/>
		<path fill="#61CCE5" d="M90.267,104.666V74.4c0-1.525,1.079-3.392,2.399-4.153c0.582-0.337,1.109-0.39,1.526-0.228
			c0.237,0.293,0.38,0.716,0.38,1.261"/>
	</g>
	<g>
		<path fill="#80B7B3" d="M85.797,74.24c-1.318,0.765-2.396,2.63-2.396,4.152v30.9l4.793-2.766V75.626
			C88.193,74.103,87.114,73.48,85.797,74.24z"/>
		<path fill="#7AD8ED" d="M85.797,74.24c0.582-0.338,1.111-0.389,1.527-0.227c0.238,0.292,0.381,0.715,0.381,1.26v30.902
			L83.4,108.66V78.393C83.4,76.87,84.479,75.005,85.797,74.24z"/>
		<path fill="#61CCE5" d="M83.4,108.66V78.393c0-1.522,1.078-3.388,2.396-4.152c0.582-0.338,1.111-0.389,1.527-0.227
			c0.238,0.292,0.381,0.715,0.381,1.26"/>
	</g>
	<g>
		<path fill="#80B7B3" d="M111.727,59.303c-1.318,0.762-2.398,2.629-2.398,4.154v30.898l4.795-2.766V60.688
			C114.123,59.164,113.044,58.541,111.727,59.303z"/>
		<path fill="#7AD8ED" d="M111.727,59.303c0.582-0.336,1.111-0.389,1.527-0.228c0.237,0.294,0.381,0.716,0.381,1.261v30.903
			l-4.307,2.482V63.457C109.328,61.932,110.408,60.064,111.727,59.303z"/>
		<path fill="#61CCE5" d="M109.328,93.722V63.457c0-1.525,1.08-3.393,2.398-4.154c0.582-0.336,1.111-0.389,1.527-0.228
			c0.237,0.294,0.381,0.716,0.381,1.261"/>
	</g>
	<g>
		<path fill="#80B7B3" d="M104.859,63.297c-1.318,0.763-2.396,2.629-2.396,4.152v30.9l4.792-2.767V64.682
			C107.255,63.158,106.176,62.537,104.859,63.297z"/>
		<path fill="#7AD8ED" d="M104.859,63.297c0.582-0.338,1.111-0.389,1.527-0.227c0.237,0.292,0.381,0.715,0.381,1.26v30.902
			l-4.305,2.484V67.449C102.463,65.926,103.541,64.06,104.859,63.297z"/>
		<path fill="#61CCE5" d="M102.463,97.717V67.449c0-1.523,1.078-3.39,2.396-4.152c0.582-0.338,1.111-0.389,1.527-0.227
			c0.237,0.292,0.381,0.715,0.381,1.26"/>
	</g>
</g>
</svg>
