<?xml version="1.0" encoding="utf-8"?>
<!-- Generator: Adobe Illustrator 16.0.0, SVG Export Plug-In . SVG Version: 6.00 Build 0)  -->
<!DOCTYPE svg PUBLIC "-//W3C//DTD SVG 1.1//EN" "http://www.w3.org/Graphics/SVG/1.1/DTD/svg11.dtd">
<svg version="1.1" id="Layer_1" xmlns="http://www.w3.org/2000/svg" xmlns:xlink="http://www.w3.org/1999/xlink" x="0px" y="0px"
	 width="130px" height="130px" viewBox="0 0 130 130" enable-background="new 0 0 130 130" xml:space="preserve">
<g>
	<g>
		<path fill="#CCA33E" d="M110.312,45.035c-24.924-14.387-65.697-14.387-90.617,0C9.319,51.025,3.278,58.602,1.54,66.442
			c1.738,7.842,7.779,15.419,18.156,21.41c21.303,12.299,54.191,14.083,78.853,5.355c4.195-1.482,8.146-3.271,11.764-5.355
			c10.371-5.991,16.408-13.568,18.146-21.41C126.721,58.602,120.684,51.025,110.312,45.035z M81.031,70.673
			c-1.279,0.738-2.678,1.371-4.162,1.896c-8.725,3.088-20.363,2.457-27.9-1.896c-8.82-5.091-8.82-13.421,0-18.513
			c8.818-5.09,23.244-5.09,32.062,0C89.848,57.252,89.848,65.582,81.031,70.673z"/>
		<g>
			<path fill="#CCA33E" d="M110.312,33.971c-24.924-14.389-65.697-14.389-90.617,0c-24.928,14.391-24.928,47.667,0,62.059
				c21.303,12.3,54.191,14.084,78.853,5.356c4.195-1.483,8.146-3.272,11.764-5.356C135.229,81.638,135.229,48.361,110.312,33.971z
				 M81.031,59.609c-1.279,0.738-2.678,1.371-4.162,1.895c-8.725,3.09-20.363,2.457-27.9-1.895c-8.82-5.092-8.82-13.422,0-18.514
				c8.818-5.09,23.244-5.09,32.062,0C89.848,46.188,89.848,54.518,81.031,59.609z"/>
			<path fill="#E5C05A" d="M110.312,33.971c-24.924-14.389-65.697-14.389-90.617,0C1.715,44.352-3.291,64.555,4.668,80.412
				C18.147,89.727,40.139,100.499,65,100.499c24.863,0,46.855-10.773,60.333-20.088C133.289,64.555,128.285,44.352,110.312,33.971z
				 M81.031,59.609c-1.279,0.738-2.678,1.371-4.162,1.895c-8.725,3.09-20.363,2.457-27.9-1.895c-8.82-5.092-8.82-13.422,0-18.514
				c8.818-5.09,23.244-5.09,32.062,0C89.848,46.188,89.848,54.518,81.031,59.609z"/>
			<path fill="#DDB34B" d="M4.668,80.412C18.147,89.727,40.139,100.499,65,100.499c24.863,0,46.855-10.773,60.333-20.088"/>
			<path fill="#D1195C" d="M1.965,57c2.172,7.26,8.07,14.211,17.73,19.787c21.303,12.3,54.191,14.084,78.853,5.356
				c4.195-1.482,8.146-3.271,11.764-5.356C119.967,71.21,125.861,64.26,128.031,57c-2.174-9.045-8.068-17.455-17.719-23.029
				c-24.924-14.389-65.697-14.389-90.617,0C10.04,39.545,4.143,47.955,1.965,57z M48.969,41.096c8.818-5.09,23.244-5.09,32.062,0
				c8.816,5.092,8.816,13.422,0,18.514c-1.279,0.738-2.678,1.371-4.162,1.895c-8.725,3.09-20.363,2.457-27.9-1.895
				C40.149,54.518,40.149,46.188,48.969,41.096z"/>
			<path fill="#F93D6E" d="M110.312,33.971c-24.924-14.389-65.697-14.389-90.617,0C11.412,38.752,5.904,45.623,3.127,53.191
				c2.773,6.131,8.283,11.928,16.568,16.709c21.303,12.3,54.191,14.084,78.853,5.356c4.195-1.482,8.146-3.271,11.764-5.356
				c8.281-4.783,13.787-10.578,16.559-16.711C124.098,45.623,118.592,38.752,110.312,33.971z M81.031,59.609
				c-1.279,0.738-2.678,1.371-4.162,1.895c-8.725,3.09-20.363,2.457-27.9-1.895c-5.935-3.426-7.857-8.314-5.807-12.699
				c-2.051-4.385-0.128-9.275,5.807-12.701c8.818-5.09,23.244-5.09,32.062,0c5.932,3.426,7.854,8.316,5.805,12.701
				C88.885,51.295,86.963,56.184,81.031,59.609z"/>
			<g>
				<path fill="#FF8DB0" d="M19.696,38.254c24.92-14.389,65.693-14.389,90.617,0c7.408,4.277,12.59,10.232,15.586,16.857
					c0.352-0.637,0.68-1.277,0.973-1.922c-2.773-7.566-8.279-14.438-16.559-19.219c-24.924-14.389-65.697-14.389-90.617,0
					C11.412,38.752,5.904,45.623,3.127,53.191c0.292,0.645,0.621,1.285,0.974,1.922C7.1,48.486,12.283,42.531,19.696,38.254z"/>
				<path fill="#FF8DB0" d="M48.969,63.893c7.537,4.351,19.175,4.982,27.9,1.895c1.484-0.523,2.883-1.156,4.162-1.895
					c5.344-3.086,7.422-7.359,6.285-11.383c-0.738,2.604-2.824,5.102-6.285,7.1c-1.279,0.738-2.678,1.371-4.162,1.895
					c-8.725,3.09-20.363,2.457-27.9-1.895c-3.463-1.998-5.549-4.496-6.288-7.1C41.543,56.533,43.623,60.807,48.969,63.893z"/>
				<path fill="#FF8DB0" d="M42.681,45.594c-0.324,1.143-0.386,2.305-0.187,3.457c0.124-0.721,0.339-1.438,0.668-2.141
					C42.959,46.475,42.807,46.035,42.681,45.594z"/>
				<path fill="#FF8DB0" d="M87.504,49.051c0.197-1.152,0.137-2.314-0.188-3.457c-0.125,0.441-0.277,0.881-0.48,1.316
					C87.164,47.613,87.379,48.33,87.504,49.051z"/>
			</g>
			<path fill="#EA2461" d="M19.696,69.9c21.303,12.3,54.191,14.084,78.853,5.356c4.195-1.482,8.146-3.271,11.764-5.356"/>
		</g>
	</g>
	<path fill="#34D607" d="M33.028,38.131c0.415,0.402,0.426,1.064,0.021,1.48l-5.89,6.072c-0.403,0.416-1.065,0.426-1.479,0.023l0,0
		c-0.415-0.402-0.426-1.064-0.023-1.48l5.891-6.072C31.95,37.738,32.613,37.729,33.028,38.131L33.028,38.131z"/>
	<path fill="#34D607" d="M107.547,57.119c0.328,0.477,0.209,1.127-0.268,1.455l-6.965,4.805c-0.477,0.328-1.129,0.209-1.457-0.268
		l0,0c-0.328-0.477-0.207-1.127,0.268-1.455l6.965-4.805C106.566,56.523,107.219,56.643,107.547,57.119L107.547,57.119z"/>
	<path fill="#34D607" d="M38.328,57.01c0.254,0.455,0.09,1.029-0.365,1.283L31.303,62c-0.454,0.254-1.029,0.09-1.283-0.363l0,0
		c-0.253-0.455-0.09-1.029,0.366-1.283l6.659-3.709C37.5,56.393,38.075,56.555,38.328,57.01L38.328,57.01z"/>
	<path fill="#34D607" d="M71.879,69.003c0,0.578-0.469,1.047-1.047,1.047h-8.46c-0.578,0-1.047-0.469-1.047-1.047l0,0
		c0-0.578,0.469-1.047,1.047-1.047h8.46C71.41,67.956,71.879,68.425,71.879,69.003L71.879,69.003z"/>
	<path fill="#34D607" d="M41.873,45.635c0,0.477-0.387,0.863-0.863,0.863h-6.976c-0.477,0-0.863-0.387-0.863-0.863l0,0
		c0-0.477,0.387-0.863,0.863-0.863h6.976C41.486,44.771,41.873,45.158,41.873,45.635L41.873,45.635z"/>
	<path fill="#F7D408" d="M91.521,68.968c-0.162,0.555-0.742,0.874-1.297,0.713L82.1,67.32c-0.557-0.161-0.875-0.742-0.713-1.298l0,0
		c0.16-0.554,0.742-0.874,1.297-0.712l8.125,2.359C91.363,67.831,91.684,68.412,91.521,68.968L91.521,68.968z"/>
	<path fill="#F7D408" d="M61.535,80.46c0.162,0.555,0.743,0.874,1.298,0.713l8.125-2.36c0.557-0.161,0.875-0.742,0.713-1.298l0,0
		c-0.16-0.555-0.742-0.874-1.297-0.713l-8.125,2.36C61.693,79.323,61.374,79.904,61.535,80.46L61.535,80.46z"/>
	<path fill="#F7D408" d="M22.637,61.033c-0.396,0.422-1.06,0.439-1.479,0.043l-6.153-5.807c-0.421-0.396-0.439-1.059-0.043-1.48l0,0
		c0.396-0.42,1.06-0.439,1.479-0.043l6.153,5.809C23.015,59.951,23.034,60.613,22.637,61.033L22.637,61.033z"/>
	<path fill="#F7D408" d="M91.73,32.639c0,0.371-0.299,0.67-0.67,0.67h-5.414c-0.371,0-0.67-0.299-0.67-0.67l0,0
		c0-0.369,0.299-0.67,0.67-0.67h5.414C91.432,31.969,91.73,32.27,91.73,32.639L91.73,32.639z"/>
	<path fill="#F7D408" d="M105.932,41.68c0.076,0.688-0.416,1.309-1.105,1.387L94.76,44.209c-0.688,0.076-1.309-0.418-1.387-1.105
		l0,0c-0.078-0.688,0.416-1.309,1.104-1.387l10.068-1.143C105.232,40.498,105.854,40.99,105.932,41.68L105.932,41.68z"/>
	<path fill="#64DEFF" d="M22.352,49.789c0,0.348-0.284,0.631-0.633,0.631h-5.114c-0.35,0-0.633-0.283-0.633-0.631l0,0
		c0-0.35,0.283-0.633,0.633-0.633h5.114C22.068,49.156,22.352,49.439,22.352,49.789L22.352,49.789z"/>
	<path fill="#64DEFF" d="M51.38,70.05c0,0.578-0.469,1.047-1.047,1.047h-8.461c-0.578,0-1.047-0.469-1.047-1.047l0,0
		c0-0.578,0.469-1.047,1.047-1.047h8.461C50.912,69.003,51.38,69.472,51.38,70.05L51.38,70.05z"/>
	<path fill="#64DEFF" d="M112.154,52.66c-0.062,0.484-0.506,0.828-0.992,0.764l-7.098-0.924c-0.486-0.062-0.828-0.508-0.766-0.992
		l0,0c0.064-0.484,0.51-0.826,0.994-0.764l7.098,0.924C111.875,51.73,112.219,52.174,112.154,52.66L112.154,52.66z"/>
	<path fill="#64DEFF" d="M50.723,36.148c-0.279,0.506-0.916,0.689-1.422,0.41l-7.408-4.09c-0.506-0.279-0.689-0.916-0.41-1.422l0,0
		c0.279-0.506,0.916-0.689,1.422-0.41l7.408,4.088C50.819,35.004,51.002,35.641,50.723,36.148L50.723,36.148z"/>
</g>
</svg>
