<?xml version="1.0" encoding="utf-8"?>
<!-- Generator: Adobe Illustrator 16.0.0, SVG Export Plug-In . SVG Version: 6.00 Build 0)  -->
<!DOCTYPE svg PUBLIC "-//W3C//DTD SVG 1.1//EN" "http://www.w3.org/Graphics/SVG/1.1/DTD/svg11.dtd">
<svg version="1.1" id="Layer_1" xmlns="http://www.w3.org/2000/svg" xmlns:xlink="http://www.w3.org/1999/xlink" x="0px" y="0px"
	 width="130px" height="130px" viewBox="0 0 130 130" enable-background="new 0 0 130 130" xml:space="preserve">
<g>
	<g>
		<g>
			<g>
				<path fill="#0893FC" d="M105.135,10.223L92.313,2.879c-0.562-0.408-1.162-0.754-1.8-1.032l-0.191-0.108l-0.008,0.017
					c-3.449-1.403-7.904-0.896-12.764,1.909L38.066,26.46c-10.857,6.269-19.742,21.655-19.742,34.193v45.591
					c0,6.114,2.125,10.45,5.549,12.578l-0.033,0.059l14.246,8.072l8.014-13.949l31.451-18.157
					c10.857-6.269,19.741-21.655,19.741-34.193V23.876L105.135,10.223z"/>
				<path fill="#1A76FC" d="M105.135,10.223L91.412,7.005c-0.562-0.409-3.365-0.399-4.002-0.677l-1.018-0.407L84.561,5.58
					c-3.449-1.402-2.15-4.721-7.01-1.916L38.066,26.46c-10.857,6.269-19.742,21.655-19.742,34.193v45.591
					c0,6.114,2.125,10.45,5.549,12.578l-0.033,0.059l14.246,8.072l8.014-13.949l31.451-18.157
					c10.857-6.269,19.741-21.655,19.741-34.193V23.876L105.135,10.223z"/>
				<path fill="#0B61F9" d="M19.077,54.084c-0.479,2.232-0.753,4.443-0.753,6.569v45.591c0,6.114,2.125,10.45,5.549,12.578
					l-0.033,0.059l14.246,8.072l8.014-13.949l31.451-18.157c1.845-1.065,3.627-2.411,5.324-3.945L19.077,54.084z"/>
				<g>
					<path fill="#2E508E" d="M51.636,34.329c-10.856,6.269-19.741,21.655-19.741,34.193v45.591c0,12.538,8.885,17.666,19.741,11.398
						l39.485-22.796c10.857-6.269,19.74-21.655,19.74-34.193V22.932c0-12.538-8.883-17.666-19.74-11.398L51.636,34.329z"/>
					<path fill="#254077" d="M110.861,22.932c0-12.538-8.883-17.666-19.74-11.398L51.636,34.329
						c-10.856,6.269-19.741,21.655-19.741,34.193v45.591c0,12.538,8.885,17.666,19.741,11.398"/>
					<path fill="#0D88F7" d="M42.866,129L42.866,129c-7.16,0-11.786-5.844-11.786-14.887V68.522
						c0-12.829,9.039-28.485,20.148-34.897l39.485-22.796c3.2-1.848,6.289-2.784,9.179-2.784c7.158,0,11.783,5.844,11.783,14.887
						v45.591c0,12.829-9.037,28.485-20.148,34.898l-39.484,22.795C48.842,128.063,45.756,129,42.866,129z M99.893,9.674
						c-2.601,0-5.415,0.863-8.365,2.564L52.043,35.033c-10.66,6.156-19.334,21.179-19.334,33.489v45.591
						c0,8.178,3.891,13.259,10.156,13.259h0.001c2.601,0,5.413-0.864,8.362-2.565l39.485-22.795
						c10.66-6.155,19.334-21.179,19.334-33.489V22.932C110.048,14.754,106.156,9.674,99.893,9.674z"/>
				</g>
			</g>
		</g>
	</g>
	<path fill="#EEF9FF" d="M102.728,53.646c0.032-0.481,0.059-0.961,0.075-1.438c0.02-0.51,0.03-1.016,0.031-1.516
		c0.001-0.166,0-0.33,0-0.494c-0.001-0.024-0.001-0.049-0.002-0.073c0-0.049-0.001-0.099-0.002-0.147
		c0-0.049-0.001-0.098-0.002-0.147c0-0.021,0-0.041,0-0.062c-0.002-0.068-0.004-0.138-0.005-0.206v-0.002
		c-0.013-0.521-0.033-1.034-0.064-1.544c-0.028-0.46-0.067-0.91-0.11-1.355c-0.004-0.046-0.006-0.093-0.011-0.137
		c-0.305-3.032-0.958-5.729-1.917-8.061c-0.008-0.018-0.015-0.037-0.023-0.056c-0.007-0.019-0.014-0.036-0.021-0.054
		c-1.475-3.545-3.704-6.363-6.688-8.171c-0.035-0.021-0.072-0.043-0.107-0.063c-0.008-0.006-0.016-0.01-0.023-0.014
		c-0.046-0.027-0.091-0.054-0.137-0.081c-0.01-0.004-0.021-0.011-0.03-0.017c-0.034-0.021-0.07-0.041-0.104-0.061
		c-0.017-0.009-0.032-0.018-0.048-0.025c-0.03-0.018-0.059-0.033-0.089-0.05c-0.021-0.011-0.041-0.021-0.062-0.034
		c-0.024-0.013-0.048-0.024-0.073-0.038c-0.023-0.014-0.047-0.025-0.071-0.038c-0.021-0.01-0.042-0.022-0.062-0.033
		c-0.029-0.015-0.059-0.029-0.089-0.045c-0.015-0.008-0.027-0.015-0.042-0.021c-0.035-0.019-0.073-0.036-0.109-0.056
		c-0.006-0.002-0.01-0.005-0.016-0.007c-2.009-0.998-4.205-1.505-6.521-1.559c-0.029-0.002-0.058-0.002-0.088-0.003
		c-0.005,0-0.01,0-0.016,0c-4.189-0.078-8.942,1.308-13.979,4.327c-3.86,2.314-7.55,5.393-10.945,8.998
		c-0.02,0.021-0.039,0.041-0.059,0.062c-0.54,0.575-1.07,1.164-1.596,1.766c-0.051,0.059-0.104,0.114-0.156,0.174
		c-0.574,0.664-1.141,1.341-1.695,2.032c-0.004,0.006-0.01,0.012-0.014,0.018c-0.027,0.033-0.055,0.067-0.082,0.103
		c-1.512,1.893-2.965,3.915-4.345,6.06c-0.04,0.061-0.077,0.12-0.116,0.183c-0.006,0.007-0.012,0.017-0.016,0.023
		C46.385,62.59,41.975,75.455,42.006,86.894c0.051,18.219,11.353,26.548,26.026,20.349l-0.041-15.136l-0.022-8.14l-6.681,4.005
		l-0.202,0.121l-0.026-9.515l6.884-4.125l-0.02-7.018c-0.002-0.478,0.012-0.949,0.039-1.417l0.002,0.002
		c0.381-6.639,3.549-12.359,8.227-15.975c0.002-0.003,0.006-0.005,0.01-0.008c0.034-0.026,0.068-0.052,0.103-0.078
		c0.009-0.007,0.017-0.014,0.024-0.02c0.031-0.023,0.061-0.046,0.09-0.068c0.014-0.009,0.028-0.021,0.042-0.03
		c0.028-0.021,0.056-0.042,0.084-0.062c0.015-0.011,0.03-0.022,0.045-0.034c0.026-0.019,0.054-0.038,0.079-0.057
		c0.018-0.014,0.035-0.025,0.055-0.039c0.025-0.019,0.051-0.037,0.076-0.057c0.018-0.012,0.036-0.023,0.054-0.036
		c0.024-0.019,0.05-0.036,0.075-0.054c0.02-0.014,0.041-0.029,0.061-0.043c0.023-0.016,0.047-0.033,0.07-0.049
		c0.02-0.014,0.041-0.027,0.061-0.041c0.024-0.018,0.049-0.034,0.073-0.05c0.021-0.014,0.042-0.028,0.062-0.043
		c0.024-0.016,0.048-0.032,0.071-0.048c0.021-0.014,0.042-0.027,0.063-0.041c0.023-0.016,0.047-0.031,0.07-0.047
		s0.045-0.029,0.068-0.044c0.022-0.015,0.045-0.03,0.066-0.044c0.025-0.017,0.051-0.033,0.076-0.049
		c0.02-0.013,0.037-0.024,0.057-0.035c0.031-0.02,0.062-0.039,0.093-0.059c0.015-0.01,0.03-0.019,0.046-0.029
		c0.031-0.019,0.063-0.039,0.096-0.059c0.014-0.009,0.027-0.017,0.042-0.025c0.046-0.028,0.093-0.057,0.138-0.084
		c2.917-1.749,5.422-2.99,6.158-3.316l0.023,8.509l-4.226,2.538c-3.308,1.982-3.946,4.243-3.938,6.995l0.018,6.077l7.896-4.734
		l-1.004,10.132l-0.037,0.022l-6.83,4.095l0.001,0.227l0,0l0.048,17.737l0,0l0.015,5.422c1.302-0.971,2.575-2.031,3.819-3.158l0,0
		c0.002-0.001,0.003-0.003,0.004-0.005c1.182-1.069,2.333-2.204,3.453-3.396c0.07-0.076,0.142-0.153,0.213-0.23
		c0.463-0.498,0.921-1.006,1.373-1.524c0.102-0.117,0.203-0.231,0.305-0.349c0.516-0.599,1.025-1.205,1.523-1.827
		c0.008-0.009,0.016-0.018,0.021-0.027c0.082-0.101,0.163-0.204,0.244-0.306c0.043-0.053,0.085-0.106,0.127-0.161
		c0.013-0.015,0.025-0.031,0.037-0.047c0.976-1.238,1.918-2.521,2.822-3.84l-0.002-0.002c1.35-1.967,2.617-4.018,3.788-6.121
		l0.005,0.002c3.334-5.998,5.725-12.131,7.172-18.004c0.807-3.264,1.336-6.514,1.553-9.685
		C102.725,53.704,102.725,53.675,102.728,53.646z"/>
	<g>
		<polygon fill="#EEF9FF" points="76.201,79.031 76.202,79.258 76.212,82.944 79.674,76.949 		"/>
		<path fill="#BCD4E8" d="M101.175,39.709c-0.146-0.421-0.289-0.847-0.454-1.247c-0.008-0.018-0.015-0.037-0.023-0.056
			c-0.007-0.019-0.014-0.036-0.021-0.054c-1.475-3.545-3.704-6.363-6.688-8.171c-0.035-0.021-0.072-0.043-0.107-0.063
			c-0.008-0.006-0.016-0.01-0.023-0.014c-0.046-0.027-0.091-0.054-0.137-0.081c-0.01-0.004-0.021-0.011-0.03-0.017
			c-0.034-0.021-0.07-0.041-0.104-0.061c-0.017-0.009-0.032-0.018-0.048-0.025c-0.03-0.018-0.059-0.033-0.089-0.05
			c-0.021-0.011-0.041-0.021-0.062-0.034c-0.024-0.013-0.048-0.024-0.073-0.038c-0.023-0.014-0.047-0.025-0.071-0.038
			c-0.021-0.01-0.042-0.022-0.062-0.033c-0.029-0.015-0.059-0.029-0.089-0.045c-0.015-0.008-0.027-0.015-0.042-0.021
			c-0.035-0.019-0.073-0.036-0.109-0.056c-0.006-0.002-0.01-0.005-0.016-0.007c-2.009-0.998-4.205-1.505-6.521-1.559
			c-0.029-0.002-0.058-0.002-0.088-0.003c-0.005,0-0.01,0-0.016,0c-4.189-0.078-8.942,1.308-13.979,4.327
			c-3.86,2.314-7.55,5.393-10.945,8.998c-0.02,0.021-0.039,0.041-0.059,0.062c-0.54,0.575-1.07,1.164-1.596,1.766
			c-0.051,0.059-0.104,0.114-0.156,0.174c-0.574,0.664-1.141,1.341-1.695,2.032c-0.004,0.006-0.01,0.012-0.014,0.018
			c-0.027,0.033-0.055,0.067-0.082,0.103c-1.512,1.893-2.965,3.915-4.345,6.06c-0.04,0.061-0.077,0.12-0.116,0.183
			c-0.006,0.007-0.012,0.017-0.016,0.023C46.385,62.59,41.975,75.455,42.006,86.894c0.042,15.217,7.936,23.526,19.084,22.242
			l6.915-11.976l-0.014-5.054l-0.022-8.14l-6.681,4.005l-0.202,0.121l-0.026-9.515l6.884-4.125l-0.02-7.018
			c-0.002-0.478,0.012-0.949,0.039-1.417l0.002,0.002c0.381-6.639,3.549-12.359,8.227-15.975c0.002-0.003,0.006-0.005,0.01-0.008
			c0.034-0.026,0.068-0.052,0.103-0.078c0.009-0.007,0.017-0.014,0.024-0.02c0.031-0.023,0.061-0.046,0.09-0.068
			c0.014-0.009,0.028-0.021,0.042-0.03c0.028-0.021,0.056-0.042,0.084-0.062c0.015-0.011,0.03-0.022,0.045-0.034
			c0.026-0.019,0.054-0.038,0.079-0.057c0.018-0.014,0.035-0.025,0.055-0.039c0.025-0.019,0.051-0.037,0.076-0.057
			c0.018-0.012,0.036-0.023,0.054-0.036c0.024-0.019,0.05-0.036,0.075-0.054c0.02-0.014,0.041-0.029,0.061-0.043
			c0.023-0.016,0.047-0.033,0.07-0.049c0.02-0.014,0.041-0.027,0.061-0.041c0.024-0.018,0.049-0.034,0.073-0.05
			c0.021-0.014,0.042-0.028,0.062-0.043c0.024-0.016,0.048-0.032,0.071-0.048c0.021-0.014,0.042-0.027,0.063-0.041
			c0.023-0.016,0.047-0.031,0.07-0.047s0.045-0.029,0.068-0.044c0.022-0.015,0.045-0.03,0.066-0.044
			c0.025-0.017,0.051-0.033,0.076-0.049c0.02-0.013,0.037-0.024,0.057-0.035c0.031-0.02,0.062-0.039,0.093-0.059
			c0.015-0.01,0.03-0.019,0.046-0.029c0.031-0.019,0.063-0.039,0.096-0.059c0.014-0.009,0.027-0.017,0.042-0.025
			c0.046-0.028,0.093-0.057,0.138-0.084c2.917-1.749,5.422-2.99,6.158-3.316l0.023,8.509l-4.226,2.538
			c-3.308,1.982-3.946,4.243-3.938,6.995l0.018,6.077l7.896-4.734l-0.545,5.492L101.175,39.709z"/>
	</g>
</g>
</svg>
