<?xml version="1.0" encoding="utf-8"?>
<!-- Generator: Adobe Illustrator 16.0.0, SVG Export Plug-In . SVG Version: 6.00 Build 0)  -->
<!DOCTYPE svg PUBLIC "-//W3C//DTD SVG 1.1//EN" "http://www.w3.org/Graphics/SVG/1.1/DTD/svg11.dtd">
<svg version="1.1" id="Layer_1" xmlns="http://www.w3.org/2000/svg" xmlns:xlink="http://www.w3.org/1999/xlink" x="0px" y="0px"
	 width="130px" height="130px" viewBox="0 0 130 130" enable-background="new 0 0 130 130" xml:space="preserve">
<g>
	<g>
		<g>
			<polygon fill="#7C949B" points="90.675,129 81.778,123.855 90.675,118.711 99.586,123.855 			"/>
			<polyline fill="#637E84" points="90.675,118.711 99.586,123.855 90.675,129 			"/>
			<g>
				<polygon fill="#8CADB5" points="86.893,18.742 90.678,20.927 90.678,125.632 86.893,123.445 				"/>
				<polygon fill="#7C949B" points="94.464,18.742 90.678,20.927 90.678,125.632 94.464,123.445 				"/>
				<polygon fill="#7C949B" points="86.893,18.742 86.893,25.875 90.666,28.061 90.666,23.769 90.666,23.759 90.666,20.92 				"/>
				<polygon fill="#547277" points="90.683,23.759 90.683,23.769 90.683,28.061 94.464,25.87 94.464,18.742 90.683,20.924 				"/>
			</g>
		</g>
		<g>
			<g>
				<polyline fill="#444738" points="79.532,11.73 79.532,7.438 90.666,13.875 				"/>
				<path fill="#A2CE02" d="M90.666,13.875"/>
			</g>
			<g>
				<polygon fill="#8CADB5" points="79.532,7.438 79.532,11.73 79.532,16.021 90.666,22.469 90.666,18.177 90.666,18.167 
					90.666,13.875 				"/>
				<polyline fill="#779AA0" points="90.666,22.469 90.666,18.177 90.666,18.167 90.666,13.875 79.532,7.438 				"/>
				<path fill="#C49427" d="M90.666,18.167"/>
				<polygon fill="#7C949B" points="90.683,13.875 90.683,18.167 90.683,18.177 90.683,22.469 101.815,16.021 101.815,11.73 
					101.815,7.438 				"/>
				<polyline fill="#6B878E" points="101.815,11.73 101.815,7.438 90.683,13.875 90.683,18.167 90.683,18.177 90.683,22.469 				"/>
			</g>
			<g>
				<path fill="#C49427" d="M90.666,22.459"/>
			</g>
			<polygon fill="#9EC6CC" points="79.532,7.438 90.666,13.875 95.14,11.297 101.833,7.438 90.683,1 			"/>
		</g>
	</g>
	<polygon fill="#FF3F0B" points="88.785,23.424 88.785,72.422 28.167,72.422 	"/>
	<polygon fill="#D33200" points="88.785,47.379 88.785,72.422 28.167,72.422 	"/>
</g>
</svg>
