<?xml version="1.0" encoding="utf-8"?>
<!-- Generator: Adobe Illustrator 16.0.0, SVG Export Plug-In . SVG Version: 6.00 Build 0)  -->
<!DOCTYPE svg PUBLIC "-//W3C//DTD SVG 1.1//EN" "http://www.w3.org/Graphics/SVG/1.1/DTD/svg11.dtd">
<svg version="1.1" id="Layer_1" xmlns="http://www.w3.org/2000/svg" xmlns:xlink="http://www.w3.org/1999/xlink" x="0px" y="0px"
	 width="130px" height="130px" viewBox="0 0 130 130" enable-background="new 0 0 130 130" xml:space="preserve">
<g>
	<g>
		<path fill="#4D5B5B" d="M58.618,2.736l-2.614-1.385c-0.521-0.456-1.311-0.489-2.202,0.023c-1.582,0.915-2.831,3.097-2.827,4.896
			l0.031,10.949l-4.12,2.377l-0.021-7.778l1.482-0.556l0.558-2.852l-2.697-1.429C45.687,6.544,44.9,6.516,44.009,7.03
			c-1.566,0.903-2.831,3.097-2.826,4.894l0.031,10.949l-4.121,2.38l-0.022-8.088l1.163-0.436l1.208-2.51l-3.087-1.635
			c-0.108-0.081-0.228-0.144-0.356-0.189l-0.041-0.021v0.008c-0.482-0.156-1.081-0.079-1.74,0.302
			c-1.565,0.903-2.831,3.096-2.826,4.896l0.057,19.837l0.016,0.173l0.027,9.435c0.004,1.62,0.588,2.744,1.521,3.259l-0.002,0.003
			l3.369,1.787l0.619-2.425l3.769-2.171v0.249l-1.574,75.96c0.005,1.599,0.567,2.718,1.47,3.257l-0.005,0.002l0.021,0.01
			c0.027,0.02,0.057,0.031,0.084,0.048l3.283,1.757l1.646-3.158c2.179-1.939,3.787-5.126,3.78-7.849l-1.999-73.897l-0.017-0.241
			l4.214-2.435c2.788-1.61,5.038-5.507,5.029-8.708l-0.026-9.438l0.014-0.187L56.639,6.12l1.421-0.532L58.618,2.736z"/>
		<g>
			<path fill="#7C8988" d="M56.945,3.063c-1.581,0.914-2.831,3.095-2.826,4.895l0.031,10.949l-4.121,2.377l-0.031-10.946
				c-0.004-1.798-1.278-2.526-2.846-1.62c-1.565,0.903-2.831,3.096-2.826,4.894l0.031,10.948l-4.12,2.38L40.206,15.99
				c-0.005-1.8-1.278-2.523-2.845-1.62c-1.566,0.904-2.831,3.097-2.826,4.896l0.056,19.838l0.016,0.172l0.027,9.435
				c0.009,3.203,2.273,4.493,5.062,2.883l4.215-2.431v0.25l-1.574,75.96c0.01,3.259,2.321,4.558,5.156,2.918
				c2.836-1.637,5.132-5.593,5.123-8.852L50.617,45.54L50.6,45.301l4.215-2.435c2.788-1.61,5.038-5.507,5.028-8.709l-0.026-9.437
				l0.015-0.188L59.774,4.691C59.77,2.895,58.496,2.168,56.945,3.063"/>
		</g>
		<g>
			<path fill="#717F7F" d="M59.831,24.533L59.774,4.691c-0.005-1.797-1.278-2.523-2.829-1.628"/>
			<line fill="#717F7F" x1="50.617" y1="45.54" x2="50.6" y2="45.301"/>
			<g>
				<path fill="#717F7F" d="M47.152,8.718c-1.565,0.903-2.831,3.096-2.826,4.894l0.031,10.948l-4.12,2.38L40.206,15.99
					c-0.005-1.8-1.278-2.523-2.845-1.62c-1.566,0.904-2.831,3.097-2.826,4.896l0.056,19.838l0.016,0.172l0.027,9.435
					c0.009,3.203,2.273,4.493,5.062,2.883l4.215-2.431v0.25l-1.574,75.96c0.01,3.259,2.321,4.558,5.156,2.918l2.537-107.007
					l-0.031-10.946C49.994,8.54,48.72,7.812,47.152,8.718z"/>
				<path fill="#717F7F" d="M54.119,7.958l2.826-4.895C55.364,3.978,54.114,6.158,54.119,7.958z"/>
			</g>
		</g>
	</g>
	<g>
		<path fill="#4D5B5B" d="M72.429,22.863c0.016-5.505,1.559-10.602,4.021-13.736L75.96,8.552l3.227-1.835
			c0.068-0.038,0.134-0.082,0.202-0.115l0.062-0.036l-0.006,0.012c1.833-0.9,3.92-0.896,6.133,0.382
			c7.223,4.169,13.061,20.218,13.031,31.019c-0.015,4.934-1.255,7.905-3.279,9.3l0.029-0.005l-0.106,0.062
			c-0.143,0.094-0.291,0.173-0.44,0.254l-3.207,1.846l-2.16-1.256l0.907-0.14c-0.499-0.101-1.007-0.224-1.532-0.404v0.019
			l1.572,75.96c-0.004,1.486-0.503,2.538-1.295,3.116l0.027,0.007l-0.122,0.069c-0.089,0.06-0.18,0.112-0.275,0.155l-2.604,1.486
			l-3.673-3.355l1.328,0.326c-2.119-1.945-3.67-5.065-3.663-7.737l1.997-73.899l0.002-0.02
			C76.525,39.204,72.402,31.936,72.429,22.863z"/>
		<path fill="#7C8988" d="M82.51,8.718c7.223,4.17,13.062,20.218,13.031,31.019c-0.025,9.072-4.175,11.564-9.789,9.657v0.02
			l1.574,75.96c-0.01,3.259-2.32,4.555-5.155,2.918c-2.836-1.639-5.132-5.593-5.122-8.852l1.998-73.899v-0.02
			c-5.589-4.558-9.712-11.825-9.686-20.898C69.391,13.822,75.286,4.546,82.51,8.718"/>
		<g>
			<path fill="#8F9E9D" d="M69.361,24.622c0.029-10.8,5.925-20.076,13.148-15.904L79.047,45.54v-0.02
				C73.458,40.963,69.335,33.695,69.361,24.622z"/>
			<path fill="#717F7F" d="M95.541,39.736c-0.025,9.072-4.175,11.564-9.789,9.657v0.02l1.574,75.96
				c-0.01,3.259-2.32,4.555-5.155,2.918L82.51,8.718C89.732,12.888,95.572,28.936,95.541,39.736z"/>
		</g>
		<g>
			<path fill="#7B8E8D" d="M86.57,46.374c3.899,0,6.43-3.575,6.445-9.116c0.012-3.776-1.129-9.105-2.974-13.903
				c-1.212-3.158-3.778-8.756-7.323-10.808c-0.867-0.498-1.747-0.752-2.615-0.752c-4.6,0-8.06,7.223-8.076,13.683
				c-0.023,7.524,4.604,16.329,10.311,19.622C83.801,45.942,85.225,46.374,86.57,46.374L86.57,46.374z"/>
		</g>
		<path fill="#607574" d="M82.719,12.547c3.545,2.052,6.111,7.649,7.323,10.808c1.845,4.798,2.985,10.127,2.974,13.903
			C93,42.799,90.47,46.374,86.57,46.374c-1.346,0-2.77-0.432-4.232-1.274L82.719,12.547z"/>
	</g>
</g>
</svg>
