<?xml version="1.0" encoding="utf-8"?>
<!-- Generator: Adobe Illustrator 16.0.0, SVG Export Plug-In . SVG Version: 6.00 Build 0)  -->
<!DOCTYPE svg PUBLIC "-//W3C//DTD SVG 1.1//EN" "http://www.w3.org/Graphics/SVG/1.1/DTD/svg11.dtd">
<svg version="1.1" id="Layer_1" xmlns="http://www.w3.org/2000/svg" xmlns:xlink="http://www.w3.org/1999/xlink" x="0px" y="0px"
	 width="130px" height="130px" viewBox="0 0 130 130" enable-background="new 0 0 130 130" xml:space="preserve">
<g>
	<g>
		<g>
			<g>
				<g>
					<polygon fill="#D3447F" points="71.747,13.36 81.401,7.787 81.401,24.508 71.747,30.082 					"/>
					<polyline fill="#BC396B" points="71.747,30.082 71.747,13.36 81.401,7.787 					"/>
					<polygon fill="#5E5E5E" points="66.92,10.574 71.747,13.36 71.747,30.082 66.92,27.295 					"/>
					<polygon fill="#F953A6" points="66.92,10.574 76.574,5 81.401,7.787 71.747,13.36 					"/>
				</g>
				<g>
					<g>
						<g>
							<polygon fill="#FFC183" points="77.176,91.887 77.238,105.32 71.342,108.724 71.342,95.254 							"/>
							<polygon fill="#DD8543" points="65.51,105.356 71.342,108.724 71.342,95.254 65.447,91.85 							"/>
							<polyline fill="#EA9D5E" points="71.342,95.254 65.447,91.85 65.51,105.356 							"/>
						</g>
						<g>
							<polygon fill="#9FA4A5" points="48.044,122.211 71.375,108.741 83.04,115.477 59.709,128.945 							"/>
							<polygon fill="#528903" points="65.51,105.356 65.51,112.091 77.238,118.862 77.238,112.109 							"/>
							<polygon fill="#77D118" points="83.008,108.724 83.008,115.459 77.238,118.862 77.238,112.109 							"/>
							<polygon fill="#5DA007" points="77.238,105.32 83.008,108.724 77.238,112.109 71.373,108.724 							"/>
						</g>
					</g>
					<g>
						<g>
							<polygon fill="#FFC183" points="59.71,102.006 59.772,115.44 53.877,118.844 53.877,105.373 							"/>
							<polygon fill="#DD8543" points="48.044,115.494 53.877,118.861 53.877,105.392 47.981,101.988 							"/>
							<polyline fill="#EA9D5E" points="53.877,105.392 47.981,101.988 48.044,115.494 							"/>
						</g>
						<g>
							<polygon fill="#528903" points="48.044,115.494 48.044,122.229 59.772,129 59.772,122.247 							"/>
							<polygon fill="#77D118" points="65.542,118.861 65.542,125.596 59.772,129 59.772,122.247 							"/>
							<polygon fill="#476D05" points="65.51,112.091 77.238,118.862 77.238,116.55 65.51,109.778 							"/>
							<polygon fill="#5DA007" points="77.238,118.862 83.008,115.459 83.008,113.146 77.238,116.55 							"/>
							<polygon fill="#476D05" points="48.044,122.229 59.772,129 59.772,126.688 48.044,119.916 							"/>
							<polygon fill="#5DA007" points="59.772,129 65.542,125.596 65.542,123.283 59.772,126.688 							"/>
							<polygon fill="#5DA007" points="59.772,115.459 65.542,118.861 59.772,122.247 53.908,118.861 							"/>
						</g>
					</g>
				</g>
				<g>
					<g>
						<g>
							<polygon fill="#231F20" points="76.896,31.26 76.958,51.357 71.062,54.76 71.062,34.627 							"/>
							<polygon fill="#474747" points="65.23,51.393 71.062,54.76 71.062,34.627 65.167,31.224 							"/>
						</g>
						<g>
							<polygon fill="#528903" points="65.23,51.393 65.23,58.127 88.56,71.633 88.56,64.881 							"/>
							<polygon fill="#EFA189" points="94.329,61.494 94.329,68.229 88.56,71.633 88.56,64.881 							"/>
							<polyline fill="#EA947D" points="88.56,71.633 88.56,64.881 94.329,61.494 							"/>
							<polygon fill="#5DA007" points="76.958,51.357 94.329,61.494 88.56,64.881 71.094,54.76 							"/>
							<polyline fill="#64B209" points="71.094,54.76 76.958,51.357 94.329,61.494 							"/>
						</g>
					</g>
					<polygon fill="#5E5E5E" points="65.167,31.224 71.062,27.855 76.896,31.26 71.062,34.627 					"/>
				</g>
				<g>
					<polygon fill="#77D118" points="53.877,51.512 77.207,38.042 77.207,78.451 53.877,91.922 					"/>
					<polyline fill="#64B209" points="53.877,91.922 53.877,51.512 77.207,38.042 					"/>
					<polygon fill="#EFA189" points="62.594,45.869 71.336,33.25 71.336,55.965 62.594,61.012 					"/>
					<polygon fill="#EA947D" points="62.594,38.298 71.336,33.25 71.336,44.777 62.594,53.44 					"/>
					<polygon fill="#528903" points="42.211,44.777 53.877,51.512 53.877,91.922 42.211,85.187 					"/>
					<polygon fill="#5DA007" points="42.211,44.777 65.542,31.307 77.207,38.042 53.877,51.512 					"/>
				</g>
				<g>
					<polygon fill="#D3447F" points="53.877,84.896 77.207,71.426 77.207,92.213 53.877,105.683 					"/>
					<polyline fill="#BC396B" points="53.877,105.683 53.877,84.896 77.207,71.426 					"/>
					<polygon fill="#A5205D" points="42.211,78.16 53.877,84.896 53.877,105.683 42.211,98.947 					"/>
					<polyline fill="#9B1F51" points="42.211,78.16 53.877,84.896 53.877,105.683 					"/>
				</g>
				<g>
					<g>
						<g>
							<polygon fill="#77D118" points="48.045,48.181 48.108,68.277 42.212,71.681 42.212,51.549 							"/>
							<polygon fill="#528903" points="36.38,68.312 42.212,71.681 42.212,51.549 36.317,48.145 							"/>
						</g>
						<g>
							<polygon fill="#5DA007" points="36.38,68.312 36.38,75.048 59.709,88.555 59.709,81.801 							"/>
							<polyline fill="#528903" points="59.709,88.555 59.709,81.801 36.38,68.312 							"/>
							<polygon fill="#EFA189" points="65.479,78.416 65.479,85.15 59.709,88.555 59.709,81.801 							"/>
							<polyline fill="#EA947D" points="59.709,88.555 59.709,81.801 65.479,78.416 							"/>
							<polygon fill="#5DA007" points="48.108,68.277 65.479,78.416 59.709,81.801 42.244,71.681 							"/>
							<polyline fill="#5DA007" points="42.244,71.681 48.108,68.277 65.479,78.416 							"/>
						</g>
					</g>
					<polygon fill="#64B209" points="36.317,48.145 42.211,44.777 48.045,48.181 42.212,51.549 					"/>
				</g>
				<g>
					<polygon fill="#F4B098" points="59.772,21.189 77.258,11.095 77.258,41.381 59.772,51.476 					"/>
					<polygon fill="#D33B22" points="65.386,44.176 71.644,40.564 71.644,39.775 65.386,43.389 					"/>
					<polyline fill="#EFA189" points="59.772,51.476 59.772,21.189 77.258,11.095 					"/>
					<polygon fill="#D3447F" points="59.772,21.189 59.772,27.946 77.258,17.852 77.258,11.095 					"/>
					<polyline fill="#BC396B" points="77.258,11.095 59.772,21.189 59.772,27.946 					"/>
					<polygon fill="#EFA189" points="42.287,11.095 59.772,21.189 59.772,51.476 42.287,41.381 					"/>
					<polyline fill="#EA947D" points="42.287,11.095 59.772,21.189 59.772,51.476 					"/>
					<polygon fill="#A5205D" points="53.877,24.586 59.772,27.99 59.772,21.189 42.287,11.095 42.287,41.381 53.877,48.072 					"/>
					<polyline fill="#9B1F51" points="53.877,48.072 53.877,24.586 59.772,27.99 59.772,21.189 42.287,11.095 					"/>
					<polygon fill="#E25293" points="42.287,11.095 59.772,1 77.258,11.095 59.772,21.189 					"/>
					<polyline fill="#D3447F" points="77.258,11.095 59.772,21.189 42.287,11.095 					"/>
				</g>
				<g>
					<polygon fill="#129689" points="62.143,36.199 62.143,40.528 65.911,38.354 65.885,34.039 					"/>
					<polygon fill="#129689" points="71.119,30.98 71.119,35.311 74.887,33.135 74.861,28.821 					"/>
				</g>
				<g>
					<polygon fill="#FCA100" points="46.426,30.772 52.986,26.985 52.986,38.347 46.426,42.133 					"/>
					<polyline fill="#F9BD00" points="46.426,42.133 46.426,30.772 52.986,26.985 					"/>
					<polygon fill="#5E5E5E" points="43.146,28.879 46.426,30.772 46.426,42.133 43.146,40.24 					"/>
					<polygon fill="#FCA100" points="43.146,28.879 49.706,25.092 52.986,26.985 46.426,30.772 					"/>
				</g>
				<g>
					<polygon fill="#D3447F" points="40.498,31.414 50.152,25.84 50.152,42.562 40.498,48.135 					"/>
					<polyline fill="#BC396B" points="40.498,48.135 40.498,31.414 50.152,25.84 					"/>
					<polygon fill="#9B1F51" points="35.671,28.627 40.498,31.414 40.498,48.135 35.671,45.349 					"/>
					<polygon fill="#F953A6" points="35.671,28.627 45.325,23.054 50.152,25.84 40.498,31.414 					"/>
				</g>
			</g>
			<g>
				<polygon fill="#EAE9BB" points="61.583,116.516 61.583,117.471 58.707,119.131 58.707,118.176 				"/>
				<polygon fill="#D8D8A9" points="60.746,116.043 61.583,116.527 58.708,118.188 57.871,117.703 				"/>
				<g>
					<polyline fill="#A3A17B" points="57.871,117.703 58.707,118.188 58.707,119.131 57.869,118.647 					"/>
				</g>
			</g>
			<g>
				<polygon fill="#EAE9BB" points="63.858,117.824 63.858,118.778 60.982,120.439 60.982,119.484 				"/>
				<polygon fill="#D8D8A9" points="63.021,117.352 63.858,117.836 60.982,119.495 60.146,119.011 				"/>
				<g>
					<polyline fill="#A3A17B" points="60.146,119.011 60.982,119.495 60.982,120.439 60.144,119.955 					"/>
				</g>
			</g>
			<g>
				<polygon fill="#EAE9BB" points="79.236,106.445 79.236,107.4 76.359,109.062 76.359,108.105 				"/>
				<polygon fill="#D8D8A9" points="78.398,105.974 79.236,106.457 76.36,108.117 75.523,107.633 				"/>
				<g>
					<polyline fill="#A3A17B" points="75.523,107.633 76.359,108.117 76.359,109.062 75.521,108.578 					"/>
				</g>
			</g>
			<g>
				<polygon fill="#EAE9BB" points="81.512,107.754 81.512,108.709 78.635,110.369 78.635,109.414 				"/>
				<polygon fill="#D8D8A9" points="80.674,107.281 81.512,107.766 78.635,109.426 77.799,108.941 				"/>
				<g>
					<polyline fill="#A3A17B" points="77.799,108.941 78.635,109.426 78.635,110.369 77.797,109.886 					"/>
				</g>
			</g>
		</g>
		<polygon fill="#BC396B" points="62.594,61.012 62.594,50.916 66.966,53.44 71.336,45.869 71.336,55.965 		"/>
	</g>
	<g>
		<path fill="#D3447F" d="M67.331,63.971c0.63-0.369,1.147-1.27,1.151-2.002c0.002-0.73-0.511-1.029-1.146-0.666
			c-0.634,0.367-1.152,1.267-1.152,2.002C66.184,64.037,66.699,64.336,67.331,63.971z"/>
		<path fill="#BC396B" d="M67.336,61.303c-0.634,0.367-1.152,1.267-1.152,2.002c0,0.732,0.516,1.031,1.147,0.666"/>
	</g>
	<g>
		<path fill="#D3447F" d="M67.331,69.386c0.63-0.369,1.147-1.27,1.151-2.001c0.002-0.73-0.511-1.029-1.146-0.666
			c-0.634,0.367-1.152,1.266-1.152,2.002C66.184,69.453,66.699,69.752,67.331,69.386z"/>
		<path fill="#BC396B" d="M67.336,66.719c-0.634,0.367-1.152,1.266-1.152,2.002c0,0.732,0.516,1.031,1.147,0.665"/>
	</g>
	<g>
		<path fill="#D3447F" d="M67.331,74.801c0.63-0.369,1.147-1.27,1.151-2c0.002-0.731-0.511-1.03-1.146-0.666
			c-0.634,0.366-1.152,1.266-1.152,2.002C66.184,74.868,66.699,75.168,67.331,74.801z"/>
		<path fill="#BC396B" d="M67.336,72.135c-0.634,0.366-1.152,1.266-1.152,2.002c0,0.731,0.516,1.031,1.147,0.664"/>
	</g>
</g>
</svg>
