<?xml version="1.0" encoding="utf-8"?>
<!-- Generator: Adobe Illustrator 16.0.0, SVG Export Plug-In . SVG Version: 6.00 Build 0)  -->
<!DOCTYPE svg PUBLIC "-//W3C//DTD SVG 1.1//EN" "http://www.w3.org/Graphics/SVG/1.1/DTD/svg11.dtd">
<svg version="1.1" id="Layer_1" xmlns="http://www.w3.org/2000/svg" xmlns:xlink="http://www.w3.org/1999/xlink" x="0px" y="0px"
	 width="130px" height="130px" viewBox="0 0 130 130" enable-background="new 0 0 130 130" xml:space="preserve">
<g>
	<g>
		<polygon fill="#894416" points="85.714,21.363 85.714,32.859 125.541,55.742 125.541,44.361 		"/>
		<g>
			<polygon fill="#DD8126" points="85.714,21.363 125.541,44.375 125.541,44.361 			"/>
			<polygon fill="#DD8126" points="125.541,44.375 125.541,55.742 129,53.568 129,42.209 			"/>
		</g>
		<polyline fill="#EF913C" points="85.714,21.363 89.559,19.205 129,42.209 125.541,44.375 85.507,21.244 		"/>
	</g>
	<g>
		<g>
			<path fill="#EF913C" d="M82.24,70.129c0-12.898,9.109-28.691,20.23-35.105c5.929-3.428,11.262-3.529,14.953-0.936l4.093,2.152
				v29.928l-15.202,9.027V60.58c-3.4,5.879-7.975,11.07-13.021,14.361v11.004l-4.668-2.477v-0.006
				C84.705,81.471,82.24,76.836,82.24,70.129z"/>
			<path fill="#AA5D1F" d="M102.471,35.023c0.225-0.137,0.456-0.256,0.672-0.375l15.461,8.709V67.9l-12.289,7.295V60.58
				c-3.4,5.879-7.975,11.07-13.021,14.361v11.004l-4.668-2.477v-0.006c-3.92-1.992-6.385-6.627-6.385-13.334
				C82.24,57.23,91.35,41.438,102.471,35.023z"/>
			<path fill="#894416" d="M88.625,83.463c-3.92-1.992-6.385-6.627-6.385-13.334c0-7.006,2.686-14.855,6.922-21.6l14.771,8.314
				v7.445c-3.035,4.322-6.682,8.076-10.641,10.652v11.004l-1.648-0.951V74.066c-1.603,2.779-3.476,5.391-5.535,7.734l2.516,1.668
				V83.463z"/>
			<path fill="#DD8126" d="M107.152,84.258c11.053-6.457,20.162-22.256,20.218-35.082c0.055-12.869-8.995-18.111-20.116-11.701
				c-11.127,6.428-20.232,22.234-20.232,35.107C87.021,85.459,96.076,90.725,107.152,84.258z"/>
			<path fill="#C97120" d="M107.254,37.475c-11.127,6.428-20.232,22.234-20.232,35.107c0,12.877,9.055,18.143,20.131,11.676"/>
		</g>
		<g>
			<path fill="#1B9AEF" d="M107.16,79.467c8.796-5.139,16.027-17.693,16.07-27.9c0.051-10.215-7.147-14.387-15.985-9.283
				c-8.847,5.104-16.078,17.66-16.078,27.896C91.167,80.424,98.365,84.596,107.16,79.467z"/>
			<path fill="#0066D6" d="M107.245,42.283c2.677-1.545,5.192-2.236,7.421-2.17c1.752,1.959,2.778,4.957,2.758,8.824
				c-0.042,10.215-7.277,22.77-16.074,27.898c-2.66,1.557-5.18,2.25-7.392,2.191c-1.759-1.963-2.791-4.969-2.791-8.848
				C91.167,59.943,98.398,47.387,107.245,42.283z"/>
			<path fill="#0072D8" d="M107.245,42.283c-8.847,5.104-16.078,17.66-16.078,27.896c0,10.244,7.198,14.416,15.993,9.287"/>
			<path fill="#134A9B" d="M101.35,76.836c-2.66,1.557-5.18,2.25-7.392,2.191c0,0,0,0,0-0.004c-0.212-0.234-0.406-0.479-0.592-0.732
				c-0.026-0.043-0.051-0.08-0.081-0.117c-0.182-0.256-0.346-0.525-0.506-0.809c0-0.006,0-0.006-0.006-0.006
				c-0.152-0.287-0.3-0.592-0.439-0.904c-0.025-0.051-0.047-0.109-0.072-0.164c-0.122-0.309-0.254-0.625-0.359-0.961
				c-0.004-0.004-0.004-0.008-0.004-0.016c-0.114-0.332-0.199-0.682-0.287-1.041c-0.009-0.076-0.034-0.16-0.055-0.236
				c-0.076-0.357-0.145-0.719-0.199-1.1c0,0-0.008-0.008-0.008-0.018c-0.047-0.383-0.094-0.781-0.128-1.184
				c-0.004-0.1-0.008-0.193-0.012-0.295c-0.03-0.406-0.043-0.83-0.043-1.262c0-10.236,7.231-22.793,16.078-27.896l-0.071,29.859
				C105.363,74.027,103.405,75.643,101.35,76.836z"/>
			<path fill="#19D4F2" d="M107.174,74.379c6.385-3.729,11.641-12.848,11.675-20.268c0.034-7.418-5.193-10.455-11.621-6.742
				c-6.419,3.709-11.675,12.826-11.675,20.266C95.553,75.076,100.775,78.109,107.174,74.379z"/>
			<path fill="#8FF4FF" d="M95.553,67.635c0,7.441,5.223,10.475,11.621,6.744c6.385-3.729,11.641-12.848,11.675-20.268"/>
			<path fill="#1BAEEF" d="M107.228,47.369c-6.419,3.709-11.675,12.826-11.675,20.266c0,7.441,5.223,10.475,11.621,6.744"/>
		</g>
	</g>
	<g>
		<g>
			<path fill="#EF913C" d="M41.018,93.898c0-12.896,9.109-28.691,20.23-35.102c5.93-3.426,11.262-3.529,14.953-0.939l4.094,2.156
				v29.924l-15.203,9.033V84.355c-3.399,5.879-7.975,11.07-13.021,14.361v11.004l-4.669-2.479v-0.01
				C43.482,105.24,41.018,100.605,41.018,93.898z"/>
			<path fill="#AA5D1F" d="M61.248,58.797c0.225-0.137,0.456-0.254,0.672-0.377l15.461,8.707v24.545l-12.289,7.299V84.355
				c-3.399,5.879-7.975,11.07-13.021,14.361v11.004l-4.669-2.479v-0.01c-3.92-1.992-6.385-6.627-6.385-13.334
				C41.018,81.002,50.127,65.207,61.248,58.797z"/>
			<path fill="#894416" d="M47.402,107.232c-3.92-1.992-6.385-6.627-6.385-13.334c0-7.006,2.686-14.855,6.922-21.594l14.772,8.312
				v7.441c-3.036,4.322-6.683,8.076-10.641,10.658v11.004l-1.649-0.957V97.836c-1.602,2.783-3.476,5.393-5.535,7.734l2.516,1.672
				V107.232z"/>
			<path fill="#DD8126" d="M65.93,108.027c11.053-6.451,20.162-22.252,20.219-35.08c0.055-12.865-8.996-18.109-20.117-11.699
				C54.904,67.676,45.8,83.479,45.8,96.352C45.8,109.229,54.854,114.494,65.93,108.027z"/>
			<path fill="#C97120" d="M66.031,61.248C54.904,67.676,45.8,83.479,45.8,96.352c0,12.877,9.054,18.143,20.13,11.676"/>
		</g>
		<g>
			<path fill="#1B9AEF" d="M65.938,103.236c8.796-5.139,16.026-17.689,16.069-27.898c0.051-10.217-7.146-14.385-15.985-9.285
				c-8.847,5.107-16.077,17.658-16.077,27.902C49.945,104.197,57.143,108.365,65.938,103.236z"/>
			<path fill="#0066D6" d="M66.022,66.053c2.677-1.539,5.192-2.232,7.421-2.164c1.752,1.953,2.778,4.955,2.758,8.82
				c-0.042,10.213-7.277,22.768-16.074,27.9c-2.658,1.553-5.18,2.252-7.392,2.188c-1.759-1.959-2.79-4.969-2.79-8.842
				C49.945,83.711,57.176,71.16,66.022,66.053z"/>
			<path fill="#0072D8" d="M66.022,66.053c-8.847,5.107-16.077,17.658-16.077,27.902c0,10.242,7.197,14.41,15.993,9.281"/>
			<path fill="#134A9B" d="M60.127,100.609c-2.658,1.553-5.18,2.252-7.392,2.188c0,0,0,0,0-0.004
				c-0.212-0.229-0.405-0.475-0.592-0.73c-0.026-0.039-0.051-0.082-0.08-0.115c-0.183-0.26-0.347-0.525-0.507-0.812c0,0,0,0-0.006,0
				c-0.152-0.287-0.299-0.592-0.439-0.904c-0.025-0.055-0.046-0.111-0.072-0.17c-0.122-0.305-0.253-0.625-0.359-0.955
				c-0.004-0.008-0.004-0.008-0.004-0.018c-0.113-0.334-0.198-0.686-0.287-1.041c-0.009-0.08-0.033-0.158-0.055-0.236
				c-0.076-0.355-0.145-0.719-0.199-1.1c0-0.004-0.008-0.012-0.008-0.02c-0.047-0.387-0.094-0.783-0.127-1.18
				c-0.005-0.102-0.009-0.199-0.013-0.301c-0.03-0.406-0.042-0.826-0.042-1.256c0-10.244,7.23-22.795,16.077-27.902L65.95,95.918
				C64.141,97.799,62.183,99.414,60.127,100.609z"/>
			<path fill="#19D4F2" d="M65.95,98.148c6.386-3.729,11.643-12.846,11.677-20.264c0.033-7.416-5.193-10.453-11.622-6.744
				C59.586,74.848,54.33,83.967,54.33,91.408C54.33,98.852,59.552,101.881,65.95,98.148z"/>
			<path fill="#8FF4FF" d="M54.33,91.408c0,7.443,5.222,10.473,11.62,6.74c6.386-3.729,11.643-12.846,11.677-20.264"/>
			<path fill="#1BAEEF" d="M66.005,71.141C59.586,74.848,54.33,83.967,54.33,91.408c0,7.443,5.222,10.473,11.62,6.74"/>
		</g>
	</g>
	<g>
		<polygon fill="#894416" points="1.207,70.291 1.207,81.787 41.035,104.67 41.035,93.289 		"/>
		<g>
			<polygon fill="#DD8126" points="1.207,70.291 41.035,93.303 41.035,93.289 			"/>
			<polygon fill="#DD8126" points="41.035,93.303 41.035,104.67 44.494,102.496 44.494,91.139 			"/>
		</g>
		<polyline fill="#EF913C" points="1.207,70.291 5.051,68.135 44.494,91.139 41.035,93.303 1,70.172 		"/>
	</g>
</g>
</svg>
