<?xml version="1.0" encoding="utf-8"?>
<!-- Generator: Adobe Illustrator 16.0.0, SVG Export Plug-In . SVG Version: 6.00 Build 0)  -->
<!DOCTYPE svg PUBLIC "-//W3C//DTD SVG 1.1//EN" "http://www.w3.org/Graphics/SVG/1.1/DTD/svg11.dtd">
<svg version="1.1" id="Layer_1" xmlns="http://www.w3.org/2000/svg" xmlns:xlink="http://www.w3.org/1999/xlink" x="0px" y="0px"
	 width="130px" height="130px" viewBox="0 0 130 130" enable-background="new 0 0 130 130" xml:space="preserve">
<g>
	<g>
		<g>
			<polyline fill="#8FC105" points="64.916,109.5 64.916,115.873 9.594,83.838 9.594,77.512 64.916,109.5 			"/>
			<path fill="#A2CE02" d="M64.916,109.5"/>
			<polyline fill="#4DA004" points="64.922,109.5 64.922,115.873 120.246,83.838 120.246,77.512 64.922,109.5 			"/>
		</g>
		<g>
			<polygon fill="#A7DD12" points="9.594,77.512 64.916,109.5 120.406,77.512 65,45.523 			"/>
			<polyline fill="#98D80B" points="9.594,77.512 64.916,109.5 120.406,77.512 			"/>
		</g>
	</g>
	<g>
		<g>
			<g>
				<g>
					<polygon fill="#4DA004" points="72.485,57.75 72.485,33.16 69.44,55.992 					"/>
					<polygon fill="#2F9106" points="72.485,57.75 72.485,33.16 75.529,55.992 					"/>
				</g>
				<g>
					<polygon fill="#4DA004" points="81.981,57.75 81.981,33.16 78.937,55.992 					"/>
					<polygon fill="#2F9106" points="81.981,57.75 81.981,33.16 85.025,55.992 					"/>
				</g>
			</g>
			<g>
				<polygon fill="#4DA004" points="77.232,60.543 77.232,18.098 71.978,57.512 				"/>
				<polygon fill="#2F9106" points="77.232,60.543 77.232,18.098 82.488,57.512 				"/>
			</g>
		</g>
		<g>
			<g>
				<g>
					<polygon fill="#4DA004" points="45.508,57.75 45.508,33.16 42.463,55.992 					"/>
					<polygon fill="#2F9106" points="45.508,57.75 45.508,33.16 48.551,55.992 					"/>
				</g>
				<g>
					<polygon fill="#4DA004" points="55.004,57.75 55.004,33.16 51.959,55.992 					"/>
					<polygon fill="#2F9106" points="55.004,57.75 55.004,33.16 58.048,55.992 					"/>
				</g>
			</g>
			<g>
				<polygon fill="#4DA004" points="50.255,60.543 50.255,18.098 44.999,57.512 				"/>
				<polygon fill="#2F9106" points="50.255,60.543 50.255,18.098 55.511,57.512 				"/>
			</g>
		</g>
		<g>
			<g>
				<g>
					<polygon fill="#6AC414" points="76.806,82.766 76.806,40.201 71.537,79.725 					"/>
					<polygon fill="#4BB70B" points="76.806,82.766 76.806,40.201 82.073,79.725 					"/>
				</g>
				<g>
					<polygon fill="#6AC414" points="93.246,82.766 93.246,40.201 87.978,79.725 					"/>
					<polygon fill="#4BB70B" points="93.246,82.766 93.246,40.201 98.515,79.725 					"/>
				</g>
			</g>
			<g>
				<polygon fill="#6AC414" points="85.025,87.604 85.025,14.127 75.929,82.355 				"/>
				<polygon fill="#4BB70B" points="85.025,87.604 85.025,14.127 94.122,82.355 				"/>
			</g>
		</g>
		<g>
			<g>
				<g>
					<polygon fill="#16C167" points="61.097,86.828 61.097,43.619 55.748,83.742 					"/>
					<polygon fill="#13A896" points="61.097,86.828 61.097,43.619 66.446,83.742 					"/>
				</g>
				<g>
					<polygon fill="#16C167" points="77.788,86.828 77.788,43.619 72.438,83.742 					"/>
					<polygon fill="#13A896" points="77.788,86.828 77.788,43.619 83.137,83.742 					"/>
				</g>
			</g>
			<g>
				<polygon fill="#16C167" points="69.442,91.74 69.442,17.15 60.207,86.412 				"/>
				<polygon fill="#13A896" points="69.442,91.74 69.442,17.15 78.678,86.412 				"/>
			</g>
		</g>
		<g>
			<g>
				<g>
					<polygon fill="#16C167" points="49.702,86.828 49.702,43.619 44.354,83.742 					"/>
					<polygon fill="#13A896" points="49.702,86.828 49.702,43.619 55.052,83.742 					"/>
				</g>
				<g>
					<polygon fill="#16C167" points="66.394,86.828 66.394,43.619 61.044,83.742 					"/>
					<polygon fill="#13A896" points="66.394,86.828 66.394,43.619 71.742,83.742 					"/>
				</g>
			</g>
			<g>
				<polygon fill="#16C167" points="58.048,91.74 58.048,17.15 48.812,86.412 				"/>
				<polygon fill="#13A896" points="58.048,91.74 58.048,17.15 67.283,86.412 				"/>
			</g>
		</g>
		<g>
			<g>
				<g>
					<polygon fill="#4DA004" points="72.485,89.236 72.485,64.648 69.44,87.48 					"/>
					<polygon fill="#2F9106" points="72.485,89.236 72.485,64.648 75.529,87.48 					"/>
				</g>
				<g>
					<polygon fill="#4DA004" points="81.981,89.236 81.981,64.648 78.937,87.48 					"/>
					<polygon fill="#2F9106" points="81.981,89.236 81.981,64.648 85.025,87.48 					"/>
				</g>
			</g>
			<g>
				<polygon fill="#4DA004" points="77.232,92.031 77.232,49.584 71.978,89 				"/>
				<polygon fill="#2F9106" points="77.232,92.031 77.232,49.584 82.488,89 				"/>
			</g>
		</g>
		<g>
			<g>
				<g>
					<polygon fill="#6AC414" points="34.488,82.766 34.488,40.201 29.22,79.725 					"/>
					<polygon fill="#4BB70B" points="34.488,82.766 34.488,40.201 39.757,79.725 					"/>
				</g>
				<g>
					<polygon fill="#6AC414" points="50.929,82.766 50.929,40.201 45.661,79.725 					"/>
					<polygon fill="#4BB70B" points="50.929,82.766 50.929,40.201 56.197,79.725 					"/>
				</g>
			</g>
			<g>
				<polygon fill="#6AC414" points="42.709,87.604 42.709,14.127 33.612,82.355 				"/>
				<polygon fill="#4BB70B" points="42.709,87.604 42.709,14.127 51.806,82.355 				"/>
			</g>
		</g>
		<g>
			<g>
				<g>
					<polygon fill="#4DA004" points="45.508,89.236 45.508,64.648 42.463,87.48 					"/>
					<polygon fill="#2F9106" points="45.508,89.236 45.508,64.648 48.551,87.48 					"/>
				</g>
				<g>
					<polygon fill="#4DA004" points="55.004,89.236 55.004,64.648 51.959,87.48 					"/>
					<polygon fill="#2F9106" points="55.004,89.236 55.004,64.648 58.048,87.48 					"/>
				</g>
			</g>
			<g>
				<polygon fill="#4DA004" points="50.255,92.031 50.255,49.584 44.999,89 				"/>
				<polygon fill="#2F9106" points="50.255,92.031 50.255,49.584 55.511,89 				"/>
			</g>
		</g>
		<g>
			<g>
				<g>
					<polygon fill="#6AC414" points="55.524,94.984 55.524,52.42 50.255,91.943 					"/>
					<polygon fill="#4BB70B" points="55.524,94.984 55.524,52.42 60.792,91.943 					"/>
				</g>
				<g>
					<polygon fill="#6AC414" points="71.965,94.984 71.965,52.42 66.696,91.943 					"/>
					<polygon fill="#4BB70B" points="71.965,94.984 71.965,52.42 77.232,91.943 					"/>
				</g>
			</g>
			<g>
				<polygon fill="#6AC414" points="63.744,99.822 63.744,26.346 54.647,94.574 				"/>
				<polygon fill="#4BB70B" points="63.744,99.822 63.744,26.346 72.841,94.574 				"/>
			</g>
		</g>
	</g>
</g>
</svg>
