<?xml version="1.0" encoding="utf-8"?>
<!-- Generator: Adobe Illustrator 16.0.0, SVG Export Plug-In . SVG Version: 6.00 Build 0)  -->
<!DOCTYPE svg PUBLIC "-//W3C//DTD SVG 1.1//EN" "http://www.w3.org/Graphics/SVG/1.1/DTD/svg11.dtd">
<svg version="1.1" id="Layer_1" xmlns="http://www.w3.org/2000/svg" xmlns:xlink="http://www.w3.org/1999/xlink" x="0px" y="0px"
	 width="130px" height="130px" viewBox="0 0 130 130" enable-background="new 0 0 130 130" xml:space="preserve">
<g>
	<g>
		<g>
			<polygon fill="#62279B" points="12.98,98.967 64.999,129 64.999,31.033 12.98,1 			"/>
			<polyline fill="#4E1D87" points="12.98,98.967 64.999,129 64.999,31.033 			"/>
			<polygon fill="#351256" points="64.999,129 117.02,98.967 117.02,1 64.999,31.033 			"/>
			<polyline fill="#240C3F" points="117.02,1 64.999,31.033 64.999,129 			"/>
			<g>
				<path fill="#EAE7CA" d="M69.057,120.288V38.037l0.15-0.086l43.756-25.263v82.251l-0.148,0.086L69.057,120.288z M69.652,38.381
					v80.876l42.715-24.661V13.72L69.652,38.381z"/>
			</g>
		</g>
		<g>
			<g>
				<path fill="#62279B" d="M34.14,99.014c-0.051,0-0.102-0.014-0.149-0.041l-16.121-9.308c-0.143-0.082-0.191-0.264-0.108-0.406
					c0.082-0.143,0.264-0.19,0.406-0.108l16.121,9.308c0.143,0.081,0.191,0.264,0.109,0.406
					C34.343,98.959,34.241,99.014,34.14,99.014z"/>
			</g>
			<g>
				<path fill="#62279B" d="M34.14,101.484c-0.051,0-0.102-0.014-0.149-0.041l-16.121-9.308c-0.143-0.081-0.191-0.264-0.108-0.406
					c0.082-0.142,0.264-0.19,0.406-0.108l16.121,9.308c0.143,0.082,0.191,0.264,0.109,0.406
					C34.343,101.43,34.241,101.484,34.14,101.484z"/>
			</g>
			<g>
				<path fill="#62279B" d="M34.14,103.955c-0.051,0-0.102-0.014-0.149-0.041l-16.121-9.307c-0.143-0.082-0.191-0.265-0.108-0.407
					c0.082-0.142,0.264-0.19,0.406-0.108l16.121,9.308c0.143,0.082,0.191,0.265,0.109,0.406
					C34.343,103.901,34.241,103.955,34.14,103.955z"/>
			</g>
		</g>
	</g>
	<g>
		<path fill="#E8BF15" d="M83.869,93.793c-0.271,0-0.547-0.055-0.809-0.17c-0.842-0.372-1.32-1.271-1.16-2.178l2.672-15.103
			l-7.328-4.229c-0.619-0.357-1-1.019-1-1.733s0.381-1.375,1-1.732l12.062-6.951l4.07-17.31c0.209-0.892,0.998-1.526,1.914-1.542
			c0.92-0.03,1.725,0.594,1.963,1.477l2.984,11.02l6.918-3.967c0.764-0.439,1.725-0.325,2.365,0.277
			c0.641,0.604,0.812,1.557,0.422,2.346l-6.869,13.855l2.742,11.939c0.164,0.719-0.08,1.471-0.635,1.955
			c-0.557,0.485-1.338,0.623-2.023,0.362l-7.193-2.729L85.453,93.015C85.064,93.518,84.475,93.793,83.869,93.793z M82.248,70.383
			l5.539,3.195c0.729,0.421,1.115,1.253,0.969,2.082l-1.498,8.463l6.445-8.359c0.537-0.697,1.471-0.961,2.293-0.648l5.084,1.929
			l-2.064-8.991c-0.104-0.449-0.047-0.922,0.158-1.336l4.262-8.598l-3.455,1.981c-0.539,0.31-1.189,0.351-1.762,0.112
			c-0.572-0.236-1.002-0.727-1.164-1.324l-1.594-5.887l-2.459,10.455c-0.127,0.537-0.469,0.998-0.947,1.274L82.248,70.383z"/>
	</g>
</g>
</svg>
