<?xml version="1.0" encoding="utf-8"?>
<!-- Generator: Adobe Illustrator 16.0.0, SVG Export Plug-In . SVG Version: 6.00 Build 0)  -->
<!DOCTYPE svg PUBLIC "-//W3C//DTD SVG 1.1//EN" "http://www.w3.org/Graphics/SVG/1.1/DTD/svg11.dtd">
<svg version="1.1" id="Layer_1" xmlns="http://www.w3.org/2000/svg" xmlns:xlink="http://www.w3.org/1999/xlink" x="0px" y="0px"
	 width="130px" height="130px" viewBox="0 0 130 130" enable-background="new 0 0 130 130" xml:space="preserve">
<g>
	<g>
		<g>
			<path fill="#AF2C2C" d="M70.143,129l38.341-118.177L94.603,2.746l-0.024,0.029c-4.039-2.531-9.338-2.461-15.143,0.891
				c-9.172,5.294-17.1,17.279-20.708,29.94l-9.293-5.37l-0.009,0.008c-3.974-2.236-9.096-2.029-14.677,1.193
				c-12.535,7.235-22.794,26.975-22.794,43.861v1.098c0,7.278,1.915,12.875,5.089,16.32l-0.007,0.008l0.062,0.062
				c0.109,0.118,0.227,0.22,0.34,0.331"/>
			<path fill="#8E1E1E" d="M70.143,129l36.543-114.646L92.805,6.277l-1.379-0.992c-4.039-2.531-6.186-4.971-11.99-1.619
				c-9.172,5.294-19.792,22.345-23.4,35.006l-4.74-3.748l-4.799-3.693c-3.973-2.236-6.166-5.016-11.747-1.793
				c-12.535,7.235-22.794,26.975-22.794,43.861v1.098c0,7.278,1.915,12.875,5.089,16.32l-0.007,0.008l0.062,0.062
				c0.109,0.118,0.227,0.22,0.34,0.331"/>
			<path fill="#6D1111" d="M66.203,17.09c-3.197,4.951-5.789,10.626-7.458,16.456l19.567,11.296v68.902l1.264-10.717l21.538-65.781
				L66.203,17.09z"/>
			<path fill="#6D1111" d="M17.1,90.786c0.109,0.118,0.227,0.22,0.34,0.331L70.143,129l0.877-3.036l-22.71-20.739L13.793,85.298
				c0.839,2.151,1.928,3.982,3.251,5.419l-0.007,0.008L17.1,90.786z"/>
			<path fill="#A32828" d="M117.396,29.984c0-16.888-10.258-24.782-22.794-17.545c-10.999,6.352-20.241,22.328-22.34,37.56
				c-2.091-12.826-11.337-18.146-22.345-11.79c-12.534,7.237-22.792,26.975-22.792,43.862v1.097c0,7.28,1.913,12.877,5.086,16.322
				l-0.008,0.006l0.065,0.062c0.108,0.118,0.226,0.22,0.338,0.331L70.143,129l41.184-73.609l-0.029,0.012
				c3.769-7.659,6.1-16.305,6.1-24.322V29.984z"/>
			<path fill="#BC2A2A" d="M117.396,29.984c0-16.888-10.258-24.782-22.794-17.545c-10.999,6.352-20.241,22.328-22.34,37.56
				c-2.091-12.826-11.337-18.146-22.345-11.79c-12.534,7.237-22.792,26.975-22.792,43.862v1.097c0,7.28,1.913,12.877,5.086,16.322
				l-0.008,0.006l0.065,0.062c0.108,0.118,0.226,0.22,0.338,0.331l23.768,11.788l54.951-56.287l-0.029,0.012
				c3.769-7.659,6.1-16.305,6.1-24.322V29.984z"/>
			<path fill="#ED4F7D" d="M111.297,55.402"/>
			<g>
				<path fill="#6D1111" d="M72.263,49.999c0.777-5.649,2.544-11.399,5.013-16.726H65.559v4.357
					C68.916,39.981,71.319,44.219,72.263,49.999z"/>
			</g>
		</g>
		<g>
			<path fill="#D13333" d="M103.52,15.195c6.225,0,8.434,7.967,8.434,14.789v1.096c0,6.875-1.967,14.658-5.539,21.919
				c-0.082,0.165-0.154,0.333-0.217,0.503l-37.635,66.166L36.455,96.041c-0.06-0.06-0.121-0.119-0.2-0.195
				c-0.014-0.014-0.026-0.027-0.039-0.042c-2.353-2.554-3.648-7.042-3.648-12.636v-1.097c0-14.939,9.192-32.868,20.073-39.149
				c2.217-1.279,4.356-1.956,6.188-1.956c5.818,0.001,7.577,6.931,8.062,9.909c0.431,2.635,2.706,4.566,5.37,4.566
				c0.022,0,0.045,0,0.066,0c2.695-0.033,4.959-2.031,5.326-4.699c1.896-13.77,10.354-28.21,19.67-33.589
				C99.541,15.873,101.686,15.195,103.52,15.195 M103.52,9.753c-2.742,0-5.757,0.862-8.917,2.687
				c-10.999,6.352-20.241,22.328-22.34,37.56c-1.491-9.146-6.621-14.475-13.434-14.476c-2.74-0.001-5.752,0.861-8.911,2.686
				c-12.534,7.237-22.792,26.975-22.792,43.862v1.097c0,7.28,1.913,12.877,5.086,16.322l-0.008,0.006l0.065,0.062
				c0.108,0.118,0.226,0.22,0.338,0.331L70.143,129l41.184-73.609l-0.029,0.012c3.769-7.659,6.1-16.305,6.1-24.322v-1.096
				C117.396,17.354,111.656,9.753,103.52,9.753L103.52,9.753z"/>
		</g>
	</g>
	<g>
		<path fill="#F9F6E4" d="M71.42,119.024c-0.095,0-0.191-0.005-0.289-0.017c-1.159-0.134-2.07-1.057-2.188-2.219l-4.96-48.267
			l-4.841,23.042c-0.145,0.693-0.578,1.291-1.191,1.646l-29.426,16.986c-1.195,0.688-2.713,0.278-3.401-0.912
			c-0.687-1.191-0.278-2.714,0.912-3.401l28.463-16.43l7.894-37.577c0.253-1.201,1.333-2.061,2.566-1.975
			c1.226,0.065,2.222,1.012,2.347,2.232l5.441,52.961l11.03-31.845c0.37-1.071,1.391-1.755,2.546-1.669
			c1.129,0.09,2.057,0.928,2.258,2.042l1.441,8.019l8.594-17.186c0.219-0.437,0.561-0.798,0.982-1.043l14.711-8.493
			c1.188-0.689,2.712-0.28,3.402,0.91c0.688,1.191,0.279,2.715-0.912,3.402l-14.062,8.12L91.125,90.568
			c-0.48,0.959-1.522,1.504-2.583,1.351c-1.062-0.153-1.905-0.968-2.097-2.023l-1.082-6.017L73.771,117.35
			C73.42,118.361,72.469,119.024,71.42,119.024z"/>
	</g>
	<path opacity="0.4" fill="#BFB891" d="M100.441,71.712c-0.422,0.245-0.764,0.607-0.981,1.043L90.865,89.94l-1.441-8.019
		c-0.201-1.113-1.129-1.952-2.258-2.041c-1.154-0.087-2.176,0.597-2.545,1.668L73.59,113.394l-5.441-52.961
		c-0.125-1.221-1.121-2.167-2.347-2.232c-1.233-0.086-2.313,0.774-2.566,1.976l-7.167,34.121l1.882-1.087
		c0.613-0.354,1.047-0.952,1.191-1.646l4.841-23.042l4.96,48.267c0.118,1.162,1.029,2.085,2.188,2.219
		c0.098,0.012,0.194,0.017,0.289,0.017c1.049,0,2-0.663,2.352-1.675l11.592-33.471l1.082,6.017c0.191,1.056,1.035,1.87,2.097,2.023
		c1.061,0.153,2.103-0.392,2.583-1.351l9.477-18.948L100.441,71.712z"/>
</g>
</svg>
