<?xml version="1.0" encoding="utf-8"?>
<!-- Generator: Adobe Illustrator 16.0.0, SVG Export Plug-In . SVG Version: 6.00 Build 0)  -->
<!DOCTYPE svg PUBLIC "-//W3C//DTD SVG 1.1//EN" "http://www.w3.org/Graphics/SVG/1.1/DTD/svg11.dtd">
<svg version="1.1" id="Layer_1" xmlns="http://www.w3.org/2000/svg" xmlns:xlink="http://www.w3.org/1999/xlink" x="0px" y="0px"
	 width="130px" height="130px" viewBox="0 0 130 130" enable-background="new 0 0 130 130" xml:space="preserve">
<g>
	<g>
		<g>
			<g>
				<polygon fill="#5B94A5" points="44.064,89.336 44.064,92.682 52.79,101.027 87.529,121.123 93.324,121.123 87.529,114.432 				
					"/>
				<polyline fill="#53869B" points="87.529,121.123 93.324,121.123 87.529,114.432 44.064,89.336 				"/>
				<polygon fill="#85B3C6" points="93.324,121.123 96.223,119.449 90.427,112.758 87.529,114.432 				"/>
				<polygon fill="#76A1B7" points="44.064,89.336 46.962,87.662 90.427,112.758 87.529,114.432 				"/>
				<polygon fill="#5B94A5" points="57.676,97.193 61.461,99.381 61.461,96.033 57.676,93.848 				"/>
			</g>
			<g>
				<polygon fill="#B2D5D8" points="57.676,80.287 59.567,81.381 59.567,97.729 57.676,96.637 				"/>
				<polyline fill="#9BC0C6" points="57.676,80.287 59.567,81.381 59.567,97.729 				"/>
				<polygon fill="#637D82" points="61.461,80.287 59.567,81.381 59.567,97.729 61.461,96.637 				"/>
				<polyline fill="#5D767C" points="61.461,80.287 59.567,81.381 59.567,97.729 				"/>
			</g>
			<polygon fill="#5B94A5" points="77.459,108.629 81.244,110.814 81.244,107.469 77.459,105.281 			"/>
			<g>
				<polygon fill="#B2D5D8" points="77.459,91.723 79.351,92.816 79.351,109.162 77.459,108.07 				"/>
				<polyline fill="#9BC0C6" points="77.459,91.723 79.351,92.816 79.351,109.162 				"/>
				<polygon fill="#637D82" points="81.244,91.723 79.351,92.816 79.351,109.162 81.244,108.07 				"/>
				<polyline fill="#5D767C" points="81.244,91.723 79.351,92.816 79.351,109.162 				"/>
			</g>
		</g>
		<g>
			<g>
				<polygon fill="#5B94A5" points="62.178,78.518 62.178,81.863 70.902,90.211 105.643,110.305 111.438,110.305 105.643,103.613 
									"/>
				<polyline fill="#53869B" points="105.643,110.305 111.438,110.305 105.643,103.613 62.178,78.518 				"/>
				<polygon fill="#85B3C6" points="111.438,110.305 114.336,108.631 108.539,101.939 105.643,103.613 				"/>
				<polygon fill="#76A1B7" points="62.178,78.518 65.075,76.846 108.539,101.939 105.643,103.613 				"/>
				<polygon fill="#5B94A5" points="75.789,86.377 79.574,88.562 79.574,85.217 75.789,83.029 				"/>
			</g>
			<g>
				<polygon fill="#B2D5D8" points="75.789,69.469 77.681,70.562 77.681,86.91 75.789,85.818 				"/>
				<polyline fill="#9BC0C6" points="75.789,69.469 77.681,70.562 77.681,86.91 				"/>
				<polygon fill="#637D82" points="79.574,69.469 77.681,70.562 77.681,86.91 79.574,85.818 				"/>
				<polyline fill="#5D767C" points="79.574,69.469 77.681,70.562 77.681,86.91 				"/>
			</g>
			<polygon fill="#5B94A5" points="95.572,97.811 99.357,99.996 99.357,96.65 95.572,94.465 			"/>
			<g>
				<polygon fill="#B2D5D8" points="95.572,80.904 97.464,81.998 97.464,98.344 95.572,97.252 				"/>
				<polyline fill="#9BC0C6" points="95.572,80.904 97.464,81.998 97.464,98.344 				"/>
				<polygon fill="#637D82" points="99.357,80.904 97.464,81.998 97.464,98.344 99.357,97.252 				"/>
				<polyline fill="#5D767C" points="99.357,80.904 97.464,81.998 97.464,98.344 				"/>
			</g>
		</g>
		<g>
			<polygon fill="#0B2C3F" points="11.863,18.916 19.588,14.457 18.494,22.74 13.477,21.746 			"/>
			<polygon fill="#103A56" points="7.454,17.885 7.454,22.342 19.078,33.461 65.354,60.229 73.074,60.229 65.354,51.314 			"/>
			<polygon fill="#0B2C3F" points="65.354,51.314 7.454,17.885 65.354,60.229 73.074,60.229 			"/>
			<polygon fill="#22618C" points="7.454,17.885 11.314,15.656 69.215,49.086 65.354,51.314 			"/>
			<g>
				<polygon fill="#103A56" points="9.197,9.18 15.465,18.318 15.465,20.518 9.197,16.902 				"/>
				<polyline fill="#0B2C3F" points="9.197,9.18 15.465,18.318 15.465,20.518 				"/>
				<polygon fill="#103A56" points="15.465,18.318 15.986,18.018 15.986,20.217 15.466,20.518 				"/>
				<polygon fill="#22618C" points="9.197,9.18 9.721,8.877 15.986,18.018 15.465,18.318 				"/>
			</g>
			<g>
				<polygon fill="#0B2C3F" points="1,24.861 11.693,25.691 13.537,24.627 7.472,21.125 				"/>
				<polygon points="7.473,21.125 7.473,25.209 11.131,23.238 				"/>
				<polyline points="1,24.861 11.693,25.691 13.537,24.627 				"/>
				<polygon fill="#1C74A5" points="11.693,25.691 11.693,26.275 13.537,25.209 13.537,24.629 				"/>
				<polygon fill="#22618C" points="1,24.861 1,25.445 11.693,26.275 11.693,25.691 				"/>
			</g>
		</g>
		<polygon fill="#35729B" points="63.109,52.682 68.339,73.814 120.627,104.002 120.627,91.928 99.711,61.738 42.194,28.531 
			47.424,37.588 57.881,43.625 		"/>
		<polygon fill="#214B6D" points="47.418,61.723 52.646,82.855 104.935,113.043 104.935,100.967 84.02,70.779 26.502,37.572 
			31.731,46.629 42.189,52.666 		"/>
		<polyline fill="#103A56" points="104.935,113.043 104.935,100.967 84.02,70.779 26.502,37.572 		"/>
		<polygon fill="#1C74A5" points="104.935,100.967 120.627,91.928 120.627,104.002 104.935,113.043 		"/>
		<polyline fill="#22618C" points="104.935,113.043 104.935,100.967 120.627,91.928 		"/>
		<polygon fill="#3C99CE" points="84.02,70.779 99.711,61.738 120.627,91.928 104.935,100.967 		"/>
		<polyline fill="#1988BA" points="104.935,100.967 84.02,70.779 99.711,61.738 		"/>
		<polygon fill="#1C74A5" points="26.502,37.572 42.194,28.531 99.711,61.738 84.02,70.779 		"/>
		<polyline fill="#22618C" points="99.711,61.738 84.02,70.779 26.502,37.572 		"/>
		<path fill="#214B6D" d="M79.891,68.395V55.195l-12.779-4.219c-0.611,0.664-0.896,1.404-0.808,2.139H66.26v7.41L79.891,68.395z"/>
		<polygon fill="#4BBCEF" points="84.02,70.779 84.02,88.893 104.935,100.967 		"/>
		<g>
			<path fill="#1C74A5" d="M63.715,67.666c-0.003-3.494,2.477-4.92,5.498-3.172l0,0c3.027,1.744,5.5,6.029,5.5,9.523v12.705
				c0,3.49-2.473,4.918-5.496,3.176c-3.02-1.744-5.492-6.029-5.497-9.521L63.715,67.666z"/>
			<path fill="#0B2C3F" d="M69.213,64.494c-1.134-0.656-2.188-0.865-3.066-0.684c-0.355,0.633-0.573,1.436-0.573,2.43l0.005,12.713
				c0.005,3.49,2.479,7.775,5.498,9.521c1.133,0.65,2.186,0.857,3.062,0.682c0.358-0.635,0.575-1.439,0.575-2.434V74.018
				C74.713,70.523,72.24,66.238,69.213,64.494z"/>
			<path fill="#051A26" d="M74.138,89.156c0.358-0.635,0.575-1.439,0.575-2.434V74.018c0-3.494-2.473-7.779-5.5-9.523
				c-1.134-0.656-2.188-0.865-3.066-0.684"/>
		</g>
		<g>
			<path fill="#728284" d="M79.891,48.506H66.26v4.064c0,0.01,0,0.018,0,0.027v0.121h0.01c0.056,0.963,0.711,1.918,1.98,2.65
				c2.653,1.533,6.995,1.533,9.65,0c1.268-0.732,1.923-1.688,1.979-2.65h0.012V48.506z"/>
			<path fill="#9FB4B7" d="M68.25,55.369c2.653,1.533,6.995,1.533,9.65,0c1.268-0.732,1.923-1.688,1.979-2.65h0.012v-4.213H68.25
				V55.369z"/>
			<path fill="#576B6D" d="M77.9,45.445c-2.655-1.531-6.997-1.531-9.65,0c-2.655,1.533-2.655,4.039,0,5.572
				c2.653,1.531,6.995,1.531,9.65,0C80.553,49.484,80.553,46.979,77.9,45.445z"/>
			<path fill="#415556" d="M68.25,51.018c2.653,1.531,6.995,1.531,9.65,0c2.652-1.533,2.652-4.039,0-5.572"/>
		</g>
		<g>
			<g>
				<polygon fill="#A31111" points="48.05,60.566 52.017,62.855 75.103,49.41 71.238,47.178 				"/>
				<polygon fill="#EA0606" points="17.148,77.658 22.515,80.758 53.75,62.564 48.521,59.545 				"/>
			</g>
			<g>
				<polygon fill="#A31111" points="73.37,46.141 77.337,48.43 100.423,34.984 96.559,32.754 				"/>
				<polygon fill="#EA0606" points="92.398,34.369 97.764,37.467 129,19.275 123.771,16.256 				"/>
			</g>
		</g>
		<g>
			<g>
				<polygon fill="#A31111" points="98.098,60.566 94.131,62.855 71.046,49.41 74.91,47.178 				"/>
				<polygon fill="#EA0606" points="129,77.658 123.634,80.758 92.398,62.564 97.627,59.545 				"/>
			</g>
			<g>
				<polygon fill="#A31111" points="72.777,46.141 68.811,48.43 45.726,34.984 49.59,32.754 				"/>
				<polygon fill="#EA0606" points="53.75,34.369 48.384,37.467 17.148,19.275 22.377,16.256 				"/>
			</g>
		</g>
		<g>
			<path fill="#728284" d="M77.287,44.738h-8.426v2.512c0,0.006,0,0.012,0,0.016v0.074h0.006c0.035,0.596,0.441,1.188,1.225,1.641
				c1.641,0.947,4.324,0.947,5.966,0c0.783-0.453,1.188-1.045,1.223-1.641h0.007V44.738z"/>
			<path fill="#9FB4B7" d="M70.092,48.98c1.641,0.947,4.324,0.947,5.966,0c0.783-0.453,1.188-1.045,1.223-1.641h0.007v-2.602h-7.195
				V48.98z"/>
			<path fill="#576B6D" d="M76.058,42.844c-1.642-0.945-4.325-0.945-5.966,0c-1.641,0.947-1.641,2.498,0,3.445s4.324,0.947,5.966,0
				C77.697,45.342,77.697,43.791,76.058,42.844z"/>
			<path fill="#415556" d="M70.092,46.289c1.641,0.947,4.324,0.947,5.966,0c1.64-0.947,1.64-2.498,0-3.445"/>
		</g>
	</g>
	<g>
		<polygon fill="#C40C0C" points="119.451,100.018 119.451,102.646 111.527,107.223 111.527,104.59 		"/>
		<polygon fill="#EA0606" points="117.144,98.717 119.451,100.049 111.528,104.621 109.223,103.287 		"/>
		<g>
			<polyline fill="#A31111" points="109.223,103.287 111.527,104.621 111.527,107.223 109.219,105.889 			"/>
		</g>
	</g>
</g>
</svg>
