<?xml version="1.0" encoding="utf-8"?>
<!-- Generator: Adobe Illustrator 16.0.0, SVG Export Plug-In . SVG Version: 6.00 Build 0)  -->
<!DOCTYPE svg PUBLIC "-//W3C//DTD SVG 1.1//EN" "http://www.w3.org/Graphics/SVG/1.1/DTD/svg11.dtd">
<svg version="1.1" id="Layer_1" xmlns="http://www.w3.org/2000/svg" xmlns:xlink="http://www.w3.org/1999/xlink" x="0px" y="0px"
	 width="130px" height="130px" viewBox="0 0 130 130" enable-background="new 0 0 130 130" xml:space="preserve">
<g>
	<g>
		<polygon fill="#0EA862" points="21.614,26.049 65,1 65,51.097 		"/>
		<polygon fill="#0DC96F" points="108.386,26.049 65,1 65,51.097 		"/>
	</g>
	<g>
		<g>
			<polygon fill="#C5C6AF" points="70.598,109.563 73.9,111.471 73.9,115.284 70.598,113.378 			"/>
			<polyline fill="#B7B79F" points="70.598,109.563 73.9,111.471 73.9,115.284 			"/>
			<polygon fill="#82806B" points="77.203,109.563 73.9,111.471 73.9,115.284 77.203,113.378 			"/>
			<polyline fill="#77755D" points="77.203,109.563 73.9,111.471 73.9,115.284 			"/>
			<polygon fill="#C5C6AF" points="73.9,111.471 70.598,109.563 73.9,107.657 77.203,109.563 			"/>
			<polyline fill="#B7B79F" points="73.9,107.657 77.203,109.563 73.9,111.471 			"/>
		</g>
		<g>
			<polygon fill="#C5C6AF" points="58.395,106.353 61.697,108.259 61.697,112.073 58.395,110.166 			"/>
			<polyline fill="#B7B79F" points="58.395,106.353 61.697,108.259 61.697,112.073 			"/>
			<polygon fill="#82806B" points="65,106.353 61.697,108.259 61.697,112.073 65,110.166 			"/>
			<polyline fill="#77755D" points="65,106.353 61.697,108.259 61.697,112.073 			"/>
			<polygon fill="#C5C6AF" points="61.697,108.259 58.395,106.353 61.697,104.446 65,106.353 			"/>
			<polyline fill="#B7B79F" points="61.697,104.446 65,106.353 61.697,108.259 			"/>
		</g>
		<g>
			<polygon fill="#C1753D" points="57.599,116.181 65,120.454 65,129 57.599,124.727 			"/>
			<polygon fill="#A3632E" points="57.599,116.181 65,120.454 65,129 57.599,122.7 			"/>
			<polygon fill="#A3632E" points="72.401,116.181 65,120.454 65,129 72.401,124.727 			"/>
			<polygon fill="#7F4D1F" points="72.401,116.181 65,120.454 65,129 72.401,122.59 			"/>
		</g>
		<polygon fill="#7F4D1F" points="56.1,111.471 65,116.608 65,126.885 56.1,121.747 		"/>
		<polyline fill="#6B3D17" points="56.1,111.471 65,116.608 65,126.885 		"/>
		<polygon fill="#512D10" points="73.9,111.471 65,116.608 65,126.885 73.9,121.747 		"/>
		<polyline fill="#3F1F0A" points="73.9,111.471 65,116.608 65,126.885 		"/>
		<polygon fill="#826955" points="65,116.608 56.1,111.471 65,106.333 73.9,111.471 		"/>
		<polyline fill="#685142" points="65,106.333 73.9,111.471 65,116.608 		"/>
		<g>
			<polygon fill="#C5C6AF" points="52.797,113.378 56.1,115.284 56.1,119.098 52.797,117.19 			"/>
			<polyline fill="#B7B79F" points="52.797,113.378 56.1,115.284 56.1,119.098 			"/>
			<polygon fill="#82806B" points="59.402,113.378 56.1,115.284 56.1,119.098 59.402,117.19 			"/>
			<polyline fill="#77755D" points="59.402,113.378 56.1,115.284 56.1,119.098 			"/>
			<polygon fill="#C5C6AF" points="56.1,115.284 52.797,113.378 56.1,111.471 59.402,113.378 			"/>
			<polyline fill="#B7B79F" points="56.1,111.471 59.402,113.378 56.1,115.284 			"/>
		</g>
		<g>
			<polygon fill="#C5C6AF" points="65,116.589 68.303,118.495 68.303,122.309 65,120.402 			"/>
			<polyline fill="#B7B79F" points="65,116.589 68.303,118.495 68.303,122.309 			"/>
			<polygon fill="#82806B" points="71.605,116.589 68.303,118.495 68.303,122.309 71.605,120.402 			"/>
			<polyline fill="#77755D" points="71.605,116.589 68.303,118.495 68.303,122.309 			"/>
			<polygon fill="#C5C6AF" points="68.303,118.495 65,116.589 68.303,114.682 71.605,116.589 			"/>
			<polyline fill="#B7B79F" points="68.303,114.682 71.605,116.589 68.303,118.495 			"/>
		</g>
		<polygon fill="#190C05" points="65,116.608 58.603,112.915 65,109.223 71.397,112.915 		"/>
	</g>
	<g>
		<polygon fill="#9FB4B7" points="65,81.168 67.046,82.345 65,83.538 62.954,82.345 		"/>
		<polygon fill="#576B6D" points="62.954,82.345 65,83.538 65,104.221 62.954,103.04 		"/>
		<polyline fill="#415556" points="62.954,82.345 65,83.538 65,104.221 		"/>
		<polygon fill="#7E9091" points="67.046,82.345 65,83.538 65,104.221 67.046,103.04 		"/>
		<polyline fill="#728284" points="67.046,82.345 65,83.538 65,104.221 		"/>
	</g>
	<g>
		<polygon fill="#9FB4B7" points="65,80.15 62.954,81.327 65,82.521 67.046,81.327 		"/>
		<polygon fill="#576B6D" points="67.046,81.327 65,82.521 65,103.203 67.046,102.022 		"/>
		<polyline fill="#415556" points="67.046,81.327 65,82.521 65,103.203 		"/>
		<polygon fill="#7E9091" points="62.954,81.327 65,82.521 65,103.203 62.954,102.022 		"/>
		<polyline fill="#728284" points="62.954,81.327 65,82.521 65,103.203 		"/>
	</g>
	<g>
		<polygon fill="#9FB4B7" points="65,79.173 67.046,80.351 65,81.543 62.954,80.351 		"/>
		<polygon fill="#576B6D" points="62.954,80.351 65,81.543 65,102.226 62.954,101.045 		"/>
		<polyline fill="#415556" points="62.954,80.351 65,81.543 65,102.226 		"/>
		<polygon fill="#7E9091" points="67.046,80.351 65,81.543 65,102.226 67.046,101.045 		"/>
		<polyline fill="#728284" points="67.046,80.351 65,81.543 65,102.226 		"/>
	</g>
	<polygon fill="#0EA862" points="65,101.194 46.405,90.459 21.614,26.049 46.405,40.362 	"/>
	<polygon fill="#096B68" points="46.405,40.362 21.614,26.049 65,101.194 	"/>
	<polygon fill="#0EA862" points="65,101.194 83.595,90.459 108.386,26.049 83.595,40.362 	"/>
	<polygon fill="#048E6A" points="83.595,40.362 65,101.194 108.386,26.049 	"/>
	<g>
		<polyline fill="#048E6A" points="65,101.194 64.792,100.516 46.405,40.362 65,29.627 		"/>
		<polyline fill="#096B68" points="65,101.194 65.208,100.516 83.595,40.362 65,29.627 		"/>
	</g>
	<g>
		<polygon fill="#0DC96F" points="21.614,26.049 65,21.874 65,51.097 		"/>
		<polygon fill="#0EA862" points="108.386,26.049 65,21.874 65,51.097 		"/>
	</g>
</g>
</svg>
