<?xml version="1.0" encoding="utf-8"?>
<!-- Generator: Adobe Illustrator 16.0.0, SVG Export Plug-In . SVG Version: 6.00 Build 0)  -->
<!DOCTYPE svg PUBLIC "-//W3C//DTD SVG 1.1//EN" "http://www.w3.org/Graphics/SVG/1.1/DTD/svg11.dtd">
<svg version="1.1" id="Layer_1" xmlns="http://www.w3.org/2000/svg" xmlns:xlink="http://www.w3.org/1999/xlink" x="0px" y="0px"
	 width="130px" height="130px" viewBox="0 0 130 130" enable-background="new 0 0 130 130" xml:space="preserve">
<g>
	<g>
		<g>
			<polygon fill="#CFD6C1" points="71.212,94.615 93.147,107.236 54.833,129.553 32.863,116.758 			"/>
		</g>
		<g>
			<polygon fill="#BA8E2B" points="101.235,53.904 101.235,58.064 88.703,65.303 88.703,61.137 			"/>
			<polygon fill="#DDB34B" points="97.588,51.846 101.235,53.957 88.704,61.189 85.053,59.08 			"/>
			<g>
				<polyline fill="#FF8500" points="85.059,60.434 88.709,62.541 88.709,66.656 85.055,64.547 				"/>
			</g>
		</g>
		<g>
			<polygon fill="#BA8E2B" points="83.892,43.961 83.892,48.121 71.359,55.361 71.359,51.195 			"/>
			<polygon fill="#DDB34B" points="80.244,41.904 83.892,44.014 71.36,51.248 67.709,49.137 			"/>
			<g>
				<polyline fill="#FF8500" points="67.715,50.49 71.365,52.598 71.365,56.715 67.709,54.604 				"/>
			</g>
		</g>
		<g>
			<polygon fill="#8CADB5" points="89.761,79.295 91.453,80.273 91.453,108.17 89.761,107.191 			"/>
			<polygon fill="#7C949B" points="93.147,79.295 91.453,80.273 91.453,108.17 93.147,107.191 			"/>
		</g>
		<g>
			<g>
				<g>
					<path fill="#084F77" d="M42.267,110.359c3.922-2.287,7.147-7.889,7.165-12.439c0.024-4.553-3.186-6.414-7.125-4.139
						c-3.941,2.273-7.167,7.869-7.167,12.439C35.14,110.781,38.351,112.645,42.267,110.359z"/>
					<polygon fill="#084F77" points="42.688,113.996 37.399,110.947 37.399,100.539 42.688,97.402 					"/>
					<polygon fill="#084F77" points="47.302,93.275 52.688,96.385 52.688,106.99 47.302,110.188 					"/>
				</g>
				<path fill="#0D2C49" d="M47.599,113.398c3.918-2.287,7.144-7.885,7.164-12.432c0.019-4.557-3.19-6.414-7.128-4.143
					c-3.943,2.277-7.167,7.877-7.167,12.436C40.468,113.824,43.672,115.689,47.599,113.398z"/>
				<path fill="#0B3A60" d="M47.635,96.824c-3.943,2.277-7.167,7.877-7.167,12.436c0,4.564,3.204,6.43,7.131,4.139"/>
			</g>
			<g>
				<path fill="#80ADB2" d="M47.605,109.9c2.262-1.322,4.124-4.555,4.137-7.184c0.013-2.627-1.841-3.703-4.116-2.389
					s-4.14,4.545-4.14,7.182C43.486,110.145,45.339,111.221,47.605,109.9z"/>
				<path fill="#99C2C4" d="M43.486,107.51c0,2.635,1.853,3.711,4.119,2.391c2.262-1.322,4.124-4.555,4.137-7.184"/>
				<path fill="#6F9193" d="M47.626,100.328c-2.275,1.314-4.14,4.545-4.14,7.182c0,2.635,1.853,3.711,4.119,2.391"/>
			</g>
		</g>
		<g>
			<polygon fill="#D32A6F" points="93.147,59.605 54.833,81.924 54.833,115.574 93.147,93.449 			"/>
			<polyline fill="#EF4381" points="93.147,59.605 54.833,81.924 54.833,115.574 			"/>
			<g>
				<polygon fill="#2DB28C" points="71.212,46.984 93.147,59.605 54.833,81.924 32.863,69.127 				"/>
			</g>
			<g>
				<polyline fill="#108E85" points="93.147,59.605 54.833,81.924 32.863,69.127 				"/>
			</g>
			<path fill="#0E7A6F" d="M56.289,60.184h16.583v4.936c0,0.016,0,0.031,0,0.047v0.139h-0.011c-0.068,1.174-0.866,2.336-2.411,3.227
				c-3.227,1.867-8.508,1.867-11.738,0c-1.542-0.891-2.339-2.053-2.406-3.227h-0.017V60.184z"/>
			<polygon fill="#FFB0C8" points="32.846,69.115 54.833,81.924 54.833,115.574 32.846,102.877 			"/>
			<polyline fill="#FF7D9F" points="32.846,69.115 54.833,81.924 54.833,115.574 			"/>
			<polygon fill="#EF4381" points="54.833,112.518 32.846,99.822 32.846,98.123 54.833,110.818 			"/>
			<polygon fill="#EF4381" points="54.833,108.93 32.846,96.232 32.846,94.533 54.833,107.23 			"/>
			<polygon fill="#EF4381" points="54.833,105.342 32.846,92.645 32.846,90.945 54.833,103.643 			"/>
			<polygon fill="#EF4381" points="54.833,101.752 32.846,89.057 32.846,87.357 54.833,100.053 			"/>
			<polygon fill="#EF4381" points="54.833,98.164 32.846,85.467 32.846,83.768 54.833,96.465 			"/>
			<polygon fill="#EF4381" points="54.833,94.576 32.846,81.879 32.846,80.18 54.833,92.875 			"/>
			<polygon fill="#EF4381" points="54.833,90.986 32.846,78.291 32.846,76.59 54.833,89.287 			"/>
			<polygon fill="#EF4381" points="54.833,87.398 32.846,74.701 32.846,73.002 54.833,85.699 			"/>
		</g>
		<g>
			<path fill="#A6AF94" d="M56.812,75.555c-1.682,0.973-4.434,0.973-6.117,0c-1.682-0.971-1.682-2.561,0-3.533
				c1.684-0.971,4.436-0.971,6.117,0C58.496,72.994,58.496,74.584,56.812,75.555z"/>
			<rect x="49.433" y="71.203" fill="#A6AF94" width="8.642" height="2.67"/>
			<path fill="#EF4381" d="M51.489,73.158c-0.281-0.102-0.549-0.221-0.794-0.363c-1.682-0.971-1.682-2.561,0-3.533
				c1.684-0.969,4.436-0.969,6.117,0c1.684,0.973,1.684,2.562,0,3.533C55.376,73.627,53.155,73.746,51.489,73.158"/>
		</g>
		<g>
			<path fill="#A6AF94" d="M56.289,58.662h16.583v4.936c0,0.016,0,0.031,0,0.047v0.139h-0.011c-0.068,1.174-0.866,2.336-2.411,3.227
				c-3.227,1.867-8.508,1.867-11.738,0c-1.542-0.891-2.339-2.053-2.406-3.227h-0.017V58.662z"/>
			<path fill="#949B83" d="M56.289,61.705H70.45v4.936c0,0.016,0,0.031,0,0.049v0.137h-0.012c-0.004,0.068-0.02,0.135-0.028,0.203
				c-3.229,1.844-8.479,1.84-11.698-0.02c-1.542-0.891-2.339-2.053-2.406-3.227h-0.017V61.705z"/>
			<path fill="#EF4381" d="M58.712,54.938c3.23-1.863,8.512-1.863,11.738,0c3.231,1.863,3.231,4.914,0,6.777
				c-2.758,1.594-7.017,1.826-10.213,0.695c-0.543-0.193-1.055-0.424-1.525-0.695C55.484,59.852,55.484,56.801,58.712,54.938z"/>
			<path fill="#D32A6F" d="M70.45,61.715c-2.758,1.594-7.017,1.826-10.213,0.695c-0.543-0.193-1.055-0.424-1.525-0.695
				c-3.228-1.863-3.228-4.914,0-6.777"/>
		</g>
		<g>
			<path fill="#A6AF94" d="M48.171,70.564c-1.684,0.973-4.434,0.973-6.118,0c-1.682-0.971-1.682-2.561,0-3.531
				c1.685-0.973,4.435-0.973,6.118,0C49.855,68.004,49.855,69.594,48.171,70.564z"/>
			<rect x="40.791" y="66.215" fill="#A6AF94" width="8.641" height="2.668"/>
			<path fill="#EF4381" d="M42.848,68.168c-0.282-0.1-0.55-0.221-0.795-0.361c-1.682-0.973-1.682-2.562,0-3.533
				c1.685-0.971,4.435-0.971,6.118,0c1.685,0.971,1.685,2.561,0,3.533C46.732,68.637,44.513,68.758,42.848,68.168"/>
		</g>
		<g>
			<g>
				<g>
					<path fill="#084F77" d="M63.753,122.676c3.922-2.289,7.146-7.889,7.165-12.439c0.023-4.553-3.186-6.414-7.126-4.139
						c-3.94,2.273-7.166,7.869-7.166,12.439C56.626,123.098,59.837,124.961,63.753,122.676z"/>
					<polygon fill="#084F77" points="64.173,126.312 58.886,123.264 58.886,112.855 64.173,109.719 					"/>
					<polygon fill="#084F77" points="68.788,105.592 74.175,108.701 74.175,119.307 68.788,122.504 					"/>
				</g>
				<path fill="#0D2C49" d="M69.083,125.715c3.92-2.287,7.146-7.885,7.165-12.43c0.02-4.559-3.19-6.416-7.127-4.145
					c-3.943,2.277-7.167,7.877-7.167,12.436C61.954,126.141,65.158,128.006,69.083,125.715z"/>
				<path fill="#0B3A60" d="M69.121,109.141c-3.943,2.277-7.167,7.877-7.167,12.436c0,4.564,3.204,6.43,7.129,4.139"/>
			</g>
			<g>
				<path fill="#80ADB2" d="M69.092,122.215c2.262-1.32,4.124-4.553,4.137-7.18c0.013-2.631-1.841-3.705-4.116-2.391
					s-4.14,4.545-4.14,7.182S66.826,123.537,69.092,122.215z"/>
				<path fill="#99C2C4" d="M64.973,119.826c0,2.637,1.854,3.711,4.119,2.389c2.262-1.32,4.124-4.553,4.137-7.18"/>
				<path fill="#6F9193" d="M69.112,112.645c-2.275,1.314-4.14,4.545-4.14,7.182s1.854,3.711,4.119,2.389"/>
			</g>
		</g>
		<g>
			<polygon fill="#8CADB5" points="69.486,21.566 71.177,22.545 71.177,50.443 69.486,49.463 			"/>
			<polygon fill="#7C949B" points="72.873,21.566 71.177,22.545 71.177,50.443 72.873,49.463 			"/>
		</g>
		<g>
			<g>
				<path fill="#D32A6F" d="M52.217,12.863c24.613-14.209,14.234-13.684,37.918,0c10.432,6.023,10.432,15.871,0,21.895
					c-10.423,6.021-27.485,6.021-37.918,0C41.794,28.734,41.794,18.887,52.217,12.863z"/>
				<path fill="#EF4381" d="M52.217,34.758c-10.423-6.023-10.423-15.871,0-21.895c24.613-14.209,14.234-13.684,37.918,0"/>
				<path fill="#108E85" d="M81.7,19.158c-5.785,3.344-15.255,3.344-21.046,0c-5.785-3.342-5.785-8.809,0-12.152
					c13.662-7.887,7.899-7.596,21.046,0C87.49,10.35,87.49,15.816,81.7,19.158z"/>
				<path fill="#2DB28C" d="M60.654,19.158c-5.785-3.342-5.785-8.809,0-12.152c13.662-7.887,7.899-7.596,21.046,0"/>
				<path fill="#D32A6F" d="M64.129,4.338c9.151-5.285,5.292-5.09,14.1,0c3.878,2.238,3.878,5.9,0,8.141
					c-3.877,2.24-10.221,2.24-14.1,0C60.253,10.238,60.253,6.576,64.129,4.338z"/>
				<path fill="#EF4381" d="M64.129,12.479c-3.876-2.24-3.876-5.902,0-8.141c9.151-5.285,5.292-5.09,14.1,0"/>
			</g>
		</g>
	</g>
	<path opacity="0.4" fill="#D32A6F" d="M43.959,75.609c-3.035-1.752-7.863-1.834-11.113-0.291v14.4l2.271,9.021l0.237,0.941
		l1.05,4.17c-0.001,0-0.001,0-0.001,0l0.176,0.697l0.143,0.566l2.399,1.385l1.716-6.818l0.116-0.463l1.39-5.521l0.058-0.229
		l1.126-4.475l0.072-0.289l1.474-5.854c0.812-0.736,1.245-1.574,1.294-2.418l0.014-0.297v-1.277h-0.011
		C46.311,77.678,45.513,76.506,43.959,75.609z"/>
	<g>
		<g>
			<path fill="#CCA33E" d="M42.091,77.85c2.795,1.613,2.808,4.25,0.025,5.857c-2.783,1.605-7.336,1.605-10.119,0
				c-2.783-1.607-2.794-4.244-0.026-5.857C34.74,76.234,39.293,76.234,42.091,77.85z"/>
			<path fill="#BA8E2B" d="M42.091,77.85c2.795,1.613,2.808,4.25,0.025,5.857c-2.783,1.605-7.336,1.605-10.119,0"/>
			<g>
				<polygon fill="#BA8E2B" points="37.049,109.873 37.049,81.293 44.186,81.514 				"/>
				<polygon fill="#CCA33E" points="37.049,109.873 39.908,77.229 29.911,81.514 				"/>
				<polygon fill="#DDB34B" points="37.049,109.873 33.897,84.055 29.911,81.514 				"/>
			</g>
		</g>
		<g>
			<g>
				<path fill="#CCA33E" d="M45.333,78.16H28.767v1.395c0,0.01,0,0.021,0-0.264v0.146l0.012,0.295
					c0.067,1.174,0.865,2.334,2.406,3.223c3.227,1.863,8.502,1.863,11.729,0c1.543-0.889,2.338-2.049,2.406-3.223l0.014-0.295V78.16
					z"/>
				<path fill="#F7C75C" d="M31.358,87.264l0.26,1.029c3.101,1.557,7.758,1.557,10.861,0.002l0.258-1.031
					C39.556,89,34.54,89,31.358,87.264z"/>
				<path fill="#F7C75C" d="M32.744,92.768l0.246,0.979c2.511,0.812,5.604,0.812,8.116,0l0.247-0.979
					C38.719,93.691,35.378,93.691,32.744,92.768z"/>
				<path fill="#F7C75C" d="M34.07,98.039l0.237,0.943c1.771,0.355,3.709,0.355,5.482,0l0.236-0.943
					C38.113,98.461,35.983,98.461,34.07,98.039z"/>
				<path fill="#F7C75C" d="M35.356,103.152l0.232,0.92c0.965,0.098,1.954,0.098,2.92,0l0.231-0.92
					C37.624,103.285,36.473,103.285,35.356,103.152z"/>
				<path fill="#BA8E2B" d="M31.185,82.955c3.227,1.863,8.502,1.863,11.729,0c1.543-0.889,2.338-2.049,2.406-3.223l0.014-0.295
					V78.16H31.185V82.955z"/>
				<path fill="#DDB34B" d="M42.913,74.908c-3.227-1.861-8.502-1.861-11.729,0c-3.227,1.863-3.227,4.91,0,6.773
					c3.227,1.861,8.502,1.861,11.729,0C46.14,79.818,46.14,76.771,42.913,74.908z"/>
				<path fill="#EABF5E" d="M42.913,74.908c-3.227-1.861-8.502-1.861-11.729,0"/>
				<path fill="#CCA33E" d="M31.185,81.682c3.227,1.861,8.502,1.861,11.729,0c3.227-1.863,3.227-4.91,0-6.773"/>
				<path fill="#BA8E2B" d="M42.055,75.406c-2.755-1.592-7.258-1.592-10.011,0c-2.755,1.588-2.755,4.189,0,5.779
					c2.753,1.59,7.256,1.59,10.011,0C44.808,79.596,44.808,76.994,42.055,75.406z"/>
				<path fill="#108E85" d="M41.756,75.822c-2.59-1.494-6.823-1.494-9.413,0c-2.591,1.494-2.591,3.939,0,5.434
					c2.59,1.496,6.823,1.496,9.413,0C44.345,79.762,44.345,77.316,41.756,75.822z"/>
				<path fill="#0E7A6F" d="M32.343,81.256c2.59,1.496,6.823,1.496,9.413,0c2.589-1.494,2.589-3.939,0-5.434"/>
			</g>
		</g>
	</g>
</g>
</svg>
