<?xml version="1.0" encoding="utf-8"?>
<!-- Generator: Adobe Illustrator 16.0.0, SVG Export Plug-In . SVG Version: 6.00 Build 0)  -->
<!DOCTYPE svg PUBLIC "-//W3C//DTD SVG 1.1//EN" "http://www.w3.org/Graphics/SVG/1.1/DTD/svg11.dtd">
<svg version="1.1" id="Layer_1" xmlns="http://www.w3.org/2000/svg" xmlns:xlink="http://www.w3.org/1999/xlink" x="0px" y="0px"
	 width="130px" height="130px" viewBox="0 0 130 130" enable-background="new 0 0 130 130" xml:space="preserve">
<g>
	<g>
		<g>
			<g>
				<g>
					<polyline fill="#543119" points="46.594,116.401 45.676,115.862 45.664,69.782 46.594,70.313 46.594,116.401 					"/>
					<polygon fill="#7A4A2A" points="46.579,70.317 45.664,69.791 67.532,57.164 68.443,57.693 					"/>
					<polygon fill="#9E633B" points="68.458,57.693 68.458,103.78 46.588,116.401 46.588,70.317 					"/>
					<polyline fill="#935C37" points="46.588,116.401 46.588,70.317 68.458,57.693 					"/>
				</g>
			</g>
			<polygon fill="#7A4A2A" points="49.708,114.602 50.745,114.003 50.745,67.917 49.708,68.517 			"/>
			<polygon fill="#7A4A2A" points="54.548,111.808 55.585,111.21 55.585,65.124 54.548,65.722 			"/>
			<polygon fill="#7A4A2A" points="59.388,109.015 60.425,108.417 60.425,62.329 59.388,62.929 			"/>
			<polygon fill="#7A4A2A" points="64.228,106.222 65.265,105.624 65.265,59.537 64.228,60.136 			"/>
			<polygon opacity="0.8" fill="#9E633B" points="68.458,57.693 68.458,103.78 46.588,116.401 46.588,70.317 			"/>
		</g>
		<g>
			<g>
				<g>
					<polyline fill="#543119" points="67.643,128.405 66.724,127.864 66.712,81.785 67.643,82.315 67.643,128.405 					"/>
					<polygon fill="#7A4A2A" points="67.628,82.319 66.712,81.794 88.581,69.167 89.492,69.696 					"/>
					<polygon fill="#63381A" points="89.507,69.696 89.507,115.784 67.637,128.405 67.637,82.319 					"/>
					<polyline fill="#543119" points="67.637,128.405 67.637,82.319 89.507,69.696 					"/>
				</g>
			</g>
			<polygon fill="#7A4A2A" points="70.757,126.604 71.794,126.006 71.794,79.919 70.757,80.519 			"/>
			<polygon fill="#7A4A2A" points="75.597,123.812 76.634,123.213 76.634,77.127 75.597,77.726 			"/>
			<polygon fill="#7A4A2A" points="80.437,121.018 81.474,120.42 81.474,74.333 80.437,74.933 			"/>
			<polygon fill="#7A4A2A" points="85.276,118.226 86.313,117.626 86.313,71.54 85.276,72.138 			"/>
		</g>
		<g>
			<g>
				<g>
					<polyline fill="#543119" points="66.727,129 67.645,128.46 67.656,82.381 66.727,82.911 66.727,129 					"/>
					<polygon fill="#7A4A2A" points="66.741,82.915 67.656,82.39 45.788,69.763 44.877,70.292 					"/>
					<polygon fill="#9E633B" points="44.862,70.292 44.862,116.379 66.732,129 66.732,82.915 					"/>
					<polyline fill="#935C37" points="66.732,129 66.732,82.915 44.862,70.292 					"/>
				</g>
			</g>
			<polygon fill="#7A4A2A" points="63.612,127.2 62.575,126.601 62.575,80.515 63.612,81.114 			"/>
			<polygon fill="#7A4A2A" points="58.772,124.406 57.735,123.808 57.735,77.722 58.772,78.319 			"/>
			<polygon fill="#7A4A2A" points="53.933,121.612 52.896,121.015 52.896,74.928 53.933,75.527 			"/>
			<polygon fill="#7A4A2A" points="49.093,118.819 48.056,118.222 48.056,72.136 49.093,72.733 			"/>
		</g>
		<g>
			<g>
				<polygon fill="#5E706D" points="45.608,70.252 49.166,68.201 52.725,70.252 49.166,72.308 				"/>
				<polygon fill="#6D360C" points="49.166,72.308 49.166,2.739 51.073,3.841 52.725,70.252 				"/>
				<polyline fill="#5B2907" points="49.166,72.308 49.166,2.739 51.073,3.841 				"/>
				<polygon fill="#9E633B" points="49.166,72.308 49.166,2.739 47.259,3.841 45.608,70.252 				"/>
				<polygon fill="#543119" points="47.271,3.831 49.166,2.739 51.062,3.831 49.166,4.926 				"/>
				<g>
					<polygon fill="#BC723F" points="74.419,72.715 55.509,83.484 50.156,80.398 42.151,75.784 61.083,65.015 					"/>
					<polyline fill="#AA6535" points="61.083,65.015 74.419,72.715 55.509,83.484 50.156,80.398 					"/>
					<g>
						<polygon fill="#9E633B" points="50.156,80.398 55.488,83.472 55.488,84.251 42.173,76.54 42.173,75.797 						"/>
					</g>
					<g>
						<polygon fill="#543119" points="74.419,73.472 55.509,84.251 55.509,83.484 74.419,72.715 						"/>
					</g>
				</g>
			</g>
			<g>
				<polygon fill="#5E706D" points="63.438,80.519 66.997,78.468 70.556,80.519 66.997,82.573 				"/>
				<polygon fill="#6D360C" points="66.997,82.573 66.997,13.006 68.904,14.108 70.556,80.519 				"/>
				<polyline fill="#5B2907" points="66.997,82.573 66.997,13.006 68.904,14.108 				"/>
				<polygon fill="#9E633B" points="66.997,82.573 66.997,13.006 65.091,14.108 63.438,80.519 				"/>
				<polygon fill="#543119" points="65.102,14.099 66.997,13.006 68.893,14.099 66.997,15.192 				"/>
			</g>
		</g>
		<g>
			<polygon fill="#5B2907" points="70.058,18.966 40.493,1.899 40.493,18.067 70.058,35.134 			"/>
			<polyline fill="#6D360C" points="70.058,35.134 70.058,18.966 40.493,1.899 			"/>
			<polygon fill="#542A13" points="68.511,19.89 42.036,4.61 42.036,17.169 68.511,32.445 			"/>
			<polyline fill="#44220C" points="68.511,32.445 68.511,19.89 42.036,4.61 			"/>
			<polygon fill="#9E633B" points="71.61,18.067 42.048,1 40.493,1.899 70.058,18.966 			"/>
			<polygon fill="#5B2907" points="71.61,18.067 70.058,18.966 70.058,35.134 71.61,34.237 			"/>
		</g>
	</g>
	<g>
		<g>
			<polyline fill="#FFC95C" points="62.923,123.463 63.58,123.071 63.588,90.083 62.923,90.465 62.923,123.463 			"/>
			<polygon fill="#F9A230" points="62.934,90.467 63.588,90.091 47.933,81.053 47.281,81.429 			"/>
			<polygon fill="#CC861F" points="47.271,81.429 47.271,114.424 62.926,123.463 62.926,90.467 			"/>
			<polyline fill="#BC720F" points="62.926,123.463 62.926,90.467 47.271,81.429 			"/>
			<polygon fill="#9B590B" points="48.146,84.645 48.146,113.951 62.051,121.979 62.051,92.67 			"/>
			<polygon fill="#82490B" points="48.57,113.77 48.57,84.891 62.051,92.67 62.051,121.554 			"/>
		</g>
		<g>
			<g>
				<g>
					<path fill="#A4BCBB" d="M57.433,88.617v0.307h0.243c0,0,0.001,0,0.003,0h0.004l0,0c0.02-0.004,0.041-0.019,0.057-0.045
						c0.033-0.061,0.033-0.158,0-0.215c-0.016-0.031-0.037-0.042-0.057-0.047l0,0H57.433z"/>
					<path fill="#74918E" d="M57.698,88.907c0,0,0.002,0,0.004,0h0.003l0,0c0.004,0,0.008,0,0.012-0.002
						c0.007-0.007,0.016-0.017,0.022-0.026c0.033-0.061,0.033-0.158,0-0.215c-0.016-0.031-0.037-0.042-0.057-0.047l0,0h-0.25v0.29
						H57.698z"/>
					<path fill="#526D6A" d="M57.719,88.889h0.002h0.003l0,0c0.004,0,0.007,0,0.009,0c0.003-0.003,0.003-0.006,0.007-0.01
						c0.033-0.061,0.033-0.158,0-0.215c-0.016-0.031-0.037-0.042-0.057-0.047l0,0h-0.25v0.271H57.719z"/>
					<path fill="#3C5652" d="M57.747,88.772c0,0,0.002,0,0.005,0h0.006l0,0c0,0,0.004,0,0.007,0c0.002,0,0.002,0,0.002,0
						c0-0.042-0.01-0.079-0.027-0.108c-0.016-0.031-0.037-0.042-0.057-0.047l0,0h-0.25v0.155H57.747z"/>
					<path fill="#BCCECC" d="M57.363,88.664c-0.034,0.057-0.034,0.154,0,0.215c0.035,0.057,0.089,0.057,0.125,0
						c0.028-0.053,0.034-0.133,0.013-0.189c-0.004-0.011-0.007-0.018-0.013-0.025C57.452,88.603,57.398,88.603,57.363,88.664z"/>
					<path fill="#A4BCBB" d="M57.488,88.879c0.028-0.053,0.034-0.133,0.013-0.189c-0.004-0.011-0.007-0.018-0.013-0.025
						c-0.036-0.062-0.09-0.062-0.125,0"/>
				</g>
				<g>
					<g>
						<path fill="#232B2A" d="M57.381,88.558v0.423h0.037c0,0,0,0-0.008,0h0.004h0.008c0.03,0,0.061-0.021,0.084-0.061
							c0.047-0.082,0.047-0.219,0-0.298c-0.023-0.044-0.054-0.063-0.084-0.064h-0.008H57.381z"/>
						<path d="M57.506,88.92c0.047-0.082,0.047-0.219,0-0.298c-0.023-0.044-0.054-0.063-0.084-0.064h-0.008h-0.033v0.362H57.506z"/>
						<path fill="#2D3534" d="M57.297,88.622c-0.046,0.079-0.046,0.216,0,0.298c0.05,0.084,0.127,0.084,0.175,0
							c0.049-0.082,0.049-0.219,0-0.298C57.424,88.539,57.347,88.539,57.297,88.622z"/>
						<path fill="#C7D8D5" d="M57.297,88.622c-0.046,0.079-0.046,0.216,0,0.298"/>
						<path fill="#232B2A" d="M57.472,88.92c0.049-0.082,0.049-0.219,0-0.298c-0.048-0.083-0.125-0.083-0.175,0"/>
						<path fill="#90AFAD" d="M57.31,88.641c-0.039,0.072-0.039,0.186,0,0.258c0.04,0.07,0.108,0.07,0.15,0
							c0.041-0.072,0.041-0.186,0-0.258C57.418,88.57,57.35,88.57,57.31,88.641z"/>
						<path fill="#7A9E9A" d="M57.321,88.647c-0.039,0.068-0.039,0.177,0,0.243c0.038,0.066,0.101,0.066,0.139,0
							c0.039-0.066,0.039-0.175,0-0.243C57.422,88.584,57.359,88.584,57.321,88.647z"/>
						<path fill="#6A918B" d="M57.46,88.891c0.039-0.066,0.039-0.175,0-0.243c-0.038-0.063-0.101-0.063-0.139,0"/>
					</g>
					<g>
						<path fill="#232B2A" d="M57.354,88.584v0.371h0.03c0,0,0,0-0.006,0h0.003h0.007c0.026-0.003,0.054-0.02,0.072-0.055
							c0.041-0.071,0.041-0.188,0-0.264c-0.019-0.029-0.046-0.049-0.072-0.049l-0.007-0.004H57.354z"/>
						<path d="M57.46,88.9c0.041-0.071,0.041-0.188,0-0.264c-0.019-0.029-0.046-0.049-0.072-0.049l-0.007-0.004h-0.027V88.9H57.46z"
							/>
						<path fill="#2D3534" d="M57.28,88.637c-0.042,0.076-0.042,0.192,0,0.264c0.041,0.071,0.11,0.071,0.15,0
							c0.041-0.071,0.041-0.188,0-0.264C57.391,88.566,57.321,88.566,57.28,88.637z"/>
						<path fill="#414C4A" d="M57.28,88.637c-0.042,0.076-0.042,0.192,0,0.264"/>
						<path fill="#232B2A" d="M57.431,88.9c0.041-0.071,0.041-0.188,0-0.264c-0.04-0.07-0.109-0.07-0.15,0"/>
						<path d="M57.292,88.656c-0.036,0.064-0.036,0.162,0,0.227c0.035,0.06,0.092,0.06,0.128,0c0.036-0.064,0.036-0.162,0-0.227
							C57.384,88.598,57.327,88.598,57.292,88.656z"/>
						<path fill="#2B3332" d="M57.301,88.667c-0.033,0.057-0.033,0.147,0,0.208c0.033,0.059,0.087,0.059,0.121,0
							c0.034-0.061,0.034-0.151,0-0.208C57.388,88.607,57.334,88.607,57.301,88.667z"/>
						<path fill="#232B2A" d="M57.422,88.875c0.034-0.061,0.034-0.151,0-0.208c-0.034-0.06-0.088-0.06-0.121,0"/>
					</g>
				</g>
				<g>
					<g>
						<path fill="#FFA300" d="M56.9,89.182c-0.227,0-0.412-0.186-0.412-0.412c0-0.226,0.186-0.408,0.412-0.408
							c0.225,0,0.548,0.183,0.548,0.408C57.448,88.996,57.125,89.182,56.9,89.182z"/>
						<path fill="#FFB600" d="M57.407,88.713c0-0.076-0.02-0.11-0.088-0.182c-0.074-0.089-0.293-0.17-0.419-0.17
							c-0.227,0-0.412,0.183-0.412,0.408c0,0.074,0.022,0.143,0.057,0.205c0.075,0.089,0.188,0.147,0.314,0.147
							C57.086,89.122,57.407,88.939,57.407,88.713z"/>
						<path fill="#FFC200" d="M57.319,88.531c-0.074-0.089-0.293-0.17-0.419-0.17c-0.227,0-0.412,0.183-0.412,0.408
							c0,0.074,0.022,0.143,0.057,0.205"/>
						<path opacity="0.7" fill="#FFD400" d="M56.9,88.361c-0.227,0-0.412,0.183-0.412,0.408c0,0.074,0.022,0.143,0.057,0.205"/>
					</g>
					<path fill="#FFA300" d="M57.172,89.109c0.152-0.074,0.276-0.199,0.276-0.34s-0.124-0.264-0.276-0.339
						c-0.029,0.017-0.06,0.047-0.086,0.089c-0.08,0.137-0.08,0.363,0,0.499C57.112,89.063,57.143,89.092,57.172,89.109z"/>
					<path opacity="0.5" fill="#FFD400" d="M57.125,88.955c-0.103,0-0.185-0.084-0.185-0.186c0-0.103,0.082-0.186,0.185-0.186
						s0.248,0.083,0.248,0.186C57.373,88.871,57.228,88.955,57.125,88.955z"/>
					<path opacity="0.5" fill="#FFD400" d="M56.94,88.77c0-0.103,0.082-0.186,0.185-0.186s0.248,0.083,0.248,0.186"/>
					<path opacity="0.5" fill="#FFD400" d="M57.188,88.907c-0.077,0-0.14-0.062-0.14-0.138s0.062-0.139,0.14-0.139
						c0.075,0,0.186,0.062,0.186,0.139S57.263,88.907,57.188,88.907z"/>
					<path opacity="0.5" fill="#FFD400" d="M57.048,88.77c0-0.076,0.062-0.139,0.14-0.139c0.075,0,0.186,0.062,0.186,0.139"/>
				</g>
			</g>
			<g>
				<g>
					<path fill="#A4BCBB" d="M55.739,87.629v0.301h0.244c0.002,0,0.002,0,0.002,0h0.003l0,0c0.021,0,0.042-0.016,0.057-0.043
						c0.035-0.059,0.035-0.157,0-0.217c-0.015-0.023-0.035-0.041-0.057-0.041l0,0H55.739z"/>
					<path fill="#74918E" d="M56.008,87.918L56.008,87.918h0.003l0,0c0.005,0,0.009-0.004,0.013-0.004
						c0.009-0.006,0.017-0.015,0.021-0.027c0.035-0.059,0.035-0.157,0-0.217c-0.015-0.023-0.035-0.041-0.057-0.041l0,0h-0.249v0.289
						H56.008z"/>
					<path fill="#526D6A" d="M56.025,87.899h0.002h0.008l0,0c0,0,0.003,0,0.005,0c0.002-0.003,0.005-0.011,0.005-0.013
						c0.035-0.059,0.035-0.157,0-0.217c-0.015-0.023-0.035-0.041-0.057-0.041l0,0h-0.249v0.271H56.025z"/>
					<path fill="#3C5652" d="M56.055,87.781c0.002,0,0.002,0,0.002,0h0.008l0,0c0.004,0,0.004,0,0.008,0l0,0
						c0-0.045-0.008-0.08-0.027-0.111c-0.015-0.023-0.035-0.041-0.057-0.041l0,0h-0.249v0.152H56.055z"/>
					<path fill="#BCCECC" d="M55.671,87.67c-0.035,0.06-0.035,0.158,0,0.217c0.034,0.059,0.089,0.059,0.125,0
						c0.029-0.052,0.032-0.129,0.012-0.188c-0.004-0.012-0.008-0.02-0.012-0.029C55.76,87.611,55.705,87.611,55.671,87.67z"/>
					<path fill="#A4BCBB" d="M55.796,87.887c0.029-0.052,0.032-0.129,0.012-0.188c-0.004-0.012-0.008-0.02-0.012-0.029
						c-0.036-0.059-0.091-0.059-0.125,0"/>
				</g>
				<g>
					<g>
						<path fill="#232B2A" d="M55.688,87.566v0.422h0.036c0,0,0,0-0.008,0h0.004h0.007c0.031,0,0.062-0.019,0.084-0.059
							c0.049-0.083,0.049-0.22,0-0.301c-0.022-0.041-0.053-0.062-0.084-0.062h-0.007H55.688z"/>
						<path d="M55.812,87.93c0.049-0.083,0.049-0.22,0-0.301c-0.022-0.041-0.053-0.062-0.084-0.062h-0.007h-0.032v0.363H55.812z"/>
						<path fill="#2D3534" d="M55.605,87.629c-0.048,0.081-0.048,0.218,0,0.301c0.047,0.082,0.127,0.082,0.172,0
							c0.049-0.083,0.049-0.22,0-0.301C55.732,87.547,55.652,87.547,55.605,87.629z"/>
						<path fill="#C7D8D5" d="M55.605,87.629c-0.048,0.081-0.048,0.218,0,0.301"/>
						<path fill="#232B2A" d="M55.777,87.93c0.049-0.083,0.049-0.22,0-0.301c-0.045-0.082-0.125-0.082-0.172,0"/>
						<path fill="#90AFAD" d="M55.619,87.653c-0.042,0.068-0.042,0.182,0,0.255c0.039,0.07,0.105,0.07,0.147,0
							c0.041-0.073,0.041-0.187,0-0.255C55.725,87.578,55.658,87.578,55.619,87.653z"/>
						<path fill="#7A9E9A" d="M55.63,87.658c-0.04,0.068-0.04,0.175,0,0.241c0.038,0.068,0.101,0.068,0.138,0
							c0.04-0.066,0.04-0.173,0-0.241C55.73,87.594,55.668,87.594,55.63,87.658z"/>
						<path fill="#6A918B" d="M55.768,87.899c0.04-0.066,0.04-0.173,0-0.241c-0.037-0.064-0.1-0.064-0.138,0"/>
					</g>
					<g>
						<path fill="#232B2A" d="M55.66,87.594v0.369h0.03c0,0,0.002,0-0.004,0h0.002h0.006c0.026,0,0.053-0.018,0.072-0.055
							c0.041-0.068,0.041-0.187,0-0.26c-0.02-0.037-0.046-0.052-0.072-0.054l-0.006-0.001H55.66z"/>
						<path d="M55.767,87.908c0.041-0.068,0.041-0.187,0-0.26c-0.02-0.037-0.046-0.052-0.072-0.054l-0.006-0.001H55.66v0.314H55.767
							z"/>
						<path fill="#2D3534" d="M55.588,87.648c-0.041,0.073-0.041,0.191,0,0.26c0.042,0.072,0.107,0.072,0.151,0
							c0.04-0.068,0.04-0.187,0-0.26C55.695,87.576,55.63,87.576,55.588,87.648z"/>
						<path fill="#414C4A" d="M55.588,87.648c-0.041,0.073-0.041,0.191,0,0.26"/>
						<path fill="#232B2A" d="M55.739,87.908c0.04-0.068,0.04-0.187,0-0.26c-0.044-0.072-0.109-0.072-0.151,0"/>
						<path d="M55.6,87.668c-0.035,0.062-0.035,0.16,0,0.221c0.034,0.064,0.093,0.064,0.128,0c0.034-0.061,0.034-0.159,0-0.221
							C55.692,87.606,55.634,87.606,55.6,87.668z"/>
						<path fill="#2B3332" d="M55.607,87.673c-0.034,0.061-0.034,0.15,0,0.21c0.034,0.059,0.087,0.059,0.12,0
							c0.034-0.06,0.034-0.149,0-0.21C55.694,87.616,55.642,87.616,55.607,87.673z"/>
						<path fill="#232B2A" d="M55.728,87.883c0.034-0.06,0.034-0.149,0-0.21c-0.033-0.057-0.086-0.057-0.12,0"/>
					</g>
				</g>
				<g>
					<g>
						<path fill="#FFA300" d="M55.206,88.188c-0.227,0-0.408-0.182-0.408-0.406c0-0.229,0.182-0.411,0.408-0.411
							c0.228,0,0.549,0.182,0.549,0.411C55.755,88.006,55.434,88.188,55.206,88.188z"/>
						<path fill="#FFB600" d="M55.715,87.722c0-0.073-0.021-0.11-0.086-0.182c-0.076-0.091-0.296-0.17-0.423-0.17
							c-0.227,0-0.408,0.182-0.408,0.411c0,0.073,0.02,0.141,0.054,0.201c0.076,0.092,0.189,0.148,0.315,0.148
							C55.391,88.131,55.715,87.948,55.715,87.722z"/>
						<path fill="#FFC200" d="M55.629,87.54c-0.076-0.091-0.296-0.17-0.423-0.17c-0.227,0-0.408,0.182-0.408,0.411
							c0,0.073,0.02,0.141,0.054,0.201"/>
						<path opacity="0.7" fill="#FFD400" d="M55.206,87.37c-0.227,0-0.408,0.182-0.408,0.411c0,0.073,0.02,0.141,0.054,0.201"/>
					</g>
					<path fill="#FFA300" d="M55.479,88.117c0.151-0.074,0.276-0.195,0.276-0.336c0-0.143-0.125-0.268-0.276-0.343
						c-0.029,0.017-0.061,0.045-0.085,0.091c-0.077,0.139-0.077,0.362,0,0.502C55.418,88.074,55.449,88.1,55.479,88.117z"/>
					<path opacity="0.5" fill="#FFD400" d="M55.434,87.963c-0.103,0-0.186-0.082-0.186-0.182c0-0.104,0.083-0.188,0.186-0.188
						c0.102,0,0.247,0.083,0.247,0.188C55.681,87.881,55.535,87.963,55.434,87.963z"/>
					<path opacity="0.5" fill="#FFD400" d="M55.248,87.781c0-0.104,0.083-0.188,0.186-0.188c0.102,0,0.247,0.083,0.247,0.188"/>
					<path opacity="0.5" fill="#FFD400" d="M55.494,87.918c-0.076,0-0.139-0.063-0.139-0.137c0-0.08,0.062-0.143,0.139-0.143
						c0.075,0,0.187,0.062,0.187,0.143C55.681,87.854,55.569,87.918,55.494,87.918z"/>
					<path opacity="0.5" fill="#FFD400" d="M55.355,87.781c0-0.08,0.062-0.143,0.139-0.143c0.075,0,0.187,0.062,0.187,0.143"/>
				</g>
			</g>
			<g>
				<g>
					<path fill="#A4BCBB" d="M54.047,86.633v0.307h0.244l0,0h0.004l0,0c0.023,0,0.042-0.018,0.062-0.042
						c0.03-0.06,0.03-0.159,0-0.217c-0.02-0.028-0.038-0.044-0.062-0.048l0,0H54.047z"/>
					<path fill="#74918E" d="M54.313,86.928L54.313,86.928h0.007l0,0c0.004,0,0.007-0.004,0.013-0.006
						c0.007-0.005,0.015-0.017,0.023-0.024c0.03-0.06,0.03-0.159,0-0.217c-0.02-0.028-0.038-0.044-0.062-0.048l0,0h-0.248v0.295
						H54.313z"/>
					<path fill="#526D6A" d="M54.333,86.905c0,0,0,0,0.002,0h0.005l0,0c0.005,0,0.005,0,0.008,0c0,0,0.004-0.003,0.009-0.008
						c0.03-0.06,0.03-0.159,0-0.217c-0.02-0.028-0.038-0.044-0.062-0.048l0,0h-0.248v0.272H54.333z"/>
					<path fill="#3C5652" d="M54.363,86.787L54.363,86.787h0.008l0,0c0.004,0,0.004,0,0.008,0l0,0c0-0.037-0.008-0.076-0.022-0.106
						c-0.02-0.028-0.038-0.044-0.062-0.048l0,0h-0.248v0.154H54.363z"/>
					<path fill="#BCCECC" d="M53.979,86.681c-0.035,0.058-0.035,0.157,0,0.217c0.033,0.057,0.09,0.057,0.123,0
						c0.031-0.054,0.035-0.132,0.012-0.188c-0.003-0.012-0.007-0.02-0.012-0.028C54.068,86.622,54.012,86.622,53.979,86.681z"/>
					<path fill="#A4BCBB" d="M54.102,86.897c0.031-0.054,0.035-0.132,0.012-0.188c-0.003-0.012-0.007-0.02-0.012-0.028
						c-0.033-0.059-0.09-0.059-0.123,0"/>
				</g>
				<g>
					<g>
						<path fill="#232B2A" d="M53.997,86.576v0.423h0.033c0.002,0,0.002,0-0.005,0h0.004h0.008c0.027,0,0.06-0.022,0.081-0.06
							c0.049-0.084,0.049-0.219,0-0.303c-0.021-0.041-0.054-0.061-0.081-0.061h-0.008H53.997z"/>
						<path d="M54.118,86.939c0.049-0.084,0.049-0.219,0-0.303c-0.021-0.041-0.054-0.061-0.081-0.061h-0.008h-0.032v0.363H54.118z"
							/>
						<path fill="#2D3534" d="M53.914,86.637c-0.05,0.084-0.05,0.219,0,0.303c0.045,0.084,0.124,0.084,0.173,0
							c0.046-0.084,0.046-0.219,0-0.303C54.038,86.553,53.959,86.553,53.914,86.637z"/>
						<path fill="#C7D8D5" d="M53.914,86.637c-0.05,0.084-0.05,0.219,0,0.303"/>
						<path fill="#232B2A" d="M54.087,86.939c0.046-0.084,0.046-0.219,0-0.303c-0.049-0.084-0.128-0.084-0.173,0"/>
						<path fill="#90AFAD" d="M53.925,86.659c-0.041,0.071-0.041,0.185,0,0.258c0.041,0.069,0.107,0.069,0.147,0
							c0.041-0.073,0.041-0.187,0-0.258C54.032,86.588,53.966,86.588,53.925,86.659z"/>
						<path fill="#7A9E9A" d="M53.937,86.667c-0.038,0.065-0.038,0.174,0,0.243c0.037,0.063,0.102,0.063,0.14,0
							c0.037-0.069,0.037-0.178,0-0.243C54.038,86.603,53.974,86.603,53.937,86.667z"/>
						<path fill="#6A918B" d="M54.076,86.91c0.037-0.069,0.037-0.178,0-0.243c-0.038-0.064-0.103-0.064-0.14,0"/>
					</g>
					<g>
						<path fill="#232B2A" d="M53.966,86.603v0.366h0.031c0,0,0.001,0-0.004,0h0.004H54c0.029,0,0.053-0.015,0.074-0.052
							c0.039-0.073,0.039-0.187,0-0.261c-0.021-0.032-0.045-0.049-0.074-0.049l-0.003-0.005H53.966z"/>
						<path d="M54.074,86.917c0.039-0.073,0.039-0.187,0-0.261c-0.021-0.032-0.045-0.049-0.074-0.049l-0.003-0.005h-0.031v0.314
							H54.074z"/>
						<path fill="#2D3534" d="M53.895,86.656c-0.042,0.074-0.042,0.188,0,0.261s0.109,0.073,0.152,0c0.04-0.073,0.04-0.187,0-0.261
							C54.004,86.586,53.937,86.586,53.895,86.656z"/>
						<path fill="#414C4A" d="M53.895,86.656c-0.042,0.074-0.042,0.188,0,0.261"/>
						<path fill="#232B2A" d="M54.047,86.917c0.04-0.073,0.04-0.187,0-0.261c-0.043-0.07-0.11-0.07-0.152,0"/>
						<path d="M53.905,86.674c-0.035,0.062-0.035,0.164,0,0.229c0.034,0.061,0.093,0.061,0.13,0c0.035-0.064,0.035-0.167,0-0.229
							C53.998,86.614,53.939,86.614,53.905,86.674z"/>
						<path fill="#2B3332" d="M53.916,86.682c-0.034,0.057-0.034,0.152,0,0.209c0.032,0.06,0.087,0.06,0.121,0
							c0.031-0.057,0.031-0.152,0-0.209C54.003,86.624,53.948,86.624,53.916,86.682z"/>
						<path fill="#232B2A" d="M54.037,86.891c0.031-0.057,0.031-0.152,0-0.209c-0.034-0.058-0.089-0.058-0.121,0"/>
					</g>
				</g>
				<g>
					<g>
						<path fill="#FFA300" d="M53.513,87.195c-0.228,0-0.408-0.18-0.408-0.408c0-0.227,0.181-0.411,0.408-0.411
							c0.227,0,0.549,0.185,0.549,0.411C54.062,87.016,53.739,87.195,53.513,87.195z"/>
						<path fill="#FFB600" d="M54.022,86.73c0-0.074-0.02-0.108-0.088-0.182c-0.076-0.09-0.293-0.173-0.422-0.173
							c-0.228,0-0.408,0.185-0.408,0.411c0,0.074,0.019,0.145,0.055,0.205c0.073,0.09,0.187,0.146,0.316,0.146
							C53.7,87.139,54.022,86.959,54.022,86.73z"/>
						<path fill="#FFC200" d="M53.935,86.549c-0.076-0.09-0.293-0.173-0.422-0.173c-0.228,0-0.408,0.185-0.408,0.411
							c0,0.074,0.019,0.145,0.055,0.205"/>
						<path opacity="0.7" fill="#FFD400" d="M53.513,86.376c-0.228,0-0.408,0.185-0.408,0.411c0,0.074,0.019,0.145,0.055,0.205"/>
					</g>
					<path fill="#FFA300" d="M53.789,87.125c0.147-0.072,0.272-0.197,0.272-0.338s-0.125-0.264-0.272-0.34
						c-0.034,0.016-0.062,0.047-0.087,0.092c-0.08,0.135-0.08,0.363,0,0.498C53.727,87.082,53.755,87.109,53.789,87.125z"/>
					<path opacity="0.5" fill="#FFD400" d="M53.739,86.974c-0.102,0-0.185-0.083-0.185-0.187c0-0.102,0.083-0.185,0.185-0.185
						s0.248,0.083,0.248,0.185C53.987,86.891,53.841,86.974,53.739,86.974z"/>
					<path opacity="0.5" fill="#FFD400" d="M53.555,86.787c0-0.102,0.083-0.185,0.185-0.185s0.248,0.083,0.248,0.185"/>
					<path opacity="0.5" fill="#FFD400" d="M53.801,86.928c-0.076,0-0.14-0.064-0.14-0.141s0.063-0.137,0.14-0.137
						c0.079,0,0.187,0.061,0.187,0.137S53.88,86.928,53.801,86.928z"/>
					<path opacity="0.5" fill="#FFD400" d="M53.661,86.787c0-0.076,0.063-0.137,0.14-0.137c0.079,0,0.187,0.061,0.187,0.137"/>
				</g>
			</g>
		</g>
	</g>
</g>
</svg>
