<?xml version="1.0" encoding="utf-8"?>
<!-- Generator: Adobe Illustrator 16.0.0, SVG Export Plug-In . SVG Version: 6.00 Build 0)  -->
<!DOCTYPE svg PUBLIC "-//W3C//DTD SVG 1.1//EN" "http://www.w3.org/Graphics/SVG/1.1/DTD/svg11.dtd">
<svg version="1.1" id="Layer_1" xmlns="http://www.w3.org/2000/svg" xmlns:xlink="http://www.w3.org/1999/xlink" x="0px" y="0px"
	 width="130px" height="130px" viewBox="0 0 130 130" enable-background="new 0 0 130 130" xml:space="preserve">
<g>
	<g>
		<g>
			<g>
				<g>
					<g>
						<g>
							<path fill="#9CABAD" d="M73.059,14.53L50.804,1.676c-0.929-0.535-1.771-0.588-2.386-0.242l-0.009,0.004
								c-0.007,0.004-0.016,0.008-0.022,0.012l-19.064,11.01l18.073,39.717v-30.41l6.565,3.791L73.059,14.53z"/>
						</g>
						<path fill="#BABA9E" d="M47.396,53.833c0,0.678,0.149,0.197,0.413-0.75l-0.413-0.906V53.833z"/>
					</g>
					<path fill="#536768" d="M49.471,44.657v15.115l3.805,10.802L72.469,59.5c0.029-0.014,0.057-0.031,0.086-0.049l0.018-0.008
						l-0.002-0.002c0.584-0.369,0.945-1.113,0.945-2.162V16.75c0-0.721-0.184-1.496-0.479-2.248L53.94,25.53
						c0.296,0.754-2.567,1.918-2.567,2.639"/>
					<path fill="#263333" d="M70.984,18.698l-14.293,8.254v38.428l13.805-7.965c0.025-0.014,0.049-0.027,0.072-0.043l0.016-0.006
						v-0.002c0.502-0.318,0.812-0.959,0.812-1.859V20.631C71.396,20.01,71.238,19.344,70.984,18.698z"/>
					<path d="M56.691,26.952v21.447l14.434,8.338c0.17-0.328,0.271-0.736,0.271-1.232V20.631c0-0.621-0.158-1.287-0.412-1.934
						L56.691,26.952z"/>
					<polyline fill="#4F6163" points="49.471,44.657 49.471,57.1 53.275,67.9 					"/>
					<path fill="#4F6163" d="M73.516,16.75c0-0.721-0.184-1.496-0.479-2.248L53.94,25.53c0.296,0.754,0.478,1.527,0.478,2.248"/>
					<path fill="#8E9EA0" d="M31.707,12.704c-1.874-1.082-3.408-0.197-3.408,1.967v37.857c0,2.164,1.534,4.82,3.408,5.902
						l22.254,12.853V25.557L31.707,12.704z"/>
					<path fill="#829093" d="M53.961,71.283V25.557L31.707,12.704c-1.874-1.082-3.408-0.197-3.408,1.967"/>
				</g>
			</g>
		</g>
		<g>
			<g>
				<g>
					<path fill="#BABA9E" d="M98.293,71.568L76.037,58.715c-0.928-0.533-1.77-0.586-2.387-0.242l0,0l-0.008,0.006
						c-0.008,0.002-0.016,0.006-0.021,0.012L54.555,69.498l26.906,59.125l19.193-11.072c0.029-0.016,0.057-0.031,0.086-0.051
						l0.018-0.008l-0.002-0.002c0.584-0.369,0.945-1.113,0.945-2.162V77.473C101.701,75.307,100.166,72.65,98.293,71.568z
						 M76.037,104.443c-1.875-1.082-3.408,8.594-3.408,6.43V78.805l6.566,3.791c1.875,1.082,3.408,3.738,3.408,5.902v19.738
						L76.037,104.443z"/>
					<path fill="#A2A38E" d="M54.555,69.498l26.906,59.125l19.193-11.072c0.029-0.016,0.057-0.031,0.086-0.051l0.018-0.008
						l-0.002-0.002c0.584-0.369,0.945-1.113,0.945-2.162V77.473c0-2.166-1.535-4.822-3.408-5.904 M82.604,108.236l-6.566-3.793
						c-1.875-1.082-3.408,8.594-3.408,6.43V78.805l6.566,3.791c1.875,1.082,3.408,3.738,3.408,5.902V108.236z"/>
					<path opacity="0.7" fill="#A2A38E" d="M90.021,70.797c-0.006-0.029-0.012-0.057-0.02-0.084
						c-0.039-0.172-0.092-0.344-0.158-0.516c0-0.002,0-0.004-0.002-0.006l0,0c-0.299-0.76-0.846-1.475-1.475-1.838l-11.201-6.468
						c-0.467-0.27-0.891-0.297-1.201-0.125l-0.004,0.004c-0.004,0.002-0.008,0.004-0.012,0.006l-9.596,5.541l0.002,0.002
						c-0.318,0.176-0.516,0.561-0.516,1.111v10.699c0,1.088,0.771,2.426,1.715,2.971l11.201,6.469
						c0.438,0.252,0.834,0.285,1.137,0.146l0.004,0.004l0.029-0.018c0.025-0.012,0.051-0.027,0.076-0.043l9.555-5.512
						c0.014-0.008,0.029-0.016,0.043-0.023l0.008-0.004v-0.002c0.293-0.188,0.475-0.561,0.475-1.088V71.324
						C90.082,71.152,90.057,70.975,90.021,70.797z M75.451,71.994L75.451,71.994l3.305,1.908L75.451,71.994z"/>
					<path opacity="0.7" fill="#A2A38E" d="M94.695,78.217c-0.004-0.029-0.006-0.057-0.01-0.086c-0.02-0.172-0.047-0.342-0.08-0.514
						c0-0.002,0-0.004,0-0.006l0,0c-0.15-0.76-0.424-1.477-0.738-1.838l-5.6-6.471c-0.234-0.268-0.445-0.295-0.602-0.123
						l-0.002,0.004c-0.002,0.002-0.004,0.004-0.006,0.006l-4.797,5.541l0,0c-0.158,0.178-0.258,0.562-0.258,1.113v10.699
						c0,1.088,0.387,2.426,0.857,2.971l5.602,6.467c0.219,0.254,0.416,0.285,0.568,0.146l0.002,0.006l0.014-0.018
						c0.014-0.014,0.025-0.027,0.039-0.043l4.777-5.512c0.006-0.008,0.014-0.016,0.021-0.023l0.004-0.006v-0.002
						c0.146-0.186,0.236-0.561,0.236-1.088V78.742C94.725,78.572,94.713,78.395,94.695,78.217z M87.41,79.414v-0.002l1.652,1.91
						L87.41,79.414z"/>
					<path fill="#536768" d="M82.604,88.498v19.738l-4.947-2.857v12.443l3.805,10.801l19.193-11.072
						c0.029-0.016,0.057-0.031,0.086-0.051l0.018-0.008l-0.002-0.002c0.584-0.369,0.945-1.113,0.945-2.162V77.473
						c0-0.721-0.184-1.496-0.479-2.248L82.127,86.252C82.422,87.006,82.604,87.777,82.604,88.498z"/>
					<path fill="#4F6163" d="M101.701,77.473c0-0.721-0.184-1.496-0.479-2.248L82.127,86.252c0.295,0.754,0.477,1.525,0.477,2.246
						v19.738l-4.947-2.857v12.443l3.805,10.801"/>
					<path fill="#829093" d="M79.195,82.596L56.941,69.742c-1.875-1.082-3.409-0.195-3.409,1.969v37.855
						c0,2.164,1.534,4.822,3.409,5.904l22.254,12.852c1.875,1.082,3.408,0.197,3.408-1.967V88.498
						C82.604,86.334,81.07,83.678,79.195,82.596z"/>
					<path fill="#708284" d="M79.195,128.322c1.875,1.082,3.408,0.197,3.408-1.967V88.498c0-2.164-1.533-4.82-3.408-5.902
						L56.941,69.742c-1.875-1.082-3.409-0.195-3.409,1.969"/>
				</g>
			</g>
		</g>
		<g>
			<g>
				<g>
					<path fill="#FF9D00" d="M88.367,57.075l-11.201-6.469c-0.467-0.27-0.891-0.297-1.201-0.125l0,0l-0.004,0.004
						c-0.004,0.002-0.008,0.004-0.012,0.006l-9.596,5.541l13.543,21.402l9.66-5.572c0.014-0.008,0.029-0.016,0.043-0.023
						l0.008-0.004v-0.002c0.293-0.188,0.475-0.561,0.475-1.088V60.045C90.082,58.956,89.311,57.618,88.367,57.075z M77.166,65.266
						c-0.943-0.547-1.715,4.324-1.715,3.234v-7.785l3.305,1.908c0.943,0.545,1.715,1.883,1.715,2.973v1.578L77.166,65.266z"/>
					<path fill="#FF9100" d="M66.354,56.032l13.543,21.402l9.66-5.572c0.014-0.008,0.029-0.016,0.043-0.023l0.008-0.004v-0.002
						c0.293-0.188,0.475-0.561,0.475-1.088V60.045c0-1.09-0.771-2.428-1.715-2.971 M80.471,67.174l-3.305-1.908
						c-0.943-0.547-1.715,4.324-1.715,3.234v-7.785l3.305,1.908c0.943,0.545,1.715,1.883,1.715,2.973V67.174z"/>
					<g opacity="0.7">
						<path fill="#A2A38E" d="M78.127,69.676c-0.729,0-1.32-0.592-1.32-1.322v-11.38c0-0.73,0.592-1.322,1.32-1.322
							c0.73,0,1.322,0.592,1.322,1.322v11.38C79.449,69.084,78.857,69.676,78.127,69.676z"/>
					</g>
					<path fill="#9B530B" d="M80.471,65.596v1.578l-2.488-1.439v6.263l1.914,5.436l9.66-5.572c0.014-0.008,0.029-0.016,0.043-0.023
						l0.008-0.004v-0.002c0.293-0.188,0.475-0.561,0.475-1.088V60.045c0-0.363-0.09-0.752-0.24-1.133l-9.611,5.551
						C80.379,64.844,80.471,65.233,80.471,65.596z"/>
					<path fill="#935007" d="M90.082,60.045c0-0.363-0.09-0.752-0.24-1.133l-9.611,5.551c0.148,0.381,0.24,0.77,0.24,1.133v1.578
						l-2.488-1.439v6.263l1.914,5.436"/>
					<path fill="#D87805" d="M78.756,62.624l-11.201-6.469c-0.943-0.545-1.715-0.098-1.715,0.99v10.699
						c0,1.088,0.771,2.426,1.715,2.971l11.201,6.469c0.943,0.545,1.715,0.1,1.715-0.992V65.596
						C80.471,64.506,79.699,63.168,78.756,62.624z"/>
				</g>
			</g>
		</g>
	</g>
	<g>
		<g>
			<g>
				<g>
					<path fill="#313F3F" d="M95.504,75.115c0-2.969-2.096-6.602-4.656-8.078c-1.363-0.789-2.592-0.812-3.441-0.217l-3.303,1.906
						v6.891l3.5,2.076V74.33c0.781,1.354,1.836,2.547,2.996,3.305v2.533l3.436-1.982l0,0C94.936,77.727,95.504,76.66,95.504,75.115z
						"/>
					<path fill="#2C393A" d="M84.775,70.504v5.512l2.828,1.678V74.33c0.781,1.354,1.836,2.547,2.996,3.305v2.533l3.436-1.982l0,0
						c0.9-0.459,1.469-1.525,1.469-3.07c0-2.969-2.096-6.602-4.656-8.078"/>
					<path fill="#263333" d="M94.035,78.186c0.9-0.459,1.469-1.525,1.469-3.07c0-1.611-0.619-3.418-1.592-4.971l-5.76,3.326v1.713
						c0.697,0.996,1.537,1.859,2.447,2.451v2.533l0.381-0.221v-2.514c0.369,0.641,0.801,1.24,1.273,1.781L94.035,78.186
						L94.035,78.186z"/>
					<path fill="#495D5E" d="M87.412,79.779c-2.547-1.486-4.641-5.121-4.654-8.074c-0.014-2.963,2.07-4.168,4.629-2.691
						c2.562,1.479,4.656,5.115,4.656,8.078C92.043,80.057,89.961,81.268,87.412,79.779z"/>
					<path fill="#566868" d="M82.758,71.705c-0.014-2.963,2.07-4.168,4.629-2.691"/>
					<path fill="#3D4F51" d="M87.387,69.014c2.562,1.479,4.656,5.115,4.656,8.078c0,2.965-2.082,4.176-4.631,2.688"/>
				</g>
			</g>
		</g>
		<g>
			<path fill="#034930" d="M85.803,71.406l0.045,0.074c0.363-0.055,0.795,0.041,1.256,0.309c1.303,0.748,2.355,2.57,2.348,4.068
				c0,0.529-0.135,0.947-0.367,1.232l0.043,0.07l-0.363,0.209h-0.002c-0.426,0.246-1.02,0.211-1.672-0.166
				c-1.303-0.752-2.354-2.574-2.35-4.068c0.002-0.75,0.27-1.277,0.701-1.52l0,0L85.803,71.406z"/>
			<path fill="#263333" d="M87.104,71.789c1.297,0.748,2.344,2.555,2.35,4.047l-2.363,1.367c-1.303-0.752-2.354-2.574-2.35-4.068
				c0.002-0.75,0.27-1.277,0.701-1.52l0,0l0.361-0.209l0.045,0.074C86.211,71.426,86.643,71.521,87.104,71.789z"/>
			<g>
				<g enable-background="new    ">
					<g>
						<path fill="#FF9100" d="M87.42,71.605c1.303,0.75,2.354,2.572,2.35,4.068c-0.006,1.494-1.062,2.098-2.365,1.346
							c-1.299-0.752-2.352-2.572-2.348-4.066S86.119,70.855,87.42,71.605"/>
					</g>
				</g>
			</g>
			<path fill="#D87805" d="M87.42,71.605l-0.016,5.414c-1.299-0.752-2.352-2.572-2.348-4.066S86.119,70.855,87.42,71.605z"/>
		</g>
	</g>
	<g>
		<path fill="#A5541E" d="M78.127,57.6c-0.729,0-1.32-0.592-1.32-1.322v-3.881c0-0.73,0.592-1.32,1.32-1.32
			c0.73,0,1.322,0.59,1.322,1.32v3.881C79.449,57.008,78.857,57.6,78.127,57.6z"/>
	</g>
	<g>
		<g enable-background="new    ">
			<g>
				<path fill="#935007" d="M68.711,59.963c-0.479-0.277-0.869-0.059-0.869,0.49c-0.002,0.551,0.385,1.223,0.865,1.5
					c0.473,0.273,0.863,0.051,0.865-0.5C69.574,60.905,69.186,60.237,68.711,59.963"/>
				<path fill="#935007" d="M72.752,62.295c-0.479-0.275-0.865-0.057-0.867,0.494c0,0.549,0.383,1.219,0.861,1.496
					c0.479,0.275,0.869,0.055,0.871-0.496S73.23,62.573,72.752,62.295"/>
				<path fill="#935007" d="M76.797,64.629c-0.479-0.275-0.871-0.057-0.871,0.492c-0.002,0.551,0.387,1.222,0.865,1.498
					c0.473,0.273,0.863,0.053,0.865-0.498C77.658,65.571,77.27,64.905,76.797,64.629"/>
				<path fill="#935007" d="M68.703,63.393c-0.48-0.277-0.871-0.061-0.871,0.49c-0.002,0.549,0.385,1.221,0.865,1.498
					c0.473,0.273,0.863,0.051,0.865-0.5C69.564,64.333,69.176,63.667,68.703,63.393"/>
				<path fill="#935007" d="M72.742,65.725c-0.479-0.277-0.865-0.057-0.867,0.492c-0.002,0.551,0.383,1.221,0.861,1.496
					c0.479,0.277,0.869,0.055,0.871-0.496C73.609,66.668,73.221,66,72.742,65.725"/>
				<path fill="#935007" d="M76.787,68.059c-0.48-0.275-0.869-0.059-0.871,0.49c-0.002,0.551,0.387,1.223,0.865,1.5
					c0.475,0.273,0.865,0.051,0.865-0.5C77.648,69,77.26,68.332,76.787,68.059"/>
				<path fill="#935007" d="M68.691,66.82c-0.479-0.277-0.869-0.053-0.869,0.492c-0.002,0.549,0.385,1.221,0.865,1.498
					c0.473,0.273,0.863,0.051,0.865-0.5C69.555,67.766,69.166,67.094,68.691,66.82"/>
				<path fill="#935007" d="M72.732,69.152c-0.479-0.275-0.865-0.051-0.867,0.494c0,0.551,0.383,1.219,0.861,1.496
					c0.479,0.275,0.869,0.055,0.871-0.496C73.6,70.102,73.211,69.43,72.732,69.152"/>
				<path fill="#935007" d="M76.777,71.488c-0.479-0.277-0.871-0.055-0.871,0.49c-0.002,0.551,0.387,1.223,0.865,1.498
					c0.475,0.273,0.865,0.053,0.865-0.498C77.639,72.434,77.25,71.762,76.777,71.488"/>
			</g>
		</g>
	</g>
	<g opacity="0.8">
		<g enable-background="new    ">
			<g>
				<path fill="#FF7F00" d="M78.025,53.542v0.002c0.002,0,0.004,0.002,0.006,0.004L78.025,53.542 M78.061,26.75
					c-4.533-1.467-8.031,3.09-8.053,11.043c-0.023,7.869,3.381,12.578,7.844,15.631c-0.068-0.049-0.139-0.098-0.209-0.146
					c-0.74-0.52-1.449-1.086-2.115-1.703c0.02-0.049,0.041-0.098,0.062-0.143c-1.666-1.9-2.762-4.475-2.752-8.078
					c0.016-5.133,2.266-8.076,5.195-7.131L78.061,26.75 M78.107,26.766c-0.008-0.004-0.016-0.006-0.023-0.008
					c0.008,0.006,0.016,0.014,0.023,0.02V26.766"/>
				<path fill="#FF4800" d="M77.984,53.516v0.004c0.004,0.002,0.008,0.002,0.01,0.004l0,0l-0.01-0.004V53.516 M78.061,26.739v0.012
					l-0.027,9.473c0.004,0.002,0.008,0.002,0.012,0.002v-0.008c0.004,0.006,0.01,0.01,0.014,0.014
					c0.006,0.002,0.012,0.002,0.016,0.004v0.008c2.92,2.424,5.16,7.967,5.145,13.104c-0.01,3.604-1.119,4.904-2.789,4.879
					c0.023,0.072,0.043,0.143,0.062,0.215c-0.66-0.148-1.361-0.398-2.096-0.73c-0.064-0.027-0.131-0.057-0.195-0.088
					c4.449,2.08,7.846,1.293,7.867-6.557c0.023-7.951-3.434-16.521-7.961-20.287c-0.008-0.006-0.016-0.014-0.023-0.02
					S78.068,26.745,78.061,26.739"/>
				<path fill="#FFBC00" d="M78.018,53.536c-0.002,0-0.004-0.002-0.008-0.002c0.006,0.002,0.01,0.006,0.016,0.01l0,0v-0.002
					L78.018,53.536 M77.643,53.278c0.07,0.049,0.141,0.098,0.209,0.146c0.045,0.031,0.09,0.061,0.133,0.092V53.51
					C77.871,53.434,77.756,53.356,77.643,53.278 M78.045,36.225c-0.004,0-0.008,0-0.012-0.002c-2.93-0.945-5.18,1.998-5.195,7.131
					c-0.01,3.604,1.086,6.178,2.752,8.078c0.408-0.838,1.332-1.066,2.412-0.449L78.045,36.225 M78.074,36.235
					c-0.004-0.002-0.01-0.002-0.016-0.004c0.006,0.004,0.012,0.01,0.016,0.012V36.235"/>
				<path fill="#FF7F00" d="M78.008,53.53l-0.014-0.006l0,0v0.002c0.006,0.002,0.01,0.004,0.016,0.008
					c0.004,0,0.006,0.002,0.008,0.002L78.008,53.53 M78.396,53.709c-0.121-0.055-0.242-0.111-0.365-0.17v0.004
					c0.057,0.027,0.113,0.053,0.17,0.078C78.266,53.653,78.332,53.682,78.396,53.709 M78.045,36.217v0.008l-0.043,14.758
					c0.006,0.004,0.01,0.006,0.014,0.008c1.086,0.627,2.012,1.924,2.414,3.234c1.67,0.025,2.779-1.275,2.789-4.879
					c0.016-5.137-2.225-10.68-5.145-13.104c-0.004-0.002-0.01-0.008-0.016-0.012C78.055,36.227,78.049,36.223,78.045,36.217"/>
				<path fill="#B73D13" d="M78.016,50.991c-0.004-0.002-0.008-0.004-0.014-0.008c-1.08-0.617-2.004-0.389-2.412,0.449
					c-0.021,0.045-0.043,0.094-0.062,0.143c0.666,0.617,1.375,1.184,2.115,1.703c0.113,0.078,0.229,0.156,0.342,0.232v0.006v0.004
					l0.01,0.004l0.014,0.006l0.01,0.006l0.008,0.006l0.006,0.006v-0.004V53.54c0.123,0.059,0.244,0.115,0.365,0.17
					c0.734,0.332,1.436,0.582,2.096,0.73c-0.02-0.072-0.039-0.143-0.062-0.215C80.027,52.915,79.102,51.618,78.016,50.991"/>
			</g>
		</g>
	</g>
	<g>
		<g enable-background="new    ">
			<g>
				<path fill="#536768" d="M67.867,88.68c-2.417-1.395-4.838-1.73-6.688-0.676c-3.41,1.941-3.693,7.928-0.846,13.838l1.952-1.113
					c-1.804-4.059-1.532-8.072,0.81-9.406c1.317-0.75,3.041-0.51,4.764,0.484c1.338,0.771,2.674,2,3.818,3.57l1.951-1.111
					C71.939,91.785,69.904,89.857,67.867,88.68"/>
				<path fill="#536768" d="M75.348,97.244l-1.951,1.111c1.801,4.057,1.531,8.068-0.811,9.404c-1.318,0.75-3.043,0.512-4.764-0.482
					c-1.338-0.773-2.674-2-3.816-3.57l-1.952,1.113c1.689,2.48,3.724,4.408,5.761,5.584c2.418,1.395,4.838,1.73,6.688,0.676
					C77.914,109.139,78.197,103.152,75.348,97.244"/>
			</g>
		</g>
	</g>
</g>
</svg>
