<?xml version="1.0" encoding="utf-8"?>
<!-- Generator: Adobe Illustrator 16.0.0, SVG Export Plug-In . SVG Version: 6.00 Build 0)  -->
<!DOCTYPE svg PUBLIC "-//W3C//DTD SVG 1.1//EN" "http://www.w3.org/Graphics/SVG/1.1/DTD/svg11.dtd">
<svg version="1.1" id="Layer_1" xmlns="http://www.w3.org/2000/svg" xmlns:xlink="http://www.w3.org/1999/xlink" x="0px" y="0px"
	 width="130px" height="130px" viewBox="0 0 130 130" enable-background="new 0 0 130 130" xml:space="preserve">
<g>
	<g>
		<g>
			<g>
				<g>
					<g>
						<g>
							<g>
								<polygon fill="#BA7625" points="62.113,70.295 65.627,72.322 65.627,129 62.113,126.973 								"/>
								<polygon fill="#A3540D" points="69.137,70.295 65.627,72.322 65.627,129 69.137,126.973 								"/>
							</g>
						</g>
					</g>
				</g>
			</g>
		</g>
	</g>
	<g>
		<g>
			<g>
				<g>
					<path fill="#FF7F00" d="M65.855,9.895C54.309,12.356,45.43,26.878,45.43,44.49c0,17.598,8.879,23.57,20.426,24.496V9.895z"/>
				</g>
				<path fill="#FF4800" d="M65.738,9.895c11.541,2.462,20.418,16.983,20.418,34.596c0,17.598-8.877,23.57-20.418,24.496V9.895z"/>
			</g>
			<g>
				<g>
					<path fill="#FFBC00" d="M65.84,30.799c-7.475,1.578-13.201,10.97-13.201,22.343c0,11.391,5.727,15.243,13.201,15.845V30.799z"
						/>
				</g>
				<path fill="#FF7F00" d="M65.762,30.799c7.449,1.578,13.189,10.97,13.189,22.343c0,11.391-5.74,15.243-13.189,15.845V30.799z"/>
			</g>
			<path fill="#B73D13" d="M65.799,63.381c-2.908,0-5.367,1.865-6.295,4.449c1.945,0.598,4.035,0.961,6.234,1.143v0.014
				c0.023-0.009,0.047-0.009,0.061-0.009c0.016,0,0.041,0,0.057,0.009v-0.014c2.189-0.182,4.285-0.545,6.232-1.143
				C71.154,65.246,68.701,63.381,65.799,63.381z"/>
		</g>
		<path fill="#FF7F00" d="M44.248,69.046c0,1.233-0.998,2.223-2.219,2.223c-1.234,0-2.227-0.989-2.227-2.223
			c0-1.229,0.992-2.223,2.227-2.223C43.25,66.823,44.248,67.817,44.248,69.046z"/>
		<path fill="#FF7F00" d="M39.209,42.066c0,2.692-2.193,4.893-4.896,4.893c-2.701,0-4.895-2.2-4.895-4.893
			c0-2.705,2.193-4.894,4.895-4.894C37.016,37.173,39.209,39.361,39.209,42.066z"/>
		<path fill="#FF7F00" d="M40.686,59.408c0,1.148-0.926,2.074-2.072,2.074c-1.154,0-2.074-0.926-2.074-2.074
			c0-1.143,0.92-2.073,2.074-2.073C39.76,57.335,40.686,58.266,40.686,59.408z"/>
		<path fill="#FFBC00" d="M41.578,49.482c0,0.403-0.33,0.742-0.742,0.742c-0.402,0-0.734-0.339-0.734-0.742
			c0-0.416,0.332-0.744,0.734-0.744C41.248,48.738,41.578,49.066,41.578,49.482z"/>
		<path fill="#FFBC00" d="M39.803,23.09c0,1.715-1.396,3.115-3.117,3.115c-1.717,0-3.117-1.4-3.117-3.115
			c0-1.723,1.4-3.109,3.117-3.109C38.406,19.98,39.803,21.367,39.803,23.09z"/>
		<path fill="#FFBC00" d="M97.912,64.153c0,2.452-1.992,4.444-4.449,4.444s-4.445-1.992-4.445-4.444c0-2.458,1.988-4.45,4.445-4.45
			S97.912,61.695,97.912,64.153z"/>
		<path fill="#FFBC00" d="M100.582,42.516c0,1.3-1.07,2.366-2.375,2.366c-1.309,0-2.369-1.066-2.369-2.366
			c0-1.32,1.061-2.377,2.369-2.377C99.512,40.139,100.582,41.195,100.582,42.516z"/>
		<path fill="#FF7F00" d="M92.871,20.564c0,1.638-1.334,2.97-2.961,2.97c-1.641,0-2.969-1.332-2.969-2.97
			c0-1.635,1.328-2.957,2.969-2.957C91.537,17.607,92.871,18.93,92.871,20.564z"/>
		<path fill="#FF7F00" d="M83.68,68.15c0,0.413-0.332,0.746-0.746,0.746c-0.404,0-0.736-0.333-0.736-0.746
			c0-0.401,0.332-0.734,0.736-0.734C83.348,67.416,83.68,67.749,83.68,68.15z"/>
		<path fill="#FFBC00" d="M50.771,8.563c0,0.9-0.729,1.625-1.639,1.625c-0.891,0-1.625-0.725-1.625-1.625s0.734-1.638,1.625-1.638
			C50.043,6.926,50.771,7.663,50.771,8.563z"/>
		<path fill="#FFBC00" d="M85.75,6.639c0,0.32-0.252,0.586-0.586,0.586c-0.33,0-0.596-0.266-0.596-0.586
			c0-0.332,0.266-0.596,0.596-0.596C85.498,6.043,85.75,6.307,85.75,6.639z"/>
		<path fill="#FFBC00" d="M62.037,2.33c0,0.748-0.596,1.341-1.338,1.341c-0.734,0-1.332-0.593-1.332-1.341
			c0-0.733,0.598-1.33,1.332-1.33C61.441,1,62.037,1.597,62.037,2.33z"/>
	</g>
	<g>
		<path fill="#162B4C" d="M73.416,57.35c0,4.984-3.488,16.38-7.789,16.38s-7.789-11.396-7.789-16.38s3.898-9.658,8.201-9.658
			C70.34,47.691,73.416,52.365,73.416,57.35z"/>
		<path fill="#1C1B1B" d="M66.039,47.691c-0.176,0-0.35,0.01-0.523,0.025c-0.035,0.004-0.07,0.007-0.105,0.012
			c-0.166,0.018-0.332,0.04-0.496,0.07c-0.004,0.001-0.008,0.001-0.01,0.002c-2.598,3.445-4.482,9.627-4.482,13.094
			c0,1.102,0.17,5.285,0.482,8.258c1.311,2.632,2.947,4.577,4.723,4.577c4.301,0,7.789-11.396,7.789-16.38
			S70.34,47.691,66.039,47.691z"/>
	</g>
</g>
</svg>
