<?xml version="1.0" encoding="utf-8"?>
<!-- Generator: Adobe Illustrator 16.0.0, SVG Export Plug-In . SVG Version: 6.00 Build 0)  -->
<!DOCTYPE svg PUBLIC "-//W3C//DTD SVG 1.1//EN" "http://www.w3.org/Graphics/SVG/1.1/DTD/svg11.dtd">
<svg version="1.1" id="Layer_1" xmlns="http://www.w3.org/2000/svg" xmlns:xlink="http://www.w3.org/1999/xlink" x="0px" y="0px"
	 width="130px" height="130px" viewBox="0 0 130 130" enable-background="new 0 0 130 130" xml:space="preserve">
<g>
	<g>
		<polygon fill="#333232" points="29.613,45.529 29.613,51.343 66.988,72.889 66.988,67.072 		"/>
		<polyline fill="#333232" points="66.988,72.889 66.988,67.072 29.613,45.529 		"/>
		<polygon fill="#474747" points="34.713,42.656 29.613,45.602 66.984,67.141 72.081,64.193 		"/>
		<g>
			<polyline fill="#9FB4B7" points="72.081,64.193 66.988,67.139 66.988,72.889 72.09,69.943 			"/>
		</g>
	</g>
	<g>
		<path fill="#3D3D3D" d="M41.486,55.102c0-9.43-6.656-20.973-14.789-25.667c-4.332-2.5-8.236-2.577-10.931-0.68L5.277,34.809
			v21.882l11.116,6.6V52.607c2.485,4.297,5.828,8.09,9.518,10.498v8.043l10.909-6.293v-0.003
			C39.687,63.393,41.486,60.006,41.486,55.102z"/>
		<path fill="#070606" d="M26.697,29.435c-0.166-0.095-0.329-0.181-0.495-0.269L7.41,40.014v17.941l8.983,5.336V52.607
			c2.485,4.297,5.828,8.09,9.518,10.498v8.043l10.909-6.293v-0.003c2.866-1.46,4.666-4.847,4.666-9.751
			C41.486,45.671,34.83,34.128,26.697,29.435z"/>
		<path fill="#070606" d="M36.82,64.853c2.866-1.46,4.666-4.847,4.666-9.751c0-5.117-1.963-10.858-5.058-15.789L18.135,49.873v5.443
			c2.218,3.162,4.887,5.904,7.776,7.789v8.043l1.208-0.697v-7.984c1.171,2.029,2.541,3.939,4.045,5.65l5.656-3.262V64.853z"/>
		<path fill="#070606" d="M15.783,69.913C7.697,65.193,1.041,53.646,1,44.267c-0.043-9.407,6.578-13.238,14.705-8.551
			c8.137,4.697,14.788,16.253,14.788,25.662C30.493,70.797,23.879,74.64,15.783,69.913z"/>
		<path fill="#3D3D3D" d="M15.705,35.715c8.137,4.697,14.788,16.253,14.788,25.662c0,9.42-6.614,13.263-14.71,8.536"/>
		<path fill="#B8C9C9" d="M15.771,64.821C10.096,61.508,5.422,53.4,5.395,46.816c-0.031-6.602,4.617-9.294,10.324-6.003
			c5.711,3.298,10.38,11.41,10.38,18.016C26.099,65.441,21.455,68.14,15.771,64.821z"/>
		<path fill="#96AAA9" d="M15.719,40.813c5.711,3.298,10.38,11.41,10.38,18.016c0,6.612-4.644,9.311-10.327,5.992"/>
	</g>
	<g>
		<polygon fill="#333232" points="15.505,53.86 15.505,59.674 52.879,81.221 52.879,75.404 		"/>
		<polyline fill="#232323" points="52.879,81.221 52.879,75.404 15.505,53.86 		"/>
		<polygon fill="#474747" points="20.604,50.986 15.505,53.934 52.876,75.473 57.972,72.525 		"/>
		<g>
			<polyline fill="#9FB4B7" points="57.972,72.525 52.879,75.471 52.879,81.221 57.98,78.273 			"/>
		</g>
	</g>
	<g>
		<g>
			<polygon fill="#9FB4B7" points="52.639,74.811 75.916,88.254 75.916,100.366 52.639,86.922 			"/>
			<polyline fill="#829093" points="52.639,74.811 75.916,88.254 75.916,100.366 			"/>
			<polygon fill="#9FB4B7" points="75.916,88.254 75.916,100.366 92.557,90.764 92.557,78.65 			"/>
			<polyline fill="#728284" points="92.557,78.65 75.916,88.254 75.916,100.366 			"/>
		</g>
		<polygon fill="#5C6366" points="75.916,88.254 92.557,78.65 69.271,65.207 52.639,74.811 		"/>
	</g>
	<g>
		<g>
			<polygon fill="#9FB4B7" points="46.969,57.186 60.123,64.781 60.123,71.627 46.969,64.029 			"/>
			<polyline fill="#829093" points="46.969,57.186 60.123,64.781 60.123,71.627 			"/>
			<polygon fill="#9FB4B7" points="60.123,64.781 60.123,71.627 69.525,66.2 69.525,59.355 			"/>
			<polyline fill="#728284" points="69.525,59.355 60.123,64.781 60.123,71.627 			"/>
		</g>
		<polygon fill="#5C6366" points="60.123,64.781 69.525,59.355 56.367,51.758 46.969,57.186 		"/>
	</g>
	<g>
		<g>
			<polygon fill="#9FB4B7" points="46.969,48.517 60.123,56.113 60.123,62.957 46.969,55.361 			"/>
			<polyline fill="#829093" points="46.969,48.517 60.123,56.113 60.123,62.957 			"/>
			<polygon fill="#9FB4B7" points="60.123,56.113 60.123,62.957 69.525,57.531 69.525,50.688 			"/>
			<polyline fill="#728284" points="69.525,50.688 60.123,56.113 60.123,62.957 			"/>
		</g>
		<polygon fill="#5C6366" points="60.123,56.113 69.525,50.688 56.367,43.09 46.969,48.517 		"/>
	</g>
	<g>
		<polygon fill="#2080F2" points="11.246,16.191 11.246,29.965 52.742,53.932 52.742,40.142 		"/>
		<polygon fill="#22ABFF" points="23.33,9.38 11.246,16.364 52.734,40.313 64.824,33.327 		"/>
		<polygon fill="#0D2C49" points="21.016,21.954 21.016,35.727 62.512,59.693 62.512,45.904 		"/>
		<polygon fill="#084F77" points="33.1,15.143 21.016,22.126 62.505,46.075 74.594,39.089 		"/>
		<g>
			<polyline fill="#0B3A60" points="74.594,39.089 62.512,46.065 62.512,59.693 74.611,52.709 			"/>
		</g>
	</g>
	<g>
		<polygon fill="#0D2C49" points="35.624,21.253 35.624,35.026 77.121,58.992 77.121,45.203 		"/>
		<polygon fill="#084F77" points="47.709,14.441 35.624,21.425 77.113,45.375 89.203,38.389 		"/>
		<g>
			<polyline fill="#0B3A60" points="89.203,38.389 77.121,45.364 77.121,58.992 89.221,52.008 			"/>
		</g>
	</g>
	<g>
		<g>
			<polygon fill="#9FB4B7" points="60.485,66.324 76.939,75.826 76.939,84.39 60.485,74.887 			"/>
			<polyline fill="#829093" points="60.485,66.324 76.939,75.826 76.939,84.39 			"/>
			<polygon fill="#9FB4B7" points="76.939,75.826 76.939,84.39 88.703,77.602 88.703,69.039 			"/>
			<polyline fill="#728284" points="88.703,69.039 76.939,75.826 76.939,84.39 			"/>
		</g>
		<polygon fill="#5C6366" points="76.939,75.826 88.703,69.039 72.242,59.535 60.485,66.324 		"/>
	</g>
	<g>
		<g>
			<polygon fill="#9FB4B7" points="60.485,55.479 76.939,64.982 76.939,73.545 60.485,64.042 			"/>
			<polyline fill="#829093" points="60.485,55.479 76.939,64.982 76.939,73.545 			"/>
			<polygon fill="#9FB4B7" points="76.939,64.982 76.939,73.545 88.703,66.758 88.703,58.194 			"/>
			<polyline fill="#728284" points="88.703,58.194 76.939,64.982 76.939,73.545 			"/>
		</g>
		<polygon fill="#5C6366" points="76.939,64.982 88.703,58.194 72.242,48.69 60.485,55.479 		"/>
	</g>
	<g>
		<polygon fill="#9FB4B7" points="115.568,31.982 121.072,35.148 115.568,38.355 110.064,35.148 		"/>
		<polygon fill="#576B6D" points="110.064,35.148 115.568,38.355 115.568,93.986 110.064,90.809 		"/>
		<polyline fill="#415556" points="110.064,35.148 115.568,38.355 115.568,93.986 		"/>
		<polygon fill="#7E9091" points="121.072,35.148 115.568,38.355 115.568,93.986 121.072,90.809 		"/>
		<polyline fill="#728284" points="121.072,35.148 115.568,38.355 115.568,93.986 		"/>
	</g>
	<g>
		<g>
			<path fill="#3D3D3D" d="M127.244,104.643c0-9.43-6.656-20.974-14.788-25.666c-4.331-2.5-8.236-2.577-10.931-0.68l-10.489,6.055
				v21.881l11.116,6.6v-10.686c2.485,4.299,5.828,8.092,9.518,10.499v8.042l10.909-6.291v-0.004
				C125.445,112.934,127.244,109.546,127.244,104.643z"/>
			<path fill="#070606" d="M112.456,78.977c-0.167-0.096-0.331-0.182-0.495-0.27L93.168,89.555v17.941l8.984,5.336v-10.686
				c2.485,4.299,5.828,8.092,9.518,10.499v8.042l10.909-6.291v-0.004c2.866-1.459,4.665-4.847,4.665-9.75
				C127.244,95.213,120.588,83.669,112.456,78.977z"/>
			<path fill="#070606" d="M122.579,114.393c2.866-1.459,4.665-4.847,4.665-9.75c0-5.117-1.963-10.859-5.058-15.789l-18.294,10.561
				v5.443c2.217,3.162,4.887,5.903,7.777,7.788v8.042l1.206-0.695v-7.984c1.173,2.028,2.544,3.939,4.047,5.65l5.656-3.262V114.393z"
				/>
			<path fill="#070606" d="M101.541,119.455c-8.086-4.721-14.742-16.268-14.783-25.648c-0.043-9.406,6.578-13.237,14.705-8.55
				c8.139,4.696,14.789,16.251,14.789,25.661C116.252,120.338,109.637,124.18,101.541,119.455z"/>
			<path fill="#3D3D3D" d="M101.463,85.257c8.139,4.696,14.789,16.251,14.789,25.661c0,9.42-6.615,13.262-14.711,8.537"/>
			<path fill="#B8C9C9" d="M101.53,114.363c-5.677-3.314-10.351-11.421-10.378-18.006c-0.03-6.603,4.618-9.295,10.324-6.003
				c5.711,3.298,10.381,11.409,10.381,18.015C111.857,114.982,107.213,117.682,101.53,114.363z"/>
			<path fill="#96AAA9" d="M101.477,90.354c5.711,3.298,10.381,11.409,10.381,18.015c0,6.613-4.645,9.312-10.327,5.994"/>
		</g>
	</g>
	<g>
		<polygon fill="#2080F2" points="87.516,61.283 87.516,70.105 114.101,85.457 114.101,76.627 		"/>
		<polygon fill="#064CB2" points="95.259,56.92 87.516,61.392 114.098,76.729 121.832,72.255 		"/>
		<g>
			<polyline fill="#22ABFF" points="121.832,72.255 114.101,76.727 114.101,85.457 121.844,80.983 			"/>
		</g>
	</g>
	<g>
		<g>
			<polygon fill="#22ABFF" points="49.512,33.815 84.705,54.139 84.705,72.455 49.512,52.129 			"/>
			<polyline fill="#2080F2" points="49.512,33.815 84.705,54.139 84.705,72.455 			"/>
			<polygon fill="#064CB2" points="84.705,54.139 84.705,72.455 109.863,57.936 109.863,39.622 			"/>
			<polyline fill="#0969C9" points="109.863,39.622 84.705,54.139 84.705,72.455 			"/>
		</g>
		<polygon fill="#B0E9FF" points="84.705,54.139 109.863,39.622 74.658,19.294 49.512,33.815 		"/>
		<polyline fill="#64CBFF" points="74.658,19.294 49.512,33.815 84.705,54.139 		"/>
	</g>
	<g>
		<g>
			<polygon fill="#2080F2" points="70.416,28.512 87.082,38.136 87.082,46.808 70.416,37.184 			"/>
			<polygon fill="#064CB2" points="87.082,38.136 87.082,46.808 98.994,39.934 98.994,31.261 			"/>
		</g>
		<polygon fill="#64CBFF" points="87.082,38.136 98.994,31.261 82.324,21.636 70.416,28.512 		"/>
		<polyline fill="#22ABFF" points="82.324,21.636 70.416,28.512 87.082,38.136 		"/>
	</g>
	<g>
		<path fill="#728284" d="M108.872,29.049H90.575v5.456c0,0.012,0,0.024,0,0.035v0.162h0.013c0.075,1.295,0.955,2.577,2.658,3.56
			c3.562,2.058,9.391,2.058,12.954,0c1.702-0.983,2.582-2.265,2.657-3.56h0.015V29.049z"/>
		<path fill="#9FB4B7" d="M93.246,38.262c3.562,2.058,9.391,2.058,12.954,0c1.702-0.983,2.582-2.265,2.657-3.56h0.015v-5.652H93.246
			V38.262z"/>
		<path fill="#576B6D" d="M106.2,24.94c-3.563-2.057-9.392-2.057-12.954,0c-3.563,2.057-3.563,5.422,0,7.479
			c3.562,2.057,9.391,2.057,12.954,0C109.762,30.362,109.762,26.997,106.2,24.94z"/>
		<path fill="#415556" d="M93.246,32.419c3.562,2.057,9.391,2.057,12.954,0c3.562-2.057,3.562-5.422,0-7.479"/>
	</g>
	<g>
		<g>
			<path fill="#5C6366" d="M106.021,37.07c-0.459,0-0.906-0.235-1.156-0.66c-0.376-0.638-0.163-1.459,0.475-1.835l8.502-5.01
				l-0.068-4.535c-0.011-0.74,0.581-1.35,1.32-1.36c0.764,0.032,1.35,0.58,1.36,1.32l0.079,5.314l-0.66,1.174l-9.172,5.406
				C106.486,37.01,106.252,37.07,106.021,37.07z"/>
		</g>
		<g>
			<path fill="#9FB4B7" d="M96.516,46.637c0-5.475,3.863-12.176,8.584-14.9c2.517-1.453,4.783-1.496,6.348-0.395l6.087,3.515v12.704
				l-6.451,3.831V45.19c-1.443,2.495-3.384,4.697-5.526,6.093v4.671l-6.332-3.653v-0.004C97.561,51.451,96.516,49.483,96.516,46.637
				z"/>
			<path fill="#728284" d="M105.1,31.737c0.098-0.057,0.193-0.105,0.288-0.159l10.911,6.301v10.415l-5.216,3.098V45.19
				c-1.443,2.495-3.384,4.697-5.526,6.093v4.671l-6.332-3.653v-0.004c-1.664-0.846-2.709-2.813-2.709-5.66
				C96.516,41.163,100.379,34.461,105.1,31.737z"/>
			<path fill="#829093" d="M99.225,52.297c-1.664-0.846-2.709-2.813-2.709-5.66c0-2.97,1.14-6.304,2.936-9.167l10.621,6.13v3.162
				c-1.287,1.833-2.838,3.426-4.516,4.52v4.671l-0.699-0.406v-4.636c-0.682,1.178-1.477,2.287-2.35,3.281l-3.283-1.893V52.297z"/>
			<path fill="#728284" d="M111.436,55.236c4.697-2.74,8.559-9.444,8.584-14.89c0.025-5.461-3.819-7.683-8.535-4.963
				c-4.727,2.728-8.586,9.434-8.586,14.898C102.898,55.748,106.736,57.98,111.436,55.236z"/>
			<path fill="#9FB4B7" d="M111.484,35.383c-4.727,2.728-8.586,9.434-8.586,14.898c0,5.467,3.838,7.699,8.537,4.955"/>
			<path fill="#FFF5A9" d="M111.444,52.279c3.294-1.925,6.007-6.628,6.024-10.453c0.018-3.832-2.681-5.395-5.994-3.484
				c-3.315,1.914-6.026,6.624-6.026,10.459C105.448,52.639,108.145,54.206,111.444,52.279z"/>
			<path fill="#EFE08B" d="M111.475,38.343c-3.315,1.914-6.026,6.624-6.026,10.459c0,3.837,2.696,5.404,5.996,3.478"/>
		</g>
		<g>
			<polygon fill="#A56F47" points="110.607,16.728 110.607,22.95 114.801,25.408 114.801,19.174 			"/>
			<polygon fill="#AD8461" points="124.746,8.523 110.607,16.709 114.852,19.158 129,10.975 			"/>
			<polyline fill="#C99873" points="129,10.975 124.746,8.523 110.607,16.709 			"/>
			<polygon fill="#633C21" points="114.654,19.158 114.654,25.408 128.887,17.193 128.887,10.945 			"/>
		</g>
		<g>
			<path fill="#5C6366" d="M87.457,48.046l-2.004-1.165v-6.495c0-0.74,0.601-1.34,1.341-1.34c0.739,0,1.34,0.6,1.34,1.34v4.188
				l13.343-7.609c0.643-0.369,1.461-0.143,1.828,0.5c0.366,0.644,0.143,1.462-0.5,1.829L87.457,48.046z"/>
		</g>
		<g>
			<polygon fill="#A56F47" points="72.181,38.938 72.181,45.16 76.374,47.618 76.374,41.383 			"/>
			<polygon fill="#AD8461" points="86.32,30.733 72.181,38.92 76.426,41.368 90.574,33.185 			"/>
			<polyline fill="#C99873" points="90.574,33.185 86.32,30.733 72.181,38.92 			"/>
			<polygon fill="#633C21" points="76.229,41.368 76.229,47.618 90.461,39.403 90.461,33.155 			"/>
		</g>
	</g>
	<g>
		<polygon fill="#9FB4B7" points="96.354,43.467 101.857,46.633 96.354,49.84 90.851,46.633 		"/>
		<polygon fill="#576B6D" points="90.851,46.633 96.354,49.84 96.354,105.471 90.851,102.293 		"/>
		<polyline fill="#415556" points="90.851,46.633 96.354,49.84 96.354,105.471 		"/>
		<polygon fill="#7E9091" points="101.857,46.633 96.354,49.84 96.354,105.471 101.857,102.293 		"/>
		<polyline fill="#728284" points="101.857,46.633 96.354,49.84 96.354,105.471 		"/>
	</g>
</g>
</svg>
