<?xml version="1.0" encoding="utf-8"?>
<!-- Generator: Adobe Illustrator 16.0.0, SVG Export Plug-In . SVG Version: 6.00 Build 0)  -->
<!DOCTYPE svg PUBLIC "-//W3C//DTD SVG 1.1//EN" "http://www.w3.org/Graphics/SVG/1.1/DTD/svg11.dtd">
<svg version="1.1" id="Layer_1" xmlns="http://www.w3.org/2000/svg" xmlns:xlink="http://www.w3.org/1999/xlink" x="0px" y="0px"
	 width="130px" height="130px" viewBox="0 0 130 130" enable-background="new 0 0 130 130" xml:space="preserve">
<g>
	<path fill="#C174BD" d="M104.074,32.831l4.426-3.673l-15.016-8.729c-0.158-0.094-0.32-0.185-0.48-0.277l-0.293-0.17l0.004,0.004
		c-6.217-3.529-13.795-5.599-20.475-8.041l0.488-1.728L56.871,1C49.992,24.667,13.854,61.521,9.307,90.737
		c-2.166,13.908,2.566,22.848,10.875,26.76l12.996,7.59l-2.355-5.316c7.406,0.094,15.975-2.316,24.566-7.277
		c0.607-0.35,1.201-0.705,1.795-1.081c0.607-0.319,1.201-0.647,1.809-0.999c25.375-14.65,50.453-51.199,45.809-74.809
		C104.609,34.633,104.365,33.71,104.074,32.831z"/>
	<path fill="#A35598" d="M104.074,32.831l4.426-3.673l-15.016-8.729c-0.158-0.094-0.32-0.185-0.48-0.277l-0.293-0.17l0.004,0.004
		c-6.217-3.529-13.795-5.599-20.475-8.041l0.488-1.728L56.871,1C44.221,42.104,13.854,61.521,9.307,90.737
		c-2.166,13.908,2.566,22.848,10.875,26.76l12.996,7.59l-2.355-5.316c7.406,0.094,15.975-2.316,24.566-7.277
		c0.607-0.35,1.201-0.705,1.795-1.081c0.607-0.319,1.201-0.647,1.809-0.999c25.375-14.65,50.453-51.199,45.809-74.809
		C104.609,34.633,104.365,33.71,104.074,32.831z"/>
	<g>
		<path fill="#8C4285" d="M46.785,116.604L8.881,94.716c-0.746,11.64,3.816,19.258,11.301,22.781l12.996,7.59l-2.355-5.316
			C35.74,119.833,41.176,118.765,46.785,116.604z"/>
	</g>
	<path fill="#BF80BC" d="M93.484,20.429c-0.158-0.094-0.32-0.185-0.48-0.277l-0.293-0.17l0.004,0.004
		c-5.973-3.389-13.191-5.436-19.674-7.757v37.402h31.498c0.957-4.964,1.109-9.712,0.262-14.026
		c-0.191-0.972-0.436-1.895-0.727-2.773l4.426-3.673L93.484,20.429z"/>
	<g>
		<g enable-background="new    ">
			<g>
				<path fill="#F4C1E2" d="M72.729,10.217l0.027,9.38c5.975,13.328,36.85,9.133,40.852,29.486
					c3.951,20.117-17.418,51.273-39.049,63.76c-0.516,0.299-1.02,0.573-1.535,0.857l0.018,6.929
					c0.607-0.319,1.201-0.647,1.809-0.999c25.375-14.65,50.455-51.199,45.809-74.809C115.961,20.943,79.73,25.868,72.729,10.217"/>
				<path fill="#E2ACD1" d="M72.756,19.597l0.023,8.754c4.703,11.377,29.051,8.762,32.203,25.981
					c3.127,16.995-13.719,42.536-30.764,52.376c-0.4,0.231-0.814,0.439-1.215,0.656l0.02,6.336c0.516-0.284,1.02-0.559,1.535-0.857
					c21.631-12.486,43-43.643,39.049-63.76C109.605,28.729,78.73,32.925,72.756,19.597"/>
				<path fill="#D193C1" d="M72.779,28.351l0.041,13.754c3.346,8.071,20.609,6.219,22.842,18.441
					c2.221,12.064-9.732,30.17-21.832,37.156c-0.283,0.164-0.555,0.306-0.852,0.478l0.025,9.185c0.4-0.217,0.814-0.425,1.215-0.656
					c17.045-9.84,33.891-35.381,30.764-52.376C101.83,37.112,77.482,39.728,72.779,28.351"/>
				<path fill="#C17CB3" d="M72.82,42.104l0.039,14.333c2.02,4.87,12.455,3.753,13.807,11.128
					c1.328,7.29-5.885,18.219-13.193,22.438c-0.168,0.099-0.336,0.193-0.518,0.301l0.023,7.876c0.297-0.172,0.568-0.313,0.852-0.478
					c12.1-6.986,24.053-25.092,21.832-37.156C93.43,48.323,76.166,50.176,72.82,42.104"/>
				<path fill="#AF64A1" d="M72.859,56.438l0.096,33.866c0.182-0.107,0.35-0.202,0.518-0.301
					c7.309-4.219,14.521-15.147,13.193-22.438C85.314,60.19,74.879,61.308,72.859,56.438"/>
				<path fill="#E2ACD1" d="M73.023,113.7c-0.504,0.305-1.021,0.621-1.525,0.912c-21.631,12.488-43.119,6.076-39.281-18.537
					c3.873-24.903,34.672-56.312,40.539-76.479l-0.027-9.38C65.85,33.884,29.713,70.737,25.164,99.954
					c-4.496,28.888,20.709,36.405,46.084,21.756c0.605-0.35,1.199-0.705,1.793-1.081L73.023,113.7z"/>
				<path fill="#D193C1" d="M72.756,19.597C66.889,39.763,36.09,71.172,32.217,96.075c-3.838,24.613,17.65,31.025,39.281,18.537
					c0.504-0.291,1.021-0.607,1.525-0.912l-0.02-6.336c-0.4,0.245-0.801,0.508-1.199,0.738
					c-17.047,9.841-33.982,3.805-30.975-16.732c3.059-20.805,27.328-46.26,31.949-63.02L72.756,19.597"/>
				<path fill="#C17CB3" d="M72.779,28.351C68.158,45.11,43.889,70.565,40.83,91.37c-3.008,20.537,13.928,26.573,30.975,16.732
					c0.398-0.23,0.799-0.493,1.199-0.738l-0.025-9.185c-0.283,0.165-0.568,0.343-0.852,0.506
					c-12.102,6.985-24.115,2.718-21.971-11.866c2.168-14.767,19.385-32.82,22.664-44.715L72.779,28.351"/>
				<path fill="#AF64A1" d="M72.82,42.104c-3.279,11.895-20.496,29.948-22.664,44.715c-2.145,14.584,9.869,18.852,21.971,11.866
					c0.283-0.163,0.568-0.341,0.852-0.506l-0.023-7.876c-0.168,0.094-0.336,0.193-0.516,0.295
					c-7.295,4.214-14.561,1.645-13.266-7.16c1.309-8.913,11.701-19.82,13.686-27.001L72.82,42.104"/>
				<path fill="#A35598" d="M72.859,56.438c-1.984,7.181-12.377,18.088-13.686,27.001c-1.295,8.805,5.971,11.374,13.266,7.16
					c0.18-0.102,0.348-0.201,0.516-0.295L72.859,56.438"/>
			</g>
		</g>
	</g>
</g>
</svg>
