<?xml version="1.0" encoding="utf-8"?>
<!-- Generator: Adobe Illustrator 16.0.0, SVG Export Plug-In . SVG Version: 6.00 Build 0)  -->
<!DOCTYPE svg PUBLIC "-//W3C//DTD SVG 1.1//EN" "http://www.w3.org/Graphics/SVG/1.1/DTD/svg11.dtd">
<svg version="1.1" id="Layer_1" xmlns="http://www.w3.org/2000/svg" xmlns:xlink="http://www.w3.org/1999/xlink" x="0px" y="0px"
	 width="130px" height="130px" viewBox="0 0 130 130" enable-background="new 0 0 130 130" xml:space="preserve">
<g>
	<g>
		<g>
			<polygon fill="#1849A0" points="44.834,1 41.788,2.749 94.916,121.863 99.072,119.451 			"/>
			<path fill="#1849A0" d="M92.545,28.545l-6.083-3.513l0,0L44.834,1v9.721V73.51v8.507c0,5.346,3.789,11.907,8.418,14.579
				l39.293,22.686c4.63,2.676,8.417,0.488,8.417-4.861V43.128C100.962,37.779,97.175,31.219,92.545,28.545z"/>
		</g>
		<path fill="#FFFFFF" d="M40.882,39.262"/>
		<path fill="#2A7BB7" d="M89.498,30.293l-6.083-3.512l0,0L41.788,2.749v9.72v62.789v8.508c0,5.346,3.789,11.906,8.417,14.58
			l39.293,22.686c4.63,2.674,8.417,0.488,8.417-4.861V44.877C97.915,39.529,94.128,32.969,89.498,30.293z"/>
		<path fill="#276DAD" d="M89.498,121.031c4.63,2.674,8.417,0.488,8.417-4.861V44.877c0-5.348-3.787-11.908-8.417-14.584
			l-6.083-3.512l0,0L41.788,2.749v9.72"/>
	</g>
	<g>
		<path fill="#BADBB2" d="M87.932,31.903l-5.938-3.43L41.359,5.013l-8.234,4.682l8.234,18.173v47.928v8.306
			c0,5.22,3.699,11.624,8.217,14.231l32.112,18.541l3.955,8.727l7.863-4.438l-0.003-0.01c1.62-0.801,2.645-2.678,2.645-5.418V46.138
			C96.148,40.916,92.451,34.513,87.932,31.903z"/>
		<path fill="#9BC490" d="M96.148,115.734V46.138c0-1.09-0.194-2.234-0.49-3.382l-7.744,4.402L72.592,93.031l6.581,22.389
			l2.516,1.453l3.955,8.727l7.863-4.438l-0.003-0.01C95.124,120.352,96.148,118.475,96.148,115.734z"/>
		<path fill="#FFFFFF" d="M32.24,45.337"/>
		<path fill="#2A7BB7" d="M79.698,36.584l-5.937-3.431l0,0L33.125,9.694v9.489v61.29v8.308c0,5.221,3.697,11.623,8.217,14.232
			l38.356,22.146c4.521,2.609,8.216,0.477,8.216-4.746V50.82C87.914,45.598,84.219,39.193,79.698,36.584z"/>
		<path fill="#276DAD" d="M79.698,125.16c4.521,2.609,8.216,0.477,8.216-4.746V50.82c0-5.223-3.695-11.627-8.216-14.236
			l-5.937-3.431l0,0L33.125,9.694v9.489"/>
	</g>
	<g>
		<g>
			<polygon fill="#1849A0" points="32.991,7.827 29.944,9.576 83.072,128.689 87.229,126.277 			"/>
			<path fill="#1849A0" d="M80.701,35.371l-6.083-3.512l0,0L32.991,7.827v9.72v62.789v8.508c0,5.346,3.789,11.906,8.417,14.58
				l39.293,22.686c4.63,2.674,8.418,0.488,8.418-4.861V49.955C89.119,44.607,85.331,38.047,80.701,35.371z"/>
		</g>
		<path fill="#FFFFFF" d="M29.038,46.088"/>
		<path fill="#2A7BB7" d="M77.654,37.121l-6.083-3.513l0,0L29.944,9.576v9.721v62.789v8.508c0,5.346,3.789,11.906,8.417,14.578
			l39.293,22.686c4.63,2.676,8.418,0.488,8.418-4.861V51.703C86.072,46.355,82.284,39.795,77.654,37.121z"/>
		<path fill="#276DAD" d="M77.654,127.857c4.63,2.676,8.418,0.488,8.418-4.861V51.703c0-5.348-3.788-11.908-8.418-14.582
			l-6.083-3.513l0,0L29.944,9.576v9.721"/>
	</g>
	<path fill="#EBEDD6" d="M59.095,34.842c-2.605-1.504-5.155-2.267-7.581-2.267c-6.242,0-10.433,5.092-10.433,12.67
		c0,9.863,6.948,21.899,15.493,26.834c2.604,1.504,5.157,2.268,7.585,2.268c6.238,0,10.429-5.091,10.429-12.665
		C74.588,51.818,67.636,39.779,59.095,34.842z M69.387,59.411l-4.8-2.771c-0.394-4.43-1.328-9-2.593-12.862
		C65.852,48.127,68.725,54.047,69.387,59.411z M62.703,61.029c0,4.418-0.84,7.057-2.241,7.057c-0.626,0-1.356-0.512-2.104-1.475
		c-1.92-2.466-3.638-7.418-4.595-12.654l8.882,5.129C62.68,59.744,62.703,60.396,62.703,61.029z M53.201,50.066
		c-0.151-1.449-0.234-2.879-0.234-4.242c0-4.423,0.839-7.064,2.238-7.064c0.63,0,1.356,0.512,2.105,1.477
		c2.213,2.846,4.164,8.998,4.982,15.079L53.201,50.066z M51.514,37.614c0.144,0,0.299,0.029,0.446,0.039
		c-0.691,2.034-1.089,4.838-1.089,8.171c0,0.965,0.039,1.955,0.101,2.955l-4.817-2.781c-0.011-0.251-0.033-0.506-0.033-0.753
		C46.121,40.467,48.135,37.614,51.514,37.614z M46.693,49.875l4.642,2.68c0.482,3.714,1.314,7.424,2.375,10.631
		C50.394,59.465,47.791,54.582,46.693,49.875z M64.159,69.309c-0.152,0-0.317-0.03-0.475-0.041c0.706-2.039,1.112-4.869,1.112-8.238
		c0-0.233-0.01-0.473-0.014-0.709l4.7,2.713C69.13,66.986,67.199,69.307,64.159,69.309z"/>
	<path fill="#DBDDBF" d="M59.095,34.842c-2.605-1.504-5.155-2.267-7.581-2.267c-6.084,0-10.208,4.845-10.413,12.107l10.241,23.303
		c1.638,1.627,3.394,3.032,5.232,4.094c2.604,1.504,5.157,2.268,7.585,2.268c6.238,0,10.429-5.091,10.429-12.665
		C74.588,51.818,67.636,39.779,59.095,34.842z M55.205,38.76c0.63,0,1.356,0.512,2.105,1.477c2.213,2.846,4.164,8.998,4.982,15.079
		l-9.092-5.249c-0.151-1.449-0.234-2.879-0.234-4.242C52.967,41.401,53.806,38.76,55.205,38.76z M46.121,45.245
		c0-4.778,2.014-7.631,5.393-7.631c0.144,0,0.299,0.029,0.446,0.039c-0.691,2.034-1.089,4.838-1.089,8.171
		c0,0.965,0.039,1.955,0.101,2.955l-4.817-2.781C46.144,45.747,46.121,45.492,46.121,45.245z M46.693,49.875l4.642,2.68
		c0.482,3.714,1.314,7.424,2.375,10.631C50.394,59.465,47.791,54.582,46.693,49.875z M60.462,68.086
		c-0.626,0-1.356-0.512-2.104-1.475c-1.92-2.466-3.638-7.418-4.595-12.654l8.882,5.129c0.034,0.658,0.058,1.31,0.058,1.943
		C62.703,65.447,61.863,68.086,60.462,68.086z M64.159,69.309c-0.152,0-0.317-0.03-0.475-0.041c0.706-2.039,1.112-4.869,1.112-8.238
		c0-0.233-0.01-0.473-0.014-0.709l4.7,2.713C69.13,66.986,67.199,69.307,64.159,69.309z M64.587,56.641
		c-0.394-4.43-1.328-9-2.593-12.862c3.857,4.349,6.73,10.269,7.393,15.633L64.587,56.641z"/>
	<polygon fill="#1849A0" points="44.087,1.404 30.667,9.149 34.022,11.087 47.44,3.34 	"/>
	<g>
		<g enable-background="new    ">
			<g>
				<path fill="#EBEDD6" d="M40.843,87.518l0.011-4.1l1.841,1.063c0.69,0.396,1.204,0.894,1.53,1.469
					c0.329,0.578,0.49,1.158,0.488,1.765c-0.002,0.596-0.166,0.979-0.501,1.18c-0.329,0.188-0.845,0.082-1.528-0.312L40.843,87.518
					 M42.697,83.033l-3.955-2.281c-0.167-0.097-0.299-0.016-0.299,0.174v0.658c0,0.182,0.117,0.398,0.272,0.502l0.771,0.52
					l-0.022,8.641l-0.774-0.379c-0.154-0.072-0.273,0.01-0.274,0.188l-0.002,0.652c0,0.186,0.129,0.418,0.296,0.514l2.867,1.654
					c0.166,0.096,0.302,0.02,0.302-0.166l0.003-0.652c0-0.18-0.118-0.396-0.276-0.504l-0.776-0.52l0.009-3.068l1.841,1.062
					c1.059,0.609,1.895,0.777,2.49,0.488c0.601-0.295,0.906-0.973,0.911-2.031c0.002-1.043-0.298-2.072-0.897-3.057
					C44.591,84.451,43.756,83.647,42.697,83.033"/>
				<path fill="#EBEDD6" d="M50.785,94.564l1.442-3.59l1.401,5.23L50.785,94.564 M52.598,88.752l-0.729-0.422
					c-0.126-0.07-0.238-0.045-0.282,0.064l-3.287,7.977l-0.502-0.248c-0.155-0.076-0.275,0.01-0.275,0.189l-0.002,0.654
					c-0.002,0.184,0.135,0.416,0.295,0.51l2.31,1.334c0.162,0.092,0.298,0.018,0.298-0.168l0.004-0.652
					c0-0.18-0.12-0.398-0.275-0.506l-0.42-0.281l0.571-1.434l3.795,2.191l0.561,2.088L54.23,99.84
					c-0.157-0.072-0.277,0.008-0.277,0.188v0.652c-0.001,0.186,0.135,0.42,0.302,0.516l2.31,1.332
					c0.166,0.098,0.304,0.018,0.304-0.166l0.002-0.652c0-0.18-0.124-0.404-0.28-0.508l-0.508-0.336l-3.204-11.727
					C52.832,88.98,52.72,88.82,52.598,88.752"/>
				<path fill="#EBEDD6" d="M63.236,94.74c-1.01-0.584-1.854-0.785-2.509-0.598c-0.675,0.193-1.024,0.766-1.026,1.699
					C59.7,96.754,60,97.666,60.603,98.557c0.561,0.826,1.381,1.707,2.437,2.623c0.899,0.793,1.531,1.461,1.876,2
					c0.317,0.49,0.468,0.961,0.468,1.451c-0.002,0.504-0.188,0.793-0.566,0.881c-0.405,0.1-0.945-0.047-1.62-0.434
					c-0.481-0.279-0.928-0.629-1.338-1.039c-0.354-0.369-0.661-0.771-0.899-1.189l-0.101-1.518c-0.009-0.186-0.138-0.396-0.295-0.49
					l-0.633-0.363c-0.165-0.096-0.302-0.02-0.303,0.166l-0.002,1.895c0,0.08,0.024,0.168,0.067,0.256
					c0.393,0.773,0.904,1.496,1.52,2.143c0.608,0.637,1.271,1.164,1.979,1.574c1.01,0.582,1.858,0.791,2.518,0.625
					c0.692-0.176,1.04-0.758,1.044-1.73c0.001-0.924-0.298-1.863-0.891-2.771c-0.554-0.859-1.368-1.752-2.414-2.666
					c-0.909-0.787-1.554-1.463-1.902-1.996c-0.319-0.479-0.473-0.924-0.473-1.365c0.004-0.463,0.182-0.738,0.54-0.85
					c0.372-0.121,0.922,0.025,1.618,0.426c0.497,0.285,0.935,0.627,1.289,1.006c0.319,0.334,0.576,0.688,0.771,1.055l0.097,1.471
					c0.011,0.186,0.146,0.4,0.298,0.488l0.632,0.365c0.167,0.098,0.302,0.02,0.302-0.166l0.007-1.85
					c0-0.072-0.021-0.162-0.065-0.242c-0.332-0.701-0.801-1.381-1.377-2.006C64.612,95.684,63.958,95.158,63.236,94.74"/>
				<path fill="#EBEDD6" d="M73.74,100.803c-1.016-0.586-1.858-0.787-2.513-0.6c-0.677,0.195-1.024,0.766-1.026,1.701
					c-0.003,0.91,0.302,1.828,0.899,2.711c0.561,0.828,1.381,1.711,2.437,2.623c0.901,0.795,1.53,1.465,1.88,2.008
					c0.313,0.484,0.464,0.955,0.464,1.445c-0.002,0.502-0.188,0.793-0.566,0.879c-0.398,0.105-0.946-0.043-1.62-0.434
					c-0.479-0.275-0.928-0.629-1.338-1.037c-0.356-0.367-0.661-0.77-0.899-1.189l-0.099-1.52c-0.011-0.184-0.142-0.396-0.297-0.486
					l-0.633-0.367c-0.165-0.096-0.302-0.016-0.302,0.17l-0.005,1.891c0,0.08,0.026,0.172,0.07,0.256
					c0.392,0.777,0.905,1.5,1.517,2.148c0.61,0.635,1.278,1.166,1.981,1.568c1.009,0.582,1.856,0.795,2.519,0.631
					c0.69-0.18,1.043-0.758,1.047-1.734c0.004-0.924-0.298-1.859-0.896-2.77c-0.554-0.861-1.368-1.754-2.414-2.668
					c-0.909-0.787-1.555-1.463-1.902-1.992c-0.319-0.482-0.473-0.928-0.471-1.369c0-0.465,0.18-0.74,0.536-0.85
					c0.374-0.119,0.928,0.023,1.625,0.432c0.492,0.283,0.93,0.619,1.291,1.002c0.317,0.334,0.575,0.689,0.764,1.053l0.099,1.475
					c0.018,0.188,0.145,0.398,0.302,0.488l0.631,0.365c0.162,0.092,0.296,0.016,0.298-0.17l0.006-1.848
					c0.001-0.078-0.021-0.162-0.061-0.24c-0.337-0.705-0.802-1.381-1.38-2.01C75.115,101.744,74.458,101.217,73.74,100.803"/>
			</g>
		</g>
	</g>
	<g>
		<g enable-background="new    ">
			<g>
				<path fill="#EBEDD6" d="M77.334,89.08L38.358,66.576c-0.243-0.141-0.436-0.024-0.438,0.25c0,0.279,0.19,0.614,0.434,0.756
					L77.33,90.084c0.245,0.141,0.436,0.025,0.438-0.254C77.768,89.555,77.577,89.219,77.334,89.08"/>
				<path fill="#EBEDD6" d="M77.324,92.494L38.348,69.993c-0.243-0.142-0.436-0.024-0.436,0.249
					c-0.002,0.276,0.188,0.615,0.432,0.754L77.321,93.5c0.243,0.141,0.436,0.027,0.436-0.254
					C77.759,92.971,77.568,92.637,77.324,92.494"/>
				<path fill="#EBEDD6" d="M77.314,95.912L38.339,73.408c-0.245-0.141-0.436-0.025-0.438,0.251c0,0.276,0.19,0.613,0.434,0.755
					l38.976,22.502c0.243,0.141,0.436,0.025,0.438-0.254C77.748,96.389,77.558,96.051,77.314,95.912"/>
			</g>
		</g>
	</g>
</g>
</svg>
