<?xml version="1.0" encoding="utf-8"?>
<!-- Generator: Adobe Illustrator 16.0.0, SVG Export Plug-In . SVG Version: 6.00 Build 0)  -->
<!DOCTYPE svg PUBLIC "-//W3C//DTD SVG 1.1//EN" "http://www.w3.org/Graphics/SVG/1.1/DTD/svg11.dtd">
<svg version="1.1" id="Layer_1" xmlns="http://www.w3.org/2000/svg" xmlns:xlink="http://www.w3.org/1999/xlink" x="0px" y="0px"
	 width="130px" height="130px" viewBox="0 0 130 130" enable-background="new 0 0 130 130" xml:space="preserve">
<g>
	<g>
		<path fill="#9E1C20" d="M128.996,59.549H1.014v10.776c0,0.08,0,0.162,0-2.041v1.133l0.091,2.279
			C1.627,80.758,7.786,89.726,19.7,96.6c24.919,14.397,65.683,14.397,90.611,0c11.91-6.874,18.06-15.842,18.585-24.903l0.1-2.279
			V59.549z"/>
		<path fill="#8D191C" d="M19.7,96.6c24.919,14.397,65.683,14.397,90.611,0c11.91-6.874,18.06-15.842,18.585-24.903l0.1-2.279
			v-9.868H19.7V96.6z"/>
		<path fill="#65A543" d="M110.312,96.6c11.91-6.874,18.06-15.842,18.585-24.903l0.1-2.279v-9.868h-9.999l-8.686,5.055V96.6z"/>
		<g>
			<path fill="#F1612E" d="M110.312,33.392c-24.929-14.386-65.692-14.386-90.611,0l45.306,26.157L110.312,33.392z"/>
			<path fill="#EC1C24" d="M19.7,33.392c-24.934,14.393-24.934,37.932,0,52.315l45.306-26.158L19.7,33.392z"/>
			<path fill="#77BF43" d="M110.312,33.392L65.006,59.549l45.306,26.158C135.229,71.323,135.229,47.784,110.312,33.392z"/>
			<path fill="#D02026" d="M19.7,85.707c24.919,14.391,65.683,14.391,90.611,0L65.006,59.549L19.7,85.707z"/>
		</g>
	</g>
</g>
</svg>
