<?xml version="1.0" encoding="utf-8"?>
<!-- Generator: Adobe Illustrator 16.0.0, SVG Export Plug-In . SVG Version: 6.00 Build 0)  -->
<!DOCTYPE svg PUBLIC "-//W3C//DTD SVG 1.1//EN" "http://www.w3.org/Graphics/SVG/1.1/DTD/svg11.dtd">
<svg version="1.1" id="Layer_1" xmlns="http://www.w3.org/2000/svg" xmlns:xlink="http://www.w3.org/1999/xlink" x="0px" y="0px"
	 width="130px" height="130px" viewBox="0 0 130 130" enable-background="new 0 0 130 130" xml:space="preserve">
<g>
	<g>
		<g>
			<path fill="#B77723" d="M27.188,42.451c7.89-13.682,15.413-24.02,29.104-16.121l63.344,36.334
				c13.698,7.883,12.185,16.791-3.337,19.787l-98.023,18.857c-15.521,3.02-21.747-5.76-13.85-19.418L27.188,42.451z"/>
		</g>
		<path fill="#D6BE45" d="M100.314,68.24L36.971,31.906c-0.716-0.414-1.412-0.766-2.096-1.082
			c-2.668,3.207-5.159,7.244-7.687,11.627L4.426,81.891c-7.897,13.658-1.672,22.438,13.85,19.418l88.364-17
			C112.162,80.16,110.207,73.934,100.314,68.24z"/>
		<path fill="#DDA54A" d="M119.636,62.664L56.292,26.33c-13.69-7.898-21.214,2.439-29.104,16.121L4.426,81.891
			c-1.991,3.443-3.083,6.576-3.355,9.289c2.878,1.113,6.778,1.307,11.566,0.375l98.024-18.857c7.501-1.449,11.72-4.279,12.542-7.705
			C122.156,64.211,120.971,63.434,119.636,62.664z"/>
		<path fill="#EDB564" d="M56.292,26.33c-13.69-7.898-21.214,2.439-29.104,16.121L4.426,81.891
			c-1.991,3.443-3.083,6.576-3.355,9.289"/>
		<path fill="#EDB564" d="M110.661,72.697c7.501-1.449,11.72-4.279,12.542-7.705"/>
		<path fill="#CC8F37" d="M4.426,81.891c-1.991,3.443-3.083,6.576-3.355,9.289c2.878,1.113,6.778,1.307,11.566,0.375l98.024-18.857
			c7.501-1.449,11.72-4.279,12.542-7.705c-1.047-0.781-2.232-1.559-3.567-2.328"/>
		<path fill="#F2E26B" d="M100.314,68.24L36.971,31.906c-0.716-0.414-1.412-0.766-2.096-1.082
			c-2.668,3.207-5.159,7.244-7.687,11.627L4.426,81.891c-1.991,3.443-3.083,6.576-3.355,9.289c2.878,1.113,6.778,1.307,11.566,0.375
			l94.407-18.162C105.492,71.674,103.257,69.934,100.314,68.24z"/>
		<path fill="#FFEB78" d="M36.971,31.906c-0.716-0.414-1.412-0.766-2.096-1.082c-0.664,0.799-1.317,1.648-1.963,2.541
			c-0.008,0.014-0.018,0.027-0.027,0.039c-0.302,0.418-0.602,0.848-0.9,1.285c-0.029,0.043-0.059,0.086-0.088,0.127
			c-0.624,0.92-1.243,1.873-1.859,2.859c-0.016,0.027-0.032,0.053-0.048,0.078c-0.274,0.441-0.549,0.889-0.823,1.342
			c-0.07,0.117-0.142,0.236-0.214,0.355c-0.225,0.375-0.45,0.754-0.675,1.135c-0.076,0.129-0.152,0.256-0.229,0.387
			c-0.286,0.488-0.573,0.98-0.86,1.479L4.426,81.891c-1.991,3.443-3.083,6.576-3.355,9.289l45.691-53.658L36.971,31.906z"/>
		<path fill="#E8D252" d="M4.426,81.891c-1.991,3.443-3.083,6.576-3.355,9.289c2.878,1.113,6.778,1.307,11.566,0.375l94.407-18.162
			c-1.552-1.719-3.787-3.459-6.729-5.152"/>
		<g>
			<g>
				<path fill="#9E0707" d="M41.408,72.453H25.14v1.369c0,0.01,0,0.021,0-0.26v0.145l0.012,0.291c0.067,1.15,0.85,2.291,2.364,3.164
					c3.167,1.83,8.348,1.83,11.517,0c1.514-0.873,2.296-2.014,2.363-3.164l0.013-0.291V72.453z"/>
				<path fill="#8E0C0C" d="M27.516,77.162c3.167,1.83,8.348,1.83,11.517,0c1.514-0.873,2.296-2.014,2.363-3.164l0.013-0.291v-1.254
					H27.516V77.162z"/>
				<path fill="#FC0B0B" d="M39.032,69.26c-3.169-1.828-8.35-1.828-11.517,0c-3.17,1.83-3.17,4.822,0,6.65
					c3.167,1.828,8.348,1.828,11.517,0C42.2,74.082,42.2,71.09,39.032,69.26z"/>
				<path fill="#FF4200" d="M39.032,69.26c-3.169-1.828-8.35-1.828-11.517,0"/>
				<path fill="#E50707" d="M27.516,75.91c3.167,1.828,8.348,1.828,11.517,0c3.168-1.828,3.168-4.82,0-6.65"/>
			</g>
		</g>
		<g>
			<g>
				<path fill="#9E0707" d="M40.045,39.914h-6.771v0.57c0,0.006,0,0.01,0-0.107v0.061l0.005,0.121
					c0.027,0.479,0.353,0.953,0.983,1.316c1.319,0.762,3.476,0.762,4.794,0c0.63-0.363,0.956-0.838,0.983-1.316l0.006-0.121V39.914z
					"/>
				<path fill="#8E0C0C" d="M34.262,41.875c1.319,0.762,3.476,0.762,4.794,0c0.63-0.363,0.956-0.838,0.983-1.316l0.006-0.121v-0.523
					h-5.783V41.875z"/>
				<path fill="#FC0B0B" d="M39.056,38.586c-1.318-0.76-3.475-0.76-4.794,0c-1.319,0.762-1.319,2.008,0,2.77
					c1.319,0.76,3.476,0.76,4.794,0C40.375,40.594,40.375,39.348,39.056,38.586z"/>
				<path fill="#FF4200" d="M39.056,38.586c-1.318-0.76-3.475-0.76-4.794,0"/>
				<path fill="#E50707" d="M34.262,41.355c1.319,0.76,3.476,0.76,4.794,0c1.319-0.762,1.319-2.008,0-2.77"/>
			</g>
		</g>
		<g>
			<g>
				<path fill="#9E0707" d="M92.479,67.549h-9.405v0.793c0,0.004,0,0.012,0-0.15v0.082l0.007,0.168
					c0.039,0.666,0.491,1.324,1.366,1.83c1.832,1.057,4.827,1.057,6.659,0c0.874-0.506,1.327-1.164,1.365-1.83l0.008-0.168V67.549z"
					/>
				<path fill="#8E0C0C" d="M84.446,70.271c1.832,1.057,4.827,1.057,6.659,0c0.874-0.506,1.327-1.164,1.365-1.83l0.008-0.168v-0.725
					h-8.032V70.271z"/>
				<path fill="#FC0B0B" d="M91.105,65.703c-1.832-1.057-4.827-1.057-6.659,0c-1.832,1.059-1.832,2.787,0,3.844
					c1.832,1.059,4.827,1.059,6.659,0C92.937,68.49,92.937,66.762,91.105,65.703z"/>
				<path fill="#FF4200" d="M91.105,65.703c-1.832-1.057-4.827-1.057-6.659,0"/>
				<path fill="#E50707" d="M84.446,69.547c1.832,1.059,4.827,1.059,6.659,0c1.831-1.057,1.831-2.785,0-3.844"/>
			</g>
		</g>
		<g>
			<g>
				<path fill="#9E0707" d="M69.456,60.559H59.363v0.85c0,0.008,0,0.014,0-0.16v0.09l0.007,0.18
					c0.042,0.715,0.527,1.422,1.468,1.965c1.964,1.135,5.179,1.135,7.145,0c0.939-0.543,1.425-1.25,1.467-1.965l0.007-0.18V60.559z"
					/>
				<path fill="#8E0C0C" d="M60.838,63.482c1.964,1.135,5.179,1.135,7.145,0c0.939-0.543,1.425-1.25,1.467-1.965l0.007-0.18v-0.779
					h-8.618V63.482z"/>
				<path fill="#FC0B0B" d="M67.982,58.58c-1.966-1.137-5.181-1.137-7.145,0c-1.967,1.133-1.967,2.99,0,4.125
					c1.964,1.135,5.179,1.135,7.145,0C69.947,61.57,69.947,59.713,67.982,58.58z"/>
				<path fill="#FF4200" d="M67.982,58.58c-1.966-1.137-5.181-1.137-7.145,0"/>
				<path fill="#E50707" d="M60.838,62.705c1.964,1.135,5.179,1.135,7.145,0c1.965-1.135,1.965-2.992,0-4.125"/>
			</g>
		</g>
		<g>
			<g>
				<path fill="#9E0707" d="M45.183,54.652h-7.207v0.607c0,0.004,0,0.008,0-0.115v0.064l0.005,0.127
					c0.03,0.51,0.377,1.016,1.048,1.404c1.403,0.809,3.698,0.809,5.102,0c0.671-0.389,1.018-0.895,1.048-1.404l0.005-0.127V54.652z"
					/>
				<path fill="#8E0C0C" d="M39.028,56.74c1.403,0.809,3.698,0.809,5.102,0c0.671-0.389,1.018-0.895,1.048-1.404l0.005-0.127v-0.557
					h-6.154V56.74z"/>
				<path fill="#FC0B0B" d="M44.13,53.238c-1.403-0.811-3.698-0.811-5.102,0c-1.404,0.811-1.404,2.137,0,2.945
					c1.403,0.811,3.698,0.811,5.102,0C45.533,55.375,45.533,54.049,44.13,53.238z"/>
				<path fill="#FF4200" d="M44.13,53.238c-1.403-0.811-3.698-0.811-5.102,0"/>
				<path fill="#E50707" d="M39.028,56.184c1.403,0.811,3.698,0.811,5.102,0c1.403-0.809,1.403-2.135,0-2.945"/>
			</g>
		</g>
		<g>
			<g>
				<path fill="#9E0707" d="M57.661,50.299h-7.207v0.607c0,0.004,0,0.008,0-0.115v0.064l0.005,0.127
					c0.03,0.51,0.377,1.016,1.048,1.402c1.402,0.811,3.698,0.811,5.102,0c0.671-0.387,1.018-0.893,1.048-1.402l0.005-0.127V50.299z"
					/>
				<path fill="#8E0C0C" d="M51.507,52.385c1.402,0.811,3.698,0.811,5.102,0c0.671-0.387,1.018-0.893,1.048-1.402l0.005-0.127
					v-0.557h-6.154V52.385z"/>
				<path fill="#FC0B0B" d="M56.608,48.885c-1.403-0.811-3.699-0.811-5.102,0c-1.404,0.811-1.404,2.137,0,2.945
					c1.402,0.811,3.698,0.811,5.102,0C58.012,51.021,58.012,49.695,56.608,48.885z"/>
				<path fill="#FF4200" d="M56.608,48.885c-1.403-0.811-3.699-0.811-5.102,0"/>
				<path fill="#E50707" d="M51.507,51.83c1.402,0.811,3.698,0.811,5.102,0c1.403-0.809,1.403-2.135,0-2.945"/>
			</g>
		</g>
		<g>
			<g>
				<path fill="#9E0707" d="M66.539,72.936h-7.207v0.607c0,0.004,0,0.008,0-0.115v0.062l0.006,0.129
					c0.029,0.51,0.376,1.016,1.047,1.402c1.403,0.811,3.698,0.811,5.103,0c0.671-0.387,1.017-0.893,1.047-1.402l0.005-0.129V72.936z
					"/>
				<path fill="#8E0C0C" d="M60.385,75.021c1.403,0.811,3.698,0.811,5.103,0c0.671-0.387,1.017-0.893,1.047-1.402l0.005-0.129
					v-0.555h-6.154V75.021z"/>
				<path fill="#FC0B0B" d="M65.487,71.52c-1.404-0.809-3.699-0.809-5.103,0c-1.404,0.812-1.404,2.137,0,2.947
					c1.403,0.811,3.698,0.811,5.103,0C66.89,73.656,66.89,72.332,65.487,71.52z"/>
				<path fill="#FF4200" d="M65.487,71.52c-1.404-0.809-3.699-0.809-5.103,0"/>
				<path fill="#E50707" d="M60.385,74.467c1.403,0.811,3.698,0.811,5.103,0c1.402-0.811,1.402-2.135,0-2.947"/>
			</g>
		</g>
		<g>
			<g>
				<path fill="#9E0707" d="M23.604,62.967h4.718v-0.398c0,0,0-0.012,0,0.07v-0.041v-0.08c-0.023-0.334-0.249-0.658-0.687-0.918
					c-0.918-0.533-2.419-0.533-3.347,0c-0.429,0.26-0.659,0.584-0.678,0.918l-0.007,0.08V62.967z"/>
				<path fill="#8E0C0C" d="M27.635,61.6c-0.918-0.533-2.419-0.533-3.347,0c-0.429,0.26-0.659,0.584-0.678,0.918l-0.007,0.08v0.369
					h4.031V61.6z"/>
				<path fill="#FC0B0B" d="M24.288,63.895c0.928,0.529,2.429,0.529,3.347,0c0.916-0.537,0.916-1.396,0-1.936
					c-0.918-0.529-2.419-0.529-3.347,0C23.381,62.498,23.381,63.357,24.288,63.895z"/>
				<path fill="#FF4200" d="M24.288,63.895c0.928,0.529,2.429,0.529,3.347,0"/>
				<path fill="#E50707" d="M27.635,61.959c-0.918-0.529-2.419-0.529-3.347,0c-0.907,0.539-0.907,1.398,0,1.936"/>
			</g>
		</g>
		<g>
			<g>
				<path fill="#9E0707" d="M9.412,83.393h4.717v-0.4c0,0,0-0.012,0,0.07v-0.041v-0.08c-0.022-0.334-0.248-0.658-0.687-0.916
					c-0.918-0.535-2.419-0.535-3.346,0c-0.43,0.258-0.659,0.582-0.679,0.916l-0.006,0.08V83.393z"/>
				<path fill="#8E0C0C" d="M13.442,82.025c-0.918-0.535-2.419-0.535-3.346,0c-0.43,0.258-0.659,0.582-0.679,0.916l-0.006,0.08
					v0.371h4.03V82.025z"/>
				<path fill="#FC0B0B" d="M10.097,84.318c0.927,0.529,2.428,0.529,3.346,0c0.917-0.537,0.917-1.396,0-1.934
					c-0.918-0.529-2.419-0.529-3.346,0C9.188,82.922,9.188,83.781,10.097,84.318z"/>
				<path fill="#FF4200" d="M10.097,84.318c0.927,0.529,2.428,0.529,3.346,0"/>
				<path fill="#E50707" d="M13.442,82.385c-0.918-0.529-2.419-0.529-3.346,0c-0.908,0.537-0.908,1.396,0,1.934"/>
			</g>
		</g>
		<path fill="#DBC142" d="M33.665,52.084c-1.755-1.012-4.627-1.012-6.382,0c-1.758,1.014-1.758,2.672,0,3.686
			c1.498,0.867,3.816,0.994,5.553,0.377c0.297-0.104,0.574-0.23,0.829-0.377C35.42,54.756,35.42,53.098,33.665,52.084z"/>
		<path fill="#DBC142" d="M52.931,61.623c-0.783-0.451-2.066-0.451-2.85,0c-0.783,0.453-0.783,1.193,0,1.645
			c0.67,0.387,1.703,0.443,2.479,0.168c0.133-0.047,0.258-0.102,0.371-0.168C53.714,62.816,53.714,62.076,52.931,61.623z"/>
		<path fill="#DBC142" d="M21.29,71.854c-0.784-0.451-2.065-0.451-2.849,0c-0.784,0.453-0.784,1.191,0,1.645
			c0.669,0.387,1.702,0.443,2.479,0.168c0.133-0.047,0.256-0.104,0.37-0.168C22.074,73.045,22.074,72.307,21.29,71.854z"/>
		<path fill="#DBC142" d="M76.309,68.445c-0.775-0.445-2.045-0.445-2.819,0c-0.775,0.449-0.775,1.182,0,1.629
			c0.662,0.383,1.685,0.438,2.452,0.166c0.132-0.047,0.254-0.102,0.367-0.166C77.083,69.627,77.083,68.895,76.309,68.445z"/>
		<path fill="#DBC142" d="M49.59,69.068c-1.404-0.811-3.703-0.811-5.109,0c-1.404,0.812-1.404,2.137,0,2.947
			c1.202,0.693,3.055,0.797,4.446,0.305c0.239-0.086,0.458-0.186,0.663-0.305C50.996,71.205,50.996,69.881,49.59,69.068z"/>
		<g>
			<polygon fill="#43A807" points="41.556,65.994 41.497,59.922 44.151,61.453 			"/>
			<polygon fill="#6FB709" points="41.556,65.994 41.497,59.922 43.163,60.883 			"/>
			<polygon fill="#6FB709" points="41.556,65.994 42.857,63.719 46.764,62.957 			"/>
			<polygon fill="#43A807" points="41.556,65.994 44.159,67.473 46.764,62.957 			"/>
		</g>
		<g>
			<polygon fill="#43A807" points="44.68,46.799 44.738,40.725 42.084,42.258 			"/>
			<polygon fill="#6FB709" points="44.68,46.799 44.738,40.725 43.072,41.686 			"/>
			<polygon fill="#6FB709" points="44.68,46.799 43.378,44.521 39.473,43.762 			"/>
			<polygon fill="#43A807" points="44.68,46.799 42.076,48.277 39.473,43.762 			"/>
		</g>
		<g>
			<polygon fill="#43A807" points="79.464,61.912 79.522,55.84 76.868,57.371 			"/>
			<polygon fill="#6FB709" points="79.464,61.912 79.522,55.84 77.857,56.801 			"/>
			<polygon fill="#6FB709" points="79.464,61.912 78.162,59.637 74.257,58.877 			"/>
			<polygon fill="#43A807" points="79.464,61.912 76.861,63.391 74.257,58.877 			"/>
		</g>
		<path fill="#F9F68A" d="M57.621,57.564c0.091,0.312,0.418,0.492,0.73,0.402l4.579-1.33c0.312-0.092,0.493-0.42,0.401-0.732l0,0
			c-0.091-0.312-0.419-0.492-0.731-0.4l-4.578,1.328C57.709,56.924,57.529,57.25,57.621,57.564L57.621,57.564z"/>
		<path fill="#F9F68A" d="M31.751,57.652c-0.133,0.297-0.001,0.645,0.295,0.781l4.346,1.961c0.297,0.133,0.647,0,0.78-0.297l0,0
			c0.134-0.295,0.002-0.646-0.294-0.779l-4.346-1.961C32.234,57.223,31.886,57.354,31.751,57.652L31.751,57.652z"/>
		<path fill="#F9F68A" d="M52.627,67.621c-0.133,0.297-0.001,0.645,0.295,0.781l4.346,1.961c0.297,0.133,0.647,0,0.78-0.297l0,0
			c0.134-0.295,0.002-0.646-0.294-0.779l-4.346-1.961C53.11,67.191,52.762,67.322,52.627,67.621L52.627,67.621z"/>
		<path fill="#F9F68A" d="M22.576,66.248c0.133,0.299,0.001,0.646-0.296,0.781l-4.346,1.963c-0.296,0.133-0.647,0-0.78-0.297l0,0
			c-0.134-0.297-0.002-0.646,0.295-0.779l4.346-1.961C22.092,65.82,22.441,65.951,22.576,66.248L22.576,66.248z"/>
		<path fill="#F9F68A" d="M55.285,44.795c0.133,0.299,0.001,0.646-0.295,0.781l-4.346,1.963c-0.297,0.133-0.647,0-0.78-0.297l0,0
			c-0.134-0.297-0.002-0.646,0.294-0.779l4.346-1.961C54.802,44.365,55.15,44.498,55.285,44.795L55.285,44.795z"/>
	</g>
	<path fill="#D6BE45" d="M33.273,102.453c0,1.27-1.027,2.297-2.296,2.297l0,0c-1.269,0-2.296-1.027-2.296-2.297v-6.059
		c0-1.268,1.027-2.297,2.296-2.297l0,0c1.269,0,2.296,1.029,2.296,2.297V102.453z"/>
	<path fill="#D6BE45" d="M29.931,100.504c0,1.27-1.027,2.297-2.296,2.297l0,0c-1.269,0-2.296-1.027-2.296-2.297v-6.059
		c0-1.268,1.027-2.297,2.296-2.297l0,0c1.269,0,2.296,1.029,2.296,2.297V100.504z"/>
	<path fill="#D6BE45" d="M36.558,100.504c0,1.27-1.027,2.297-2.296,2.297l0,0c-1.269,0-2.296-1.027-2.296-2.297v-6.059
		c0-1.268,1.027-2.297,2.296-2.297l0,0c1.269,0,2.296,1.029,2.296,2.297V100.504z"/>
	<path fill="#D6BE45" d="M60.396,98.102c0,1.27-1.027,2.297-2.296,2.297l0,0c-1.269,0-2.296-1.027-2.296-2.297v-6.059
		c0-1.268,1.027-2.297,2.296-2.297l0,0c1.269,0,2.296,1.029,2.296,2.297V98.102z"/>
	<path fill="#D6BE45" d="M55.591,94.203c0,1.27-1.027,2.297-2.296,2.297l0,0c-1.269,0-2.296-1.027-2.296-2.297v-6.059
		c0-1.268,1.027-2.297,2.296-2.297l0,0c1.269,0,2.296,1.029,2.296,2.297V94.203z"/>
	<path fill="#D6BE45" d="M56.88,98.648c0,1.27-1.027,2.297-2.296,2.297l0,0c-1.269,0-2.296-1.027-2.296-2.297V92.59
		c0-1.268,1.027-2.297,2.296-2.297l0,0c1.269,0,2.296,1.029,2.296,2.297V98.648z"/>
	<path fill="#D6BE45" d="M19.397,103.428c0,1.27-1.027,2.297-2.296,2.297l0,0c-1.269,0-2.296-1.027-2.296-2.297v-6.059
		c0-1.268,1.027-2.297,2.296-2.297l0,0c1.269,0,2.296,1.029,2.296,2.297V103.428z"/>
	<path fill="#D6BE45" d="M16.425,101.301c0,1.27-1.027,2.297-2.296,2.297l0,0c-1.269,0-2.296-1.027-2.296-2.297v-6.059
		c0-1.268,1.027-2.297,2.296-2.297l0,0c1.269,0,2.296,1.029,2.296,2.297V101.301z"/>
	<path fill="#D6BE45" d="M21.693,100.504c0,1.27-1.027,2.297-2.296,2.297l0,0c-1.269,0-2.296-1.027-2.296-2.297v-6.059
		c0-1.268,1.027-2.297,2.296-2.297l0,0c1.269,0,2.296,1.029,2.296,2.297V100.504z"/>
	<path fill="#D6BE45" d="M62.218,94.203c0,1.27-1.027,2.297-2.296,2.297l0,0c-1.269,0-2.296-1.027-2.296-2.297v-6.059
		c0-1.268,1.027-2.297,2.296-2.297l0,0c1.269,0,2.296,1.029,2.296,2.297V94.203z"/>
	<path fill="#D6BE45" d="M70.308,98.102c0,1.27-1.027,2.297-2.296,2.297l0,0c-1.269,0-2.296-1.027-2.296-2.297v-6.059
		c0-1.268,1.027-2.297,2.296-2.297l0,0c1.269,0,2.296,1.029,2.296,2.297V98.102z"/>
	<path fill="#D6BE45" d="M67.009,102.559c0,2.129-1.725,3.854-3.853,3.854l0,0c-2.128,0-3.853-1.725-3.853-3.854V92.393
		c0-2.129,1.725-3.854,3.853-3.854l0,0c2.128,0,3.853,1.725,3.853,3.854V102.559z"/>
	<path fill="#D6BE45" d="M73.592,96.152c0,1.27-1.027,2.297-2.296,2.297l0,0c-1.269,0-2.296-1.027-2.296-2.297v-6.059
		c0-1.268,1.027-2.297,2.296-2.297l0,0c1.269,0,2.296,1.029,2.296,2.297V96.152z"/>
	<path fill="#D6BE45" d="M39.449,95.975c0,1.27-1.027,2.297-2.296,2.297l0,0c-1.269,0-2.296-1.027-2.296-2.297v-6.059
		c0-1.268,1.027-2.297,2.296-2.297l0,0c1.269,0,2.296,1.029,2.296,2.297V95.975z"/>
</g>
</svg>
