<?xml version="1.0" encoding="utf-8"?>
<!-- Generator: Adobe Illustrator 16.0.0, SVG Export Plug-In . SVG Version: 6.00 Build 0)  -->
<!DOCTYPE svg PUBLIC "-//W3C//DTD SVG 1.1//EN" "http://www.w3.org/Graphics/SVG/1.1/DTD/svg11.dtd">
<svg version="1.1" id="Layer_1" xmlns="http://www.w3.org/2000/svg" xmlns:xlink="http://www.w3.org/1999/xlink" x="0px" y="0px"
	 width="130px" height="130px" viewBox="0 0 130 130" enable-background="new 0 0 130 130" xml:space="preserve">
<g>
	<g>
		<path fill="#295CCE" d="M104.612,105.386v-58.19H25.39v58.186c-0.326,6.113,3.488,12.287,11.525,16.928
			c15.447,8.922,40.723,8.922,56.172,0C101.12,117.67,104.937,111.497,104.612,105.386z"/>
		<path fill="#1342AA" d="M36.313,121.922c0.209,0.127,0.387,0.263,0.602,0.387c6.91,3.99,15.783,6.182,24.865,6.603
			c8.064,0.005,16.115-1.027,23.484-3.129c2.787-0.953,5.432-2.093,7.822-3.474c8.033-4.639,11.85-10.812,11.525-16.923v-58.19
			H36.313V121.922z"/>
		<g>
			<polygon opacity="0.2" fill="#176666" points="96.595,62.29 96.661,121.334 87.874,126.423 87.81,67.379 			"/>
			<polygon fill="#7F1646" points="97.851,61.514 97.919,120.605 89.132,125.694 89.067,66.603 			"/>
			<polyline fill="#70093D" points="89.132,125.694 89.067,64.821 97.851,61.507 			"/>
		</g>
		<g>
			<polygon opacity="0.2" fill="#176666" points="33.476,62.329 33.476,121.373 42.267,126.45 42.267,67.405 			"/>
			<polygon fill="#7F1646" points="32.216,61.556 32.216,120.647 41.009,125.724 41.009,66.632 			"/>
			<polyline fill="#70093D" points="41.009,125.724 41.009,62.956 32.216,61.548 			"/>
			<path opacity="0.4" fill="#295CCE" d="M25.39,67.17c-0.326,6.113,3.488,12.287,11.525,16.928c15.447,8.922,40.723,8.922,56.172,0
				c8.033-4.639,11.85-10.812,11.525-16.923V47.195H25.39V67.17z"/>
		</g>
		<path fill="#306CD8" d="M93.083,30.979c-15.445-8.918-40.723-8.918-56.168,0c-15.447,8.921-15.447,23.513,0,32.431
			c15.447,8.921,40.723,8.921,56.172,0C108.534,54.491,108.534,39.899,93.083,30.979z"/>
		<path fill="#1E50A8" d="M36.915,63.409c15.447,8.921,40.723,8.921,56.172,0c15.447-8.918,15.447-23.51-0.004-32.431"/>
	</g>
	<g>
		<path fill="#538EF4" d="M109.313,43.546V29.099H20.69V43.54c-0.365,6.84,3.902,13.745,12.893,18.937
			c17.279,9.979,45.555,9.979,62.838,0C105.405,57.287,109.675,50.382,109.313,43.546z"/>
		<path fill="#295CCE" d="M32.909,29.099v32.945c0.236,0.141,0.436,0.294,0.674,0.433c13.82,7.98,34.66,9.561,51.299,4.775
			c0.938-0.32,1.869-0.628,2.787-0.891c1.463-0.499,2.877-1.056,4.26-1.652c0.135-0.06,0.273-0.112,0.408-0.174
			c1.416-0.629,2.785-1.31,4.084-2.059c8.984-5.189,13.254-12.095,12.893-18.931V29.099H32.909z"/>
		<path opacity="0.2" fill="#176666" d="M101.62,58.747l-0.012-11.828l-9.033,5.229l0.02,12.188c1.305-0.593,2.584-1.216,3.787-1.91
			C98.368,61.278,100.083,60.038,101.62,58.747z"/>
		<path fill="#70093D" d="M102.899,46.172l-7.568,4.382v12.402c0.352-0.176,0.717-0.338,1.051-0.53
			c2.564-1.48,4.713-3.104,6.533-4.817L102.899,46.172z"/>
		<path opacity="0.2" fill="#176666" d="M28.546,58.947c1.482,1.237,3.129,2.428,5.037,3.529c1.197,0.691,2.459,1.324,3.756,1.921
			V52.493l-8.793-5.076V58.947z"/>
		<path fill="#CE2E6B" d="M34.833,51.022l-7.545-4.355v11.184c1.756,1.644,3.832,3.204,6.295,4.626c0.4,0.232,0.83,0.437,1.25,0.652
			V51.022z"/>
		<path fill="#78AFFF" d="M96.413,14.699c-17.275-9.976-45.553-9.976-62.83,0c-17.279,9.979-17.279,26.302,0,36.277
			c17.279,9.979,45.555,9.979,62.838,0C113.698,41.001,113.698,24.679,96.413,14.699z"/>
		<path fill="#538EF4" d="M33.583,50.977c17.279,9.979,45.555,9.979,62.838,0c17.277-9.976,17.277-26.298-0.008-36.277"/>
	</g>
	<g>
		<g>
			<g>
				<path opacity="0.2" fill="#176666" d="M90.267,11.767c-0.01-0.003-0.018-0.009-0.027-0.013L28.546,46.755l1.461,1.857
					c1.105,0.817,2.275,1.613,3.576,2.364c0.893,0.517,1.834,0.989,2.787,1.453l62.854-35.934c-0.883-0.617-1.811-1.22-2.811-1.797
					c-0.973-0.562-1.994-1.083-3.031-1.582C92.37,12.64,91.329,12.19,90.267,11.767z"/>
				<path opacity="0.2" fill="#176666" d="M93.745,52.371c0.91-0.446,1.816-0.898,2.676-1.395c2.135-1.232,4.002-2.563,5.607-3.966
					L39.827,11.754c-2.17,0.863-4.25,1.832-6.176,2.945c-1,0.577-1.928,1.18-2.811,1.797L93.745,52.371z"/>
				<path fill="#A0204B" d="M92.513,12.718c-1.246-0.561-2.523-1.084-3.844-1.562l0,0L27.081,46.147
					c1.803,1.718,3.938,3.35,6.502,4.829c0.453,0.262,0.943,0.488,1.412,0.736l62.994-36.007c-0.523-0.336-1.016-0.683-1.576-1.007
					c-1.184-0.684-2.42-1.313-3.703-1.898C92.646,12.771,92.577,12.747,92.513,12.718z"/>
			</g>
		</g>
		<g>
			<path fill="#930F45" d="M95.13,51.649c0.428-0.228,0.875-0.434,1.291-0.673c2.607-1.505,4.771-3.168,6.592-4.919L41.298,11.166
				c-1.32,0.479-2.602,1.003-3.844,1.564c-0.059,0.026-0.119,0.049-0.178,0.074c-1.279,0.584-2.516,1.213-3.693,1.895
				c-0.572,0.33-1.076,0.685-1.609,1.028L95.13,51.649z"/>
		</g>
		<g>
			<path fill="#BF1F60" d="M82.679,1.077C69.853-0.566,65.009,24.58,65.009,24.58l8.764,4.956l14.758-8.428
				C88.53,21.108,95.505,2.723,82.679,1.077z"/>
			<path fill="#A0204B" d="M73.81,29.515l14.721-8.406c0,0,3.396-9.001,1.043-14.971C78.513,7.005,74.071,28.204,73.81,29.515z"/>
			<path fill="#CE2E6B" d="M89.573,6.138c-3.623,0.284-6.525,2.766-8.814,6.003c1.76,5.937-1.32,14.125-1.32,14.125l-5.623,3.211
				c0,0.007-0.004,0.031-0.006,0.038l14.721-8.406C88.53,21.108,91.927,12.107,89.573,6.138z"/>
		</g>
		<g>
			<path fill="#A50A51" d="M47.331,1.077c12.824-1.644,17.67,23.503,17.67,23.503l-8.766,4.956l-14.756-8.428
				C41.479,21.108,34.503,2.723,47.331,1.077z"/>
			<path fill="#930F45" d="M56.2,29.515l-14.721-8.406c0,0-3.395-9.001-1.047-14.971C51.495,7.005,55.938,28.204,56.2,29.515z"/>
			<path fill="#5B0836" d="M40.433,6.138c3.627,0.284,6.527,2.766,8.816,6.003c-1.76,5.937,1.322,14.125,1.322,14.125l5.619,3.211
				c0.002,0.007,0.008,0.031,0.01,0.038l-14.721-8.406C41.479,21.108,38.085,12.107,40.433,6.138z"/>
		</g>
		<path fill="#A50A51" d="M116.485,25.884v-6.192c0,0-10.322,19.705-18.883,9.626c-8.559-10.081-23.787,0.159-23.787,0.159
			l-8.814,5.068c0,0,6.699,3.135,15.77-1.048c11.623-5.357,10.922,7.31,23.877,7.549c12.953,0.236,20.025-18,20.025-18
			L116.485,25.884z"/>
		<path fill="#BF1F60" d="M13.517,25.884v-6.192c0,0,10.32,19.705,18.881,9.626c8.557-10.081,23.781,0.159,23.781,0.159l8.822,5.068
			c0,0-6.703,3.135-15.771-1.048c-11.623-5.357-10.924,7.31-23.877,7.549c-12.955,0.236-20.025-18-20.025-18L13.517,25.884z"/>
	</g>
</g>
</svg>
