<?xml version="1.0" encoding="utf-8"?>
<!-- Generator: Adobe Illustrator 16.0.0, SVG Export Plug-In . SVG Version: 6.00 Build 0)  -->
<!DOCTYPE svg PUBLIC "-//W3C//DTD SVG 1.1//EN" "http://www.w3.org/Graphics/SVG/1.1/DTD/svg11.dtd">
<svg version="1.1" id="Layer_1" xmlns="http://www.w3.org/2000/svg" xmlns:xlink="http://www.w3.org/1999/xlink" x="0px" y="0px"
	 width="130px" height="130px" viewBox="0 0 130 130" enable-background="new 0 0 130 130" xml:space="preserve">
<g>
	<g>
		<g>
			<g>
				<path fill="#381B0A" d="M51.801,45.807L2.282,74.051l6.145,10.641l49.518-28.246c0.844-0.432,1.379-1.422,1.378-2.861
					c0-2.766-1.958-6.16-4.355-7.543C53.722,45.322,52.598,45.287,51.801,45.807z"/>
				<path fill="#4C270E" d="M59.317,53.695c0-0.039,0.005-0.072,0.005-0.111c0.001-1.236-0.393-2.598-1.041-3.85
					c-0.624-1.086-1.388-2.086-2.239-2.912c-0.345-0.299-0.704-0.566-1.075-0.781c-1.245-0.719-2.369-0.754-3.166-0.234
					L2.282,74.051l5.295,9.17L59.317,53.695z"/>
				<path fill="#7C3E28" d="M1,76.855c-0.001,2.768,1.959,6.16,4.354,7.543s4.354,0.252,4.355-2.512
					c-0.001-2.768-1.961-6.162-4.356-7.545C2.959,72.961,1.001,74.09,1,76.855z"/>
				<path fill="#894631" d="M9.71,81.887c-0.001-2.768-1.961-6.162-4.356-7.545C2.959,72.961,1.001,74.09,1,76.855"/>
				<path fill="#894631" d="M2.688,77.887c0,1.633,1.156,3.635,2.57,4.453c1.414,0.814,2.57,0.148,2.57-1.484
					s-1.156-3.637-2.571-4.453C3.845,75.586,2.689,76.254,2.688,77.887z"/>
				<path fill="#7C3E28" d="M7.829,80.855c0-1.633-1.156-3.637-2.571-4.453c-1.413-0.816-2.568-0.148-2.569,1.484"/>
			</g>
		</g>
		<g>
			<g>
				<path fill="#381B0A" d="M60.51,50.818L10.992,79.062l6.144,10.641l49.519-28.246c0.844-0.432,1.379-1.422,1.378-2.863
					c0-2.766-1.959-6.158-4.355-7.541C62.432,50.334,61.308,50.299,60.51,50.818z"/>
				<path fill="#663717" d="M68.026,58.707c0-0.039,0.006-0.072,0.006-0.113c0.001-1.234-0.394-2.596-1.041-3.848
					c-0.625-1.086-1.388-2.086-2.24-2.912c-0.344-0.299-0.703-0.566-1.074-0.781c-1.245-0.719-2.369-0.754-3.167-0.234
					L10.992,79.062l5.294,9.17L68.026,58.707z"/>
				<path fill="#A55F30" d="M9.71,81.867c-0.001,2.768,1.959,6.16,4.354,7.543s4.354,0.252,4.354-2.514
					c0-2.768-1.96-6.16-4.355-7.543C11.669,77.971,9.711,79.102,9.71,81.867z"/>
				<path fill="#8E5229" d="M18.419,86.896c0-2.768-1.96-6.16-4.355-7.543c-2.395-1.383-4.353-0.252-4.354,2.514"/>
				<path fill="#894631" d="M11.397,82.898c0,1.633,1.157,3.635,2.57,4.453c1.415,0.814,2.571,0.148,2.571-1.484
					s-1.156-3.637-2.571-4.453C12.555,80.598,11.398,81.266,11.397,82.898z"/>
				<path fill="#7C3E28" d="M16.539,85.867c0-1.633-1.156-3.637-2.571-4.453c-1.413-0.816-2.569-0.148-2.57,1.484"/>
			</g>
		</g>
		<g>
			<g>
				<path fill="#381B0A" d="M69.22,55.828L19.702,84.074l6.144,10.641l49.518-28.246c0.845-0.432,1.38-1.422,1.379-2.863
					c0-2.766-1.959-6.158-4.355-7.541C71.142,55.344,70.017,55.311,69.22,55.828z"/>
				<path fill="#4C270E" d="M76.736,63.719c0-0.039,0.006-0.072,0.006-0.113c0.001-1.234-0.394-2.596-1.041-3.85
					c-0.625-1.084-1.388-2.086-2.24-2.91c-0.344-0.301-0.704-0.568-1.074-0.781c-1.245-0.721-2.37-0.754-3.167-0.236L19.702,84.074
					l5.294,9.17L76.736,63.719z"/>
				<path fill="#7C3E28" d="M18.419,86.879c0,2.768,1.96,6.16,4.354,7.543c2.396,1.383,4.354,0.252,4.355-2.514
					c-0.001-2.768-1.96-6.16-4.356-7.543C20.379,82.982,18.42,84.113,18.419,86.879z"/>
				<path fill="#894631" d="M27.129,91.908c-0.001-2.768-1.96-6.16-4.356-7.543c-2.394-1.383-4.353-0.252-4.354,2.514"/>
				<path fill="#894631" d="M20.107,87.91c0,1.633,1.157,3.635,2.57,4.453c1.415,0.814,2.57,0.146,2.57-1.484
					c0-1.633-1.155-3.637-2.571-4.453C21.265,85.609,20.108,86.275,20.107,87.91z"/>
				<path fill="#7C3E28" d="M25.248,90.879c0-1.633-1.155-3.637-2.571-4.453c-1.412-0.816-2.568-0.15-2.569,1.484"/>
			</g>
		</g>
		<g>
			<g>
				<path fill="#381B0A" d="M77.93,60.84L28.411,89.086l6.145,10.639L84.073,71.48c0.844-0.432,1.379-1.422,1.378-2.863
					c0-2.766-1.958-6.158-4.354-7.541C79.851,60.355,78.727,60.322,77.93,60.84z"/>
				<path fill="#663717" d="M85.446,68.729c0-0.037,0.005-0.072,0.005-0.111c0.001-1.234-0.393-2.598-1.041-3.85
					c-0.624-1.084-1.387-2.086-2.239-2.91c-0.345-0.301-0.704-0.568-1.074-0.781c-1.246-0.721-2.37-0.754-3.167-0.236L28.411,89.086
					l5.295,9.17L85.446,68.729z"/>
				<path fill="#A55F30" d="M27.129,91.891c-0.001,2.766,1.96,6.158,4.354,7.541c2.396,1.383,4.354,0.254,4.355-2.512
					c-0.001-2.768-1.96-6.16-4.356-7.543C29.089,87.994,27.13,89.125,27.129,91.891z"/>
				<path fill="#8E5229" d="M35.839,96.92c-0.001-2.768-1.96-6.16-4.356-7.543c-2.394-1.383-4.353-0.252-4.354,2.514"/>
				<path fill="#894631" d="M28.817,92.922c0,1.633,1.157,3.635,2.57,4.451c1.414,0.816,2.57,0.148,2.57-1.482
					c0-1.635-1.156-3.637-2.571-4.453C29.975,90.621,28.818,91.287,28.817,92.922z"/>
				<path fill="#7C3E28" d="M33.958,95.891c0-1.635-1.156-3.637-2.571-4.453c-1.412-0.816-2.568-0.15-2.569,1.484"/>
			</g>
		</g>
		<g>
			<g>
				<path fill="#381B0A" d="M86.639,65.852L37.121,94.096l6.144,10.641l49.519-28.244c0.844-0.432,1.379-1.422,1.378-2.863
					c0-2.766-1.958-6.16-4.355-7.543C88.561,65.367,87.437,65.334,86.639,65.852z"/>
				<path fill="#4C270E" d="M94.156,73.74c0-0.037,0.005-0.072,0.005-0.111c0.001-1.236-0.393-2.598-1.041-3.85
					c-0.625-1.084-1.388-2.086-2.239-2.91c-0.345-0.301-0.704-0.568-1.075-0.783c-1.245-0.719-2.369-0.752-3.167-0.234
					L37.121,94.096l5.294,9.172L94.156,73.74z"/>
				<rect x="62.466" y="83.135" fill="#301808" width="7.351" height="12.965"/>
				<path fill="#7C3E28" d="M35.839,96.902c-0.001,2.766,1.959,6.158,4.354,7.541s4.354,0.252,4.355-2.512
					c-0.001-2.768-1.961-6.162-4.356-7.545C37.798,93.006,35.84,94.135,35.839,96.902z"/>
				<path fill="#894631" d="M44.549,101.932c-0.001-2.768-1.961-6.162-4.356-7.545c-2.395-1.381-4.353-0.252-4.354,2.516"/>
				<path fill="#894631" d="M37.527,97.934c0,1.631,1.156,3.635,2.57,4.451s2.57,0.148,2.57-1.484s-1.156-3.637-2.571-4.451
					C38.684,95.633,37.528,96.299,37.527,97.934z"/>
				<path fill="#7C3E28" d="M42.668,100.9c0-1.633-1.156-3.637-2.571-4.451c-1.413-0.816-2.568-0.15-2.569,1.484"/>
			</g>
		</g>
		<g>
			<g>
				<path fill="#381B0A" d="M95.349,70.863L45.831,99.107l6.144,10.641l49.519-28.244c0.844-0.432,1.379-1.424,1.378-2.863
					c0-2.766-1.959-6.16-4.355-7.543C97.271,70.379,96.146,70.344,95.349,70.863z"/>
				<path fill="#663717" d="M102.865,78.752c0-0.037,0.006-0.072,0.006-0.111c0.001-1.236-0.394-2.598-1.041-3.85
					c-0.625-1.084-1.388-2.086-2.24-2.91c-0.344-0.301-0.704-0.568-1.074-0.783c-1.245-0.719-2.37-0.754-3.167-0.234L45.831,99.107
					l5.294,9.172L102.865,78.752z"/>
				<path fill="#A55F30" d="M44.549,101.914c-0.001,2.766,1.959,6.158,4.354,7.541s4.354,0.252,4.354-2.512
					c-0.001-2.768-1.96-6.162-4.355-7.545C46.508,98.018,44.55,99.146,44.549,101.914z"/>
				<path fill="#8E5229" d="M53.258,106.943c-0.001-2.768-1.96-6.162-4.355-7.545c-2.395-1.381-4.353-0.252-4.354,2.516"/>
				<path fill="#894631" d="M46.236,102.945c0,1.631,1.157,3.635,2.57,4.451c1.415,0.814,2.57,0.148,2.57-1.484
					s-1.155-3.637-2.571-4.453C47.394,100.645,46.237,101.311,46.236,102.945z"/>
				<path fill="#7C3E28" d="M51.377,105.912c0-1.633-1.155-3.637-2.571-4.453c-1.412-0.814-2.568-0.148-2.569,1.486"/>
			</g>
		</g>
		<g>
			<g>
				<path fill="#381B0A" d="M104.059,75.875l-49.518,28.244l6.144,10.641l49.518-28.244c0.845-0.434,1.379-1.424,1.379-2.863
					c0-2.766-1.959-6.16-4.355-7.543C105.979,75.391,104.855,75.355,104.059,75.875z"/>
				<path fill="#4C270E" d="M111.575,83.764c0-0.037,0.006-0.072,0.006-0.111c0-1.236-0.394-2.598-1.042-3.85
					c-0.624-1.084-1.387-2.084-2.239-2.912c-0.344-0.299-0.704-0.566-1.074-0.781c-1.246-0.719-2.37-0.754-3.167-0.234
					l-49.518,28.244l5.294,9.172L111.575,83.764z"/>
				<path fill="#7C3E28" d="M53.258,106.926c-0.001,2.766,1.96,6.158,4.354,7.543c2.396,1.381,4.354,0.25,4.355-2.514
					c-0.001-2.768-1.96-6.162-4.356-7.545C55.218,103.029,53.259,104.158,53.258,106.926z"/>
				<path fill="#894631" d="M61.968,111.955c-0.001-2.768-1.96-6.162-4.356-7.545c-2.394-1.381-4.353-0.252-4.354,2.516"/>
				<path fill="#894631" d="M54.946,107.957c0,1.631,1.157,3.635,2.57,4.451c1.414,0.814,2.57,0.148,2.57-1.482
					c0-1.635-1.156-3.639-2.571-4.455C56.104,105.654,54.947,106.322,54.946,107.957z"/>
				<path fill="#7C3E28" d="M60.087,110.926c0-1.635-1.156-3.639-2.571-4.455c-1.412-0.816-2.568-0.148-2.569,1.486"/>
			</g>
		</g>
		<g>
			<g>
				<path fill="#381B0A" d="M112.769,80.887L63.25,109.131l6.145,10.641l49.518-28.246c0.844-0.432,1.379-1.422,1.378-2.861
					c0-2.766-1.958-6.16-4.355-7.543C114.689,80.402,113.565,80.367,112.769,80.887z"/>
				<path fill="#663717" d="M120.285,88.775c0-0.039,0.005-0.072,0.005-0.111c0.001-1.236-0.393-2.598-1.041-3.85
					c-0.624-1.086-1.387-2.086-2.239-2.912c-0.345-0.299-0.704-0.566-1.075-0.781c-1.245-0.719-2.369-0.754-3.166-0.234
					L63.25,109.131l5.295,9.17L120.285,88.775z"/>
				<path fill="#A55F30" d="M61.968,111.936c-0.001,2.768,1.959,6.16,4.354,7.543s4.354,0.252,4.355-2.512
					c-0.001-2.768-1.961-6.162-4.356-7.545C63.927,108.041,61.969,109.17,61.968,111.936z"/>
				<path fill="#8E5229" d="M70.678,116.967c-0.001-2.768-1.961-6.162-4.356-7.545c-2.395-1.381-4.353-0.252-4.354,2.514"/>
				<path fill="#894631" d="M63.656,112.969c0,1.631,1.156,3.633,2.57,4.451c1.414,0.814,2.57,0.148,2.57-1.484
					s-1.156-3.635-2.571-4.453C64.812,110.666,63.657,111.334,63.656,112.969z"/>
				<path fill="#7C3E28" d="M68.797,115.936c0-1.633-1.156-3.635-2.571-4.453c-1.413-0.816-2.568-0.148-2.569,1.486"/>
			</g>
		</g>
		<g>
			<g>
				<path fill="#381B0A" d="M121.478,85.898L71.96,114.143l6.144,10.641l49.519-28.246c0.844-0.432,1.379-1.422,1.378-2.863
					c0-2.766-1.958-6.158-4.355-7.539C123.399,85.414,122.275,85.379,121.478,85.898z"/>
				<path fill="#4C270E" d="M128.994,93.787c0-0.039,0.006-0.072,0.006-0.113c0.001-1.234-0.394-2.596-1.041-3.848
					c-0.625-1.086-1.388-2.086-2.239-2.912c-0.345-0.299-0.704-0.566-1.075-0.779c-1.245-0.721-2.369-0.756-3.167-0.236
					L71.96,114.143l5.294,9.17L128.994,93.787z"/>
				<path fill="#7C3E28" d="M70.678,116.947c-0.001,2.768,1.959,6.16,4.354,7.543s4.354,0.252,4.355-2.514
					c-0.001-2.768-1.961-6.16-4.356-7.543C72.637,113.051,70.679,114.182,70.678,116.947z"/>
				<path fill="#894631" d="M79.388,121.977c-0.001-2.768-1.961-6.16-4.356-7.543c-2.395-1.383-4.353-0.252-4.354,2.514"/>
				<path fill="#894631" d="M72.366,117.979c0,1.633,1.156,3.635,2.57,4.453c1.414,0.814,2.57,0.148,2.57-1.484
					s-1.156-3.637-2.571-4.453C73.522,115.678,72.366,116.346,72.366,117.979z"/>
				<path fill="#7C3E28" d="M77.507,120.947c0-1.633-1.156-3.637-2.571-4.453c-1.413-0.816-2.569-0.148-2.569,1.484"/>
			</g>
		</g>
	</g>
	<g>
		<g>
			<g>
				<polygon fill="#7C949B" points="66.145,85.258 69.816,83.135 66.145,81.01 62.466,83.135 				"/>
				<polyline fill="#637E84" points="66.145,81.01 62.466,83.135 66.145,85.258 				"/>
				<g>
					<polygon fill="#8CADB5" points="67.705,12.242 66.143,13.145 66.143,83.867 67.705,82.965 					"/>
					<polygon fill="#7C949B" points="64.58,12.242 66.143,13.145 66.143,83.867 64.58,82.965 					"/>
					<polygon fill="#7C949B" points="67.705,12.242 67.705,15.188 66.147,16.09 66.147,14.318 66.147,14.314 66.147,13.143 					"/>
					<polygon fill="#547277" points="66.141,14.314 66.141,14.318 66.141,16.09 64.58,15.186 64.58,12.242 66.141,13.145 					"/>
				</g>
			</g>
			<g>
				<g>
					<polyline fill="#444738" points="70.744,9.35 70.744,7.576 66.147,10.234 					"/>
					<path fill="#A2CE02" d="M66.147,10.234"/>
				</g>
				<g>
					<polygon fill="#8CADB5" points="70.744,7.576 70.744,9.35 70.744,11.119 66.147,13.781 66.147,12.01 66.147,12.006 
						66.147,10.234 					"/>
					<polyline fill="#779AA0" points="66.147,13.781 66.147,12.01 66.147,12.006 66.147,10.234 70.744,7.576 					"/>
					<path fill="#C49427" d="M66.147,12.006"/>
					<polygon fill="#7C949B" points="66.141,10.234 66.141,12.006 66.141,12.01 66.141,13.781 61.545,11.119 61.545,9.35 
						61.545,7.576 					"/>
					<polyline fill="#6B878E" points="61.545,9.35 61.545,7.576 66.141,10.234 66.141,12.006 66.141,12.01 66.141,13.781 					"/>
				</g>
				<g>
					<path fill="#C49427" d="M66.147,13.777"/>
				</g>
				<polygon fill="#9EC6CC" points="70.744,7.576 66.147,10.234 64.301,9.17 61.538,7.576 66.141,4.92 				"/>
			</g>
		</g>
		<polygon fill="#FF5B00" points="66.924,14.176 66.924,34.402 91.947,34.402 		"/>
		<polygon fill="#ED3511" points="66.924,24.064 66.924,34.402 91.947,34.402 		"/>
	</g>
</g>
</svg>
