<?xml version="1.0" encoding="utf-8"?>
<!-- Generator: Adobe Illustrator 16.0.0, SVG Export Plug-In . SVG Version: 6.00 Build 0)  -->
<!DOCTYPE svg PUBLIC "-//W3C//DTD SVG 1.1//EN" "http://www.w3.org/Graphics/SVG/1.1/DTD/svg11.dtd">
<svg version="1.1" id="Layer_1" xmlns="http://www.w3.org/2000/svg" xmlns:xlink="http://www.w3.org/1999/xlink" x="0px" y="0px"
	 width="130px" height="130px" viewBox="0 0 130 130" enable-background="new 0 0 130 130" xml:space="preserve">
<g>
	<g>
		<g>
			<g>
				<polyline fill="#0668B2" points="64.916,118.008 64.916,124.381 9.594,92.346 9.594,86.02 64.916,118.008 				"/>
			</g>
			<g>
				<path fill="#A2CE02" d="M64.916,118.008"/>
			</g>
			<g>
				<polyline fill="#0691CE" points="64.922,118.008 64.922,124.381 120.246,92.346 120.246,86.02 64.922,118.008 				"/>
			</g>
		</g>
		<g>
			<g>
				<polygon fill="#0FD4E8" points="9.594,86.02 64.916,118.008 120.406,86.02 65,54.031 				"/>
			</g>
			<g>
				<polyline fill="#00B7E2" points="9.594,86.02 64.916,118.008 120.406,86.02 				"/>
			</g>
		</g>
	</g>
	<g>
		<g>
			<path fill="#0691CE" d="M50.833,101.723c-2.052,0-4.101-0.447-5.655-1.34c-1.655-0.949-2.568-2.271-2.57-3.723
				c-0.002-1.461,0.918-2.797,2.592-3.764c0.405-0.234,0.92-0.094,1.152,0.309c0.233,0.404,0.096,0.92-0.309,1.152
				c-1.111,0.643-1.749,1.48-1.748,2.301c0.002,0.822,0.613,1.625,1.723,2.262c2.604,1.494,7.024,1.494,9.653-0.002
				c1.129-0.643,1.752-1.451,1.755-2.277c0.002-0.824-0.613-1.635-1.734-2.283c-0.403-0.232-0.542-0.748-0.31-1.152
				c0.233-0.402,0.749-0.543,1.153-0.309c1.667,0.963,2.583,2.293,2.578,3.75s-0.931,2.785-2.608,3.738
				C54.938,101.277,52.883,101.723,50.833,101.723z"/>
		</g>
		<g>
			<path fill="#0691CE" d="M53.195,98.357c-0.131,0-0.258-0.068-0.328-0.189c-0.103-0.182-0.039-0.412,0.142-0.514
				c0.505-0.287,0.783-0.648,0.784-1.018s-0.273-0.73-0.774-1.02c-1.167-0.674-3.141-0.674-4.31,0
				c-0.497,0.287-0.781,0.66-0.781,1.027c0.001,0.367,0.273,0.725,0.77,1.01c0.181,0.104,0.243,0.334,0.14,0.514
				c-0.104,0.184-0.338,0.242-0.515,0.141c-0.739-0.424-1.147-1.016-1.148-1.664c-0.001-0.652,0.41-1.25,1.158-1.682
				c1.396-0.803,3.667-0.805,5.063,0c0.745,0.432,1.153,1.025,1.151,1.676s-0.416,1.244-1.165,1.67
				C53.323,98.342,53.259,98.357,53.195,98.357z"/>
		</g>
	</g>
	<g>
		<g>
			<path fill="#71F8FF" d="M41.187,83.928c-1.517,0-3.03-0.33-4.18-0.988c-1.224-0.703-1.897-1.68-1.899-2.752
				c-0.002-1.08,0.679-2.068,1.915-2.781c0.3-0.174,0.681-0.07,0.852,0.227c0.173,0.299,0.071,0.682-0.228,0.854
				c-0.821,0.475-1.293,1.094-1.292,1.699c0.001,0.607,0.453,1.201,1.273,1.672c1.924,1.104,5.19,1.104,7.134-0.002
				c0.834-0.475,1.295-1.072,1.297-1.684c0.001-0.609-0.453-1.209-1.282-1.686c-0.298-0.172-0.4-0.555-0.229-0.854
				c0.173-0.297,0.554-0.4,0.853-0.227c1.231,0.711,1.908,1.695,1.905,2.77c-0.004,1.078-0.688,2.059-1.928,2.764
				C44.22,83.598,42.701,83.928,41.187,83.928z"/>
		</g>
		<g>
			<path fill="#71F8FF" d="M42.932,81.441c-0.097,0-0.19-0.051-0.242-0.141c-0.076-0.133-0.029-0.303,0.104-0.379
				c0.373-0.213,0.579-0.48,0.58-0.752c0.001-0.273-0.202-0.541-0.572-0.754c-0.862-0.498-2.321-0.498-3.186,0
				c-0.367,0.211-0.577,0.488-0.577,0.76c0.001,0.27,0.202,0.535,0.568,0.746c0.134,0.076,0.18,0.246,0.104,0.381
				c-0.077,0.135-0.25,0.178-0.38,0.102c-0.547-0.312-0.849-0.75-0.849-1.229c-0.001-0.482,0.303-0.924,0.855-1.242
				c1.032-0.594,2.71-0.596,3.742,0c0.551,0.316,0.853,0.756,0.851,1.236c-0.001,0.482-0.308,0.92-0.86,1.236
				C43.026,81.43,42.979,81.441,42.932,81.441z"/>
		</g>
	</g>
	<g>
		<g>
			<path fill="#10AEE5" d="M79.02,77.791c-1.517,0-3.03-0.33-4.18-0.988c-1.224-0.703-1.897-1.68-1.899-2.752
				c-0.002-1.08,0.679-2.068,1.915-2.781c0.3-0.174,0.681-0.07,0.852,0.227c0.173,0.299,0.071,0.68-0.228,0.854
				c-0.821,0.475-1.293,1.094-1.292,1.699c0.001,0.607,0.453,1.201,1.273,1.672c1.924,1.104,5.19,1.104,7.134-0.002
				c0.834-0.475,1.295-1.072,1.297-1.684c0.001-0.609-0.453-1.209-1.282-1.686c-0.298-0.172-0.4-0.555-0.229-0.854
				c0.173-0.297,0.554-0.4,0.853-0.227c1.231,0.711,1.908,1.695,1.905,2.77c-0.004,1.078-0.688,2.059-1.928,2.764
				C82.053,77.461,80.534,77.791,79.02,77.791z"/>
		</g>
		<g>
			<path fill="#10AEE5" d="M80.765,75.305c-0.097,0-0.19-0.051-0.242-0.141c-0.076-0.133-0.029-0.303,0.104-0.379
				c0.373-0.213,0.579-0.48,0.58-0.752c0.001-0.273-0.202-0.541-0.572-0.754c-0.862-0.498-2.321-0.498-3.186,0
				c-0.367,0.211-0.577,0.488-0.577,0.76c0.001,0.27,0.202,0.535,0.568,0.746c0.134,0.076,0.18,0.246,0.104,0.381
				c-0.077,0.135-0.25,0.178-0.38,0.104c-0.547-0.314-0.849-0.752-0.849-1.23c-0.001-0.482,0.303-0.924,0.855-1.242
				c1.032-0.594,2.71-0.596,3.742,0c0.551,0.316,0.853,0.756,0.851,1.236c-0.001,0.482-0.308,0.92-0.86,1.236
				C80.859,75.293,80.812,75.305,80.765,75.305z"/>
		</g>
	</g>
	<g>
		<g>
			<path fill="#10AEE5" d="M97.602,83.928c-1.252,0-2.501-0.271-3.45-0.816c-1.01-0.58-1.565-1.387-1.567-2.271
				c-0.002-0.891,0.561-1.705,1.58-2.295c0.248-0.143,0.562-0.057,0.703,0.188c0.143,0.246,0.059,0.562-0.188,0.703
				c-0.678,0.393-1.067,0.904-1.066,1.404s0.374,0.99,1.051,1.379c1.588,0.91,4.284,0.91,5.888-0.002
				c0.688-0.391,1.069-0.885,1.07-1.389c0.001-0.502-0.374-0.998-1.058-1.393c-0.246-0.141-0.331-0.457-0.189-0.703
				c0.143-0.244,0.457-0.33,0.704-0.188c1.017,0.586,1.575,1.398,1.572,2.287s-0.568,1.699-1.591,2.281
				C100.104,83.656,98.852,83.928,97.602,83.928z"/>
		</g>
		<g>
			<path fill="#10AEE5" d="M99.041,81.877c-0.079,0-0.156-0.043-0.199-0.117c-0.063-0.109-0.024-0.25,0.086-0.312
				c0.308-0.176,0.479-0.396,0.479-0.621c0.001-0.225-0.166-0.445-0.472-0.621c-0.712-0.412-1.916-0.412-2.63,0
				c-0.303,0.174-0.476,0.402-0.476,0.625c0.001,0.225,0.167,0.443,0.469,0.617c0.11,0.062,0.148,0.203,0.086,0.314
				c-0.064,0.109-0.207,0.146-0.313,0.084c-0.452-0.26-0.701-0.619-0.701-1.014c0-0.398,0.25-0.764,0.706-1.027
				c0.853-0.488,2.237-0.49,3.089,0c0.454,0.264,0.703,0.625,0.702,1.021c-0.001,0.398-0.254,0.76-0.71,1.02
				C99.119,81.867,99.08,81.877,99.041,81.877z"/>
		</g>
	</g>
	<g>
		<g>
			<path fill="#71F8FF" d="M30.507,92.768c-0.969,0-1.935-0.211-2.669-0.633c-0.781-0.447-1.211-1.07-1.213-1.756
				c-0.002-0.689,0.434-1.32,1.223-1.775c0.191-0.111,0.436-0.045,0.544,0.145c0.11,0.191,0.045,0.434-0.146,0.545
				c-0.523,0.303-0.825,0.697-0.824,1.084c0,0.389,0.289,0.768,0.812,1.068c1.229,0.705,3.314,0.705,4.555-0.002
				c0.533-0.303,0.828-0.684,0.828-1.074c0.001-0.389-0.289-0.771-0.817-1.076c-0.19-0.111-0.257-0.354-0.147-0.545
				c0.111-0.189,0.354-0.256,0.545-0.145c0.787,0.453,1.219,1.082,1.217,1.768c-0.002,0.688-0.439,1.314-1.23,1.766
				C32.443,92.557,31.475,92.768,30.507,92.768z"/>
		</g>
		<g>
			<path fill="#71F8FF" d="M31.621,91.18c-0.062,0-0.121-0.031-0.154-0.09c-0.049-0.086-0.02-0.193,0.066-0.242
				c0.238-0.137,0.37-0.307,0.37-0.48c0.001-0.174-0.128-0.344-0.365-0.48c-0.551-0.318-1.482-0.318-2.034,0
				c-0.234,0.135-0.368,0.312-0.368,0.484c0.001,0.174,0.129,0.342,0.362,0.477c0.086,0.049,0.115,0.158,0.066,0.242
				c-0.05,0.086-0.16,0.113-0.242,0.066c-0.35-0.201-0.543-0.479-0.543-0.785s0.194-0.59,0.547-0.793c0.659-0.379,1.73-0.381,2.39,0
				c0.352,0.203,0.544,0.482,0.544,0.789c-0.001,0.309-0.197,0.588-0.55,0.789C31.682,91.172,31.651,91.18,31.621,91.18z"/>
		</g>
	</g>
	<g>
		<g>
			<path fill="#71F8FF" d="M62.199,80.852c0.951,0,1.902,0.207,2.624,0.621c0.768,0.441,1.19,1.055,1.191,1.729
				c0.001,0.676-0.426,1.297-1.202,1.746c-0.188,0.107-0.428,0.043-0.535-0.145c-0.108-0.188-0.044-0.426,0.145-0.533
				c0.514-0.299,0.811-0.688,0.81-1.068c0-0.381-0.284-0.752-0.798-1.049c-1.209-0.693-3.259-0.693-4.479,0
				c-0.524,0.299-0.813,0.674-0.814,1.057c-0.002,0.383,0.284,0.76,0.804,1.061c0.188,0.107,0.252,0.346,0.145,0.533
				c-0.108,0.188-0.348,0.252-0.535,0.145c-0.774-0.447-1.199-1.064-1.196-1.74c0.002-0.676,0.432-1.293,1.21-1.734
				C60.295,81.059,61.248,80.852,62.199,80.852z"/>
		</g>
		<g>
			<path fill="#71F8FF" d="M61.104,82.412c0.061,0,0.119,0.033,0.151,0.09c0.048,0.084,0.019,0.189-0.065,0.238
				c-0.234,0.133-0.362,0.301-0.364,0.471c0,0.172,0.128,0.34,0.36,0.473c0.541,0.312,1.456,0.312,1.999,0
				c0.23-0.133,0.361-0.307,0.361-0.475c0-0.172-0.126-0.338-0.355-0.469c-0.084-0.049-0.113-0.156-0.065-0.24
				c0.049-0.084,0.156-0.111,0.239-0.064c0.343,0.197,0.532,0.471,0.532,0.771c0,0.303-0.19,0.58-0.537,0.781
				c-0.647,0.373-1.701,0.373-2.35,0c-0.346-0.201-0.534-0.477-0.533-0.777c0-0.303,0.192-0.576,0.539-0.775
				C61.044,82.42,61.074,82.412,61.104,82.412z"/>
		</g>
	</g>
	<g>
		<g>
			<path fill="#71F8FF" d="M105.279,86.461c0.65,0,1.301,0.143,1.795,0.426c0.524,0.301,0.813,0.721,0.814,1.182
				c0.001,0.463-0.291,0.887-0.822,1.193c-0.128,0.074-0.293,0.031-0.366-0.098c-0.074-0.127-0.03-0.291,0.099-0.365
				c0.352-0.203,0.555-0.471,0.555-0.73s-0.195-0.514-0.546-0.717c-0.827-0.475-2.229-0.475-3.063,0
				c-0.358,0.203-0.557,0.461-0.557,0.723c-0.002,0.262,0.194,0.52,0.55,0.725c0.129,0.074,0.172,0.236,0.099,0.365
				c-0.074,0.129-0.238,0.172-0.366,0.098c-0.529-0.305-0.82-0.727-0.818-1.189s0.296-0.883,0.828-1.186
				C103.977,86.604,104.629,86.461,105.279,86.461z"/>
		</g>
		<g>
			<path fill="#71F8FF" d="M104.529,87.529c0.042,0,0.082,0.021,0.104,0.061c0.033,0.059,0.014,0.131-0.044,0.164
				c-0.161,0.09-0.248,0.205-0.249,0.322c0,0.117,0.087,0.23,0.246,0.322c0.37,0.215,0.996,0.215,1.367,0
				c0.157-0.09,0.247-0.209,0.247-0.324c0-0.117-0.086-0.23-0.243-0.322c-0.058-0.033-0.077-0.105-0.045-0.162
				c0.033-0.059,0.107-0.076,0.164-0.045c0.234,0.135,0.363,0.322,0.363,0.527c0,0.207-0.13,0.396-0.367,0.533
				c-0.442,0.256-1.163,0.256-1.606,0c-0.236-0.135-0.365-0.324-0.365-0.529c0-0.207,0.132-0.395,0.369-0.531
				C104.489,87.535,104.51,87.529,104.529,87.529z"/>
		</g>
	</g>
	<g>
		<g>
			<path fill="#0691CE" d="M75.535,86.041c1.521,0,3.041,0.332,4.194,0.992c1.228,0.705,1.903,1.688,1.905,2.762
				c0.001,1.082-0.681,2.074-1.922,2.791c-0.3,0.174-0.684,0.07-0.855-0.229c-0.174-0.299-0.07-0.682,0.23-0.855
				c0.821-0.475,1.296-1.098,1.295-1.705c0-0.609-0.455-1.203-1.275-1.676c-1.933-1.107-5.21-1.107-7.159,0
				c-0.839,0.475-1.301,1.076-1.302,1.689c-0.004,0.611,0.454,1.213,1.284,1.691c0.302,0.174,0.403,0.555,0.231,0.855
				c-0.174,0.299-0.556,0.402-0.855,0.229c-1.238-0.713-1.917-1.701-1.912-2.781c0.003-1.08,0.689-2.064,1.934-2.771
				C72.491,86.371,74.015,86.041,75.535,86.041z"/>
		</g>
		<g>
			<path fill="#0691CE" d="M73.784,88.535c0.097,0,0.19,0.053,0.241,0.143c0.077,0.135,0.03,0.305-0.104,0.381
				c-0.374,0.215-0.579,0.48-0.582,0.754c0,0.275,0.204,0.543,0.576,0.756c0.864,0.5,2.327,0.5,3.195,0
				c0.368-0.213,0.577-0.49,0.577-0.76c0-0.273-0.201-0.539-0.567-0.75c-0.135-0.078-0.182-0.248-0.104-0.381
				c0.078-0.137,0.249-0.18,0.382-0.105c0.548,0.314,0.851,0.754,0.851,1.234c0,0.484-0.304,0.928-0.858,1.246
				c-1.035,0.598-2.719,0.598-3.756,0c-0.553-0.318-0.854-0.758-0.853-1.24c0-0.484,0.308-0.922,0.862-1.24
				C73.688,88.549,73.737,88.535,73.784,88.535z"/>
		</g>
	</g>
	<g>
		<g>
			<path fill="#0691CE" d="M93.354,91.121c0.848,0,1.695,0.184,2.338,0.553c0.684,0.393,1.061,0.939,1.062,1.539
				c0.001,0.604-0.379,1.156-1.071,1.557c-0.167,0.096-0.381,0.039-0.477-0.129c-0.097-0.166-0.039-0.379,0.129-0.477
				c0.457-0.264,0.722-0.611,0.722-0.949c0-0.34-0.254-0.672-0.711-0.936c-1.077-0.617-2.904-0.617-3.991,0
				c-0.468,0.266-0.725,0.602-0.726,0.941c-0.002,0.342,0.253,0.678,0.716,0.943c0.168,0.098,0.225,0.311,0.129,0.477
				c-0.097,0.168-0.31,0.225-0.477,0.129c-0.69-0.398-1.068-0.949-1.066-1.551s0.385-1.15,1.078-1.545
				C91.656,91.305,92.506,91.121,93.354,91.121z"/>
		</g>
		<g>
			<path fill="#0691CE" d="M92.377,92.512c0.054,0,0.106,0.027,0.135,0.078c0.043,0.076,0.017,0.17-0.059,0.213
				c-0.208,0.119-0.322,0.268-0.324,0.42c0,0.154,0.113,0.303,0.321,0.422c0.481,0.277,1.297,0.277,1.781,0
				c0.205-0.119,0.321-0.273,0.321-0.424c0-0.152-0.112-0.301-0.316-0.418c-0.074-0.043-0.101-0.139-0.058-0.213
				c0.043-0.076,0.139-0.1,0.213-0.059c0.305,0.176,0.474,0.42,0.474,0.688c0,0.27-0.169,0.518-0.479,0.695
				c-0.577,0.332-1.516,0.334-2.094,0c-0.308-0.178-0.476-0.422-0.475-0.691c0-0.27,0.171-0.514,0.48-0.691
				C92.324,92.518,92.351,92.512,92.377,92.512z"/>
		</g>
	</g>
	<g>
		<g>
			<path fill="#71F8FF" d="M73.997,96.285c1.459,0,2.917,0.318,4.023,0.951c1.177,0.676,1.825,1.617,1.827,2.648
				c0.001,1.039-0.653,1.99-1.844,2.678c-0.287,0.166-0.655,0.066-0.82-0.221c-0.166-0.287-0.067-0.652,0.222-0.818
				c0.788-0.457,1.243-1.055,1.241-1.637c0-0.584-0.436-1.154-1.224-1.607c-1.854-1.062-4.996-1.062-6.866,0
				c-0.804,0.457-1.247,1.033-1.249,1.621c-0.003,0.586,0.437,1.162,1.232,1.623c0.289,0.164,0.387,0.531,0.222,0.818
				c-0.166,0.287-0.533,0.387-0.82,0.221c-1.188-0.686-1.839-1.631-1.834-2.668c0.003-1.035,0.661-1.98,1.854-2.658
				C71.078,96.602,72.539,96.285,73.997,96.285z"/>
		</g>
		<g>
			<path fill="#71F8FF" d="M72.317,98.678c0.093,0,0.183,0.049,0.232,0.137c0.073,0.127,0.028,0.291-0.101,0.365
				c-0.359,0.203-0.556,0.461-0.559,0.723c0,0.264,0.196,0.52,0.553,0.725c0.829,0.479,2.232,0.479,3.064,0
				c0.354-0.203,0.555-0.471,0.555-0.729c0-0.264-0.193-0.518-0.545-0.721c-0.129-0.074-0.174-0.236-0.101-0.365
				c0.075-0.129,0.239-0.172,0.366-0.1c0.526,0.303,0.816,0.723,0.816,1.184c0,0.463-0.292,0.889-0.823,1.195
				c-0.993,0.572-2.608,0.572-3.603,0c-0.53-0.307-0.819-0.729-0.817-1.189c0-0.465,0.295-0.885,0.826-1.189
				C72.227,98.689,72.272,98.678,72.317,98.678z"/>
		</g>
	</g>
	<g>
		<g>
			<path fill="#0FD4E8" d="M35.509,54.449c-0.276,0-0.5-0.223-0.5-0.5v-12c0-0.275,0.224-0.5,0.5-0.5s0.5,0.225,0.5,0.5v12
				C36.009,54.227,35.785,54.449,35.509,54.449z"/>
		</g>
		<g>
			<path fill="#0FD4E8" d="M35.509,60.699c-0.276,0-0.5-0.223-0.5-0.5v-2.25c0-0.275,0.224-0.5,0.5-0.5s0.5,0.225,0.5,0.5v2.25
				C36.009,60.477,35.785,60.699,35.509,60.699z"/>
		</g>
		<g>
			<path fill="#0FD4E8" d="M35.509,66.133c-0.276,0-0.5-0.223-0.5-0.5v-2.25c0-0.275,0.224-0.5,0.5-0.5s0.5,0.225,0.5,0.5v2.25
				C36.009,65.91,35.785,66.133,35.509,66.133z"/>
		</g>
	</g>
	<g>
		<g>
			<path fill="#10AEE5" d="M68.107,58.199c-0.276,0-0.5-0.223-0.5-0.5v-12c0-0.275,0.224-0.5,0.5-0.5s0.5,0.225,0.5,0.5v12
				C68.607,57.977,68.384,58.199,68.107,58.199z"/>
		</g>
		<g>
			<path fill="#10AEE5" d="M68.107,64.449c-0.276,0-0.5-0.223-0.5-0.5v-2.25c0-0.275,0.224-0.5,0.5-0.5s0.5,0.225,0.5,0.5v2.25
				C68.607,64.227,68.384,64.449,68.107,64.449z"/>
		</g>
		<g>
			<path fill="#10AEE5" d="M68.107,69.885c-0.276,0-0.5-0.225-0.5-0.5v-2.25c0-0.277,0.224-0.5,0.5-0.5s0.5,0.223,0.5,0.5v2.25
				C68.607,69.66,68.384,69.885,68.107,69.885z"/>
		</g>
	</g>
	<g>
		<g>
			<path fill="#10AEE5" d="M63.896,30.666c-0.276,0-0.5-0.223-0.5-0.5v-9.953c0-0.277,0.224-0.5,0.5-0.5s0.5,0.223,0.5,0.5v9.953
				C64.396,30.443,64.173,30.666,63.896,30.666z"/>
		</g>
		<g>
			<path fill="#10AEE5" d="M63.896,35.85c-0.276,0-0.5-0.223-0.5-0.5v-1.865c0-0.277,0.224-0.5,0.5-0.5s0.5,0.223,0.5,0.5v1.865
				C64.396,35.627,64.173,35.85,63.896,35.85z"/>
		</g>
		<g>
			<path fill="#10AEE5" d="M63.896,40.357c-0.276,0-0.5-0.223-0.5-0.5v-1.865c0-0.277,0.224-0.5,0.5-0.5s0.5,0.223,0.5,0.5v1.865
				C64.396,40.135,64.173,40.357,63.896,40.357z"/>
		</g>
	</g>
	<g>
		<g>
			<path fill="#10AEE5" d="M89.217,36.738c-0.276,0-0.5-0.223-0.5-0.5v-9.953c0-0.277,0.224-0.5,0.5-0.5s0.5,0.223,0.5,0.5v9.953
				C89.717,36.516,89.493,36.738,89.217,36.738z"/>
		</g>
		<g>
			<path fill="#10AEE5" d="M89.217,41.922c-0.276,0-0.5-0.223-0.5-0.5v-1.865c0-0.277,0.224-0.5,0.5-0.5s0.5,0.223,0.5,0.5v1.865
				C89.717,41.699,89.493,41.922,89.217,41.922z"/>
		</g>
		<g>
			<path fill="#10AEE5" d="M89.217,46.43c-0.276,0-0.5-0.223-0.5-0.5v-1.865c0-0.277,0.224-0.5,0.5-0.5s0.5,0.223,0.5,0.5v1.865
				C89.717,46.207,89.493,46.43,89.217,46.43z"/>
		</g>
	</g>
	<g>
		<g>
			<path fill="#0FD4E8" d="M57.592,48.607c-0.276,0-0.5-0.223-0.5-0.5v-12c0-0.275,0.224-0.5,0.5-0.5s0.5,0.225,0.5,0.5v12
				C58.092,48.385,57.868,48.607,57.592,48.607z"/>
		</g>
		<g>
			<path fill="#0FD4E8" d="M57.592,54.857c-0.276,0-0.5-0.223-0.5-0.5v-2.25c0-0.275,0.224-0.5,0.5-0.5s0.5,0.225,0.5,0.5v2.25
				C58.092,54.635,57.868,54.857,57.592,54.857z"/>
		</g>
		<g>
			<path fill="#0FD4E8" d="M57.592,60.291c-0.276,0-0.5-0.223-0.5-0.5v-2.25c0-0.275,0.224-0.5,0.5-0.5s0.5,0.225,0.5,0.5v2.25
				C58.092,60.068,57.868,60.291,57.592,60.291z"/>
		</g>
	</g>
	<g>
		<g>
			<path fill="#0FD4E8" d="M96.55,66.857c-0.276,0-0.5-0.223-0.5-0.5v-12c0-0.275,0.224-0.5,0.5-0.5s0.5,0.225,0.5,0.5v12
				C97.05,66.635,96.826,66.857,96.55,66.857z"/>
		</g>
		<g>
			<path fill="#0FD4E8" d="M96.55,73.107c-0.276,0-0.5-0.223-0.5-0.5v-2.25c0-0.275,0.224-0.5,0.5-0.5s0.5,0.225,0.5,0.5v2.25
				C97.05,72.885,96.826,73.107,96.55,73.107z"/>
		</g>
		<g>
			<path fill="#0FD4E8" d="M96.55,78.541c-0.276,0-0.5-0.223-0.5-0.5v-2.25c0-0.275,0.224-0.5,0.5-0.5s0.5,0.225,0.5,0.5v2.25
				C97.05,78.318,96.826,78.541,96.55,78.541z"/>
		</g>
	</g>
	<g>
		<g>
			<path fill="#71F8FF" d="M50.342,68.426c-0.276,0-0.5-0.223-0.5-0.5V57.699c0-0.275,0.224-0.5,0.5-0.5s0.5,0.225,0.5,0.5v10.227
				C50.842,68.203,50.618,68.426,50.342,68.426z"/>
		</g>
		<g>
			<path fill="#71F8FF" d="M50.342,73.752c-0.276,0-0.5-0.223-0.5-0.5v-1.916c0-0.277,0.224-0.5,0.5-0.5s0.5,0.223,0.5,0.5v1.916
				C50.842,73.529,50.618,73.752,50.342,73.752z"/>
		</g>
		<g>
			<path fill="#71F8FF" d="M50.342,78.383c-0.276,0-0.5-0.223-0.5-0.5v-1.916c0-0.277,0.224-0.5,0.5-0.5s0.5,0.223,0.5,0.5v1.916
				C50.842,78.16,50.618,78.383,50.342,78.383z"/>
		</g>
	</g>
	<g>
		<g>
			<path fill="#71F8FF" d="M80.55,52.357c-0.276,0-0.5-0.223-0.5-0.5v-12c0-0.275,0.224-0.5,0.5-0.5s0.5,0.225,0.5,0.5v12
				C81.05,52.135,80.826,52.357,80.55,52.357z"/>
		</g>
		<g>
			<path fill="#71F8FF" d="M80.55,58.607c-0.276,0-0.5-0.223-0.5-0.5v-2.25c0-0.275,0.224-0.5,0.5-0.5s0.5,0.225,0.5,0.5v2.25
				C81.05,58.385,80.826,58.607,80.55,58.607z"/>
		</g>
		<g>
			<path fill="#71F8FF" d="M80.55,64.041c-0.276,0-0.5-0.223-0.5-0.5v-2.25c0-0.275,0.224-0.5,0.5-0.5s0.5,0.225,0.5,0.5v2.25
				C81.05,63.818,80.826,64.041,80.55,64.041z"/>
		</g>
	</g>
	<g>
		<g>
			<path fill="#71F8FF" d="M62.187,67.752c-0.276,0-0.5-0.225-0.5-0.5v-9.145c0-0.275,0.224-0.5,0.5-0.5s0.5,0.225,0.5,0.5v9.145
				C62.687,67.527,62.463,67.752,62.187,67.752z"/>
		</g>
		<g>
			<path fill="#71F8FF" d="M62.187,72.514c-0.276,0-0.5-0.225-0.5-0.5v-1.715c0-0.275,0.224-0.5,0.5-0.5s0.5,0.225,0.5,0.5v1.715
				C62.687,72.289,62.463,72.514,62.187,72.514z"/>
		</g>
		<g>
			<path fill="#71F8FF" d="M62.187,76.654c-0.276,0-0.5-0.225-0.5-0.5v-1.715c0-0.275,0.224-0.5,0.5-0.5s0.5,0.225,0.5,0.5v1.715
				C62.687,76.43,62.463,76.654,62.187,76.654z"/>
		</g>
	</g>
	<g>
		<g>
			<path fill="#71F8FF" d="M41.967,62.449c-0.276,0-0.5-0.223-0.5-0.5v-12c0-0.275,0.224-0.5,0.5-0.5s0.5,0.225,0.5,0.5v12
				C42.467,62.227,42.243,62.449,41.967,62.449z"/>
		</g>
		<g>
			<path fill="#71F8FF" d="M41.967,68.699c-0.276,0-0.5-0.223-0.5-0.5v-2.25c0-0.275,0.224-0.5,0.5-0.5s0.5,0.225,0.5,0.5v2.25
				C42.467,68.477,42.243,68.699,41.967,68.699z"/>
		</g>
		<g>
			<path fill="#71F8FF" d="M41.967,74.133c-0.276,0-0.5-0.223-0.5-0.5v-2.25c0-0.275,0.224-0.5,0.5-0.5s0.5,0.225,0.5,0.5v2.25
				C42.467,73.91,42.243,74.133,41.967,74.133z"/>
		</g>
	</g>
	<g>
		<g>
			<path fill="#71F8FF" d="M47.174,41.096c-0.276,0-0.5-0.223-0.5-0.5v-12c0-0.275,0.224-0.5,0.5-0.5s0.5,0.225,0.5,0.5v12
				C47.674,40.873,47.45,41.096,47.174,41.096z"/>
		</g>
		<g>
			<path fill="#71F8FF" d="M47.174,47.346c-0.276,0-0.5-0.223-0.5-0.5v-2.25c0-0.275,0.224-0.5,0.5-0.5s0.5,0.225,0.5,0.5v2.25
				C47.674,47.123,47.45,47.346,47.174,47.346z"/>
		</g>
		<g>
			<path fill="#71F8FF" d="M47.174,52.779c-0.276,0-0.5-0.223-0.5-0.5v-2.25c0-0.275,0.224-0.5,0.5-0.5s0.5,0.225,0.5,0.5v2.25
				C47.674,52.557,47.45,52.779,47.174,52.779z"/>
		</g>
	</g>
	<g>
		<g>
			<path fill="#0FD4E8" d="M18.226,25.289c-0.156,0-0.283-0.127-0.283-0.283v-6.795c0-0.156,0.127-0.283,0.283-0.283
				s0.283,0.127,0.283,0.283v6.795C18.509,25.162,18.382,25.289,18.226,25.289z"/>
		</g>
		<g>
			<path fill="#0FD4E8" d="M18.226,28.828c-0.156,0-0.283-0.127-0.283-0.283v-1.273c0-0.156,0.127-0.283,0.283-0.283
				s0.283,0.127,0.283,0.283v1.273C18.509,28.701,18.382,28.828,18.226,28.828z"/>
		</g>
		<g>
			<path fill="#0FD4E8" d="M18.226,31.906c-0.156,0-0.283-0.127-0.283-0.283v-1.275c0-0.156,0.127-0.283,0.283-0.283
				s0.283,0.127,0.283,0.283v1.275C18.509,31.779,18.382,31.906,18.226,31.906z"/>
		</g>
	</g>
	<g>
		<g>
			<path fill="#10AEE5" d="M36.685,27.412c-0.156,0-0.283-0.125-0.283-0.283v-6.795c0-0.156,0.127-0.283,0.283-0.283
				c0.157,0,0.283,0.127,0.283,0.283v6.795C36.968,27.287,36.842,27.412,36.685,27.412z"/>
		</g>
		<g>
			<path fill="#10AEE5" d="M36.685,30.951c-0.156,0-0.283-0.125-0.283-0.283v-1.273c0-0.156,0.127-0.283,0.283-0.283
				c0.157,0,0.283,0.127,0.283,0.283v1.273C36.968,30.826,36.842,30.951,36.685,30.951z"/>
		</g>
		<g>
			<path fill="#10AEE5" d="M36.685,34.029c-0.156,0-0.283-0.127-0.283-0.283v-1.273c0-0.158,0.127-0.283,0.283-0.283
				c0.157,0,0.283,0.125,0.283,0.283v1.273C36.968,33.902,36.842,34.029,36.685,34.029z"/>
		</g>
	</g>
	<g>
		<g>
			<path fill="#10AEE5" d="M34.301,11.822c-0.157,0-0.283-0.127-0.283-0.283V5.902c0-0.156,0.126-0.283,0.283-0.283
				c0.156,0,0.282,0.127,0.282,0.283v5.637C34.583,11.695,34.457,11.822,34.301,11.822z"/>
		</g>
		<g>
			<path fill="#10AEE5" d="M34.301,14.758c-0.157,0-0.283-0.127-0.283-0.283v-1.057c0-0.158,0.126-0.283,0.283-0.283
				c0.156,0,0.282,0.125,0.282,0.283v1.057C34.583,14.631,34.457,14.758,34.301,14.758z"/>
		</g>
		<g>
			<path fill="#10AEE5" d="M34.301,17.309c-0.157,0-0.283-0.125-0.283-0.283v-1.057c0-0.156,0.126-0.283,0.283-0.283
				c0.156,0,0.282,0.127,0.282,0.283v1.057C34.583,17.184,34.457,17.309,34.301,17.309z"/>
		</g>
	</g>
	<g>
		<g>
			<path fill="#10AEE5" d="M48.639,15.26c-0.157,0-0.283-0.127-0.283-0.283V9.34c0-0.156,0.126-0.283,0.283-0.283
				c0.156,0,0.283,0.127,0.283,0.283v5.637C48.922,15.133,48.795,15.26,48.639,15.26z"/>
		</g>
		<g>
			<path fill="#10AEE5" d="M48.639,18.195c-0.157,0-0.283-0.127-0.283-0.283v-1.057c0-0.156,0.126-0.283,0.283-0.283
				c0.156,0,0.283,0.127,0.283,0.283v1.057C48.922,18.068,48.795,18.195,48.639,18.195z"/>
		</g>
		<g>
			<path fill="#10AEE5" d="M48.639,20.748c-0.157,0-0.283-0.127-0.283-0.283v-1.057c0-0.156,0.126-0.283,0.283-0.283
				c0.156,0,0.283,0.127,0.283,0.283v1.057C48.922,20.621,48.795,20.748,48.639,20.748z"/>
		</g>
	</g>
	<g>
		<g>
			<path fill="#0FD4E8" d="M30.73,21.98c-0.157,0-0.283-0.127-0.283-0.283v-6.795c0-0.156,0.126-0.283,0.283-0.283
				c0.156,0,0.283,0.127,0.283,0.283v6.795C31.014,21.854,30.887,21.98,30.73,21.98z"/>
		</g>
		<g>
			<path fill="#0FD4E8" d="M30.73,25.52c-0.157,0-0.283-0.125-0.283-0.283v-1.273c0-0.156,0.126-0.283,0.283-0.283
				c0.156,0,0.283,0.127,0.283,0.283v1.273C31.014,25.395,30.887,25.52,30.73,25.52z"/>
		</g>
		<g>
			<path fill="#0FD4E8" d="M30.73,28.598c-0.157,0-0.283-0.127-0.283-0.283v-1.273c0-0.158,0.126-0.283,0.283-0.283
				c0.156,0,0.283,0.125,0.283,0.283v1.273C31.014,28.471,30.887,28.598,30.73,28.598z"/>
		</g>
	</g>
	<g>
		<g>
			<path fill="#0FD4E8" d="M52.791,32.314c-0.157,0-0.283-0.125-0.283-0.281v-6.797c0-0.156,0.126-0.283,0.283-0.283
				c0.156,0,0.283,0.127,0.283,0.283v6.797C53.074,32.189,52.947,32.314,52.791,32.314z"/>
		</g>
		<g>
			<path fill="#0FD4E8" d="M52.791,35.855c-0.157,0-0.283-0.127-0.283-0.283v-1.275c0-0.156,0.126-0.283,0.283-0.283
				c0.156,0,0.283,0.127,0.283,0.283v1.275C53.074,35.729,52.947,35.855,52.791,35.855z"/>
		</g>
		<g>
			<path fill="#0FD4E8" d="M52.791,38.932c-0.157,0-0.283-0.127-0.283-0.283v-1.273c0-0.156,0.126-0.283,0.283-0.283
				c0.156,0,0.283,0.127,0.283,0.283v1.273C53.074,38.805,52.947,38.932,52.791,38.932z"/>
		</g>
	</g>
	<g>
		<g>
			<path fill="#71F8FF" d="M26.625,33.203c-0.156,0-0.283-0.127-0.283-0.283v-5.791c0-0.156,0.127-0.283,0.283-0.283
				s0.283,0.127,0.283,0.283v5.791C26.908,33.076,26.781,33.203,26.625,33.203z"/>
		</g>
		<g>
			<path fill="#71F8FF" d="M26.625,36.221c-0.156,0-0.283-0.127-0.283-0.283v-1.086c0-0.156,0.127-0.283,0.283-0.283
				s0.283,0.127,0.283,0.283v1.086C26.908,36.094,26.781,36.221,26.625,36.221z"/>
		</g>
		<g>
			<path fill="#71F8FF" d="M26.625,38.842c-0.156,0-0.283-0.127-0.283-0.283v-1.086c0-0.156,0.127-0.283,0.283-0.283
				s0.283,0.127,0.283,0.283v1.086C26.908,38.715,26.781,38.842,26.625,38.842z"/>
		</g>
	</g>
	<g>
		<g>
			<path fill="#71F8FF" d="M43.73,24.105c-0.156,0-0.283-0.127-0.283-0.283v-6.797c0-0.156,0.127-0.281,0.283-0.281
				s0.283,0.125,0.283,0.281v6.797C44.014,23.979,43.887,24.105,43.73,24.105z"/>
		</g>
		<g>
			<path fill="#71F8FF" d="M43.73,27.645c-0.156,0-0.283-0.127-0.283-0.283v-1.275c0-0.156,0.127-0.283,0.283-0.283
				s0.283,0.127,0.283,0.283v1.275C44.014,27.518,43.887,27.645,43.73,27.645z"/>
		</g>
		<g>
			<path fill="#71F8FF" d="M43.73,30.721c-0.156,0-0.283-0.127-0.283-0.283v-1.273c0-0.156,0.127-0.283,0.283-0.283
				s0.283,0.127,0.283,0.283v1.273C44.014,30.594,43.887,30.721,43.73,30.721z"/>
		</g>
	</g>
	<g>
		<g>
			<path fill="#71F8FF" d="M33.332,32.822c-0.156,0-0.283-0.127-0.283-0.283v-5.178c0-0.156,0.127-0.283,0.283-0.283
				s0.283,0.127,0.283,0.283v5.178C33.615,32.695,33.488,32.822,33.332,32.822z"/>
		</g>
		<g>
			<path fill="#71F8FF" d="M33.332,35.518c-0.156,0-0.283-0.127-0.283-0.283v-0.971c0-0.156,0.127-0.283,0.283-0.283
				s0.283,0.127,0.283,0.283v0.971C33.615,35.391,33.488,35.518,33.332,35.518z"/>
		</g>
		<g>
			<path fill="#71F8FF" d="M33.332,37.863c-0.156,0-0.283-0.127-0.283-0.283v-0.971c0-0.156,0.127-0.283,0.283-0.283
				s0.283,0.127,0.283,0.283v0.971C33.615,37.736,33.488,37.863,33.332,37.863z"/>
		</g>
	</g>
	<g>
		<g>
			<path fill="#71F8FF" d="M21.883,29.818c-0.157,0-0.283-0.125-0.283-0.283V22.74c0-0.156,0.126-0.283,0.283-0.283
				c0.156,0,0.282,0.127,0.282,0.283v6.795C22.165,29.693,22.039,29.818,21.883,29.818z"/>
		</g>
		<g>
			<path fill="#71F8FF" d="M21.883,33.357c-0.157,0-0.283-0.125-0.283-0.281v-1.275c0-0.156,0.126-0.283,0.283-0.283
				c0.156,0,0.282,0.127,0.282,0.283v1.275C22.165,33.232,22.039,33.357,21.883,33.357z"/>
		</g>
		<g>
			<path fill="#71F8FF" d="M21.883,36.436c-0.157,0-0.283-0.127-0.283-0.283v-1.273c0-0.156,0.126-0.283,0.283-0.283
				c0.156,0,0.282,0.127,0.282,0.283v1.273C22.165,36.309,22.039,36.436,21.883,36.436z"/>
		</g>
	</g>
	<g>
		<g>
			<path fill="#71F8FF" d="M24.831,17.729c-0.156,0-0.283-0.127-0.283-0.283v-6.797c0-0.156,0.127-0.283,0.283-0.283
				s0.283,0.127,0.283,0.283v6.797C25.114,17.602,24.987,17.729,24.831,17.729z"/>
		</g>
		<g>
			<path fill="#71F8FF" d="M24.831,21.268c-0.156,0-0.283-0.127-0.283-0.283v-1.275c0-0.156,0.127-0.283,0.283-0.283
				s0.283,0.127,0.283,0.283v1.275C25.114,21.141,24.987,21.268,24.831,21.268z"/>
		</g>
		<g>
			<path fill="#71F8FF" d="M24.831,24.344c-0.156,0-0.283-0.127-0.283-0.283v-1.273c0-0.156,0.127-0.283,0.283-0.283
				s0.283,0.127,0.283,0.283v1.273C25.114,24.217,24.987,24.344,24.831,24.344z"/>
		</g>
	</g>
	<g>
		<g>
			<path fill="#0FD4E8" d="M69.678,25.518c-0.156,0-0.283-0.127-0.283-0.283v-6.797c0-0.156,0.127-0.283,0.283-0.283
				s0.283,0.127,0.283,0.283v6.797C69.961,25.391,69.834,25.518,69.678,25.518z"/>
		</g>
		<g>
			<path fill="#0FD4E8" d="M69.678,29.057c-0.156,0-0.283-0.127-0.283-0.283v-1.275c0-0.156,0.127-0.283,0.283-0.283
				s0.283,0.127,0.283,0.283v1.275C69.961,28.93,69.834,29.057,69.678,29.057z"/>
		</g>
		<g>
			<path fill="#0FD4E8" d="M69.678,32.133c-0.156,0-0.283-0.127-0.283-0.283v-1.273c0-0.156,0.127-0.283,0.283-0.283
				s0.283,0.127,0.283,0.283v1.273C69.961,32.006,69.834,32.133,69.678,32.133z"/>
		</g>
	</g>
	<g>
		<g>
			<path fill="#10AEE5" d="M88.137,27.641c-0.156,0-0.283-0.127-0.283-0.283v-6.795c0-0.156,0.127-0.283,0.283-0.283
				c0.157,0,0.283,0.127,0.283,0.283v6.795C88.42,27.514,88.294,27.641,88.137,27.641z"/>
		</g>
		<g>
			<path fill="#10AEE5" d="M88.137,31.18c-0.156,0-0.283-0.127-0.283-0.283v-1.273c0-0.156,0.127-0.283,0.283-0.283
				c0.157,0,0.283,0.127,0.283,0.283v1.273C88.42,31.053,88.294,31.18,88.137,31.18z"/>
		</g>
		<g>
			<path fill="#10AEE5" d="M88.137,34.256c-0.156,0-0.283-0.125-0.283-0.283v-1.273c0-0.156,0.127-0.283,0.283-0.283
				c0.157,0,0.283,0.127,0.283,0.283v1.273C88.42,34.131,88.294,34.256,88.137,34.256z"/>
		</g>
	</g>
	<g>
		<g>
			<path fill="#10AEE5" d="M85.753,12.049c-0.157,0-0.283-0.127-0.283-0.283V6.129c0-0.156,0.126-0.283,0.283-0.283
				c0.156,0,0.282,0.127,0.282,0.283v5.637C86.035,11.922,85.909,12.049,85.753,12.049z"/>
		</g>
		<g>
			<path fill="#10AEE5" d="M85.753,14.984c-0.157,0-0.283-0.127-0.283-0.283v-1.057c0-0.156,0.126-0.283,0.283-0.283
				c0.156,0,0.282,0.127,0.282,0.283v1.057C86.035,14.857,85.909,14.984,85.753,14.984z"/>
		</g>
		<g>
			<path fill="#10AEE5" d="M85.753,17.537c-0.157,0-0.283-0.127-0.283-0.283v-1.057c0-0.156,0.126-0.283,0.283-0.283
				c0.156,0,0.282,0.127,0.282,0.283v1.057C86.035,17.41,85.909,17.537,85.753,17.537z"/>
		</g>
	</g>
	<g>
		<g>
			<path fill="#10AEE5" d="M100.091,15.488c-0.157,0-0.283-0.127-0.283-0.283V9.568c0-0.156,0.126-0.283,0.283-0.283
				c0.156,0,0.283,0.127,0.283,0.283v5.637C100.374,15.361,100.247,15.488,100.091,15.488z"/>
		</g>
		<g>
			<path fill="#10AEE5" d="M100.091,18.424c-0.157,0-0.283-0.127-0.283-0.283v-1.057c0-0.158,0.126-0.283,0.283-0.283
				c0.156,0,0.283,0.125,0.283,0.283v1.057C100.374,18.297,100.247,18.424,100.091,18.424z"/>
		</g>
		<g>
			<path fill="#10AEE5" d="M100.091,20.975c-0.157,0-0.283-0.125-0.283-0.283v-1.057c0-0.156,0.126-0.281,0.283-0.281
				c0.156,0,0.283,0.125,0.283,0.281v1.057C100.374,20.85,100.247,20.975,100.091,20.975z"/>
		</g>
	</g>
	<g>
		<g>
			<path fill="#0FD4E8" d="M82.183,22.209c-0.157,0-0.283-0.127-0.283-0.283v-6.795c0-0.156,0.126-0.283,0.283-0.283
				c0.156,0,0.283,0.127,0.283,0.283v6.795C82.466,22.082,82.339,22.209,82.183,22.209z"/>
		</g>
		<g>
			<path fill="#0FD4E8" d="M82.183,25.748c-0.157,0-0.283-0.127-0.283-0.283v-1.273c0-0.158,0.126-0.283,0.283-0.283
				c0.156,0,0.283,0.125,0.283,0.283v1.273C82.466,25.621,82.339,25.748,82.183,25.748z"/>
		</g>
		<g>
			<path fill="#0FD4E8" d="M82.183,28.824c-0.157,0-0.283-0.125-0.283-0.283v-1.273c0-0.156,0.126-0.283,0.283-0.283
				c0.156,0,0.283,0.127,0.283,0.283v1.273C82.466,28.699,82.339,28.824,82.183,28.824z"/>
		</g>
	</g>
	<g>
		<g>
			<path fill="#0FD4E8" d="M104.243,32.543c-0.157,0-0.283-0.127-0.283-0.283v-6.795c0-0.156,0.126-0.283,0.283-0.283
				c0.156,0,0.283,0.127,0.283,0.283v6.795C104.526,32.416,104.399,32.543,104.243,32.543z"/>
		</g>
		<g>
			<path fill="#0FD4E8" d="M104.243,36.082c-0.157,0-0.283-0.127-0.283-0.283v-1.273c0-0.156,0.126-0.283,0.283-0.283
				c0.156,0,0.283,0.127,0.283,0.283v1.273C104.526,35.955,104.399,36.082,104.243,36.082z"/>
		</g>
		<g>
			<path fill="#0FD4E8" d="M104.243,39.16c-0.157,0-0.283-0.127-0.283-0.283v-1.275c0-0.156,0.126-0.283,0.283-0.283
				c0.156,0,0.283,0.127,0.283,0.283v1.275C104.526,39.033,104.399,39.16,104.243,39.16z"/>
		</g>
	</g>
	<g>
		<g>
			<path fill="#71F8FF" d="M78.077,33.432c-0.156,0-0.283-0.127-0.283-0.283v-5.791c0-0.156,0.127-0.283,0.283-0.283
				s0.283,0.127,0.283,0.283v5.791C78.36,33.305,78.233,33.432,78.077,33.432z"/>
		</g>
		<g>
			<path fill="#71F8FF" d="M78.077,36.447c-0.156,0-0.283-0.127-0.283-0.283v-1.086c0-0.156,0.127-0.283,0.283-0.283
				s0.283,0.127,0.283,0.283v1.086C78.36,36.32,78.233,36.447,78.077,36.447z"/>
		</g>
		<g>
			<path fill="#71F8FF" d="M78.077,39.07c-0.156,0-0.283-0.127-0.283-0.283v-1.086c0-0.156,0.127-0.283,0.283-0.283
				s0.283,0.127,0.283,0.283v1.086C78.36,38.943,78.233,39.07,78.077,39.07z"/>
		</g>
	</g>
	<g>
		<g>
			<path fill="#71F8FF" d="M95.183,24.332c-0.156,0-0.283-0.127-0.283-0.283v-6.795c0-0.156,0.127-0.283,0.283-0.283
				s0.283,0.127,0.283,0.283v6.795C95.466,24.205,95.339,24.332,95.183,24.332z"/>
		</g>
		<g>
			<path fill="#71F8FF" d="M95.183,27.871c-0.156,0-0.283-0.127-0.283-0.283v-1.273c0-0.156,0.127-0.283,0.283-0.283
				s0.283,0.127,0.283,0.283v1.273C95.466,27.744,95.339,27.871,95.183,27.871z"/>
		</g>
		<g>
			<path fill="#71F8FF" d="M95.183,30.949c-0.156,0-0.283-0.127-0.283-0.283v-1.275c0-0.156,0.127-0.283,0.283-0.283
				s0.283,0.127,0.283,0.283v1.275C95.466,30.822,95.339,30.949,95.183,30.949z"/>
		</g>
	</g>
	<g>
		<g>
			<path fill="#71F8FF" d="M84.784,33.049c-0.156,0-0.283-0.127-0.283-0.283v-5.178c0-0.156,0.127-0.283,0.283-0.283
				s0.283,0.127,0.283,0.283v5.178C85.067,32.922,84.94,33.049,84.784,33.049z"/>
		</g>
		<g>
			<path fill="#71F8FF" d="M84.784,35.746c-0.156,0-0.283-0.127-0.283-0.283v-0.971c0-0.156,0.127-0.283,0.283-0.283
				s0.283,0.127,0.283,0.283v0.971C85.067,35.619,84.94,35.746,84.784,35.746z"/>
		</g>
		<g>
			<path fill="#71F8FF" d="M84.784,38.09c-0.156,0-0.283-0.127-0.283-0.283v-0.971c0-0.156,0.127-0.283,0.283-0.283
				s0.283,0.127,0.283,0.283v0.971C85.067,37.963,84.94,38.09,84.784,38.09z"/>
		</g>
	</g>
	<g>
		<g>
			<path fill="#71F8FF" d="M73.335,30.047c-0.157,0-0.283-0.127-0.283-0.283v-6.795c0-0.156,0.126-0.283,0.283-0.283
				c0.156,0,0.282,0.127,0.282,0.283v6.795C73.617,29.92,73.491,30.047,73.335,30.047z"/>
		</g>
		<g>
			<path fill="#71F8FF" d="M73.335,33.586c-0.157,0-0.283-0.127-0.283-0.283v-1.273c0-0.156,0.126-0.283,0.283-0.283
				c0.156,0,0.282,0.127,0.282,0.283v1.273C73.617,33.459,73.491,33.586,73.335,33.586z"/>
		</g>
		<g>
			<path fill="#71F8FF" d="M73.335,36.662c-0.157,0-0.283-0.125-0.283-0.283v-1.273c0-0.156,0.126-0.283,0.283-0.283
				c0.156,0,0.282,0.127,0.282,0.283v1.273C73.617,36.537,73.491,36.662,73.335,36.662z"/>
		</g>
	</g>
	<g>
		<g>
			<path fill="#71F8FF" d="M76.283,17.955c-0.156,0-0.283-0.127-0.283-0.283v-6.795c0-0.156,0.127-0.283,0.283-0.283
				s0.283,0.127,0.283,0.283v6.795C76.566,17.828,76.439,17.955,76.283,17.955z"/>
		</g>
		<g>
			<path fill="#71F8FF" d="M76.283,21.494c-0.156,0-0.283-0.127-0.283-0.283v-1.273c0-0.156,0.127-0.283,0.283-0.283
				s0.283,0.127,0.283,0.283v1.273C76.566,21.367,76.439,21.494,76.283,21.494z"/>
		</g>
		<g>
			<path fill="#71F8FF" d="M76.283,24.572c-0.156,0-0.283-0.127-0.283-0.283v-1.275c0-0.156,0.127-0.283,0.283-0.283
				s0.283,0.127,0.283,0.283v1.275C76.566,24.445,76.439,24.572,76.283,24.572z"/>
		</g>
	</g>
</g>
</svg>
