<?xml version="1.0" encoding="utf-8"?>
<!-- Generator: Adobe Illustrator 16.0.0, SVG Export Plug-In . SVG Version: 6.00 Build 0)  -->
<!DOCTYPE svg PUBLIC "-//W3C//DTD SVG 1.1//EN" "http://www.w3.org/Graphics/SVG/1.1/DTD/svg11.dtd">
<svg version="1.1" id="Layer_1" xmlns="http://www.w3.org/2000/svg" xmlns:xlink="http://www.w3.org/1999/xlink" x="0px" y="0px"
	 width="130px" height="130px" viewBox="0 0 130 130" enable-background="new 0 0 130 130" xml:space="preserve">
<g>
	<path opacity="0.4" fill="#9B9B9B" d="M105.488,83.068c-18.135-10.473-47.812-10.473-65.947,0
		c-18.137,10.473-18.137,27.605,0,38.077c18.139,10.473,47.816,10.473,65.951,0C123.625,110.674,123.625,93.541,105.488,83.068z"/>
	<g>
		<path fill="#49190F" d="M113.933,29.61c-2.045,2.868-6.143,13.528-3.275,15.575c2.869,2.047,11.615-5.295,13.664-8.163
			c2.047-2.868,1.379-6.853-1.49-8.899C119.964,26.076,115.98,26.743,113.933,29.61z"/>
		<path fill="#562017" d="M109.994,44.262c4.303-0.368,12.08-7.05,14.129-9.92c0.57-0.799,0.947-1.674,1.166-2.572
			c-0.357-1.418-1.172-2.73-2.457-3.646c-2.867-2.047-6.852-1.38-8.898,1.487C112.101,32.179,108.638,40.979,109.994,44.262z"/>
		<path fill="#5E2514" d="M37.126,38.312c-3.141,5.444-5.715,4.756-5.715-1.532v-0.003c0-6.287,4.455-14,9.896-17.143
			c5.447-3.145,7.328-1.262,4.188,4.182L37.126,38.312z"/>
		<path fill="#5E2514" d="M26.111,75.205c0,5.234,9.219,33.962,14.451,33.962c5.236,0,12.484-31.578,12.484-36.813
			c0-5.234-7.248-2.055-12.484-2.055C35.33,70.299,26.111,69.971,26.111,75.205z"/>
		<g>
			<path fill="#6B2915" d="M54.425,91.014c0,5.235,9.217,33.961,14.451,33.961c5.236,0,12.48-31.577,12.48-36.812
				c0-5.234-7.244-2.055-12.48-2.055C63.642,86.107,54.425,85.779,54.425,91.014z"/>
			<path fill="#5E2514" d="M96.205,70.158c0,5.234,9.217,33.961,14.451,33.961c5.236,0,12.482-31.578,12.482-36.812
				s-7.246-2.056-12.482-2.056C105.421,65.251,96.205,64.923,96.205,70.158z"/>
			<path fill="#964226" d="M123.404,65.045c0,20.471-22.146,37.062-49.465,37.062c-27.316,0-49.465-16.592-49.465-37.062
				s27.17-6.07,50.83-19.721C103.63,28.979,123.404,44.574,123.404,65.045z"/>
			<path fill="#823919" d="M123.404,65.045c0,20.471-22.146,37.062-49.465,37.062c-27.316,0-49.465-16.592-49.465-37.062
				s28.424-3.332,52.084-16.982C104.884,31.718,123.404,44.574,123.404,65.045z"/>
			<path fill="#753017" d="M123.404,65.045c0,20.471-22.146,37.062-49.465,37.062c-27.316,0-49.465-16.592-49.465-37.062
				s31.451,22.711,55.111,9.061C107.912,57.762,123.404,44.574,123.404,65.045z"/>
			<path opacity="0.1" fill="#63290F" d="M123.404,65.045c0,20.471-22.146,37.062-49.465,37.062
				c-27.316,0-49.465-16.592-49.465-37.062s27.6,41.585,51.26,27.934C104.06,76.635,123.404,44.574,123.404,65.045z"/>
			<path opacity="0.1" fill="#63290F" d="M25.32,58.24c-0.004,0.018-0.008,0.036-0.012,0.054v13.503
				c4.238,17.244,24.393,30.311,48.631,30.311V58.24H25.32z"/>
			<path opacity="0.2" fill="#63290F" d="M40.525,42.586c-10.809-6.227-19.688-1.119-19.688,11.365
				c0,12.493,8.879,27.841,19.688,34.072c10.809,6.252,33.127-15.031,33.127-27.526C73.652,48.016,51.333,48.85,40.525,42.586z"/>
		</g>
		<g>
			<path fill="#753017" d="M73.941,57.141c0,14.371-15.549,26.018-34.729,26.018c-19.176,0-34.721-11.646-34.721-26.018
				s15.545-26.018,34.721-26.018C58.392,31.123,73.941,42.77,73.941,57.141z"/>
			<path fill="#964226" d="M39.212,83.158c2.262,0,4.471-0.174,6.611-0.484c10.541-4.257,22.068-14.685,22.068-26.136
				c0-11.45-11.525-20.674-22.064-24.931c-2.145-0.311-4.35-0.484-6.615-0.484c-19.176,0-34.721,11.646-34.721,26.018
				S20.037,83.158,39.212,83.158z"/>
			<path fill="#823919" d="M39.212,83.158c2.262,0,4.471-0.174,6.611-0.484c10.541-4.257,22.068-14.685,22.068-26.136
				c0-11.45-11.525-20.674-22.064-24.931c-2.145-0.311-3.756,2.066-6.021,2.066c-19.176,0-35.314,9.096-35.314,23.467
				S20.037,83.158,39.212,83.158z"/>
			<path fill="#753017" d="M6.853,66.57c2.547,4.906,7.018,9.089,12.725,12.027v-9.927l-12.725-7.6V66.57z"/>
			<polygon fill="#753017" points="39.806,35.271 38.056,36.927 50.359,41.985 56.208,34.613 			"/>
			<polygon fill="#753017" points="71.605,59.849 62.96,74.355 49.105,81.193 49.105,42.871 53.046,42.871 			"/>
		</g>
		<g>
			<g>
				<path fill="#512008" d="M39.804,58.477c-0.959-0.555-1.748-0.102-1.748,1.011c0,1.11,0.789,2.472,1.748,3.028
					c0.963,0.557,1.75,0.101,1.75-1.009C41.554,60.395,40.767,59.031,39.804,58.477z"/>
				<path fill="#1E2126" d="M39.58,57.828c-0.961-0.555-1.75-0.1-1.75,1.011s0.789,2.476,1.75,3.029
					c0.961,0.556,1.748,0.101,1.748-1.01S40.541,58.385,39.58,57.828z"/>
			</g>
			<g>
				<path fill="#512008" d="M21.066,47.641c-0.965-0.554-1.752-0.1-1.752,1.012c0,1.11,0.787,2.473,1.752,3.029
					c0.959,0.555,1.748,0.101,1.748-1.01C22.814,49.559,22.025,48.197,21.066,47.641z"/>
				<path fill="#1E2126" d="M20.839,46.994c-0.961-0.555-1.75-0.101-1.75,1.01s0.789,2.475,1.75,3.028
					c0.961,0.556,1.748,0.102,1.748-1.009C22.587,48.914,21.8,47.55,20.839,46.994z"/>
			</g>
		</g>
		<path fill="#3F1707" d="M13.218,57.396c-3.496-2.013-6.365-0.361-6.365,3.675c0,4.04,2.869,9.002,6.365,11.017
			c3.494,2.021,6.359,0.368,6.359-3.672C19.578,64.381,16.712,59.422,13.218,57.396z"/>
		<path fill="#280D04" d="M15.357,59.076c0.486,1.314,0.762,2.655,0.762,3.908c0,4.039-2.863,5.693-6.359,3.672
			c-0.752-0.435-1.473-1.012-2.146-1.682c1.078,2.928,3.193,5.723,5.605,7.113c3.494,2.021,6.359,0.368,6.359-3.672
			C19.578,65.248,17.808,61.516,15.357,59.076z"/>
		<path fill="#541D0A" d="M9.757,58.213c-1.086-0.625-1.979-0.112-1.979,1.142c0,1.256,0.893,2.798,1.979,3.425
			s1.977,0.113,1.977-1.143C11.734,60.383,10.843,58.842,9.757,58.213z"/>
		<path fill="#5E2514" d="M64.05,53.589c-3.143,5.444-5.715,4.755-5.715-1.532v-0.004c0-6.287,4.453-14,9.893-17.143
			c5.449-3.145,7.332-1.262,4.189,4.184L64.05,53.589z"/>
		<path fill="#49190F" d="M64.05,53.589l8.367-14.495c0.67-1.161,1.098-2.149,1.326-2.973c-0.908-0.396-2.588,0.021-4.938,1.376
			c-5.439,3.144-9.895,10.856-9.895,17.144v0.002c0,0.562,0.027,1.062,0.066,1.535C59.933,58.194,61.849,57.4,64.05,53.589z"/>
		<g>
			<g>
				<path fill="#C9995F" d="M51.587,44.227c-0.338,0-0.682-0.088-0.994-0.27c-0.943-0.551-1.881-0.696-1.332-1.638l4.148-7.108
					l6.934-4.358l6.814-11.878l7.807-4.221c0.963-0.52,2.162-0.158,2.68,0.8c0.518,0.96,0.16,2.159-0.799,2.679l-6.818,3.685
					l-6.746,11.757l-6.945,4.367l-3.039,5.205C52.929,43.875,52.267,44.227,51.587,44.227z"/>
			</g>
			<g>
				<path fill="#C9995F" d="M61.814,34.239c-0.684,0-1.348-0.354-1.713-0.987c-0.547-0.945-0.223-2.154,0.723-2.701l12.77-7.371
					c0.939-0.545,2.152-0.223,2.699,0.725c0.547,0.945,0.221,2.153-0.725,2.699L62.8,33.976
					C62.49,34.154,62.15,34.239,61.814,34.239z"/>
			</g>
			<g>
				<path fill="#C9995F" d="M72.515,18.963c-1.092,0-1.977-0.885-1.977-1.976v-6.712c0-1.092,0.885-1.977,1.977-1.977
					s1.977,0.885,1.977,1.977v6.712C74.492,18.078,73.607,18.963,72.515,18.963z"/>
			</g>
		</g>
		<g>
			<g>
				<path fill="#B28049" d="M38.867,36.927c-0.338,0-0.682-0.087-0.994-0.269c-0.943-0.551-1.881-0.696-1.332-1.639l4.146-7.107
					l6.936-4.358l6.814-11.879l7.807-4.22c0.963-0.52,2.16-0.158,2.678,0.8c0.52,0.96,0.16,2.159-0.799,2.679l-6.818,3.686
					L50.56,26.375l-6.945,4.367l-3.041,5.205C40.207,36.576,39.546,36.927,38.867,36.927z"/>
			</g>
			<g>
				<path fill="#B28049" d="M49.093,26.94c-0.684,0-1.348-0.354-1.715-0.987c-0.545-0.945-0.223-2.154,0.723-2.701l12.77-7.37
					c0.939-0.546,2.152-0.224,2.699,0.724c0.547,0.945,0.223,2.153-0.723,2.699L50.08,26.676
					C49.769,26.855,49.429,26.94,49.093,26.94z"/>
			</g>
			<g>
				<path fill="#B28049" d="M59.792,11.664c-1.09,0-1.975-0.885-1.975-1.976V2.977C57.818,1.885,58.703,1,59.792,1
					c1.094,0,1.979,0.885,1.979,1.977v6.712C61.771,10.779,60.886,11.664,59.792,11.664z"/>
			</g>
		</g>
	</g>
</g>
</svg>
