<?xml version="1.0" encoding="utf-8"?>
<!-- Generator: Adobe Illustrator 16.0.0, SVG Export Plug-In . SVG Version: 6.00 Build 0)  -->
<!DOCTYPE svg PUBLIC "-//W3C//DTD SVG 1.1//EN" "http://www.w3.org/Graphics/SVG/1.1/DTD/svg11.dtd">
<svg version="1.1" id="Layer_1" xmlns="http://www.w3.org/2000/svg" xmlns:xlink="http://www.w3.org/1999/xlink" x="0px" y="0px"
	 width="130px" height="130px" viewBox="0 0 130 130" enable-background="new 0 0 130 130" xml:space="preserve">
<g>
	<g>
		<g>
			<path fill="#B5B3AC" d="M75.771,105.246"/>
			<polygon fill="#29B20D" points="75.771,96.607 64.55,103.086 53.328,96.607 64.55,90.129 			"/>
			<polygon fill="#E5F4DF" points="64.55,111.725 64.55,90.129 53.328,96.607 49.588,120.361 64.55,129 79.511,120.361 			"/>
			<line fill="#08826B" x1="64.55" y1="90.129" x2="64.55" y2="111.725"/>
			<line fill="#0B9981" x1="64.55" y1="90.129" x2="64.55" y2="111.725"/>
			<line fill="#0B9981" x1="64.55" y1="90.129" x2="64.55" y2="111.725"/>
			<line fill="#0B9981" x1="64.55" y1="90.129" x2="64.55" y2="111.725"/>
			<path fill="#0B9981" d="M64.55,111.725"/>
			<path fill="#34D607" d="M64.55,111.725"/>
			<polygon fill="#BBC9B3" points="75.771,96.607 64.55,90.129 64.55,111.725 64.55,119.137 64.55,129 79.511,120.361 			"/>
		</g>
		<g>
			<path fill="#B5B3AC" d="M53.328,88.287"/>
			<polygon fill="#A5AF9E" points="49.588,73.17 64.55,64.532 79.511,73.17 64.55,81.809 			"/>
			<polyline fill="#BBC9B3" points="64.55,81.809 49.588,73.17 64.55,64.532 			"/>
			<polygon fill="#A5AF9E" points="52.218,74.688 64.55,67.568 76.882,74.688 64.55,81.809 			"/>
			<polyline fill="#697261" points="64.55,67.568 76.882,74.688 64.55,81.809 			"/>
			<polygon fill="#528E24" points="58.13,78.102 64.55,74.395 70.97,78.102 64.55,81.809 			"/>
			<polyline fill="#7DA860" points="64.55,81.809 58.13,78.102 64.55,74.395 			"/>
			<polygon fill="#29B20D" points="53.328,96.924 64.55,90.445 75.771,96.924 64.55,103.404 			"/>
			<polygon fill="#CBDBC3" points="64.55,81.809 64.55,103.404 75.771,96.924 79.511,73.17 			"/>
			<polyline fill="#BBC9B3" points="79.511,73.17 64.55,81.809 64.55,103.404 			"/>
			<line fill="#08826B" x1="64.55" y1="103.404" x2="64.55" y2="81.809"/>
			<line fill="#08826B" x1="64.55" y1="81.809" x2="79.511" y2="73.17"/>
			<line fill="#0B9981" x1="64.55" y1="103.404" x2="64.55" y2="81.809"/>
			<line fill="#0B9981" x1="64.55" y1="81.809" x2="79.511" y2="73.17"/>
			<line fill="#0B9981" x1="64.55" y1="103.404" x2="64.55" y2="81.809"/>
			<line fill="#0B9981" x1="64.55" y1="81.809" x2="79.511" y2="73.17"/>
			<line fill="#0B9981" x1="64.55" y1="103.404" x2="64.55" y2="81.809"/>
			<line fill="#0B9981" x1="64.55" y1="81.809" x2="79.511" y2="73.17"/>
			<path fill="#0B9981" d="M64.55,81.809"/>
			<path fill="#34D607" d="M64.55,81.809"/>
			<polygon fill="#EFFFE9" points="49.588,73.17 53.328,96.924 64.55,103.404 64.55,81.809 			"/>
		</g>
	</g>
	<g>
		<g>
			<g>
				<g>
					<g>
						<g>
							<path fill="#528E24" d="M64.591,80.518c-1.026,0-1.86-0.834-1.86-1.861V28.151c0-1.029,0.834-1.863,1.86-1.863
								c1.028,0,1.862,0.834,1.862,1.863v50.505C66.453,79.684,65.619,80.518,64.591,80.518z"/>
						</g>
						<path fill="#7DA860" d="M62.73,30.012v48.644c0,1.027,0.834,1.861,1.86,1.861l0,0l0.001-48.644
							C64.592,30.845,63.758,30.012,62.73,30.012z"/>
					</g>
					<g>
						<path fill="#A5265A" d="M79.22,13.696c0,6.054-6.549,18.734-14.629,18.734c-8.078,0-14.627-12.681-14.627-18.734
							c0-6.055,6.549-10.961,14.627-10.961C72.671,2.735,79.22,7.641,79.22,13.696z"/>
						<path fill="#A5265A" d="M51.196,6.393c0,0,0.537,4.785,2.972,6.764c0,0,0.246-1.898,1.659-0.713
							c1.414,1.186,0.866,2.098,4.058,2.918c3.192,0.822,3.216,5.882,2.93,7.341c-0.285,1.459-7.99,0.548-7.99,0.548
							s-6.222-3.091-5.22-11.947c0,0-0.465-2.278,0.37-2.643c0,0-0.146-2.306,0.7-2.725C51.521,5.516,51.196,6.393,51.196,6.393z"/>
						<path fill="#931F54" d="M51.196,6.393c0,0,0.537,4.785,2.972,6.764c0,0,0.246-1.898,1.659-0.713
							c1.414,1.186,0.866,2.098,4.058,2.918c3.192,0.822,3.216,5.882,2.93,7.341c-0.285,1.459-4.996-0.091-4.996-0.091
							s-8.485-1.859-7.483-10.715c0,0-1.195-2.872-0.36-3.236c0,0-0.146-2.306,0.7-2.725C51.521,5.516,51.196,6.393,51.196,6.393z"
							/>
						<path opacity="0.5" fill="#983CBA" d="M79.22,13.696c0-3.109-1.729-5.913-4.505-7.907c-1.58-0.438-3.287-0.677-5.068-0.677
							c-8.079,0-14.627,4.906-14.627,10.961c0,4.395,3.451,12.282,8.435,16.273c0.376,0.055,0.755,0.084,1.137,0.084
							C72.671,32.43,79.22,19.75,79.22,13.696z"/>
						<path fill="#931F54" d="M79.901,12.637c0.139-0.973-0.682-1.123-0.682-1.123c0.078-0.609-0.142-1.885-1.04-2.404
							C77.281,8.591,80.148,14.352,70.69,16c-9.457,1.648-10.457,9.857-10.457,9.857l7.509,1.736c0,0,8.564-5.467,9.307-6.104
							c0.742-0.638,1.888-5.448,1.888-5.448s0.467-0.766,0.752-1.367c0.284-0.603-0.152-1.104-0.152-1.104
							S79.763,13.612,79.901,12.637z"/>
						<path opacity="0.5" fill="#983CBA" d="M79.901,12.637c0.139-0.973-0.682-1.123-0.682-1.123
							c0.078-0.609-0.142-1.885-1.04-2.404c-0.898-0.519,2.476,7.576-6.982,9.227c-9.456,1.648-10.964,7.521-10.964,7.521
							l7.509,1.736c0,0,8.564-5.467,9.307-6.104c0.742-0.638,1.888-5.448,1.888-5.448s0.467-0.766,0.752-1.367
							c0.284-0.603-0.152-1.104-0.152-1.104S79.763,13.612,79.901,12.637z"/>
						<path fill="#931F54" d="M58.107,21.973c-5.745-0.091-7.317-3.748-7.317-3.748l-0.155-0.509
							c-0.756,0.546,0.155,2.534,0.155,2.534c1.277,12.393,13.801,12.18,13.801,12.18s0.355-0.197,0.674-3.329
							C65.584,25.969,63.852,22.065,58.107,21.973z"/>
						<path opacity="0.5" fill="#983CBA" d="M57.514,23.524c-5.745-0.092-6.724-5.299-6.724-5.299l-0.155-0.509
							c-0.756,0.546,0.155,2.534,0.155,2.534c1.277,12.393,13.801,12.18,13.801,12.18s0.355-0.197,0.674-3.329
							C65.584,25.969,63.259,23.616,57.514,23.524z"/>
						<path fill="#C1055A" d="M67.376,30.534"/>
						<path fill="#87083C" d="M70.92,3.458c-3.48-2.008-9.176-2.008-12.656,0c-3.48,2.011-3.48,5.297,0,7.307
							c3.48,2.012,9.176,2.012,12.656,0C74.4,8.754,74.4,5.468,70.92,3.458z"/>
						<g>
							<path fill="#C63C6D" d="M74.689,3.405c-5.554-3.207-14.643-3.207-20.195,0c-5.556,3.207-5.556,8.453,0,11.66
								c5.554,3.207,14.642,3.207,20.196,0C80.244,11.858,80.244,6.612,74.689,3.405z"/>
							<path fill="#A5265A" d="M73.496,3.94c-4.897-2.828-12.912-2.828-17.809,0s-4.896,7.454,0,10.281
								c4.896,2.828,12.911,2.828,17.809,0C78.393,11.394,78.393,6.768,73.496,3.94z"/>
							<path fill="#931F54" d="M73.496,4.938c-4.897-2.828-12.912-2.828-17.809,0c-2.229,1.287-3.44,2.949-3.64,4.643
								c0.199,1.693,1.411,3.354,3.64,4.641c4.896,2.828,12.911,2.828,17.809,0c2.229-1.287,3.439-2.947,3.639-4.641
								C76.936,7.887,75.725,6.225,73.496,4.938z"/>
							<path fill="#A5265A" d="M73.496,5.936c-4.897-2.827-12.912-2.827-17.809,0c-2.01,1.16-3.193,2.625-3.552,4.143
								c0.358,1.519,1.542,2.982,3.552,4.143c4.896,2.828,12.911,2.828,17.809,0c2.01-1.16,3.193-2.624,3.553-4.143
								C76.689,8.561,75.505,7.096,73.496,5.936z"/>
							<path fill="#BA3170" d="M73.496,5.936c-4.897-2.827-12.912-2.827-17.809,0c-2.01,1.16-3.193,2.625-3.552,4.143"/>
							<path fill="#931F54" d="M55.688,14.221c4.896,2.828,12.911,2.828,17.809,0c2.01-1.16,3.193-2.624,3.553-4.143
								c-0.359-1.518-1.544-2.982-3.553-4.143"/>
						</g>
						<g>
							<path fill="#C63C6D" d="M70.271,5.616c-3.124-1.805-8.236-1.805-11.358,0c-3.124,1.803-3.124,4.754,0,6.557
								c3.122,1.805,8.234,1.805,11.358,0C73.394,10.37,73.394,7.418,70.271,5.616z"/>
							<path fill="#A5265A" d="M69.6,5.917c-2.755-1.591-7.262-1.591-10.016,0c-2.754,1.59-2.754,4.191,0,5.781
								c2.754,1.591,7.262,1.591,10.016,0C72.353,10.108,72.353,7.506,69.6,5.917z"/>
							<path fill="#931F54" d="M69.6,6.477c-2.755-1.591-7.262-1.591-10.016,0c-1.253,0.725-1.935,1.658-2.047,2.61
								c0.112,0.952,0.794,1.888,2.047,2.61c2.754,1.591,7.262,1.591,10.016,0c1.254-0.723,1.935-1.658,2.046-2.61
								C71.534,8.135,70.854,7.202,69.6,6.477z"/>
							<path fill="#A5265A" d="M69.6,7.038c-2.755-1.59-7.262-1.59-10.016,0c-1.13,0.654-1.796,1.477-1.998,2.33
								c0.202,0.854,0.868,1.678,1.998,2.33c2.754,1.591,7.262,1.591,10.016,0c1.13-0.652,1.796-1.476,1.997-2.33
								C71.396,8.514,70.729,7.692,69.6,7.038z"/>
							<path fill="#BA3170" d="M69.6,7.038c-2.755-1.59-7.262-1.59-10.016,0c-1.13,0.654-1.796,1.477-1.998,2.33"/>
							<path fill="#931F54" d="M59.584,11.698c2.754,1.591,7.262,1.591,10.016,0c1.13-0.652,1.796-1.476,1.997-2.33
								c-0.201-0.854-0.867-1.676-1.997-2.33"/>
						</g>
						<g>
							<path fill="#C63C6D" d="M67.643,7.131c-1.678-0.969-4.425-0.969-6.103,0c-1.679,0.97-1.679,2.555,0,3.525
								c1.679,0.969,4.425,0.969,6.104,0C69.321,9.686,69.321,8.101,67.643,7.131z"/>
							<path fill="#A5265A" d="M67.282,7.293c-1.48-0.854-3.901-0.854-5.382,0c-1.479,0.855-1.479,2.254,0,3.107
								c1.48,0.854,3.902,0.854,5.382,0S68.762,8.149,67.282,7.293z"/>
							<path fill="#931F54" d="M67.282,7.596c-1.48-0.855-3.901-0.855-5.382,0c-0.673,0.389-1.039,0.891-1.1,1.402
								c0.061,0.512,0.427,1.013,1.1,1.402c1.48,0.854,3.902,0.854,5.382,0c0.674-0.39,1.04-0.891,1.1-1.402
								C68.322,8.487,67.956,7.985,67.282,7.596z"/>
							<path fill="#A5265A" d="M67.282,7.897c-1.48-0.854-3.901-0.854-5.382,0c-0.606,0.352-0.965,0.793-1.073,1.252
								c0.108,0.459,0.467,0.901,1.073,1.252c1.48,0.854,3.902,0.854,5.382,0c0.608-0.351,0.965-0.793,1.073-1.252
								C68.247,8.69,67.89,8.249,67.282,7.897z"/>
							<path fill="#BA3170" d="M67.282,7.897c-1.48-0.854-3.901-0.854-5.382,0c-0.606,0.352-0.965,0.793-1.073,1.252"/>
							<path fill="#931F54" d="M61.9,10.401c1.48,0.854,3.902,0.854,5.382,0c0.608-0.351,0.965-0.793,1.073-1.252
								c-0.108-0.459-0.466-0.9-1.073-1.252"/>
						</g>
					</g>
				</g>
			</g>
			<ellipse fill="#AA4BD1" cx="59.378" cy="19.539" rx="0.12" ry="0"/>
			<circle fill="#AA4BD1" cx="64.583" cy="29.155" r="0.054"/>
		</g>
		<path fill="#A5265A" d="M77.936,19.539c-0.405,1.044-3.05,3.772-8.739,3.772c-5.688,0-4.605,9.119-4.605,9.119h0.287
			c8.753-0.375,13.09-9.424,13.245-11.392C78.251,19.41,77.936,19.539,77.936,19.539z"/>
		<path fill="#931F54" d="M77.936,19.539c-0.405,1.044-2.515,5.718-8.202,5.718c-5.688,0-5.143,7.174-5.143,7.174h0.287
			c8.753-0.375,13.09-9.424,13.245-11.392C78.251,19.41,77.936,19.539,77.936,19.539z"/>
		<g>
			<g>
				<path fill="#528E24" d="M64.782,56.061l0.717,0.473c18.317-3.852,18.682-20.426,18.682-20.426
					C63.807,37.659,64.782,56.061,64.782,56.061z"/>
				<path fill="#467C16" d="M65.499,56.534c18.317-3.852,18.682-20.426,18.682-20.426"/>
			</g>
			<g>
				<path fill="#528E24" d="M65.218,68.463l-0.717,0.473c-18.317-3.853-18.682-20.426-18.682-20.426
					C66.194,50.059,65.218,68.463,65.218,68.463z"/>
				<path fill="#467C16" d="M64.501,68.936c-18.317-3.853-18.682-20.426-18.682-20.426"/>
			</g>
		</g>
	</g>
</g>
</svg>
