<?xml version="1.0" encoding="utf-8"?>
<!-- Generator: Adobe Illustrator 16.0.0, SVG Export Plug-In . SVG Version: 6.00 Build 0)  -->
<!DOCTYPE svg PUBLIC "-//W3C//DTD SVG 1.1//EN" "http://www.w3.org/Graphics/SVG/1.1/DTD/svg11.dtd">
<svg version="1.1" id="Layer_1" xmlns="http://www.w3.org/2000/svg" xmlns:xlink="http://www.w3.org/1999/xlink" x="0px" y="0px"
	 width="130px" height="130px" viewBox="0 0 130 130" enable-background="new 0 0 130 130" xml:space="preserve">
<g>
	<g>
		<g>
			<path fill="#C6C19D" d="M95.148,20.414L62.697,1.672c-1.354-0.78-2.582-0.856-3.48-0.354V1.316l-0.012,0.008
				c-0.012,0.006-0.023,0.012-0.033,0.018L31.373,17.396l39.232,111.369l27.988-16.146c0.043-0.022,0.082-0.047,0.125-0.071
				l0.023-0.015v-0.003c0.85-0.539,1.377-1.624,1.377-3.151V29.022C100.119,25.865,97.883,21.991,95.148,20.414z M62.697,93.505
				c-2.732-1.578-4.969-5.451-4.969-8.607V30.965l9.572,5.529c2.734,1.577,4.971,5.451,4.971,8.607v53.934L62.697,93.505z"/>
			<path fill="#BAB690" d="M31.373,17.396l39.232,111.369l27.988-16.146c0.043-0.022,0.082-0.047,0.125-0.071l0.023-0.015v-0.003
				c0.85-0.539,1.377-1.624,1.377-3.151V29.022c0-3.157-2.236-7.031-4.971-8.608 M72.271,99.035l-9.574-5.53
				c-2.732-1.578-4.969-5.451-4.969-8.607V30.965l9.572,5.529c2.734,1.577,4.971,5.451,4.971,8.607V99.035z"/>
			<path fill="#A5A079" d="M72.271,45.102v53.934l-7.213-4.166v18.145l5.547,15.751l27.988-16.146
				c0.043-0.022,0.082-0.047,0.125-0.071l0.023-0.015v-0.003c0.85-0.539,1.377-1.624,1.377-3.151V29.022
				c0-1.052-0.266-2.181-0.697-3.279L71.576,41.825C72.006,42.924,72.271,44.051,72.271,45.102z"/>
			<path fill="#969069" d="M100.119,29.022c0-1.052-0.266-2.181-0.697-3.279L71.576,41.825c0.43,1.099,0.695,2.226,0.695,3.276
				v53.934l-7.213-4.166v18.145l5.547,15.751"/>
			<path fill="#E5DEB5" d="M67.301,36.494L34.85,17.752c-2.732-1.577-4.969-0.287-4.969,2.869v80.355
				c0,3.156,2.236,7.03,4.969,8.608l32.451,18.741c2.734,1.578,4.971,0.287,4.971-2.868V45.102
				C72.271,41.945,70.035,38.071,67.301,36.494z M68.479,96.845l-5.781-3.34c-2.732-1.578-4.969-5.451-4.969-8.607V38.033
				l6.668,3.853c2.246,1.295,4.082,4.476,4.082,7.067V96.845z"/>
			<path fill="#DBD6A5" d="M58.217,123.08l9.084,5.246c2.734,1.578,4.971,0.287,4.971-2.868V45.102c0-3.156-2.236-7.03-4.971-8.607
				L34.85,17.752c-1.613-0.932-3.049-0.856-3.957,0.006L58.217,123.08z M57.729,38.033l6.668,3.853
				c2.246,1.295,4.082,4.476,4.082,7.067v47.892l-5.781-3.34c-2.732-1.578-4.969-5.451-4.969-8.607V38.033z"/>
			<path fill="#BAB690" d="M62.697,93.505c-2.732-1.578-4.969-5.451-4.969-8.607V38.033L37.754,26.498
				c-2.244-1.296-4.078-0.236-4.078,2.355v68.272c0,2.592,1.834,5.772,4.078,7.067l26.643,15.388
				c2.246,1.296,4.082,0.237,4.082-2.354V96.845L62.697,93.505z"/>
		</g>
		<path fill="#A5A079" d="M57.729,84.897V38.033L37.754,26.498c-2.244-1.296-4.078-0.236-4.078,2.355v68.272
			c0,1.945,1.033,4.222,2.498,5.784l22.945-13.252C58.264,88.131,57.729,86.432,57.729,84.897z"/>
		<path fill="#9B9572" d="M37.754,26.498c-2.244-1.296-4.078-0.236-4.078,2.355v68.272c0,1.945,1.033,4.222,2.498,5.784"/>
	</g>
	<g>
		<g>
			<path fill="#BAB690" d="M68.479,66.361c0-0.183-0.029-0.374-0.047-0.561l-10.695-6.162l-23.852,13.78l34.594,19.925V66.361z"/>
		</g>
		<polygon fill="#99926D" points="33.885,73.419 57.729,87.152 57.729,59.644 		"/>
		<polygon fill="#E8E3BC" points="68.479,93.319 33.885,73.419 33.885,74.557 68.479,94.455 		"/>
	</g>
	<g>
		<g>
			<path fill="#BAB690" d="M68.479,48.953c0-0.184-0.029-0.374-0.047-0.561l-10.695-6.161L33.885,56.011l34.594,19.925V48.953z"/>
		</g>
		<polygon fill="#99926D" points="33.885,56.011 57.729,69.744 57.729,42.235 		"/>
		<polygon fill="#E8E3BC" points="68.479,75.911 33.885,56.011 33.885,57.148 68.479,77.047 		"/>
	</g>
</g>
</svg>
