<?xml version="1.0" encoding="utf-8"?>
<!-- Generator: Adobe Illustrator 16.0.0, SVG Export Plug-In . SVG Version: 6.00 Build 0)  -->
<!DOCTYPE svg PUBLIC "-//W3C//DTD SVG 1.1//EN" "http://www.w3.org/Graphics/SVG/1.1/DTD/svg11.dtd">
<svg version="1.1" id="Layer_1" xmlns="http://www.w3.org/2000/svg" xmlns:xlink="http://www.w3.org/1999/xlink" x="0px" y="0px"
	 width="130px" height="130px" viewBox="0 0 130 130" enable-background="new 0 0 130 130" xml:space="preserve">
<g>
	<polygon fill="#0F9FE8" points="49.728,107.848 3.911,81.395 49.727,15.264 	"/>
	<polygon fill="#0986D3" points="49.728,107.848 29.818,43.999 49.727,15.264 	"/>
	<polygon fill="#0B519E" points="49.728,107.848 95.544,81.395 49.729,15.264 	"/>
	<polygon fill="#0B4B84" points="49.728,107.848 69.638,43.999 49.729,15.264 	"/>
	<g>
		<polygon fill="#37E2D9" points="29.818,43.999 49.727,55.494 49.727,15.264 		"/>
		<polygon fill="#20C2D3" points="49.729,55.494 69.638,43.999 49.729,15.264 		"/>
		<polygon fill="#0DA5D3" points="49.729,55.494 63.421,35.025 49.729,15.264 		"/>
	</g>
	<g>
		<path fill="#0B519E" d="M17.083,88.966c0,0,9.143-32.39,17.342-27.776c6.25,3.518-6.594,33.982-6.594,33.982L17.083,88.966z"/>
		<path fill="#0F236B" d="M20.106,87.959l8.686,5.015c2.855-6.7,10.822-28.864,5.633-31.784c-0.49-0.274-0.982-0.418-1.474-0.459
			C26.231,65.537,20.106,87.959,20.106,87.959z"/>
	</g>
	<path fill="#96602F" d="M50.478,16.439c0,0.416-0.336,0.751-0.75,0.751l0,0c-0.414,0-0.75-0.335-0.75-0.751V5.268
		c0-0.414,0.336-0.75,0.75-0.75l0,0c0.414,0,0.75,0.336,0.75,0.75V16.439z"/>
	<path fill="#C17E48" d="M50.324,15.986c0.252,0.329,0.188,0.799-0.142,1.051l0,0c-0.329,0.252-0.799,0.188-1.051-0.142
		l-6.779-8.881c-0.252-0.329-0.188-0.8,0.141-1.052l0,0c0.33-0.251,0.801-0.188,1.053,0.143L50.324,15.986z"/>
	<path fill="#77471F" d="M49.132,15.986c-0.252,0.329-0.189,0.799,0.141,1.051l0,0c0.329,0.252,0.8,0.188,1.052-0.142l6.778-8.881
		c0.253-0.329,0.189-0.8-0.141-1.052l0,0c-0.33-0.251-0.799-0.188-1.052,0.143L49.132,15.986z"/>
	<polygon fill="#C9C3AD" points="49.728,107.848 80.271,125.482 126.089,99.029 95.544,81.395 	"/>
</g>
</svg>
