<?xml version="1.0" encoding="utf-8"?>
<!-- Generator: Adobe Illustrator 16.0.0, SVG Export Plug-In . SVG Version: 6.00 Build 0)  -->
<!DOCTYPE svg PUBLIC "-//W3C//DTD SVG 1.1//EN" "http://www.w3.org/Graphics/SVG/1.1/DTD/svg11.dtd">
<svg version="1.1" id="Layer_1" xmlns="http://www.w3.org/2000/svg" xmlns:xlink="http://www.w3.org/1999/xlink" x="0px" y="0px"
	 width="130px" height="130px" viewBox="0 0 130 130" enable-background="new 0 0 130 130" xml:space="preserve">
<g>
	<g>
		<path fill="#B23847" d="M74.705,6.292l-0.011,0.01c-1.441-0.904-3.336-0.879-5.411,0.318c-3.276,1.893-6.111,6.176-7.399,10.7
			l-3.322-1.919l-0.002,0.002c-1.42-0.799-3.251-0.725-5.245,0.427c-4.48,2.586-8.146,9.641-8.146,15.676v0.392
			c0,2.602,0.685,4.602,1.818,5.833l-0.003,0.003l0.023,0.022c0.038,0.042,0.08,0.078,0.121,0.118l14.331,14.01l5.421,3.136
			L79.664,9.178L74.705,6.292z"/>
		<path fill="#842438" d="M55.477,35.415L45.299,29.54c-0.08,0.661-0.131,1.32-0.131,1.966v0.392c0,2.602,0.685,4.602,1.818,5.833
			l-0.003,0.003l0.023,0.022c0.038,0.042,0.08,0.078,0.121,0.118l6.021,5.887L55.477,35.415z"/>
		<path fill="#842438" d="M64.554,11.418c-1.142,1.77-2.067,3.797-2.664,5.881l6.993,4.037V45.96l0.451,0.261l7.697-27.6
			L64.554,11.418z"/>
		<path fill="#6B1A2D" d="M65.084,48.167l-18.118-10.46c0.008,0.007,0.014,0.017,0.021,0.023l-0.003,0.003l0.023,0.022
			c0.038,0.042,0.08,0.078,0.121,0.118l14.331,14.01l5.421,3.136l0.405-1.451L65.084,48.167z"/>
		<path fill="#FF76AB" d="M82.85,16.026c0-6.035-3.666-8.856-8.145-6.271c-3.932,2.27-7.235,7.979-7.984,13.423
			c-0.748-4.584-4.052-6.484-7.986-4.214c-4.479,2.587-8.146,9.641-8.146,15.676v0.393c0,2.602,0.685,4.602,1.818,5.833
			l-0.002,0.002l0.021,0.022c0.04,0.042,0.082,0.078,0.121,0.118L66.88,55.02l13.801-29.914l-0.011,0.004
			c1.348-2.736,2.18-5.827,2.18-8.691V16.026z"/>
		<path fill="#F95D91" d="M82.85,16.026c0-6.035-3.666-8.856-8.145-6.271c-3.932,2.27-7.235,7.979-7.984,13.423
			c-0.748-4.584-4.052-6.484-7.986-4.214c-4.479,2.587-8.146,9.641-8.146,15.676v0.393c0,2.602,0.685,4.602,1.818,5.833
			l-0.002,0.002l0.021,0.022c0.04,0.042,0.082,0.078,0.121,0.118l8.494,8.304l19.639-24.207l-0.011,0.004
			c1.348-2.736,2.18-5.827,2.18-8.691V16.026z"/>
		<path fill="#ED4F7D" d="M82.85,16.026c0-6.035-3.666-8.856-8.145-6.271c-3.932,2.27-7.235,7.979-7.984,13.423
			c-0.748-4.584-4.052-6.484-7.986-4.214c-4.479,2.587-8.146,9.641-8.146,15.676v0.393c0,2.602,0.685,4.602,1.818,5.833
			l-0.002,0.002l0.021,0.022c0.04,0.042,0.082,0.078,0.121,0.118"/>
		<path fill="#ED4F7D" d="M80.67,25.109"/>
		<g>
			<path fill="#842438" d="M66.721,23.179c0.277-2.02,0.908-4.073,1.79-5.977h-4.187v1.557
				C65.524,19.599,66.384,21.113,66.721,23.179z"/>
		</g>
	</g>
	<g>
		<g>
			<g>
				<g>
					<g>
						<path fill="#BEE3E5" d="M22.79,115.32c-2.945-4.803-9.967-8.607-15.6-8.454c-5.633,0.151-7.828,4.204-4.88,9.007
							c2.946,4.803,9.968,8.607,15.601,8.455C23.543,124.176,25.74,120.122,22.79,115.32z"/>
						<path fill="#A7CACE" d="M22.326,114.903c-2.745-4.473-9.286-8.018-14.532-7.876c-5.246,0.143-7.292,3.918-4.546,8.391
							c2.744,4.473,9.286,8.018,14.531,7.876C23.025,123.152,25.071,119.377,22.326,114.903z"/>
						<path fill="#97C2C4" d="M3.248,115.418c2.744,4.473,9.286,8.018,14.531,7.876c5.246-0.142,7.292-3.917,4.547-8.391"/>
						<path fill="#6D9B9B" d="M14.758,114.76c-0.513-0.835-1.732-1.495-2.709-1.469c-0.981,0.026-1.361,0.73-0.85,1.564
							c0.512,0.835,1.731,1.495,2.71,1.469C14.889,116.298,15.27,115.594,14.758,114.76z"/>
						<g>
							<path fill="#6D9B9B" d="M12.55,115.597c-0.798-0.433-1.095-1.431-0.661-2.23l13.584-25.067
								c0.434-0.798,1.433-1.096,2.229-0.663c0.8,0.433,1.097,1.433,0.664,2.23L14.78,114.934
								C14.347,115.733,13.349,116.029,12.55,115.597z"/>
						</g>
						<path fill="#7EAAA9" d="M24.69,89.745l-12.802,23.621c-0.434,0.8-0.137,1.798,0.661,2.23l0,0l12.802-23.622
							C25.785,91.177,25.488,90.178,24.69,89.745z"/>
						<g>
							<path fill="#AA2B67" d="M62.11,80.154c-5.263,9.709-26.787,24.354-39.746,17.332C9.409,90.465,9.927,64.435,15.188,54.726
								c5.262-9.71,20.031-11.887,32.987-4.864C61.134,56.883,67.371,70.445,62.11,80.154z"/>
							<path fill="#80B2AF" d="M28.564,73.568c12.76-2.126,23.781-11.116,29.105-16.156c-2.518-2.9-5.718-5.505-9.494-7.551
								c-12.956-7.022-27.726-4.846-32.987,4.864c-2.032,3.751-3.352,9.942-3.465,16.529C13.716,73.278,18.247,75.287,28.564,73.568
								z"/>
							<path opacity="0.4" fill="#6D9B9B" d="M24.207,94.088c-0.799-0.433-1.797-0.136-2.229,0.662l-6.64,12.252
								c0.447,0.315,0.912,0.608,1.397,0.871c0.485,0.264,0.984,0.492,1.494,0.696l6.641-12.251
								C25.302,95.521,25.005,94.521,24.207,94.088z"/>
							<path opacity="0.5" fill="#983CBA" d="M62.11,80.154c2.701-4.986,2.364-10.986-0.351-16.597
								c-2.153-2.075-4.684-3.942-7.543-5.492c-12.955-7.021-27.725-4.845-32.985,4.865c-3.821,7.049-5.14,22.699-0.617,33.434
								c0.555,0.414,1.138,0.789,1.75,1.122C35.323,104.509,56.848,89.863,62.11,80.154z"/>
							<g>
								<path fill="#C43D84" d="M55.665,62.299c-10.079-5.82-26.576-5.82-36.654,0c-4.137,2.39-6.574,5.403-7.314,8.528
									c0.74,3.124,3.178,6.138,7.314,8.527c10.079,5.82,26.575,5.82,36.656,0c4.137-2.389,6.572-5.402,7.312-8.527
									C62.239,67.702,59.804,64.688,55.665,62.299z"/>
								<path fill="#DB4D9E" d="M55.665,62.299c-10.079-5.82-26.576-5.82-36.654,0c-4.137,2.39-6.574,5.403-7.314,8.528"/>
								<path fill="#AA2B67" d="M17.199,78.424c10.179,7.787,28.387,6.751,38.468,0.931c4.137-2.389,6.572-5.402,7.312-8.527
									c-0.74-3.125-3.176-6.139-7.314-8.528"/>
							</g>
							<path opacity="0.4" fill="#6D9B9B" d="M32.922,92.219c-2.249-3.665-7.607-6.568-11.907-6.453
								c-4.297,0.117-5.974,3.21-3.725,6.875c2.25,3.665,7.608,6.569,11.908,6.452C33.495,98.977,35.172,95.884,32.922,92.219z"/>
							<path fill="#C1055A" d="M28.479,96.865"/>
							<path fill="#8CBAB8" d="M52.467,52.609c-1.336-0.994-2.761-1.92-4.291-2.748c-12.956-7.022-27.726-4.846-32.987,4.864"/>
						</g>
					</g>
				</g>
				<circle fill="#AA2B67" cx="22.753" cy="70.826" r="0.632"/>
				<circle opacity="0.5" fill="#983CBA" cx="22.12" cy="86.374" r="1.992"/>
				
					<ellipse transform="matrix(0.8793 0.4764 -0.4764 0.8793 37.4742 -3.2817)" fill="#AA4BD1" cx="25.21" cy="72.278" rx="0.219" ry="0"/>
				<circle opacity="0.5" fill="#983CBA" cx="43.277" cy="85.841" r="1.416"/>
				<circle opacity="0.5" fill="#983CBA" cx="35.898" cy="89.538" r="0.879"/>
				<circle fill="#AA4BD1" cx="26.109" cy="57.691" r="0.439"/>
				<circle fill="#AA2B67" cx="36.807" cy="79.597" r="0.909"/>
				<circle fill="#AA4BD1" cx="25.197" cy="92.224" r="0.098"/>
				<circle opacity="0.5" fill="#983CBA" cx="32.591" cy="91.556" r="1.085"/>
				<circle fill="#DB4D9E" cx="15.331" cy="71.386" r="0.439"/>
			</g>
			<path opacity="0.7" fill="#A7CACE" d="M63.79,59.712c-6.12-9.97-20.696-17.87-32.391-17.554
				c-11.695,0.314-16.256,8.73-10.137,18.701c6.121,9.972,20.697,17.872,32.392,17.555C65.35,78.099,69.91,69.683,63.79,59.712z"/>
			<path opacity="0.3" fill="#6D9B9B" d="M61.409,59.532c-5.396-8.79-18.251-15.757-28.561-15.478
				c-10.312,0.278-14.332,7.698-8.937,16.489c5.397,8.791,18.249,15.757,28.562,15.479C62.784,75.744,66.805,68.325,61.409,59.532z"
				/>
			<path opacity="0.7" fill="#6D9B9B" d="M60.542,61.133c-5.397-8.791-18.25-15.757-28.561-15.479
				c-4.695,0.128-8.08,1.738-9.873,4.281c-1.152,2.891-0.652,6.606,1.804,10.608c5.397,8.791,18.249,15.757,28.562,15.479
				c4.694-0.128,8.079-1.737,9.871-4.282C63.497,68.853,62.998,65.137,60.542,61.133z"/>
			<path fill="#EF59B6" d="M62.345,71.741c0.201-0.503,0.348-1.033,0.447-1.585c-0.913-2.883-3.285-5.64-7.127-7.857
				c-8.639-4.988-21.983-5.688-31.969-2.124c0.071,0.123,0.14,0.246,0.216,0.369c5.397,8.791,18.249,15.757,28.562,15.479
				C57.168,75.896,60.553,74.286,62.345,71.741z"/>
			<path fill="#FF71D0" d="M52.474,76.023c4.694-0.128,8.079-1.737,9.871-4.282c0.201-0.503,0.348-1.033,0.447-1.584
				c0-0.002-0.001-0.005-0.002-0.007c-0.227-0.716-0.545-1.424-0.952-2.118c-0.002-0.003-0.005-0.008-0.007-0.012
				c-0.195-0.332-0.414-0.66-0.65-0.984c-0.02-0.025-0.035-0.051-0.056-0.076c-0.23-0.312-0.481-0.619-0.75-0.923
				c-0.032-0.035-0.063-0.072-0.096-0.107c-0.267-0.296-0.553-0.588-0.857-0.874c-0.04-0.04-0.085-0.079-0.126-0.118
				c-0.308-0.284-0.632-0.564-0.976-0.839c-0.045-0.035-0.092-0.07-0.136-0.105c-0.354-0.277-0.725-0.55-1.116-0.816
				c-0.035-0.023-0.071-0.046-0.106-0.068c-0.413-0.277-0.844-0.548-1.297-0.81l-20.619,8.644
				C40.54,74.189,46.879,76.174,52.474,76.023z"/>
			<path fill="#DB4D9E" d="M53.831,61.342c-0.211-0.1-0.43-0.188-0.645-0.285c-0.428-0.191-0.859-0.379-1.305-0.553
				c-0.266-0.104-0.537-0.2-0.809-0.298c-0.406-0.146-0.819-0.287-1.237-0.42c-0.298-0.095-0.598-0.186-0.901-0.272
				c-0.402-0.116-0.812-0.224-1.224-0.327c-0.322-0.08-0.645-0.162-0.972-0.235c-0.399-0.089-0.805-0.165-1.209-0.242
				c-0.348-0.066-0.69-0.138-1.04-0.195c-0.372-0.061-0.749-0.106-1.123-0.157c-0.864-0.117-1.733-0.212-2.61-0.277
				c-0.205-0.016-0.41-0.038-0.616-0.052c-0.52-0.031-1.04-0.046-1.561-0.06c-0.23-0.007-0.459-0.017-0.688-0.02
				c-0.534-0.006-1.067,0.001-1.601,0.014c-0.207,0.005-0.413,0.01-0.621,0.018c-0.558,0.021-1.113,0.051-1.668,0.092
				c-0.161,0.013-0.32,0.027-0.479,0.041c-0.6,0.051-1.197,0.108-1.791,0.185c-0.055,0.008-0.109,0.016-0.165,0.023
				c-2.747,0.36-5.412,0.977-7.871,1.854c0.071,0.123,0.14,0.246,0.216,0.369c1.491,2.43,3.554,4.719,5.973,6.755l25.78-5
				C55.076,61.958,54.461,61.643,53.831,61.342z"/>
		</g>
		<g>
			<g>
				<g>
					<g>
						<path fill="#BEE3E5" d="M107.208,115.32c2.946-4.803,9.968-8.607,15.6-8.454c5.634,0.151,7.83,4.204,4.881,9.007
							c-2.947,4.803-9.968,8.607-15.601,8.455C106.456,124.176,104.259,120.122,107.208,115.32z"/>
						<path fill="#A7CACE" d="M107.673,114.903c2.745-4.473,9.286-8.018,14.532-7.876c5.245,0.143,7.292,3.918,4.546,8.391
							c-2.744,4.473-9.286,8.018-14.531,7.876C106.974,123.152,104.928,119.377,107.673,114.903z"/>
						<path fill="#97C2C4" d="M126.751,115.418c-2.744,4.473-9.286,8.018-14.531,7.876c-5.246-0.142-7.292-3.917-4.547-8.391"/>
						<path fill="#6D9B9B" d="M115.241,114.76c0.512-0.835,1.732-1.495,2.709-1.469c0.98,0.026,1.361,0.73,0.85,1.564
							c-0.512,0.835-1.731,1.495-2.71,1.469C115.11,116.298,114.729,115.594,115.241,114.76z"/>
						<g>
							<path fill="#6D9B9B" d="M117.448,115.597c0.799-0.433,1.096-1.431,0.662-2.23l-13.584-25.067
								c-0.434-0.798-1.432-1.096-2.229-0.663c-0.8,0.433-1.097,1.433-0.664,2.23l13.586,25.067
								C115.651,115.733,116.65,116.029,117.448,115.597z"/>
						</g>
						<path fill="#7EAAA9" d="M105.31,89.745l12.801,23.621c0.434,0.8,0.137,1.798-0.662,2.23l0,0l-12.801-23.622
							C104.214,91.177,104.511,90.178,105.31,89.745z"/>
						<g>
							<path fill="#AA2B67" d="M67.889,80.154c5.263,9.709,26.787,24.354,39.745,17.332c12.956-7.021,12.438-33.052,7.177-42.761
								c-5.262-9.71-20.032-11.887-32.987-4.864C68.865,56.883,62.628,70.445,67.889,80.154z"/>
							<path fill="#80B2AF" d="M101.435,73.568c-12.76-2.126-23.781-11.116-29.105-16.156c2.518-2.9,5.717-5.505,9.494-7.551
								c12.955-7.022,27.726-4.846,32.987,4.864c2.032,3.751,3.352,9.942,3.466,16.529
								C116.282,73.278,111.752,75.287,101.435,73.568z"/>
							<path opacity="0.4" fill="#6D9B9B" d="M105.792,94.088c0.799-0.433,1.797-0.136,2.229,0.662l6.64,12.252
								c-0.447,0.315-0.912,0.608-1.397,0.871c-0.485,0.264-0.984,0.492-1.494,0.696l-6.641-12.251
								C104.697,95.521,104.993,94.521,105.792,94.088z"/>
							<path opacity="0.5" fill="#983CBA" d="M67.889,80.154c-2.701-4.986-2.364-10.986,0.351-16.597
								c2.153-2.075,4.684-3.942,7.543-5.492c12.955-7.021,27.725-4.845,32.986,4.865c3.82,7.049,5.139,22.699,0.616,33.434
								c-0.555,0.414-1.138,0.789-1.751,1.122C94.676,104.509,73.151,89.863,67.889,80.154z"/>
							<g>
								<path fill="#C43D84" d="M74.334,62.299c10.079-5.82,26.576-5.82,36.654,0c4.137,2.39,6.574,5.403,7.314,8.528
									c-0.74,3.124-3.178,6.138-7.314,8.527c-10.079,5.82-26.575,5.82-36.655,0c-4.138-2.389-6.573-5.402-7.313-8.527
									C67.76,67.702,70.195,64.688,74.334,62.299z"/>
								<path fill="#DB4D9E" d="M74.334,62.299c10.079-5.82,26.576-5.82,36.654,0c4.137,2.39,6.574,5.403,7.314,8.528"/>
								<path fill="#AA2B67" d="M112.8,78.424c-10.179,7.787-28.387,6.751-38.467,0.931c-4.138-2.389-6.573-5.402-7.313-8.527
									c0.74-3.125,3.176-6.139,7.314-8.528"/>
							</g>
							<path opacity="0.4" fill="#6D9B9B" d="M97.077,92.219c2.249-3.665,7.607-6.568,11.907-6.453
								c4.297,0.117,5.974,3.21,3.725,6.875c-2.25,3.665-7.608,6.569-11.908,6.452C96.504,98.977,94.827,95.884,97.077,92.219z"/>
							<path fill="#C1055A" d="M101.52,96.865"/>
							<path fill="#8CBAB8" d="M77.532,52.609c1.336-0.994,2.761-1.92,4.291-2.748c12.955-7.022,27.726-4.846,32.987,4.864"/>
						</g>
					</g>
				</g>
				<circle fill="#AA2B67" cx="107.246" cy="70.826" r="0.632"/>
				<circle opacity="0.5" fill="#983CBA" cx="107.879" cy="86.374" r="1.992"/>
				
					<ellipse transform="matrix(-0.8793 0.4764 -0.4764 -0.8793 231.3544 85.9127)" fill="#AA4BD1" cx="104.789" cy="72.278" rx="0.219" ry="0.001"/>
				<circle opacity="0.5" fill="#983CBA" cx="86.721" cy="85.841" r="1.417"/>
				<circle opacity="0.5" fill="#983CBA" cx="94.101" cy="89.538" r="0.879"/>
				<circle fill="#AA4BD1" cx="103.889" cy="57.691" r="0.439"/>
				<circle fill="#AA2B67" cx="93.192" cy="79.597" r="0.909"/>
				<circle fill="#AA4BD1" cx="104.802" cy="92.224" r="0.098"/>
				<circle opacity="0.5" fill="#983CBA" cx="97.408" cy="91.556" r="1.085"/>
				<circle fill="#DB4D9E" cx="114.668" cy="71.386" r="0.439"/>
			</g>
			<path opacity="0.7" fill="#A7CACE" d="M66.209,59.712c6.12-9.97,20.696-17.87,32.391-17.554
				c11.695,0.314,16.256,8.73,10.137,18.701c-6.121,9.972-20.697,17.872-32.392,17.555C64.649,78.099,60.089,69.683,66.209,59.712z"
				/>
			<path opacity="0.3" fill="#6D9B9B" d="M68.591,59.532c5.396-8.79,18.25-15.757,28.56-15.478
				c10.312,0.278,14.332,7.698,8.937,16.489c-5.397,8.791-18.249,15.757-28.562,15.479C67.215,75.744,63.194,68.325,68.591,59.532z"
				/>
			<path opacity="0.7" fill="#6D9B9B" d="M69.457,61.133c5.397-8.791,18.25-15.757,28.56-15.479
				c4.696,0.128,8.081,1.738,9.873,4.281c1.153,2.891,0.653,6.606-1.803,10.608c-5.397,8.791-18.249,15.757-28.562,15.479
				c-4.694-0.128-8.079-1.737-9.872-4.282C66.502,68.853,67.001,65.137,69.457,61.133z"/>
			<path fill="#EF59B6" d="M67.653,71.741c-0.2-0.503-0.347-1.033-0.446-1.585c0.913-2.883,3.285-5.64,7.127-7.857
				c8.639-4.988,21.983-5.688,31.969-2.124c-0.071,0.123-0.14,0.246-0.216,0.369c-5.397,8.791-18.249,15.757-28.562,15.479
				C72.831,75.896,69.446,74.286,67.653,71.741z"/>
			<path fill="#FF71D0" d="M77.525,76.023c-4.694-0.128-8.079-1.737-9.872-4.282c-0.2-0.503-0.347-1.033-0.446-1.584
				c0-0.002,0.001-0.005,0.002-0.007c0.227-0.716,0.545-1.424,0.952-2.118c0.002-0.003,0.005-0.008,0.007-0.012
				c0.195-0.332,0.413-0.66,0.65-0.984c0.019-0.025,0.035-0.051,0.056-0.076c0.23-0.312,0.481-0.619,0.75-0.923
				c0.031-0.035,0.063-0.072,0.096-0.107c0.267-0.296,0.553-0.588,0.857-0.874c0.04-0.04,0.085-0.079,0.125-0.118
				c0.309-0.284,0.633-0.564,0.977-0.839c0.045-0.035,0.092-0.07,0.136-0.105c0.354-0.277,0.725-0.55,1.116-0.816
				c0.035-0.023,0.071-0.046,0.107-0.068c0.412-0.277,0.842-0.548,1.296-0.81l20.619,8.644
				C89.459,74.189,83.12,76.174,77.525,76.023z"/>
			<path fill="#DB4D9E" d="M76.168,61.342c0.211-0.1,0.43-0.188,0.644-0.285c0.429-0.191,0.861-0.379,1.306-0.553
				c0.266-0.104,0.537-0.2,0.809-0.298c0.406-0.146,0.819-0.287,1.237-0.42c0.298-0.095,0.598-0.186,0.901-0.272
				c0.402-0.116,0.812-0.224,1.224-0.327c0.322-0.08,0.645-0.162,0.972-0.235c0.399-0.089,0.805-0.165,1.209-0.242
				c0.348-0.066,0.69-0.138,1.04-0.195c0.372-0.061,0.749-0.106,1.123-0.157c0.863-0.117,1.733-0.212,2.609-0.277
				c0.206-0.016,0.411-0.038,0.617-0.052c0.52-0.031,1.04-0.046,1.561-0.06c0.23-0.007,0.459-0.017,0.688-0.02
				c0.533-0.006,1.067,0.001,1.601,0.014c0.207,0.005,0.413,0.01,0.62,0.018c0.559,0.021,1.114,0.051,1.669,0.092
				c0.161,0.013,0.32,0.027,0.479,0.041c0.6,0.051,1.197,0.108,1.791,0.185c0.055,0.008,0.109,0.016,0.165,0.023
				c2.747,0.36,5.411,0.977,7.871,1.854c-0.071,0.123-0.14,0.246-0.216,0.369c-1.491,2.43-3.554,4.719-5.973,6.755l-25.78-5
				C74.923,61.958,75.538,61.643,76.168,61.342z"/>
		</g>
	</g>
</g>
</svg>
