<?xml version="1.0" encoding="utf-8"?>
<!-- Generator: Adobe Illustrator 16.0.0, SVG Export Plug-In . SVG Version: 6.00 Build 0)  -->
<!DOCTYPE svg PUBLIC "-//W3C//DTD SVG 1.1//EN" "http://www.w3.org/Graphics/SVG/1.1/DTD/svg11.dtd">
<svg version="1.1" id="Layer_1" xmlns="http://www.w3.org/2000/svg" xmlns:xlink="http://www.w3.org/1999/xlink" x="0px" y="0px"
	 width="130px" height="130px" viewBox="0 0 130 130" enable-background="new 0 0 130 130" xml:space="preserve">
<g>
	<g>
		<g>
			<path fill="#9B250A" d="M106.17,15.598L87.27,4.805c-0.916-0.621-1.877-1.175-2.881-1.646l-0.043-0.025l-0.004,0.006
				C76.404-0.57,65.9,0.426,54.418,7.053C29.828,21.252,9.719,56.095,9.719,84.49c0,14.989,5.605,25.295,14.514,29.602
				l18.557,10.738l7.061-12.164c1.502-0.69,3.027-1.479,4.568-2.369C79.01,96.1,99.127,61.268,99.127,32.881
				c0-1.654-0.074-3.246-0.209-4.786L106.17,15.598z"/>
			<g>
				<path fill="#7F0404" d="M9.756,86.044c0.379,14.141,5.883,23.893,14.477,28.048l18.557,10.738l7.061-12.164
					c1.055-0.484,2.125-1.037,3.199-1.619L9.756,86.044z"/>
			</g>
			<path fill="#C92B00" d="M87.27,4.805c-0.916-0.621-1.877-1.175-2.881-1.646l-0.043-0.025l-0.004,0.006
				c-7.885-3.684-18.301-2.72-29.689,3.787c0.543,0.326,1.102,0.629,1.676,0.906L74.885,18.57l27.652,3.287l3.633-6.26L87.27,4.805z
				"/>
			<g>
				<path fill="#A00000" d="M54.596,128.439c-15.43-0.001-25.398-12.729-25.398-32.423c0-28.646,20.18-63.604,44.984-77.924
					c7.049-4.069,13.822-6.133,20.135-6.133c15.434,0,25.406,12.731,25.406,32.435c0,28.639-20.178,63.589-44.98,77.908
					c-7.051,4.072-13.828,6.137-20.145,6.137C54.596,128.439,54.598,128.439,54.596,128.439z"/>
				<path fill="#FF794A" d="M94.316,12.52c14.695,0,24.846,11.71,24.846,31.875c0,28.396-20.111,63.228-44.699,77.424
					c-7.127,4.114-13.875,6.061-19.867,6.061c-14.691,0-24.84-11.703-24.84-31.862c0-28.396,20.113-63.241,44.707-77.439
					C81.582,14.465,88.326,12.52,94.316,12.52 M94.316,11.4c-6.412,0-13.281,2.088-20.414,6.207
					c-24.959,14.41-45.266,49.584-45.266,78.409c0,20.036,10.189,32.983,25.959,32.983c6.416,0,13.289-2.091,20.428-6.212
					c24.955-14.409,45.258-49.576,45.258-78.394C120.281,24.352,110.09,11.4,94.316,11.4L94.316,11.4z"/>
			</g>
		</g>
	</g>
	<g>
		<g enable-background="new    ">
			<g>
				<path fill="#FF4800" d="M74.42,19.896l0.029,10.26c19.189-11.078,34.793-2.172,34.857,19.879
					c0.061,22.052-15.441,48.92-34.631,60l0.029,10.261c-24.127,13.928-43.75,2.743-43.828-24.979
					c0.078,27.723,19.701,38.907,43.828,24.979c24.127-13.933,43.621-47.7,43.543-75.422S98.547,5.967,74.42,19.896"/>
				<path fill="#C92B00" d="M74.42,19.896c-24.127,13.928-43.621,47.697-43.543,75.42s19.701,38.907,43.828,24.979l-0.029-10.261
					c-19.203,11.088-34.809,2.179-34.869-19.871c-0.064-22.051,15.439-48.92,34.643-60.008L74.42,19.896"/>
				<path fill="#FF794A" d="M74.449,30.156l0.018,5.943l5.363-3.096l0.008,2.498c12.869-4.553,22.605,2.848,22.65,18.471
					s-9.619,34.24-22.473,44.542l0.006,2.479l-5.361,3.098l0.016,5.944c-19.203,11.088-34.809,2.179-34.869-19.871
					c0.061,22.05,15.666,30.959,34.869,19.871c19.189-11.08,34.691-37.948,34.631-60C109.242,27.984,93.639,19.078,74.449,30.156"/>
				<path fill="#EF683F" d="M74.449,30.156C55.246,41.244,39.742,68.113,39.807,90.164c0.061,22.05,15.666,30.959,34.869,19.871
					l-0.016-5.944l-5.365,3.096l-0.006-2.479c-12.873,4.553-22.621-2.857-22.668-18.479c-0.043-15.625,9.633-34.236,22.488-44.535
					l-0.008-2.498l5.256-3.032l0.109-0.063L74.449,30.156"/>
				<path fill="#B21010" d="M86.465,81.615l-1.527-6.047l5.385,0.457v0.016c0.318,0.023,0.607,0.127,0.842,0.352
					c0.895,0.824,0.666,2.867-0.496,4.563c-0.48,0.692-1.043,1.216-1.598,1.536c-0.807,0.465-1.6,0.506-2.121,0.013
					c-0.236-0.229-0.4-0.526-0.471-0.897L86.465,81.615 M92.393,69.244l-4.443-2.426l6.197-3.768v0.016
					c0.061-0.041,0.123-0.077,0.184-0.113c0.311-0.178,0.619-0.291,0.93-0.323c1.359-0.171,2.037,1.208,1.506,3.076
					c-0.406,1.433-1.402,2.745-2.459,3.353c-0.322,0.186-0.648,0.31-0.965,0.35c-0.371,0.053-0.688-0.019-0.936-0.172L92.393,69.244
					 M92.396,51.59c0.262-0.451,0.576-0.869,0.932-1.232c0.307-0.306,0.619-0.547,0.926-0.727c1.082-0.623,2.092-0.447,2.48,0.559
					c0.514,1.301-0.182,3.453-1.551,4.83c-0.299,0.299-0.598,0.527-0.898,0.699c-0.07,0.041-0.141,0.078-0.213,0.111v0.019
					l-6.201,3.231l4.512-7.498L92.396,51.59 M84.857,52.674l1.504-7.783l0.014-0.009c0.066-0.444,0.23-0.935,0.463-1.433
					c0.523-1.093,1.314-1.967,2.115-2.431c0.557-0.319,1.121-0.442,1.602-0.3c1.166,0.338,1.393,2.133,0.52,3.979
					c-0.234,0.482-0.521,0.931-0.85,1.325l0.002,0.018L84.857,52.674 M79.838,35.502l0.057,20.82
					c3.213,0.277,5.381,3.019,5.395,7.58c0.014,4.564-2.133,9.793-5.332,13.772l0.059,20.84
					c12.854-10.302,22.518-28.919,22.473-44.542S92.707,30.949,79.838,35.502"/>
				<path fill="#A00000" d="M60.162,99.182c-0.553,0.32-1.113,0.443-1.59,0.306c-1.168-0.351-1.408-2.123-0.535-3.97
					c0.234-0.497,0.521-0.932,0.85-1.328v-0.014l5.354-6.659l-1.477,7.784l-0.014,0.008c-0.08,0.457-0.23,0.936-0.477,1.444
					C61.756,97.842,60.965,98.72,60.162,99.182 M54.988,85.676l0.014-0.023l6.186-3.385L56.785,89.8l-0.014,0.008
					c-0.26,0.45-0.574,0.886-0.93,1.249c-0.316,0.327-0.645,0.58-0.967,0.768c-1.059,0.611-2.068,0.459-2.482-0.5
					c-0.525-1.26,0.129-3.404,1.486-4.802c0.307-0.325,0.627-0.573,0.932-0.752C54.869,85.736,54.93,85.703,54.988,85.676
					 M54.814,78.508c-0.291,0.168-0.59,0.285-0.891,0.331c-1.373,0.206-2.09-1.128-1.588-3.017c0.393-1.455,1.4-2.796,2.477-3.42
					c0.307-0.176,0.615-0.293,0.92-0.339c0.371-0.056,0.688-0.002,0.949,0.147l0.012-0.023l4.527,2.279l-6.186,3.92l-0.014-0.01
					C54.953,78.425,54.885,78.467,54.814,78.508 M64.188,64.609l-5.385-0.426v-0.017c-0.318-0.023-0.607-0.142-0.854-0.345
					c-0.881-0.835-0.654-2.891,0.508-4.574c0.471-0.692,1.033-1.217,1.592-1.539c0.799-0.463,1.594-0.503,2.113-0.014
					c0.234,0.227,0.4,0.527,0.484,0.888l0.014-0.007L64.188,64.609 M69.109,41.693c-12.855,10.299-22.531,28.91-22.488,44.535
					c0.047,15.621,9.795,23.031,22.668,18.479L69.23,83.871c-3.213-0.283-5.381-3.02-5.395-7.584
					c-0.014-4.559,2.133-9.792,5.332-13.773L69.109,41.693"/>
				<path fill="#EF683F" d="M69.23,83.871l0.059,20.836l0.006,2.479l5.365-3.096l5.361-3.098l-5.471,3.161l-0.062-21.671
					C72.574,83.564,70.781,84.002,69.23,83.871 M74.357,36.163l-5.256,3.032l0.008,2.498l0.059,20.82
					c1.547-1.922,3.336-3.552,5.25-4.678L74.357,36.163"/>
				<path fill="#FF794A" d="M79.957,77.675c-1.576,1.962-3.406,3.616-5.359,4.745c-0.037,0.021-0.072,0.043-0.109,0.063
					l0.062,21.671l5.471-3.161l-0.006-2.479L79.957,77.675 M79.83,33.004L74.467,36.1l-0.109,0.063l0.061,21.673
					c0.037-0.022,0.072-0.044,0.109-0.063c1.955-1.129,3.787-1.587,5.367-1.45l-0.057-20.82L79.83,33.004"/>
				<path fill="#FF794A" d="M74.527,57.772l0.07,24.647c-5.926,3.422-10.742,0.68-10.762-6.133c0.014,4.564,2.182,7.301,5.395,7.584
					c1.551,0.131,3.344-0.307,5.258-1.388c0.037-0.021,0.072-0.042,0.109-0.063c1.953-1.129,3.783-2.783,5.359-4.745
					c3.199-3.979,5.346-9.208,5.332-13.772c-0.014-4.562-2.182-7.303-5.395-7.58C78.314,56.186,76.482,56.644,74.527,57.772"/>
				<path fill="#EF683F" d="M74.527,57.772c-0.037,0.02-0.072,0.041-0.109,0.063c-1.914,1.126-3.703,2.756-5.25,4.678
					c-3.199,3.981-5.346,9.215-5.332,13.773c0.02,6.812,4.836,9.555,10.762,6.133L74.527,57.772"/>
				<path fill="#FFCD50" d="M84.938,75.568l1.527,6.047l0.014-0.008c0.07,0.371,0.234,0.669,0.471,0.897
					c0.521,0.493,1.314,0.452,2.121-0.013c0.555-0.32,1.117-0.844,1.598-1.536c1.162-1.696,1.391-3.739,0.496-4.563
					c-0.234-0.225-0.523-0.328-0.842-0.352v-0.016L84.938,75.568"/>
				<path fill="#FFCD50" d="M94.146,63.051l-6.197,3.768l4.443,2.426l0.014-0.008c0.248,0.153,0.564,0.225,0.936,0.172
					c0.316-0.04,0.643-0.164,0.965-0.35c1.057-0.607,2.053-1.92,2.459-3.353c0.531-1.868-0.146-3.247-1.506-3.076
					c-0.311,0.032-0.619,0.146-0.93,0.323c-0.061,0.036-0.123,0.072-0.184,0.113V63.051"/>
				<path fill="#FFCD50" d="M94.254,49.631c-0.307,0.18-0.619,0.421-0.926,0.727c-0.355,0.363-0.67,0.781-0.932,1.232l-0.014-0.008
					l-4.512,7.498l6.201-3.231V55.83c0.072-0.033,0.143-0.07,0.213-0.111c0.301-0.172,0.6-0.4,0.898-0.699
					c1.369-1.377,2.064-3.529,1.551-4.83C96.346,49.184,95.336,49.008,94.254,49.631"/>
				<path fill="#FFCD50" d="M88.953,41.019c-0.801,0.464-1.592,1.338-2.115,2.431c-0.232,0.498-0.396,0.988-0.463,1.433
					l-0.014,0.009l-1.504,7.783l5.369-6.634l-0.002-0.018c0.328-0.395,0.615-0.843,0.85-1.325c0.873-1.846,0.646-3.641-0.52-3.979
					C90.074,40.576,89.51,40.699,88.953,41.019"/>
				<path fill="#FFCD50" d="M64.24,87.517l-5.354,6.659v0.014c-0.328,0.396-0.615,0.831-0.85,1.328
					c-0.873,1.847-0.633,3.619,0.535,3.97c0.477,0.138,1.037,0.015,1.59-0.306c0.803-0.462,1.594-1.34,2.111-2.429
					c0.246-0.509,0.396-0.987,0.477-1.444l0.014-0.008L64.24,87.517"/>
				<path fill="#FFCD50" d="M55.002,85.652l-0.014,0.023c-0.059,0.027-0.119,0.061-0.178,0.095
					c-0.305,0.179-0.625,0.427-0.932,0.752c-1.357,1.397-2.012,3.542-1.486,4.802c0.414,0.959,1.424,1.111,2.482,0.5
					c0.322-0.188,0.65-0.44,0.967-0.768c0.355-0.363,0.67-0.799,0.93-1.249l0.014-0.008l4.402-7.532L55.002,85.652"/>
				<path fill="#FFCD50" d="M54.812,72.402c-1.076,0.624-2.084,1.965-2.477,3.42c-0.502,1.889,0.215,3.223,1.588,3.017
					c0.301-0.046,0.6-0.163,0.891-0.331c0.07-0.041,0.139-0.083,0.207-0.131l0.014,0.01l6.186-3.92l-4.527-2.279l-0.012,0.023
					c-0.262-0.149-0.578-0.203-0.949-0.147C55.428,72.109,55.119,72.227,54.812,72.402"/>
				<path fill="#FFCD50" d="M60.049,57.709c-0.559,0.322-1.121,0.847-1.592,1.539c-1.162,1.684-1.389,3.739-0.508,4.574
					c0.246,0.203,0.535,0.321,0.854,0.345v0.017l5.385,0.426l-1.527-6.033l-0.014,0.007c-0.084-0.36-0.25-0.661-0.484-0.888
					C61.643,57.206,60.848,57.246,60.049,57.709"/>
			</g>
		</g>
	</g>
</g>
</svg>
