<?xml version="1.0" encoding="utf-8"?>
<!-- Generator: Adobe Illustrator 16.0.0, SVG Export Plug-In . SVG Version: 6.00 Build 0)  -->
<!DOCTYPE svg PUBLIC "-//W3C//DTD SVG 1.1//EN" "http://www.w3.org/Graphics/SVG/1.1/DTD/svg11.dtd">
<svg version="1.1" id="Layer_1" xmlns="http://www.w3.org/2000/svg" xmlns:xlink="http://www.w3.org/1999/xlink" x="0px" y="0px"
	 width="130px" height="130px" viewBox="0 0 130 130" enable-background="new 0 0 130 130" xml:space="preserve">
<g>
	<g>
		<polygon fill="#BA2406" points="2.436,83.061 64.999,119.183 64.999,88.221 29.137,47.003 2.436,52.099 		"/>
		<polyline fill="#912310" points="64.999,88.221 29.137,47.003 2.436,52.099 		"/>
		<polygon fill="#912310" points="64.999,88.221 127.564,52.099 127.564,83.061 64.999,119.183 		"/>
		<polyline fill="#77170A" points="64.999,119.183 64.999,88.221 127.564,52.099 		"/>
		<polygon fill="#08BA83" points="29.137,47.003 91.814,10.817 127.564,52.099 64.999,88.221 		"/>
		<polyline fill="#07A578" points="64.999,88.221 29.137,47.003 91.814,10.817 		"/>
		<polygon fill="#1AE576" points="91.814,10.817 64.999,15.978 2.436,52.099 29.137,47.003 		"/>
		<polyline fill="#12DB71" points="2.436,52.099 29.137,47.003 91.814,10.817 		"/>
	</g>
	<g>
		<g>
			<polygon fill="#414F48" points="8.607,57.845 32.121,71.54 32.121,99.643 8.607,86.065 			"/>
			<polygon fill="#323F38" points="9.706,86.7 32.121,99.643 32.121,71.54 9.706,58.485 			"/>
			<polyline fill="#1A231E" points="9.706,86.7 32.121,99.643 32.121,71.54 			"/>
			<polygon fill="#04B75D" points="9.706,76.241 32.121,89.183 32.121,71.54 9.706,58.485 			"/>
			<polyline fill="#07A578" points="32.121,89.183 32.121,71.54 9.706,58.485 			"/>
			<polygon fill="#12DB71" points="9.706,74.825 32.121,87.769 32.121,86.89 9.706,73.946 			"/>
			<polygon fill="#07A578" points="18.015,81.038 22.242,83.479 22.242,80.446 18.015,78.743 			"/>
			<polygon fill="#12DB71" points="9.706,73.032 32.121,85.974 32.121,85.096 9.706,72.153 			"/>
			<polygon fill="#12DB71" points="9.706,71.238 32.121,84.181 32.121,83.3 9.706,70.358 			"/>
			<polygon fill="#12DB71" points="9.706,69.443 32.121,82.386 32.121,81.508 9.706,68.564 			"/>
			<polygon fill="#12DB71" points="9.706,67.649 32.121,80.592 32.121,79.714 9.706,66.771 			"/>
			<polygon fill="#12DB71" points="9.706,65.857 32.121,78.798 32.121,77.919 9.706,64.978 			"/>
			<polygon fill="#12DB71" points="9.706,64.062 32.121,77.005 32.121,76.126 9.706,63.183 			"/>
			<polygon fill="#12DB71" points="9.706,62.27 32.121,75.211 32.121,74.331 9.706,61.39 			"/>
			<polygon fill="#12DB71" points="9.706,60.474 32.121,73.417 32.121,72.538 9.706,59.597 			"/>
		</g>
		<g>
			<polygon fill="#AECACC" points="17.471,78.504 17.471,79.729 21.167,81.864 21.167,80.638 			"/>
			<polygon fill="#BFDCDD" points="18.548,77.896 17.471,78.519 21.165,80.653 22.242,80.028 			"/>
			<g>
				<polyline fill="#95AEAF" points="22.242,80.028 21.167,80.65 21.167,81.864 22.245,81.243 				"/>
				<polyline fill="#BFDCDD" points="21.167,80.517 21.167,80.65 22.242,80.028 22.127,79.962 				"/>
			</g>
		</g>
	</g>
	<g>
		<g>
			<polygon fill="#414F48" points="33.137,71.937 56.65,85.632 56.65,113.735 33.137,100.157 			"/>
			<polygon fill="#323F38" points="34.236,100.793 56.65,113.735 56.65,85.632 34.236,72.577 			"/>
			<polyline fill="#1A231E" points="34.236,100.793 56.65,113.735 56.65,85.632 			"/>
			<polygon fill="#04B75D" points="34.236,90.333 56.65,103.274 56.65,85.632 34.236,72.577 			"/>
			<polyline fill="#07A578" points="56.65,103.274 56.65,85.632 34.236,72.577 			"/>
			<polygon fill="#12DB71" points="34.236,88.919 56.65,101.861 56.65,100.981 34.236,88.039 			"/>
			<polygon fill="#07A578" points="42.544,95.13 46.771,97.571 46.771,94.539 42.544,92.836 			"/>
			<polygon fill="#12DB71" points="34.236,87.124 56.65,100.066 56.65,99.188 34.236,86.246 			"/>
			<polygon fill="#12DB71" points="34.236,85.331 56.65,98.272 56.65,97.394 34.236,84.451 			"/>
			<polygon fill="#12DB71" points="34.236,83.536 56.65,96.478 56.65,95.601 34.236,82.657 			"/>
			<polygon fill="#12DB71" points="34.236,81.743 56.65,94.685 56.65,93.806 34.236,80.864 			"/>
			<polygon fill="#12DB71" points="34.236,79.949 56.65,92.892 56.65,92.013 34.236,79.069 			"/>
			<polygon fill="#12DB71" points="34.236,78.155 56.65,91.098 56.65,90.219 34.236,77.275 			"/>
			<polygon fill="#12DB71" points="34.236,76.362 56.65,89.304 56.65,88.424 34.236,75.481 			"/>
			<polygon fill="#12DB71" points="34.236,74.567 56.65,87.509 56.65,86.63 34.236,73.688 			"/>
		</g>
		<g>
			<polygon fill="#AECACC" points="42,92.597 42,93.822 45.695,95.956 45.695,94.729 			"/>
			<polygon fill="#BFDCDD" points="43.075,91.989 42,92.611 45.695,94.745 46.771,94.12 			"/>
			<g>
				<polyline fill="#95AEAF" points="46.771,94.12 45.695,94.743 45.695,95.956 46.774,95.335 				"/>
				<polyline fill="#BFDCDD" points="45.695,94.609 45.695,94.743 46.771,94.12 46.657,94.055 				"/>
			</g>
		</g>
	</g>
	<g>
		<polygon fill="#29CDFF" points="37.917,48.479 46.235,43.678 56.325,55.409 48.008,60.212 		"/>
		<polyline fill="#61E1FF" points="48.008,60.212 37.917,48.479 46.235,43.678 		"/>
		<polygon fill="#0FA4EF" points="55.8,55.712 48.008,60.212 38.442,49.09 46.235,44.591 		"/>
		<polyline fill="#0986D3" points="48.008,60.212 38.442,49.09 46.235,44.591 		"/>
	</g>
	<g>
		<polygon fill="#29CDFF" points="49.354,41.989 57.672,37.188 67.762,48.92 59.444,53.722 		"/>
		<polyline fill="#61E1FF" points="59.444,53.722 49.354,41.989 57.672,37.188 		"/>
		<polygon fill="#0FA4EF" points="67.236,49.223 59.444,53.722 49.879,42.601 57.672,38.102 		"/>
		<polyline fill="#0986D3" points="59.444,53.722 49.879,42.601 57.672,38.102 		"/>
	</g>
	<g>
		<polygon fill="#29CDFF" points="60.79,35.499 69.109,30.698 79.199,42.431 70.881,47.231 		"/>
		<polyline fill="#61E1FF" points="70.881,47.231 60.79,35.499 69.109,30.698 		"/>
		<polygon fill="#0FA4EF" points="78.674,42.733 70.881,47.231 61.315,36.11 69.109,31.612 		"/>
		<polyline fill="#0986D3" points="70.881,47.231 61.315,36.11 69.109,31.612 		"/>
	</g>
	<g>
		<polygon fill="#29CDFF" points="72.227,29.011 80.545,24.208 90.635,35.94 82.318,40.742 		"/>
		<polyline fill="#61E1FF" points="82.318,40.742 72.227,29.011 80.545,24.208 		"/>
		<polygon fill="#0FA4EF" points="90.109,36.243 82.318,40.742 72.754,29.62 80.545,25.122 		"/>
		<polyline fill="#0986D3" points="82.318,40.742 72.754,29.62 80.545,25.122 		"/>
	</g>
	<g>
		<polygon fill="#29CDFF" points="83.664,22.521 91.982,17.718 102.072,29.45 93.756,34.253 		"/>
		<polyline fill="#61E1FF" points="93.756,34.253 83.664,22.521 91.982,17.718 		"/>
		<polygon fill="#0FA4EF" points="101.547,29.754 93.756,34.253 84.189,23.131 91.982,18.633 		"/>
		<polyline fill="#0986D3" points="93.756,34.253 84.189,23.131 91.982,18.633 		"/>
	</g>
</g>
</svg>
