<?xml version="1.0" encoding="utf-8"?>
<!-- Generator: Adobe Illustrator 16.0.0, SVG Export Plug-In . SVG Version: 6.00 Build 0)  -->
<!DOCTYPE svg PUBLIC "-//W3C//DTD SVG 1.1//EN" "http://www.w3.org/Graphics/SVG/1.1/DTD/svg11.dtd">
<svg version="1.1" id="Layer_1" xmlns="http://www.w3.org/2000/svg" xmlns:xlink="http://www.w3.org/1999/xlink" x="0px" y="0px"
	 width="130px" height="130px" viewBox="0 0 130 130" enable-background="new 0 0 130 130" xml:space="preserve">
<g>
	<g>
		<g>
			<polygon fill="#20253F" points="47.957,4.919 25.258,38.023 25.257,45.994 47.957,32.89 			"/>
			<polyline fill="#121426" points="47.957,4.919 25.258,38.023 25.257,45.994 			"/>
			<polygon fill="#42517C" points="25.258,38.023 23.366,36.932 23.366,44.903 25.251,45.991 			"/>
			<polygon fill="#4F6499" points="47.957,4.919 46.065,3.827 23.366,36.932 25.258,38.023 			"/>
		</g>
		<g>
			<g>
				<polygon fill="#20253F" points="19.529,49.283 34.538,57.95 34.538,74.716 19.529,66.048 				"/>
				<polyline fill="#121426" points="19.529,49.283 34.538,57.95 34.538,74.716 				"/>
				<polygon points="34.538,57.95 34.538,74.716 45.267,68.524 45.267,51.76 				"/>
			</g>
			<polygon fill="#42517C" points="34.538,57.95 45.267,51.76 30.252,43.091 19.529,49.283 			"/>
			<polyline fill="#344068" points="19.529,49.283 34.538,57.95 45.267,51.76 			"/>
			<polyline fill="#344068" points="19.529,49.283 34.538,57.95 45.267,51.76 			"/>
			<polygon fill="#20253F" points="19.138,49.093 30.361,55.574 30.361,42.617 29.976,42.395 19.138,48.653 			"/>
		</g>
		<g>
			<g>
				<polygon fill="#121426" points="80.974,70.249 108.98,75.085 108.98,89.659 80.974,73.485 				"/>
				<polygon fill="#4C66A5" points="108.98,75.085 108.98,89.659 129,78.106 129,74.87 				"/>
			</g>
			<polygon fill="#42517C" points="108.98,75.085 129,74.87 100.984,58.694 80.974,70.249 			"/>
			<polyline fill="#344068" points="80.974,70.249 108.98,86.423 129,74.87 			"/>
		</g>
		<g>
			<g>
				<polygon fill="#20253F" points="29.43,67.13 51.342,79.783 51.342,104.259 29.43,91.604 				"/>
				<polyline fill="#121426" points="29.43,67.13 51.342,79.783 51.342,104.259 				"/>
				<polygon fill="#210803" points="51.342,79.783 51.342,104.259 67.004,95.221 67.004,70.745 				"/>
			</g>
			<polygon fill="#42517C" points="51.342,79.783 67.004,70.745 45.085,58.09 29.43,67.13 			"/>
			<polyline fill="#344068" points="29.43,67.13 51.342,79.783 67.004,70.745 			"/>
		</g>
		<g>
			<g>
				<polygon fill="#20253F" points="45.288,51.649 89.27,77.047 89.27,126.173 45.288,100.774 				"/>
				<polyline fill="#121426" points="45.288,51.649 89.27,77.047 89.27,126.173 				"/>
				<polygon points="89.27,77.047 89.27,126.173 120.704,108.032 120.704,58.907 				"/>
				<polygon fill="#D3E9F4" points="89.27,122.196 120.704,104.057 120.704,94.394 89.27,112.533 				"/>
				<polygon fill="#A9D3E0" points="89.27,116.093 120.704,97.952 120.704,94.394 89.27,112.533 				"/>
			</g>
			<polygon fill="#42517C" points="89.27,77.047 120.704,58.907 76.712,33.507 45.288,51.649 			"/>
			<polyline fill="#344068" points="45.288,51.649 89.27,77.047 120.704,58.907 			"/>
			<polygon fill="#FFFFFF" points="61.759,79.25 76.519,87.772 76.519,104.259 61.759,95.735 			"/>
			<polyline fill="#D3E9F4" points="61.759,79.25 76.519,87.772 76.519,104.259 			"/>
			<polygon fill="#121426" points="69.377,91.754 73.762,94.286 73.762,99.185 69.377,96.652 			"/>
			<polygon points="89.167,57.879 92.075,56.2 88.004,53.85 85.097,55.528 			"/>
		</g>
		<polygon fill="#FFFFFF" points="77.121,105.523 77.121,115.187 89.27,122.196 89.27,112.533 		"/>
		<polygon fill="#D3E9F4" points="77.121,109.082 89.27,116.093 89.27,112.533 77.121,105.523 		"/>
		<g>
			<polygon fill="#20253F" points="25.59,37.827 2.892,30.933 2.891,58.903 25.59,45.798 			"/>
			<polyline fill="#121426" points="25.59,37.827 2.892,30.933 2.891,58.903 			"/>
			<polygon fill="#42517C" points="2.892,30.933 1,29.841 1,57.812 2.885,58.9 			"/>
			<polygon fill="#4F6499" points="25.59,37.827 23.699,36.735 1,29.841 2.892,30.933 			"/>
		</g>
		<g>
			<g>
				<polygon fill="#121426" points="19.445,105.197 47.452,110.033 47.452,124.607 19.445,108.434 				"/>
				<polygon fill="#4C66A5" points="47.452,110.033 47.452,124.607 67.472,113.056 67.472,109.818 				"/>
			</g>
			<polygon fill="#42517C" points="47.452,110.033 67.472,109.818 39.456,93.644 19.445,105.197 			"/>
			<polyline fill="#344068" points="19.445,105.197 47.452,121.371 67.472,109.818 			"/>
		</g>
	</g>
	<g>
		<g>
			<g>
				<polygon fill="#1A7EE2" points="86.516,48.984 89.254,50.565 89.254,56.864 86.516,55.282 				"/>
				<polygon fill="#1C9DF4" points="91.992,48.984 89.254,50.565 89.254,56.864 91.992,55.282 				"/>
				<polygon fill="#0658BA" points="86.516,48.984 86.516,54.146 89.245,55.727 89.245,52.622 89.245,52.614 89.245,50.561 				"/>
				<polygon fill="#43D3FF" points="89.257,52.614 89.257,52.622 89.257,55.727 91.992,54.142 91.992,48.984 89.257,50.563 				"/>
				<g>
					<polygon fill="#20253F" points="86.516,75.466 89.245,77.047 89.245,73.942 89.245,73.935 89.245,56.295 86.516,54.719 					
						"/>
					<polygon fill="#20253F" points="89.257,56.298 89.257,73.935 89.257,73.942 89.257,77.047 91.992,75.462 91.992,54.719 					
						"/>
				</g>
			</g>
		</g>
		<g>
			<g>
				<polyline fill="#444738" points="81.19,43.912 81.19,40.808 89.245,45.464 				"/>
				<path fill="#A2CE02" d="M89.245,45.464"/>
			</g>
			<g>
				<polygon fill="#1A7EE2" points="81.19,40.808 81.19,43.912 81.19,47.017 89.245,51.681 89.245,48.576 89.245,48.569 
					89.245,45.464 				"/>
				<polyline fill="#0B66D3" points="89.245,51.681 89.245,48.576 89.245,48.569 89.245,45.464 81.19,40.808 				"/>
				<path fill="#C49427" d="M89.245,48.569"/>
				<polygon fill="#31B5FF" points="89.257,45.464 89.257,48.569 89.257,48.576 89.257,51.681 97.312,47.017 97.312,43.912 
					97.312,40.808 				"/>
				<polyline fill="#1C9DF4" points="97.312,43.912 97.312,40.808 89.257,45.464 89.257,48.569 89.257,48.576 89.257,51.681 				"/>
			</g>
			<g>
				<path fill="#C49427" d="M89.245,51.674"/>
			</g>
			<polygon fill="#19B8F7" points="81.19,40.808 89.245,45.464 92.481,43.599 97.324,40.808 89.257,36.149 			"/>
		</g>
	</g>
	<g>
		<g>
			<g>
				<polygon fill="#1A7EE2" points="85.026,30.731 89.252,33.173 89.252,42.892 85.026,40.45 				"/>
				<polygon fill="#1C9DF4" points="93.478,30.731 89.252,33.173 89.252,42.892 93.478,40.45 				"/>
				<polygon fill="#0658BA" points="85.026,30.731 85.026,38.697 89.238,41.136 89.238,36.346 89.238,36.334 89.238,33.164 				"/>
				<polygon fill="#43D3FF" points="89.257,36.334 89.257,36.346 89.257,41.136 93.478,38.69 93.478,30.731 89.257,33.169 				"/>
			</g>
		</g>
		<g>
			<g>
				<polyline fill="#444738" points="76.809,22.904 76.809,18.112 89.238,25.3 				"/>
				<path fill="#A2CE02" d="M89.238,25.3"/>
			</g>
			<g>
				<polygon fill="#1A7EE2" points="76.809,18.112 76.809,22.904 76.809,27.695 89.238,34.893 89.238,30.102 89.238,30.091 
					89.238,25.3 				"/>
				<polyline fill="#0B66D3" points="89.238,34.893 89.238,30.102 89.238,30.091 89.238,25.3 76.809,18.112 				"/>
				<path fill="#C49427" d="M89.238,30.091"/>
				<polygon fill="#31B5FF" points="89.257,25.3 89.257,30.091 89.257,30.102 89.257,34.893 101.687,27.695 101.687,22.904 
					101.687,18.112 				"/>
				<polyline fill="#1C9DF4" points="101.687,22.904 101.687,18.112 89.257,25.3 89.257,30.091 89.257,30.102 89.257,34.893 				"/>
			</g>
			<g>
				<path fill="#C49427" d="M89.238,34.882"/>
			</g>
			<polygon fill="#19B8F7" points="76.809,18.112 89.238,25.3 94.232,22.42 101.706,18.112 89.257,10.925 			"/>
		</g>
	</g>
</g>
</svg>
